<svg width="24" height="24" viewBox="0 0 24 24" fill="none" xmlns="http://www.w3.org/2000/svg">
<path fill-rule="evenodd" clip-rule="evenodd" d="M16.5482 3H7.64822C5.04822 3 3.04822 5 3.04822 7.5V16.4C3.04822 19 5.04822 21 7.54822 21H16.4482C18.9482 21 20.9482 19 20.9482 16.5V7.6C21.0482 5 19.0482 3 16.5482 3ZM19.0482 16.5C19.0482 17.9 17.8482 19.1 16.4482 19.1H7.54822C6.14822 19 5.04822 17.9 5.04822 16.5V7.6C5.04822 6.1 6.14822 5 7.54822 5H16.4482C17.8482 5 19.0482 6.2 19.0482 7.6V16.5ZM16.8482 6.09998C16.2482 6.09998 15.7482 6.59998 15.7482 7.19998C15.7482 7.79997 16.2482 8.29998 16.8482 8.29998C17.4482 8.29998 17.9482 7.79997 17.9482 7.19998C17.9482 6.59998 17.4482 6.09998 16.8482 6.09998ZM7.44824 12C7.44824 9.50002 9.44824 7.40002 12.0482 7.40002C14.6482 7.40002 16.6482 9.40002 16.6482 12C16.6482 14.5 14.6482 16.6 12.0482 16.6C9.54824 16.6 7.44824 14.6 7.44824 12ZM9.34824 12C9.34824 13.5 10.5482 14.7 12.0482 14.7C13.5482 14.7 14.7482 13.5 14.7482 12C14.7482 10.5 13.5482 9.30002 12.0482 9.30002C10.5482 9.30002 9.34824 10.5 9.34824 12Z" fill="#2D2928"/>
</svg>
