<svg width="688" height="169" viewBox="0 0 688 169" fill="none" xmlns="http://www.w3.org/2000/svg">
<path fill-rule="evenodd" clip-rule="evenodd" d="M39.1223 116.577H113.02L130.408 168.345H152.538L94.0517 0H58.0907L0 168.345H21.7346L39.1223 116.577ZM106.302 97.2131H45.4451L71.1315 21.7346H80.6157L106.302 97.2131ZM312.979 168.345V0H292.43V140.682H287.688L209.443 0H175.853V168.345H196.402V27.6623H201.539L279.389 168.345H312.979ZM415.329 0C467.097 0 493.179 33.5899 493.179 84.1723C493.179 134.755 467.097 168.345 415.329 168.345H352.496V0H415.329ZM415.329 148.981C456.032 148.981 471.839 119.343 471.839 84.1723C471.839 49.0017 456.427 19.3636 415.329 19.3636H373.441V148.981H415.329ZM665.08 0L620.03 76.664H613.312L568.262 0H545.342L606.199 103.931V168.345H627.538V103.931L688 0H665.08Z" fill="#2D2928"/>
</svg>
