<svg id="Layer_1" data-name="Layer 1" xmlns="http://www.w3.org/2000/svg" viewBox="0 0 536.34 954.16"><defs><style>.cls-1,.cls-2,.cls-4{fill:#241f20;}.cls-1,.cls-4,.cls-6{stroke:#241f20;}.cls-1,.cls-4,.cls-5,.cls-6{stroke-miterlimit:10;}.cls-1,.cls-6{stroke-width:0.5px;}.cls-3,.cls-5{fill:#f40;}.cls-4,.cls-5{stroke-width:0.25px;}.cls-5{stroke:#f40;}.cls-6{fill:none;}</style></defs><title>andy menu</title><path class="cls-1" d="M45.26,187.92H48v19.59h8.72V187.92h2.72v22.14H33.82V187.92h2.73v19.59h8.71Z"/><path class="cls-1" d="M76.79,203.27H67.08l-2.29,6.79H61.94l7.66-22.14h4.71L82,210.06H79.08Zm-8.87-2.55h8l-3.38-9.95H71.3Z"/><path class="cls-1" d="M90.62,199.54l5.55-11.62h2.91L88.51,210.06H85.62l3.17-6.64-8.19-15.5h3l6.14,11.62Z"/><path class="cls-1" d="M118.55,194.52c0,4.16-2.7,6.67-7.51,6.67h-6.57v8.87h-2.79V187.92H111C115.85,187.92,118.55,190.43,118.55,194.52Zm-2.82,0c0-2.57-1.37-4.15-5.15-4.15h-6.11v8.31h6.11C114.36,198.71,115.73,197.13,115.73,194.55Z"/><path class="cls-1" d="M122.05,187.92h4.59l5.67,10.38h.62l5.58-10.38h4.62v22.14H140.4v-19h-.62L134,201.59h-2.86l-5.76-10.51h-.62v19h-2.73Z"/><path class="cls-1" d="M160.49,203.27h-9.7l-2.3,6.79h-2.85l7.66-22.14H158l7.69,22.14h-2.91Zm-8.87-2.55h8l-3.38-9.95H155Z"/><path class="cls-2" d="M62.82,229.77h3l3.66,6.7h.4l3.6-6.7h3v14.28H74.66V231.81h-.4l-3.72,6.78H68.7L65,231.81h-.4v12.24H62.82Z"/><path class="cls-2" d="M79.38,244.05V234H81v7.8h.4l4.5-7.8h2.44v10.08H86.72v-7.8h-.4l-4.58,7.8Z"/><path class="cls-2" d="M98.44,244.05v-4.44H92.86v4.44h-1.7V234h1.7v4.16h5.58V234h1.7v10.08Z"/><path class="cls-2" d="M102.92,244.05V234h1.66v7.8h.4l4.5-7.8h2.44v10.08h-1.66v-7.8h-.4l-4.58,7.8Z"/><path class="cls-2" d="M114,239.25v-1.5h5.46v1.5Z"/><path class="cls-2" d="M134.52,234v10.08h-12.9V234h1.66v8.6h4V234h1.66v8.6h4V234Z"/><path class="cls-2" d="M143.72,243h-.4a3.94,3.94,0,0,1-3.16,1.34,3.33,3.33,0,0,1-3.64-3.28c0-1.62,1-3.34,3.86-3.34h3.28v-.4c0-1.22-.72-2.1-2.46-2.1-1.48,0-2.26.58-2.34,1.46h-1.7c.12-1.86,1.74-2.94,4-2.94,2.52,0,4.16,1.22,4.16,3.48v6.86h-1.6Zm-.06-3v-.9h-3c-1.64,0-2.42.7-2.42,1.88s.86,1.84,2.34,1.84A3,3,0,0,0,143.66,240Z"/><path class="cls-2" d="M148.76,248.06l2.06-4.91L146.58,234h1.84l3,6.64h.5l2.8-6.64h1.82l-6.08,14.09Z"/><path class="cls-2" d="M158,248.06V234h1.64v1.1h.4a3.81,3.81,0,0,1,3.12-1.36c2.8,0,4.48,2.3,4.48,5.3s-1.68,5.3-4.48,5.3a3.62,3.62,0,0,1-3.06-1.36h-.4v5.11Zm1.68-9.05c0,2,.92,3.82,3.16,3.82,2,0,3.1-1.58,3.1-3.82s-1.06-3.82-3.1-3.82C160.64,235.19,159.72,237.05,159.72,239Z"/><path class="cls-2" d="M169.84,234h2.66l2.54,4.8h.4L178,234h2.62v10.08h-1.66V236h-.4l-2.4,4.52H174.3L171.9,236h-.4v8.1h-1.66Z"/><path class="cls-2" d="M189.8,243h-.4a3.94,3.94,0,0,1-3.16,1.34A3.33,3.33,0,0,1,182.6,241c0-1.62,1-3.34,3.86-3.34h3.28v-.4c0-1.22-.72-2.1-2.46-2.1-1.48,0-2.26.58-2.34,1.46h-1.7c.12-1.86,1.74-2.94,4-2.94,2.52,0,4.16,1.22,4.16,3.48v6.86h-1.6Zm-.06-3v-.9h-3c-1.64,0-2.42.7-2.42,1.88s.86,1.84,2.34,1.84A3,3,0,0,0,189.74,240Z"/><path class="cls-2" d="M74.44,269.05H62.82V254.77h1.8v12.64h7.74V254.77h1.8v12.64h2.06v5.15H74.44Z"/><path class="cls-2" d="M86.64,264H79c0,2.38,1.14,3.84,3.22,3.84a2.39,2.39,0,0,0,2.56-1.56h1.72c-.34,1.72-1.78,3-4.28,3-3.14,0-4.9-2.32-4.9-5.4s1.8-5.2,4.86-5.2,4.46,2.22,4.5,4.7Zm-7.58-1.42h5.82a2.6,2.6,0,0,0-2.78-2.38A2.85,2.85,0,0,0,79.06,262.57Z"/><path class="cls-2" d="M92.34,260.19c-1.44,0-2.2.48-2.44,1.56H88.28c.18-1.92,1.78-3,4.1-3,2.52,0,3.86,1.28,3.86,2.8a2.05,2.05,0,0,1-1.1,2.06v.4a2.18,2.18,0,0,1,1.46,2.3c0,1.64-1.48,3-4.18,3s-4.26-1.24-4.54-3.12h1.64c.38,1.26,1.52,1.64,2.9,1.64s2.48-.54,2.48-1.62-.56-1.56-2.22-1.56H90.9v-1.48h1.7c1.42,0,2-.66,2-1.44C94.56,260.73,93.64,260.19,92.34,260.19Z"/><path class="cls-2" d="M105.24,268h-.4a3.94,3.94,0,0,1-3.16,1.34A3.33,3.33,0,0,1,98,266c0-1.62,1-3.34,3.86-3.34h3.28v-.4c0-1.22-.72-2.1-2.46-2.1-1.48,0-2.26.58-2.34,1.46h-1.7c.12-1.86,1.74-2.94,4-2.94,2.52,0,4.16,1.22,4.16,3.48v6.86h-1.6Zm-.06-3v-.9h-3c-1.64,0-2.42.7-2.42,1.88s.86,1.84,2.34,1.84A3,3,0,0,0,105.18,265Z"/><path class="cls-2" d="M109.46,273.06V259h1.64v1.1h.4a3.81,3.81,0,0,1,3.12-1.36c2.8,0,4.48,2.3,4.48,5.3s-1.68,5.3-4.48,5.3a3.62,3.62,0,0,1-3.06-1.36h-.4v5.11Zm1.68-9.05c0,2,.92,3.82,3.16,3.82,2,0,3.1-1.58,3.1-3.82s-1.06-3.82-3.1-3.82C112.06,260.19,111.14,262.05,111.14,264Z"/><path class="cls-2" d="M123,262.33h3c2.44,0,3.8,1.26,3.8,3.34s-1.36,3.38-3.8,3.38h-4.68V259H123Zm5.08,3.34c0-1.18-.58-1.9-2.34-1.9H123v3.8h2.74C127.46,267.57,128,266.83,128,265.67Z"/><path class="cls-3" d="M62.82,279.77h1.8v6.1h4.22l3-6.1h1.9l-3.3,6.94,3.48,7.34H72l-3.14-6.54H64.62v6.54h-1.8Z"/><path class="cls-3" d="M76.06,298.06l2.06-4.91L73.88,284h1.84l3,6.64h.5l2.8-6.64h1.82L77.8,298.06Z"/><path class="cls-3" d="M85.34,298.06V284H87v1.1h.4a3.81,3.81,0,0,1,3.12-1.36c2.8,0,4.48,2.3,4.48,5.3s-1.68,5.3-4.48,5.3A3.62,3.62,0,0,1,87.44,293H87v5.11ZM87,289c0,2,.92,3.82,3.16,3.82,2,0,3.1-1.58,3.1-3.82s-1.06-3.82-3.1-3.82C87.94,285.19,87,287.05,87,289Z"/><path class="cls-3" d="M97.14,294.05V284H98.8v7.8h.4l4.5-7.8h2.44v10.08h-1.66v-7.8h-.4l-4.58,7.8Z"/><path class="cls-3" d="M116.2,294.05v-4.44h-5.58v4.44h-1.7V284h1.7v4.16h5.58V284h1.7v10.08Z"/><path class="cls-3" d="M127.1,293h-.4a3.94,3.94,0,0,1-3.16,1.34A3.33,3.33,0,0,1,119.9,291c0-1.62,1-3.34,3.86-3.34H127v-.4c0-1.22-.72-2.1-2.46-2.1-1.48,0-2.26.58-2.34,1.46h-1.7c.12-1.86,1.74-2.94,4-2.94,2.52,0,4.16,1.22,4.16,3.48v6.86h-1.6Zm-.06-3v-.9h-3c-1.64,0-2.42.7-2.42,1.88s.86,1.84,2.34,1.84A3,3,0,0,0,127,290Z"/><path class="cls-3" d="M139.6,284v10.08h-1.72v-4h-3.06c-.22,0-.42,0-.62,0l-1.52,4H130.9l1.7-4.38A2.71,2.71,0,0,1,131,287c0-1.9,1.26-3.06,3.54-3.06Zm-4.84,1.44c-1.52,0-2,.62-2,1.64s.5,1.58,2,1.58h3.12v-3.22Z"/><path class="cls-2" d="M62.82,304.77h1.8v6.1h4.22l3-6.1h1.9l-3.3,6.94,3.48,7.34H72l-3.14-6.54H64.62v6.54h-1.8Z"/><path class="cls-2" d="M76.06,323.06l2.06-4.91L73.88,309h1.84l3,6.64h.5l2.8-6.64h1.82L77.8,323.06Z"/><path class="cls-2" d="M85.34,323.06V309H87v1.1h.4a3.81,3.81,0,0,1,3.12-1.36c2.8,0,4.48,2.3,4.48,5.3s-1.68,5.3-4.48,5.3A3.62,3.62,0,0,1,87.44,318H87v5.11ZM87,314c0,2,.92,3.82,3.16,3.82,2,0,3.1-1.58,3.1-3.82s-1.06-3.82-3.1-3.82C87.94,310.19,87,312.05,87,314Z"/><path class="cls-2" d="M97.14,319.05V309H98.8v7.8h.4l4.5-7.8h2.44v10.08h-1.66v-7.8h-.4l-4.58,7.8Z"/><path class="cls-2" d="M116.2,319.05v-4.44h-5.58v4.44h-1.7V309h1.7v4.16h5.58V309h1.7v10.08Z"/><path class="cls-2" d="M127.1,318h-.4a3.94,3.94,0,0,1-3.16,1.34A3.33,3.33,0,0,1,119.9,316c0-1.62,1-3.34,3.86-3.34H127v-.4c0-1.22-.72-2.1-2.46-2.1-1.48,0-2.26.58-2.34,1.46h-1.7c.12-1.86,1.74-2.94,4-2.94,2.52,0,4.16,1.22,4.16,3.48v6.86h-1.6Zm-.06-3v-.9h-3c-1.64,0-2.42.7-2.42,1.88s.86,1.84,2.34,1.84A3,3,0,0,0,127,315Z"/><path class="cls-2" d="M139.6,309v10.08h-1.72v-4h-3.06c-.22,0-.42,0-.62,0l-1.52,4H130.9l1.7-4.38A2.71,2.71,0,0,1,131,312c0-1.9,1.26-3.06,3.54-3.06Zm-4.84,1.44c-1.52,0-2,.62-2,1.64s.5,1.58,2,1.58h3.12v-3.22Z"/><path class="cls-2" d="M152.6,312.57h-.7l-3.72,6.48h-2l4.3-7.54-3.68-6.74h1.94l3.14,5.7h.7l3.18-5.7h1.92L154,311.43l4.28,7.62h-2.06Z"/><path class="cls-2" d="M169.86,317.35v1.7H160V304.77h1.8v12.58Z"/><path class="cls-2" d="M74.4,329.77v14.28H72.6v-6.52h-8v6.52h-1.8V329.77h1.8v6.08h8v-6.08Z"/><path class="cls-2" d="M83.78,343h-.4a3.94,3.94,0,0,1-3.16,1.34A3.33,3.33,0,0,1,76.58,341c0-1.62,1-3.34,3.86-3.34h3.28v-.4c0-1.22-.72-2.1-2.46-2.1-1.48,0-2.26.58-2.34,1.46h-1.7c.12-1.86,1.74-2.94,4-2.94,2.52,0,4.16,1.22,4.16,3.48v6.86h-1.6Zm-.06-3v-.9h-3c-1.64,0-2.42.7-2.42,1.88s.86,1.84,2.34,1.84A3,3,0,0,0,83.72,340Z"/><path class="cls-2" d="M91.22,334H99.9v1.48H96.42v8.6h-1.7v-8.6h-3.5Z"/><path class="cls-2" d="M108.06,343h-.4a3.94,3.94,0,0,1-3.16,1.34,3.33,3.33,0,0,1-3.64-3.28c0-1.62,1-3.34,3.86-3.34H108v-.4c0-1.22-.72-2.1-2.46-2.1-1.48,0-2.26.58-2.34,1.46h-1.7c.12-1.86,1.74-2.94,4-2.94,2.52,0,4.16,1.22,4.16,3.48v6.86h-1.6Zm-.06-3v-.9h-3c-1.64,0-2.42.7-2.42,1.88s.86,1.84,2.34,1.84A3,3,0,0,0,108,340Z"/><path class="cls-2" d="M112.28,348.06V334h1.64v1.1h.4a3.81,3.81,0,0,1,3.12-1.36c2.8,0,4.48,2.3,4.48,5.3s-1.68,5.3-4.48,5.3a3.62,3.62,0,0,1-3.06-1.36H114v5.11ZM114,339c0,2,.92,3.82,3.16,3.82,2,0,3.1-1.58,3.1-3.82s-1.06-3.82-3.1-3.82C114.88,335.19,114,337.05,114,339Z"/><path class="cls-2" d="M132.82,339h-7.68c0,2.38,1.14,3.84,3.22,3.84a2.39,2.39,0,0,0,2.56-1.56h1.72c-.34,1.72-1.78,3-4.28,3-3.14,0-4.9-2.32-4.9-5.4s1.8-5.2,4.86-5.2,4.46,2.22,4.5,4.7Zm-7.58-1.42h5.82a2.6,2.6,0,0,0-2.78-2.38A2.85,2.85,0,0,0,125.24,337.57Z"/><path class="cls-2" d="M133.82,342.45h.34c1.38,0,2-1,2-4.58V334h7.72v10.08h-1.72v-8.6h-4.42v2.46c0,4.64-1.08,6.14-3.56,6.14h-.34Z"/><path class="cls-2" d="M151.24,339.61h-2.92v4.44h-1.7V334h1.7v4.16h3l2.2-4.16h1.78l-2.56,4.86,2.7,5.22h-1.82Z"/><path class="cls-2" d="M166.06,339h-7.68c0,2.38,1.14,3.84,3.22,3.84a2.39,2.39,0,0,0,2.56-1.56h1.72c-.34,1.72-1.78,3-4.28,3-3.14,0-4.9-2.32-4.9-5.4s1.8-5.2,4.86-5.2,4.46,2.22,4.5,4.7Zm-7.58-1.42h5.82a2.6,2.6,0,0,0-2.78-2.38A2.85,2.85,0,0,0,158.48,337.57Z"/><path class="cls-2" d="M177.7,333.29h1.46v4.34h4.36v1.46h-4.36v4.34H177.7v-4.34h-4.34v-1.46h4.34Z"/><path class="cls-2" d="M196.08,339.61h-2.92v4.44h-1.7V334h1.7v4.16h3l2.2-4.16h1.78l-2.56,4.86,2.7,5.22h-1.82Z"/><path class="cls-2" d="M208.58,343h-.4a3.94,3.94,0,0,1-3.16,1.34,3.33,3.33,0,0,1-3.64-3.28c0-1.62,1-3.34,3.86-3.34h3.28v-.4c0-1.22-.72-2.1-2.46-2.1-1.48,0-2.26.58-2.34,1.46H202c.12-1.86,1.74-2.94,4-2.94,2.52,0,4.16,1.22,4.16,3.48v6.86h-1.6Zm-.06-3v-.9h-3c-1.64,0-2.42.7-2.42,1.88s.86,1.84,2.34,1.84A3,3,0,0,0,208.52,340Z"/><path class="cls-2" d="M212.8,348.06V334h1.64v1.1h.4a3.81,3.81,0,0,1,3.12-1.36c2.8,0,4.48,2.3,4.48,5.3s-1.68,5.3-4.48,5.3A3.62,3.62,0,0,1,214.9,343h-.4v5.11Zm1.68-9.05c0,2,.92,3.82,3.16,3.82,2,0,3.1-1.58,3.1-3.82s-1.06-3.82-3.1-3.82C215.4,335.19,214.48,337.05,214.48,339Z"/><path class="cls-2" d="M223.36,334H232v1.48h-3.48v8.6h-1.7v-8.6h-3.5Z"/><path class="cls-2" d="M242.92,339c0,3-1.82,5.3-5,5.3s-5-2.3-5-5.3,1.8-5.3,5-5.3S242.92,336,242.92,339Zm-1.7,0c0-2-1-3.82-3.26-3.82s-3.26,1.86-3.26,3.82,1,3.82,3.26,3.82S241.22,341,241.22,339Z"/><path class="cls-2" d="M258,334v10.08h-12.9V334h1.66v8.6h4V334h1.66v8.6h4V334Z"/><path class="cls-2" d="M265.38,339.61h-2.92v4.44h-1.7V334h1.7v4.16h3l2.2-4.16h1.78l-2.56,4.86,2.7,5.22h-1.82Z"/><path class="cls-2" d="M277.88,343h-.4a3.94,3.94,0,0,1-3.16,1.34,3.33,3.33,0,0,1-3.64-3.28c0-1.62,1-3.34,3.86-3.34h3.28v-.4c0-1.22-.72-2.1-2.46-2.1-1.48,0-2.26.58-2.34,1.46h-1.7c.12-1.86,1.74-2.94,4-2.94,2.52,0,4.16,1.22,4.16,3.48v6.86h-1.6Zm-.06-3v-.9h-3c-1.64,0-2.42.7-2.42,1.88s.86,1.84,2.34,1.84A3,3,0,0,0,277.82,340Z"/><path class="cls-2" d="M293.52,348.06h-1.68v-4h-.32a5,5,0,0,1,0-10.08h.34v-4.46h1.68V334h.32a4.67,4.67,0,0,1,5,5c0,3.1-1.88,5-5.28,5Zm-2-5.45h.32v-7.2h-.32c-2.24,0-3.3,1.64-3.3,3.6S289.26,342.61,291.52,342.61Zm2.28,0c2.26,0,3.32-1.64,3.32-3.6s-1.06-3.6-3.32-3.6h-.28v7.2Z"/><path class="cls-2" d="M301,348.06V334h1.64v1.1h.4a3.81,3.81,0,0,1,3.12-1.36c2.8,0,4.48,2.3,4.48,5.3s-1.68,5.3-4.48,5.3a3.62,3.62,0,0,1-3.06-1.36h-.4v5.11Zm1.68-9.05c0,2,.92,3.82,3.16,3.82,2,0,3.1-1.58,3.1-3.82s-1.06-3.82-3.1-3.82C303.56,335.19,302.64,337.05,302.64,339Z"/><path class="cls-2" d="M312.76,344.05V334h1.66v7.8h.4l4.5-7.8h2.44v10.08H320.1v-7.8h-.4l-4.58,7.8Z"/><path class="cls-2" d="M74,365c0,2.28-1.6,4-4.84,4H62.82V354.77H69c3,0,4.56,1.66,4.56,3.62A3.16,3.16,0,0,1,72,361.31v.4A3.65,3.65,0,0,1,74,365Zm-9.42-4.2H69c1.58,0,2.78-.5,2.78-2.28,0-1.62-1.38-2.18-2.82-2.18H64.62Zm7.6,4.06c0-1.86-1.44-2.48-3.12-2.48H64.62v5h4.46C70.7,367.45,72.22,366.85,72.22,364.89Z"/><path class="cls-2" d="M84.9,364H77.22c0,2.38,1.14,3.84,3.22,3.84A2.39,2.39,0,0,0,83,366.27h1.72c-.34,1.72-1.78,3-4.28,3-3.14,0-4.9-2.32-4.9-5.4s1.8-5.2,4.86-5.2,4.46,2.22,4.5,4.7Zm-7.58-1.42h5.82a2.6,2.6,0,0,0-2.78-2.38A2.85,2.85,0,0,0,77.32,362.57Z"/><path class="cls-2" d="M87,359H94.6v1.48H88.74v8.6H87Z"/><path class="cls-2" d="M104.6,364H96.92c0,2.38,1.14,3.84,3.22,3.84a2.39,2.39,0,0,0,2.56-1.56h1.72c-.34,1.72-1.78,3-4.28,3-3.14,0-4.9-2.32-4.9-5.4s1.8-5.2,4.86-5.2,4.46,2.22,4.5,4.7ZM97,362.57h5.82a2.6,2.6,0,0,0-2.78-2.38A2.85,2.85,0,0,0,97,362.57Z"/><path class="cls-2" d="M105.36,359H114v1.48h-3.48v8.6h-1.7v-8.6h-3.5Z"/><path class="cls-2" d="M122.2,368h-.4a3.94,3.94,0,0,1-3.16,1.34A3.33,3.33,0,0,1,115,366c0-1.62,1-3.34,3.86-3.34h3.28v-.4c0-1.22-.72-2.1-2.46-2.1-1.48,0-2.26.58-2.34,1.46h-1.7c.12-1.86,1.74-2.94,4-2.94,2.52,0,4.16,1.22,4.16,3.48v6.86h-1.6Zm-.06-3v-.9h-3c-1.64,0-2.42.7-2.42,1.88s.86,1.84,2.34,1.84A3,3,0,0,0,122.14,365Z"/><path class="cls-2" d="M126.42,373.06V359h1.64v1.1h.4a3.81,3.81,0,0,1,3.12-1.36c2.8,0,4.48,2.3,4.48,5.3s-1.68,5.3-4.48,5.3a3.62,3.62,0,0,1-3.06-1.36h-.4v5.11ZM128.1,364c0,2,.92,3.82,3.16,3.82,2,0,3.1-1.58,3.1-3.82s-1.06-3.82-3.1-3.82C129,360.19,128.1,362.05,128.1,364Z"/><path class="cls-2" d="M138.22,369.05V359h1.66v7.8h.4l4.5-7.8h2.44v10.08h-1.66v-7.8h-.4l-4.58,7.8Z"/><path class="cls-2" d="M156.42,368H156a3.94,3.94,0,0,1-3.16,1.34,3.33,3.33,0,0,1-3.64-3.28c0-1.62,1-3.34,3.86-3.34h3.28v-.4c0-1.22-.72-2.1-2.46-2.1-1.48,0-2.26.58-2.34,1.46h-1.7c.12-1.86,1.74-2.94,4-2.94,2.52,0,4.16,1.22,4.16,3.48v6.86h-1.6Zm-.06-3v-.9h-3c-1.64,0-2.42.7-2.42,1.88s.86,1.84,2.34,1.84A3,3,0,0,0,156.36,365Z"/><path class="cls-2" d="M167.92,369.05v-4.44h-5.58v4.44h-1.7V359h1.7v4.16h5.58V359h1.7v10.08Z"/><path class="cls-2" d="M180.92,366a4,4,0,0,1-4.24,3.3c-3.14,0-4.9-2.3-4.9-5.3s1.76-5.3,4.9-5.3a3.88,3.88,0,0,1,4.18,3.18h-1.7a2.35,2.35,0,0,0-2.48-1.7c-2.28,0-3.2,1.76-3.2,3.78s.94,3.86,3.2,3.86a2.33,2.33,0,0,0,2.54-1.82Z"/><path class="cls-2" d="M187.58,364.61h-2.92v4.44H183V359h1.7v4.16h3l2.2-4.16h1.78L189,363.83l2.7,5.22h-1.82Z"/><path class="cls-2" d="M200.08,368h-.4a3.94,3.94,0,0,1-3.16,1.34,3.33,3.33,0,0,1-3.64-3.28c0-1.62,1-3.34,3.86-3.34H200v-.4c0-1.22-.72-2.1-2.46-2.1-1.48,0-2.26.58-2.34,1.46h-1.7c.12-1.86,1.74-2.94,4-2.94,2.52,0,4.16,1.22,4.16,3.48v6.86h-1.6Zm-.06-3v-.9h-3c-1.64,0-2.42.7-2.42,1.88s.86,1.84,2.34,1.84A3,3,0,0,0,200,365Z"/><path class="cls-2" d="M212.58,359v10.08h-1.72v-4H207.8c-.22,0-.42,0-.62,0l-1.52,4h-1.78l1.7-4.38A2.71,2.71,0,0,1,204,362c0-1.9,1.26-3.06,3.54-3.06Zm-4.84,1.44c-1.52,0-2,.62-2,1.64s.5,1.58,2,1.58h3.12v-3.22Z"/><path class="cls-2" d="M228.92,366a4,4,0,0,1-4.24,3.3c-3.14,0-4.9-2.3-4.9-5.3s1.76-5.3,4.9-5.3a3.88,3.88,0,0,1,4.18,3.18h-1.7a2.35,2.35,0,0,0-2.48-1.7c-2.28,0-3.2,1.76-3.2,3.78s.94,3.86,3.2,3.86a2.33,2.33,0,0,0,2.54-1.82Z"/><path class="cls-2" d="M245.32,364c0,3-1.82,5.3-5,5.3s-5-2.3-5-5.3,1.8-5.3,5-5.3S245.32,361,245.32,364Zm-1.7,0c0-2-1-3.82-3.26-3.82s-3.26,1.86-3.26,3.82,1,3.82,3.26,3.82S243.62,366,243.62,364Z"/><path class="cls-2" d="M256.22,366.29c0,1.82-1.28,2.76-3.56,2.76h-5.18V359h5.22c2,0,3.18,1,3.18,2.54a2.15,2.15,0,0,1-1.28,2v.4A2.21,2.21,0,0,1,256.22,366.29Zm-7.06-3.14h3.38c1.22,0,1.64-.64,1.64-1.36s-.42-1.38-1.64-1.38h-3.38Zm5.36,3c0-.84-.5-1.52-2-1.52h-3.4v3h3.4C254,367.61,254.52,367,254.52,366.11Z"/><path class="cls-2" d="M267.66,364c0,3-1.82,5.3-5,5.3s-5-2.3-5-5.3,1.8-5.3,5-5.3S267.66,361,267.66,364Zm-1.7,0c0-2-1-3.82-3.26-3.82s-3.26,1.86-3.26,3.82,1,3.82,3.26,3.82S266,366,266,364Z"/><path class="cls-2" d="M282.72,359v8.6h1.86v4.34h-1.66v-2.86h-13.1V359h1.66v8.6h4V359h1.66v8.6h4V359Z"/><path class="cls-2" d="M292.7,368h-.4a3.94,3.94,0,0,1-3.16,1.34A3.33,3.33,0,0,1,285.5,366c0-1.62,1-3.34,3.86-3.34h3.28v-.4c0-1.22-.72-2.1-2.46-2.1-1.48,0-2.26.58-2.34,1.46h-1.7c.12-1.86,1.74-2.94,4-2.94,2.52,0,4.16,1.22,4.16,3.48v6.86h-1.6Zm-.06-3v-.9h-3c-1.64,0-2.42.7-2.42,1.88s.86,1.84,2.34,1.84A3,3,0,0,0,292.64,365Z"/><path class="cls-2" d="M296.92,359h2.66l2.54,4.8h.4l2.54-4.8h2.62v10.08H306V361h-.4l-2.4,4.52h-1.84L299,361h-.4v8.1h-1.66Z"/><path class="cls-2" d="M310.46,369.05V359h1.66v7.8h.4L317,359h2.44v10.08H317.8v-7.8h-.4l-4.58,7.8Z"/><path class="cls-2" d="M327.3,359h7.56v1.48H329v8.6h-1.7Z"/><path class="cls-2" d="M336.62,373.06V359h1.64v1.1h.4a3.81,3.81,0,0,1,3.12-1.36c2.8,0,4.48,2.3,4.48,5.3s-1.68,5.3-4.48,5.3a3.62,3.62,0,0,1-3.06-1.36h-.4v5.11ZM338.3,364c0,2,.92,3.82,3.16,3.82,2,0,3.1-1.58,3.1-3.82s-1.06-3.82-3.1-3.82C339.22,360.19,338.3,362.05,338.3,364Z"/><path class="cls-2" d="M348.42,369.05V359h1.66v7.8h.4L355,359h2.44v10.08h-1.66v-7.8h-.4l-4.58,7.8Z"/><path class="cls-2" d="M359.06,367.45h.34c1.38,0,2-1,2-4.58V359h7.72v10.08h-1.72v-8.6H363v2.46c0,4.64-1.08,6.14-3.56,6.14h-.34Z"/><path class="cls-2" d="M373.56,362.33h3c2.44,0,3.8,1.26,3.8,3.34s-1.36,3.38-3.8,3.38h-4.68V359h1.7Zm5.08,3.34c0-1.18-.58-1.9-2.34-1.9h-2.74v3.8h2.74C378.06,367.57,378.64,366.83,378.64,365.67Z"/><path class="cls-4" d="M465.2,234a4.89,4.89,0,0,1,5.09-5.15c3.18,0,5.49,2,5.49,7.35,0,4.57-1.78,8.18-5.68,8.18a4.26,4.26,0,0,1-4.49-3.57h1.86a2.44,2.44,0,0,0,2.63,1.91c2.37,0,3.76-2.06,3.86-5.32h-.42a4.57,4.57,0,0,1-3.53,1.47A4.69,4.69,0,0,1,465.2,234Zm1.88-.09a3.26,3.26,0,1,0,6.52,0,3.17,3.17,0,0,0-3.29-3.42A3.08,3.08,0,0,0,467.08,233.86Z"/><path class="cls-4" d="M477.23,234a4.88,4.88,0,0,1,5.08-5.15c3.19,0,5.49,2,5.49,7.35,0,4.57-1.77,8.18-5.68,8.18a4.27,4.27,0,0,1-4.49-3.57h1.86a2.46,2.46,0,0,0,2.63,1.91c2.37,0,3.76-2.06,3.87-5.32h-.43a4.54,4.54,0,0,1-3.52,1.47A4.69,4.69,0,0,1,477.23,234Zm1.88-.09a3.26,3.26,0,1,0,6.51,0,3.17,3.17,0,0,0-3.29-3.42A3.08,3.08,0,0,0,479.11,233.86Z"/><path class="cls-4" d="M465.55,267.46h3.54V256.14h-.38l-3.19,2.11v-2l3.17-2.12H471v13.29h3.27v1.66h-8.69Z"/><path class="cls-4" d="M486.33,265c0,2.48-2.11,4.36-5.4,4.36s-5.41-1.88-5.41-4.36a3.79,3.79,0,0,1,2.35-3.58V261a3.47,3.47,0,0,1-1.9-3.16c0-2.37,2-4,5-4s4.95,1.63,4.95,4A3.57,3.57,0,0,1,484,261v.43A3.82,3.82,0,0,1,486.33,265Zm-1.86-.17c0-1.75-1.37-2.82-3.54-2.82s-3.55,1.07-3.55,2.82,1.37,2.87,3.55,2.87S484.47,266.6,484.47,264.87ZM477.81,258c0,1.6,1.43,2.48,3.12,2.48S484,259.55,484,258s-1.43-2.45-3.11-2.45S477.81,256.35,477.81,258Z"/><path class="cls-4" d="M487.74,259a4.88,4.88,0,0,1,5.08-5.15c3.18,0,5.49,2,5.49,7.35,0,4.57-1.77,8.18-5.68,8.18a4.27,4.27,0,0,1-4.49-3.57H490a2.46,2.46,0,0,0,2.63,1.91c2.37,0,3.76-2.05,3.87-5.32h-.43a4.55,4.55,0,0,1-3.53,1.47A4.68,4.68,0,0,1,487.74,259Zm1.88-.08a3.26,3.26,0,1,0,6.51,0,3.17,3.17,0,0,0-3.29-3.42A3.08,3.08,0,0,0,489.62,258.94Z"/><path class="cls-5" d="M465.55,292.53h3.54V281.21h-.38l-3.19,2.11v-2l3.17-2.12H471v13.29h3.27v1.66h-8.69Z"/><path class="cls-5" d="M486.33,290.11c0,2.48-2.11,4.36-5.4,4.36s-5.41-1.88-5.41-4.36a3.81,3.81,0,0,1,2.35-3.59v-.42a3.48,3.48,0,0,1-1.9-3.16c0-2.37,2-4,5-4s4.95,1.63,4.95,4a3.58,3.58,0,0,1-1.9,3.16v.42A3.84,3.84,0,0,1,486.33,290.11Zm-1.86-.17c0-1.75-1.37-2.82-3.54-2.82s-3.55,1.07-3.55,2.82,1.37,2.87,3.55,2.87S484.47,291.67,484.47,289.94ZM477.81,283c0,1.6,1.43,2.48,3.12,2.48S484,284.62,484,283s-1.43-2.45-3.11-2.45S477.81,281.42,477.81,283Z"/><path class="cls-5" d="M487.74,284.09a4.88,4.88,0,0,1,5.08-5.15c3.18,0,5.49,2,5.49,7.35,0,4.57-1.77,8.18-5.68,8.18a4.27,4.27,0,0,1-4.49-3.57H490a2.46,2.46,0,0,0,2.63,1.91c2.37,0,3.76-2.06,3.87-5.32h-.43a4.55,4.55,0,0,1-3.53,1.47A4.68,4.68,0,0,1,487.74,284.09Zm1.88-.09a3.26,3.26,0,1,0,6.51,0,3.17,3.17,0,0,0-3.29-3.41A3.08,3.08,0,0,0,489.62,284Z"/><path class="cls-4" d="M470.37,304c2.78,0,4.85,1.56,4.85,4.55,0,2-1.54,3.95-3.31,5.43l-3.74,3.18v.43h7.54v1.66H465.44v-2.09s4-3.27,5.57-4.7c1-.9,2.33-2.16,2.33-3.91a2.7,2.7,0,0,0-3-2.88,2.81,2.81,0,0,0-3.05,2.75H465.4C465.59,305.44,467.7,304,470.37,304Z"/><path class="cls-4" d="M482.16,304c2.78,0,4.85,1.56,4.85,4.55,0,2-1.54,3.95-3.31,5.43L480,317.17v.43h7.54v1.66H477.23v-2.09s4-3.27,5.57-4.7c1-.9,2.33-2.16,2.33-3.91a2.7,2.7,0,0,0-3-2.88,2.81,2.81,0,0,0-3.05,2.75h-1.88C477.38,305.44,479.49,304,482.16,304Z"/><path class="cls-4" d="M488.79,309.16a4.88,4.88,0,0,1,5.08-5.15c3.18,0,5.49,2,5.49,7.35,0,4.57-1.77,8.18-5.68,8.18a4.26,4.26,0,0,1-4.49-3.57h1.86a2.44,2.44,0,0,0,2.63,1.91c2.37,0,3.76-2.06,3.86-5.32h-.42a4.57,4.57,0,0,1-3.53,1.47A4.68,4.68,0,0,1,488.79,309.16Zm1.87-.09a3.26,3.26,0,1,0,6.52,0,3.17,3.17,0,0,0-3.29-3.42A3.08,3.08,0,0,0,490.66,309.07Z"/><path class="cls-4" d="M465.55,342.67h3.54V331.35h-.38l-3.19,2.11v-2l3.17-2.12H471v13.29h3.27v1.66h-8.69Z"/><path class="cls-4" d="M486.33,340.25c0,2.48-2.11,4.36-5.4,4.36s-5.41-1.88-5.41-4.36a3.79,3.79,0,0,1,2.35-3.58v-.43a3.48,3.48,0,0,1-1.9-3.16c0-2.37,2-4,5-4s4.95,1.63,4.95,4a3.58,3.58,0,0,1-1.9,3.16v.43A3.82,3.82,0,0,1,486.33,340.25Zm-1.86-.17c0-1.75-1.37-2.82-3.54-2.82s-3.55,1.07-3.55,2.82,1.37,2.87,3.55,2.87S484.47,341.81,484.47,340.08Zm-6.66-6.92c0,1.6,1.43,2.48,3.12,2.48s3.11-.88,3.11-2.48-1.43-2.45-3.11-2.45S477.81,331.56,477.81,333.16Z"/><path class="cls-4" d="M487.74,334.23a4.88,4.88,0,0,1,5.08-5.15c3.18,0,5.49,2,5.49,7.35,0,4.57-1.77,8.18-5.68,8.18a4.27,4.27,0,0,1-4.49-3.57H490a2.46,2.46,0,0,0,2.63,1.91c2.37,0,3.76-2.05,3.87-5.32h-.43a4.55,4.55,0,0,1-3.53,1.47A4.68,4.68,0,0,1,487.74,334.23Zm1.88-.08a3.26,3.26,0,1,0,6.51,0,3.17,3.17,0,0,0-3.29-3.42A3.08,3.08,0,0,0,489.62,334.15Z"/><path class="cls-4" d="M465.55,367.74h3.54V356.42h-.38l-3.19,2.11v-2l3.17-2.12H471v13.29h3.27v1.66h-8.69Z"/><path class="cls-4" d="M478.51,369.4h-2L483,356.5v-.43h-7.58v-1.62H485v2.05Z"/><path class="cls-4" d="M486.22,359.3a4.89,4.89,0,0,1,5.09-5.15c3.18,0,5.49,2,5.49,7.35,0,4.57-1.78,8.18-5.69,8.18a4.26,4.26,0,0,1-4.48-3.57h1.86a2.44,2.44,0,0,0,2.62,1.91c2.37,0,3.76-2.06,3.87-5.32h-.43a4.54,4.54,0,0,1-3.52,1.47A4.69,4.69,0,0,1,486.22,359.3Zm1.88-.09a3.26,3.26,0,1,0,6.52,0,3.18,3.18,0,0,0-3.29-3.42A3.08,3.08,0,0,0,488.1,359.21Z"/><line class="cls-6" y1="388.18" x2="536.72" y2="388.18"/><path class="cls-1" d="M33.63,407.22h2.79v9.46H43l4.59-9.46H50.5L45.38,418l5.4,11.38h-3L43,419.22H36.42v10.14H33.63Z"/><path class="cls-1" d="M66.34,422.57h-9.7l-2.3,6.79H51.49l7.66-22.14h4.71l7.69,22.14H68.64ZM57.47,420h8l-3.38-9.95H60.85Z"/><path class="cls-1" d="M90.92,413.83c0,4.15-2.69,6.66-7.5,6.66H76.85v8.87H74.06V407.22h9.36C88.23,407.22,90.92,409.73,90.92,413.83Zm-2.82,0c0-2.58-1.36-4.16-5.14-4.16H76.85V418H83C86.74,418,88.1,416.43,88.1,413.86Z"/><path class="cls-1" d="M109.52,409.7h-7.25v19.66H99.48V409.7H92.16v-2.48h17.36Z"/><path class="cls-1" d="M131,418.29c0,6.39-3.6,11.47-10.33,11.47s-10.32-5.08-10.32-11.47,3.56-11.47,10.32-11.47S131,411.9,131,418.29Zm-2.82,0c0-4.65-2.24-8.93-7.51-8.93s-7.5,4.28-7.5,8.93,2.23,8.93,7.5,8.93S128.22,422.94,128.22,418.29Z"/><path class="cls-1" d="M146.07,407.22h2.73v19.6h8.71v-19.6h2.73v22.14H134.63V407.22h2.73v19.6h8.71Z"/><path class="cls-1" d="M165,407.22h2.79v9.46h6.54l4.59-9.46h2.94L176.7,418l5.39,11.38h-2.94l-4.87-10.14h-6.54v10.14H165Z"/><path class="cls-1" d="M197.65,422.57H188l-2.29,6.79H182.8l7.66-22.14h4.71l7.69,22.14H200ZM188.79,420h8l-3.38-9.95h-1.24Z"/><path class="cls-1" d="M52.71,857.53c-.87,3.94-3.93,6.7-8.77,6.7-6.57,0-10.23-4.9-10.23-11.47S37.4,841.29,44,841.29c4.46,0,7.63,2.42,8.49,6.2H49.52c-.84-2.36-2.51-3.66-5.55-3.66-5.15,0-7.44,4.25-7.44,8.93s2.26,8.93,7.41,8.93a5.58,5.58,0,0,0,5.83-4.16Z"/><path class="cls-1" d="M68.8,857H59.09l-2.29,6.79H54l7.66-22.14h4.71L74,863.83H71.09Zm-8.87-2.54h8l-3.38-10H63.31Z"/><path class="cls-1" d="M74.69,861.07c2.91,0,4.15-1.67,4.15-11.26v-8.12H93.38v22.14H90.59v-19.6H81.48v6.11c0,10.88-2,13.49-6.76,13.49H74.1v-2.76Z"/><path class="cls-1" d="M110.74,857H101l-2.3,6.79H95.89l7.66-22.14h4.71L116,863.83H113Zm-8.86-2.54h8l-3.37-10h-1.25Z"/><path class="cls-1" d="M132,844.17h-7.26v19.66H122V844.17h-7.31v-2.48H132Z"/><path class="cls-1" d="M134.49,863.83V841.69h2.79v8.46h6c4.9,0,7.69,2.58,7.69,6.83s-2.79,6.85-7.69,6.85ZM148.13,857c0-2.67-1.43-4.34-5.37-4.34h-5.48v8.71h5.48C146.7,861.35,148.13,859.64,148.13,857Zm8.59-15.29v22.14h-2.79V841.69Z"/><path class="cls-3" d="M74.35,897.55H62.73V883.27h1.8v12.64h7.74V883.27h1.8v12.64h2.06v5.14H74.35Z"/><path class="cls-3" d="M86.55,892.49H78.87c0,2.38,1.14,3.84,3.22,3.84a2.39,2.39,0,0,0,2.56-1.56h1.72c-.34,1.72-1.78,3-4.28,3-3.14,0-4.9-2.32-4.9-5.4s1.8-5.2,4.86-5.2,4.46,2.22,4.5,4.7ZM79,891.07h5.82A2.6,2.6,0,0,0,82,888.69,2.85,2.85,0,0,0,79,891.07Z"/><path class="cls-3" d="M92.25,888.69c-1.44,0-2.2.48-2.44,1.56H88.19c.18-1.92,1.78-3,4.1-3,2.52,0,3.86,1.28,3.86,2.8a2.05,2.05,0,0,1-1.1,2.06v.4a2.18,2.18,0,0,1,1.46,2.3c0,1.64-1.48,3-4.18,3s-4.26-1.24-4.54-3.12h1.64c.38,1.26,1.52,1.64,2.9,1.64s2.48-.54,2.48-1.62-.56-1.56-2.22-1.56H90.81v-1.48h1.7c1.42,0,2-.66,2-1.44C94.47,889.23,93.55,888.69,92.25,888.69Z"/><path class="cls-3" d="M105.15,896.47h-.4a3.94,3.94,0,0,1-3.16,1.34A3.33,3.33,0,0,1,98,894.53c0-1.62,1-3.34,3.86-3.34h3.28v-.4c0-1.22-.72-2.1-2.46-2.1-1.48,0-2.26.58-2.34,1.46h-1.7c.12-1.86,1.74-2.94,4-2.94,2.52,0,4.16,1.22,4.16,3.48v6.86h-1.6Zm-.06-3v-.9h-3c-1.64,0-2.42.7-2.42,1.88s.86,1.84,2.34,1.84A3,3,0,0,0,105.09,893.51Z"/><path class="cls-3" d="M109.37,901.55V887.47H111v1.1h.4a3.81,3.81,0,0,1,3.12-1.36c2.8,0,4.48,2.3,4.48,5.3s-1.68,5.3-4.48,5.3a3.62,3.62,0,0,1-3.06-1.36h-.4v5.1Zm1.68-9c0,2,.92,3.82,3.16,3.82,2,0,3.1-1.58,3.1-3.82s-1.06-3.82-3.1-3.82C112,888.69,111.05,890.55,111.05,892.51Z"/><path class="cls-3" d="M122.87,890.83h3c2.44,0,3.8,1.26,3.8,3.34s-1.36,3.38-3.8,3.38h-4.68V887.47h1.7Zm5.08,3.34c0-1.18-.58-1.9-2.34-1.9h-2.74v3.8h2.74C127.37,896.07,128,895.33,128,894.17Z"/><path class="cls-2" d="M64.53,909.91v12.64h-1.8V908.27h9.76v1.64Z"/><path class="cls-2" d="M71.79,926.55V912.47h1.64v1.1h.4A3.81,3.81,0,0,1,77,912.21c2.8,0,4.48,2.3,4.48,5.3s-1.68,5.3-4.48,5.3a3.62,3.62,0,0,1-3.06-1.36h-.4v5.1Zm1.68-9c0,2,.92,3.82,3.16,3.82,2,0,3.1-1.58,3.1-3.82s-1.06-3.82-3.1-3.82C74.39,913.69,73.47,915.55,73.47,917.51Z"/><path class="cls-2" d="M92.33,917.49H84.65c0,2.38,1.14,3.84,3.22,3.84a2.39,2.39,0,0,0,2.56-1.56h1.72c-.34,1.72-1.78,3-4.28,3-3.14,0-4.9-2.32-4.9-5.4s1.8-5.2,4.86-5.2,4.46,2.22,4.5,4.7Zm-7.58-1.42h5.82a2.6,2.6,0,0,0-2.78-2.38A2.85,2.85,0,0,0,84.75,916.07Z"/><path class="cls-2" d="M95.59,912.47v2.84c0,1,0,2,2.54,2a11.91,11.91,0,0,0,2.52-.26v-4.6h1.72v10.08h-1.72v-4a15.45,15.45,0,0,1-2.88.28c-3.66,0-3.88-1.74-3.88-3.4v-3Z"/><path class="cls-2" d="M113.89,917.49h-7.68c0,2.38,1.14,3.84,3.22,3.84a2.39,2.39,0,0,0,2.56-1.56h1.72c-.34,1.72-1.78,3-4.28,3-3.14,0-4.9-2.32-4.9-5.4s1.8-5.2,4.86-5.2,4.46,2.22,4.5,4.7Zm-7.58-1.42h5.82a2.6,2.6,0,0,0-2.78-2.38A2.85,2.85,0,0,0,106.31,916.07Z"/><path class="cls-2" d="M124.55,919.51a4,4,0,0,1-4.24,3.3c-3.14,0-4.9-2.3-4.9-5.3s1.76-5.3,4.9-5.3a3.88,3.88,0,0,1,4.18,3.18h-1.7a2.35,2.35,0,0,0-2.48-1.7c-2.28,0-3.2,1.76-3.2,3.78s.94,3.86,3.2,3.86a2.33,2.33,0,0,0,2.54-1.82Z"/><path class="cls-2" d="M131.21,918.11h-2.92v4.44h-1.7V912.47h1.7v4.16h3l2.2-4.16h1.78l-2.56,4.86,2.7,5.22h-1.82Z"/><path class="cls-2" d="M137.29,922.55V912.47H139v7.8h.4l4.5-7.8h2.44v10.08h-1.66v-7.8h-.4l-4.58,7.8Z"/><path class="cls-2" d="M149.07,922.55V912.47h1.66v7.8h.4l4.5-7.8h2.44v10.08h-1.66v-7.8H156l-4.58,7.8Zm7.58-14.49a3.12,3.12,0,0,1-6.22,0h1.38a1.73,1.73,0,0,0,3.46,0Z"/><line class="cls-6" x1="-0.19" y1="655.24" x2="536.53" y2="655.24"/><path class="cls-4" d="M468.2,463.88h-2l6.5-12.9v-.43h-7.59v-1.63h9.53V451Z"/><path class="cls-4" d="M479.26,463.88h-2l6.49-12.9v-.43h-7.58v-1.63h9.52V451Z"/><path class="cls-4" d="M465.36,487.28h3.54V476h-.38l-3.18,2.11v-2L468.5,474h2.28v13.29h3.27V489h-8.69Z"/><path class="cls-4" d="M484.65,474v2.06l-3.74,3.28v.41a4.26,4.26,0,0,1,4.44,4.55c0,3.1-2.22,4.94-5.28,4.94s-5.08-1.93-5.23-4.47h1.88a3.4,3.4,0,0,0,6.75-.47c0-1.94-1.2-3.18-3.37-3.18a5.46,5.46,0,0,0-1.31.13v-1.95l3.66-3.24v-.43h-6.54V474Z"/><path class="cls-4" d="M486.65,478.84a4.89,4.89,0,0,1,5.09-5.15c3.18,0,5.49,2,5.49,7.35,0,4.58-1.78,8.19-5.69,8.19a4.26,4.26,0,0,1-4.48-3.57h1.86a2.43,2.43,0,0,0,2.62,1.9c2.38,0,3.76-2.05,3.87-5.32H495a4.54,4.54,0,0,1-3.52,1.47A4.69,4.69,0,0,1,486.65,478.84Zm1.88-.08a3.26,3.26,0,1,0,6.52,0,3.17,3.17,0,0,0-3.29-3.42A3.09,3.09,0,0,0,488.53,478.76Z"/><path class="cls-4" d="M465.36,512.35h3.54V501h-.38l-3.18,2.11v-2l3.16-2.12h2.28v13.29h3.27V514h-8.69Z"/><path class="cls-4" d="M486.33,508.85v1.66h-2.05V514h-1.83v-3.51h-7.4v-2.09l6.65-9.36h2.58v9.79Zm-3.86,0v-7.67H482l-5,7.24v.43Z"/><path class="cls-4" d="M487.57,503.91a4.88,4.88,0,0,1,5.08-5.15c3.19,0,5.49,2,5.49,7.35,0,4.57-1.77,8.18-5.68,8.18a4.25,4.25,0,0,1-4.48-3.56h1.85a2.45,2.45,0,0,0,2.63,1.9c2.37,0,3.76-2.05,3.87-5.32h-.43a4.54,4.54,0,0,1-3.52,1.47A4.69,4.69,0,0,1,487.57,503.91Zm1.88-.08a3.26,3.26,0,1,0,6.52,0,3.18,3.18,0,0,0-3.29-3.42A3.09,3.09,0,0,0,489.45,503.83Z"/><path class="cls-4" d="M465.36,537.42h3.54V526.1h-.38l-3.18,2.11v-2l3.16-2.12h2.28v13.29h3.27v1.67h-8.69Z"/><path class="cls-4" d="M475.14,529a4.88,4.88,0,0,1,5.08-5.15c3.19,0,5.49,2,5.49,7.35,0,4.57-1.77,8.18-5.68,8.18a4.25,4.25,0,0,1-4.48-3.56h1.85a2.45,2.45,0,0,0,2.63,1.9c2.37,0,3.76-2.05,3.87-5.32h-.43a4.54,4.54,0,0,1-3.52,1.47A4.68,4.68,0,0,1,475.14,529Zm1.88-.08a3.26,3.26,0,1,0,6.52,0,3.18,3.18,0,0,0-3.29-3.42A3.09,3.09,0,0,0,477,528.9Z"/><path class="cls-4" d="M487.17,529a4.88,4.88,0,0,1,5.08-5.15c3.18,0,5.49,2,5.49,7.35,0,4.57-1.77,8.18-5.68,8.18a4.26,4.26,0,0,1-4.49-3.56h1.86a2.43,2.43,0,0,0,2.63,1.9c2.37,0,3.76-2.05,3.86-5.32h-.42a4.57,4.57,0,0,1-3.53,1.47A4.68,4.68,0,0,1,487.17,529Zm1.88-.08a3.26,3.26,0,1,0,6.51,0,3.17,3.17,0,0,0-3.29-3.42A3.09,3.09,0,0,0,489.05,528.9Z"/><path class="cls-4" d="M465.36,562.49h3.54V551.17h-.38l-3.18,2.11v-2l3.16-2.12h2.28v13.29h3.27v1.67h-8.69Z"/><path class="cls-4" d="M475.14,554.05a4.88,4.88,0,0,1,5.08-5.15c3.19,0,5.49,2,5.49,7.35,0,4.57-1.77,8.19-5.68,8.19a4.26,4.26,0,0,1-4.48-3.57h1.85a2.45,2.45,0,0,0,2.63,1.9c2.37,0,3.76-2,3.87-5.32h-.43a4.54,4.54,0,0,1-3.52,1.47A4.68,4.68,0,0,1,475.14,554.05ZM477,554a3.26,3.26,0,1,0,6.52,0,3.18,3.18,0,0,0-3.29-3.42A3.09,3.09,0,0,0,477,554Z"/><path class="cls-4" d="M487.17,554.05a4.88,4.88,0,0,1,5.08-5.15c3.18,0,5.49,2,5.49,7.35,0,4.57-1.77,8.19-5.68,8.19a4.27,4.27,0,0,1-4.49-3.57h1.86a2.43,2.43,0,0,0,2.63,1.9c2.37,0,3.76-2,3.86-5.32h-.42a4.57,4.57,0,0,1-3.53,1.47A4.68,4.68,0,0,1,487.17,554.05Zm1.88-.08a3.26,3.26,0,1,0,6.51,0,3.17,3.17,0,0,0-3.29-3.42A3.09,3.09,0,0,0,489.05,554Z"/><path class="cls-2" d="M71.23,450.51c3.92,0,6.52,1.94,6.52,5.76S75.15,462,71.23,462H71v1.84H69.23V462H69c-3.94,0-6.53-1.86-6.53-5.76s2.6-5.76,6.53-5.76h.24v-1.64H71v1.64Zm-2,9.92v-8.32H69c-2.9,0-4.75,1.32-4.75,4.16s1.85,4.16,4.75,4.16Zm2,0c2.88,0,4.74-1.32,4.74-4.16s-1.84-4.16-4.74-4.16H71v8.32Z"/><path class="cls-2" d="M79.77,467.62V453.53H81.4v1.1h.41a3.81,3.81,0,0,1,3.12-1.36c2.8,0,4.48,2.3,4.48,5.3s-1.68,5.3-4.48,5.3a3.62,3.62,0,0,1-3.06-1.36h-.4v5.11Zm1.67-9.05c0,2,.93,3.82,3.17,3.82,2,0,3.1-1.58,3.1-3.82s-1.06-3.82-3.1-3.82C82.37,454.75,81.44,456.61,81.44,458.57Z"/><path class="cls-2" d="M91.56,463.61V453.53h1.67v7.8h.4l4.5-7.8h2.44v10.08H98.91v-7.8h-.4l-4.58,7.8Z"/><path class="cls-2" d="M75,484.55a5.39,5.39,0,0,1-5.66,4.32c-4.24,0-6.61-3.16-6.61-7.4s2.38-7.4,6.63-7.4c2.88,0,4.92,1.56,5.48,4h-1.9a3.36,3.36,0,0,0-3.58-2.36c-3.32,0-4.8,2.74-4.8,5.76s1.46,5.76,4.78,5.76a3.6,3.6,0,0,0,3.76-2.68Z"/><path class="cls-2" d="M82.14,478.53h7.57V480H83.85v8.6H82.14Z"/><path class="cls-2" d="M100.27,483.57c0,3-1.82,5.3-5,5.3s-5-2.3-5-5.3,1.79-5.3,5-5.3S100.27,480.57,100.27,483.57Zm-1.7,0c0-2-1-3.82-3.26-3.82s-3.26,1.86-3.26,3.82,1,3.82,3.26,3.82S98.57,485.55,98.57,483.57Z"/><path class="cls-2" d="M102.42,492.62V478.53h1.64v1.1h.4a3.82,3.82,0,0,1,3.13-1.36c2.8,0,4.48,2.3,4.48,5.3s-1.68,5.3-4.48,5.3a3.63,3.63,0,0,1-3.07-1.36h-.4v5.11Zm1.68-9.05c0,2,.92,3.82,3.17,3.82,2,0,3.1-1.58,3.1-3.82s-1.06-3.82-3.1-3.82C105,479.75,104.1,481.61,104.1,483.57Z"/><path class="cls-2" d="M115.34,478.53v2.84c0,1,0,2,2.54,2a11.91,11.91,0,0,0,2.52-.26v-4.6h1.73v10.08H120.4v-4a15.45,15.45,0,0,1-2.88.28c-3.66,0-3.88-1.74-3.88-3.4v-3Z"/><path class="cls-2" d="M124.9,488.61V478.53h1.66v7.8H127l4.5-7.8h2.44v10.08h-1.66v-7.8h-.4l-4.58,7.8Z"/><path class="cls-2" d="M145.51,478.53v8.6h1.84v4.35h-1.64v-2.87h-9V478.53h1.7v8.6h5.43v-8.6Z"/><path class="cls-2" d="M157.79,483.55H150.1c0,2.38,1.14,3.84,3.22,3.84a2.4,2.4,0,0,0,2.57-1.56h1.72c-.34,1.72-1.78,3-4.29,3-3.14,0-4.9-2.32-4.9-5.4s1.8-5.2,4.86-5.2,4.47,2.22,4.51,4.7Zm-7.59-1.42H156a2.6,2.6,0,0,0-2.79-2.38A2.85,2.85,0,0,0,150.2,482.13Z"/><path class="cls-2" d="M159.92,488.61V478.53h1.66v7.8h.4l4.51-7.8h2.44v10.08h-1.66v-7.8h-.4l-4.59,7.8Zm7.59-14.48a3.12,3.12,0,0,1-6.23,0h1.38a1.74,1.74,0,0,0,3.47,0Z"/><path class="cls-2" d="M176.76,488.61V478.53h1.66v7.8h.4l4.51-7.8h2.44v10.08H184.1v-7.8h-.39l-4.59,7.8Z"/><path class="cls-2" d="M194.72,478.53v2.84c0,1,0,2,2.54,2a11.91,11.91,0,0,0,2.52-.26v-4.6h1.73v10.08h-1.73v-4a15.45,15.45,0,0,1-2.88.28c-3.66,0-3.88-1.74-3.88-3.4v-3Z"/><path class="cls-2" d="M204.28,488.61V478.53h1.66v7.8h.4l4.51-7.8h2.44v10.08h-1.67v-7.8h-.39l-4.59,7.8Z"/><path class="cls-2" d="M214.92,487h.34c1.38,0,2-1,2-4.58v-3.9H225v10.08h-1.72V480h-4.43v2.46c0,4.64-1.08,6.14-3.56,6.14h-.34Z"/><path class="cls-2" d="M227.72,488.61V478.53h1.66v7.8h.4l4.5-7.8h2.45v10.08h-1.67v-7.8h-.4l-4.58,7.8Z"/><path class="cls-2" d="M75,509.55a5.39,5.39,0,0,1-5.66,4.32c-4.24,0-6.61-3.16-6.61-7.4s2.38-7.4,6.63-7.4c2.88,0,4.92,1.56,5.48,4h-1.9a3.36,3.36,0,0,0-3.58-2.36c-3.32,0-4.8,2.74-4.8,5.76s1.46,5.76,4.78,5.76a3.6,3.6,0,0,0,3.76-2.68Z"/><path class="cls-2" d="M82.14,503.53h2.67l2.54,4.8h.4l2.54-4.8h2.62v10.08H91.25v-8.1h-.4L88.45,510H86.61l-2.4-4.52h-.4v8.1H82.14Z"/><path class="cls-2" d="M104,503.53v10.08h-1.72v-4H99.18c-.21,0-.41,0-.62,0l-1.51,4H95.27l1.7-4.38a2.71,2.71,0,0,1-1.57-2.64c0-1.9,1.26-3.06,3.55-3.06ZM99.13,505c-1.53,0-2,.62-2,1.64s.5,1.58,2,1.58h3.12V505Z"/><path class="cls-2" d="M106.73,503.53h7.56V505h-5.86v8.6h-1.7Z"/><path class="cls-2" d="M120.67,509.17h-2.93v4.44H116V503.53h1.7v4.16h3l2.2-4.16h1.78l-2.56,4.86,2.7,5.22H123Z"/><path class="cls-2" d="M126.74,513.61V503.53h1.66v7.8h.41l4.5-7.8h2.44v10.08h-1.66v-7.8h-.4l-4.59,7.8Z"/><path class="cls-2" d="M138.52,503.53h2.66l2.55,4.8h.4l2.54-4.8h2.62v10.08h-1.66v-8.1h-.4l-2.4,4.52H143l-2.4-4.52h-.41v8.1h-1.66Z"/><path class="cls-2" d="M165.65,510.57a4,4,0,0,1-4.25,3.3c-3.14,0-4.9-2.3-4.9-5.3s1.76-5.3,4.9-5.3a3.89,3.89,0,0,1,4.19,3.18h-1.7a2.36,2.36,0,0,0-2.49-1.7c-2.28,0-3.2,1.76-3.2,3.78s.94,3.86,3.2,3.86a2.33,2.33,0,0,0,2.55-1.82Z"/><path class="cls-2" d="M169.38,503.53v3.36h2.78c2.44,0,3.81,1.26,3.81,3.34s-1.37,3.38-3.81,3.38h-4.48V503.53Zm0,8.6h2.54c1.76,0,2.35-.74,2.35-1.9s-.59-1.9-2.35-1.9h-2.54Zm9.91-8.6v10.08h-1.7V503.53Z"/><path class="cls-2" d="M182.06,517.62V503.53h1.64v1.1h.4a3.82,3.82,0,0,1,3.13-1.36c2.8,0,4.48,2.3,4.48,5.3s-1.68,5.3-4.48,5.3a3.63,3.63,0,0,1-3.07-1.36h-.4v5.11Zm1.68-9.05c0,2,.92,3.82,3.16,3.82,2,0,3.11-1.58,3.11-3.82s-1.07-3.82-3.11-3.82C184.66,504.75,183.74,506.61,183.74,508.57Z"/><path class="cls-2" d="M203.17,508.57c0,3-1.82,5.3-5,5.3s-5-2.3-5-5.3,1.8-5.3,5-5.3S203.17,505.57,203.17,508.57Zm-1.7,0c0-2-1-3.82-3.27-3.82s-3.26,1.86-3.26,3.82,1,3.82,3.26,3.82S201.47,510.55,201.47,508.57Z"/><path class="cls-2" d="M205.32,503.53H208l2.54,4.8h.4l2.55-4.8h2.62v10.08h-1.66v-8.1H214l-2.4,4.52h-1.84l-2.4-4.52H207v8.1h-1.66Z"/><path class="cls-2" d="M75,534.55a5.39,5.39,0,0,1-5.66,4.32c-4.24,0-6.61-3.16-6.61-7.4s2.38-7.4,6.63-7.4c2.88,0,4.92,1.56,5.48,4h-1.9a3.36,3.36,0,0,0-3.58-2.36c-3.32,0-4.8,2.74-4.8,5.76s1.46,5.76,4.78,5.76a3.6,3.6,0,0,0,3.76-2.68Z"/><path class="cls-2" d="M91.53,533.77a4.76,4.76,0,0,1-5,5.1c-3.12,0-5-2.16-5-6.06,0-3.42.5-6.86,4-7.52l2.7-.42c.76-.12,1-.24,1-.8h1.58a2.17,2.17,0,0,1-2,2.36c-.72.14-2.86.44-3.1.48-1.86.32-2.4,1.68-2.61,3.26h.38a3.82,3.82,0,0,1,3.31-1.48C89.81,528.69,91.53,530.89,91.53,533.77Zm-1.7,0c0-1.88-1.06-3.6-3.3-3.6s-3.3,1.72-3.3,3.6,1.06,3.62,3.3,3.62S89.83,535.65,89.83,533.77Z"/><path class="cls-2" d="M102.43,533.55H94.74c0,2.38,1.15,3.84,3.23,3.84a2.39,2.39,0,0,0,2.56-1.56h1.72c-.34,1.72-1.78,3-4.28,3-3.15,0-4.91-2.32-4.91-5.4s1.8-5.2,4.87-5.2,4.46,2.22,4.5,4.7Zm-7.58-1.42h5.82a2.6,2.6,0,0,0-2.78-2.38A2.85,2.85,0,0,0,94.85,532.13Z"/><path class="cls-2" d="M109.18,534.17h-2.92v4.44h-1.7V528.53h1.7v4.16h3l2.2-4.16h1.78l-2.57,4.86,2.71,5.22h-1.83Z"/><path class="cls-2" d="M124.57,533.57c0,3-1.82,5.3-5,5.3s-5-2.3-5-5.3,1.8-5.3,5-5.3S124.57,530.57,124.57,533.57Zm-1.7,0c0-2-1-3.82-3.27-3.82s-3.26,1.86-3.26,3.82,1,3.82,3.26,3.82S122.87,535.55,122.87,533.57Z"/><path class="cls-2" d="M134,538.61v-4.44h-5.59v4.44h-1.7V528.53h1.7v4.16H134v-4.16h1.7v10.08Z"/><path class="cls-2" d="M147.79,533.57c0,3-1.82,5.3-5,5.3s-5-2.3-5-5.3,1.8-5.3,5-5.3S147.79,530.57,147.79,533.57Zm-1.7,0c0-2-1-3.82-3.27-3.82s-3.26,1.86-3.26,3.82,1,3.82,3.26,3.82S146.09,535.55,146.09,533.57Z"/><path class="cls-2" d="M149.94,528.53h2.66l2.54,4.8h.4l2.55-4.8h2.62v10.08h-1.66v-8.1h-.41l-2.4,4.52H154.4l-2.4-4.52h-.4v8.1h-1.66Z"/><path class="cls-2" d="M168.54,538.61V528.53h1.66v7.8h.4l4.5-7.8h2.45v10.08h-1.67v-7.8h-.4l-4.58,7.8Z"/><path class="cls-2" d="M193.9,535.57a4,4,0,0,1-4.24,3.3c-3.14,0-4.9-2.3-4.9-5.3s1.76-5.3,4.9-5.3a3.9,3.9,0,0,1,4.19,3.18h-1.71a2.35,2.35,0,0,0-2.48-1.7c-2.28,0-3.2,1.76-3.2,3.78s.94,3.86,3.2,3.86a2.33,2.33,0,0,0,2.54-1.82Z"/><path class="cls-2" d="M197.64,528.53v3.36h2.78c2.44,0,3.81,1.26,3.81,3.34s-1.37,3.38-3.81,3.38h-4.48V528.53Zm0,8.6h2.54c1.76,0,2.34-.74,2.34-1.9s-.58-1.9-2.34-1.9h-2.54Zm9.91-8.6v10.08h-1.7V528.53Z"/><path class="cls-2" d="M210.32,542.62V528.53H212v1.1h.4a3.81,3.81,0,0,1,3.12-1.36c2.81,0,4.49,2.3,4.49,5.3s-1.68,5.3-4.49,5.3a3.62,3.62,0,0,1-3.06-1.36H212v5.11Zm1.68-9c0,2,.92,3.82,3.16,3.82,2,0,3.11-1.58,3.11-3.82s-1.07-3.82-3.11-3.82C212.92,529.75,212,531.61,212,533.57Z"/><path class="cls-2" d="M231.43,533.57c0,3-1.83,5.3-5,5.3s-5-2.3-5-5.3,1.8-5.3,5-5.3S231.43,530.57,231.43,533.57Zm-1.7,0c0-2-1-3.82-3.27-3.82s-3.26,1.86-3.26,3.82,1,3.82,3.26,3.82S229.73,535.55,229.73,533.57Z"/><path class="cls-2" d="M233.58,528.53h2.66l2.54,4.8h.4l2.54-4.8h2.62v10.08h-1.66v-8.1h-.4l-2.4,4.52H238l-2.4-4.52h-.4v8.1h-1.66Z"/><path class="cls-2" d="M75,559.55a5.39,5.39,0,0,1-5.66,4.32c-4.24,0-6.61-3.16-6.61-7.4s2.38-7.4,6.63-7.4c2.88,0,4.92,1.56,5.48,4h-1.9a3.36,3.36,0,0,0-3.58-2.36c-3.32,0-4.8,2.74-4.8,5.76s1.46,5.76,4.78,5.76a3.6,3.6,0,0,0,3.76-2.68Z"/><path class="cls-2" d="M86.77,559.17H83.85v4.44H82.14V553.53h1.71v4.16h3l2.2-4.16h1.78l-2.56,4.86,2.7,5.22H89.11Z"/><path class="cls-2" d="M93.82,567.62l2.07-4.91-4.25-9.18h1.84l3,6.64H97l2.8-6.64h1.82l-6.08,14.09Z"/><path class="cls-2" d="M103.1,567.62V553.53h1.64v1.1h.4a3.83,3.83,0,0,1,3.13-1.36c2.8,0,4.48,2.3,4.48,5.3s-1.68,5.3-4.48,5.3a3.61,3.61,0,0,1-3.06-1.36h-.4v5.11Zm1.68-9c0,2,.93,3.82,3.17,3.82,2,0,3.1-1.58,3.1-3.82s-1.06-3.82-3.1-3.82C105.71,554.75,104.78,556.61,104.78,558.57Z"/><path class="cls-2" d="M124.21,558.57c0,3-1.82,5.3-5,5.3s-5-2.3-5-5.3,1.8-5.3,5-5.3S124.21,555.57,124.21,558.57Zm-1.7,0c0-2-1-3.82-3.26-3.82s-3.27,1.86-3.27,3.82,1,3.82,3.27,3.82S122.51,560.55,122.51,558.57Z"/><path class="cls-2" d="M127.48,553.53v2.84c0,1,0,2,2.54,2a11.93,11.93,0,0,0,2.53-.26v-4.6h1.72v10.08h-1.72v-4a15.53,15.53,0,0,1-2.88.28c-3.67,0-3.89-1.74-3.89-3.4v-3Z"/><path class="cls-2" d="M141.67,559.17h-2.93v4.44H137V553.53h1.7v4.16h3l2.2-4.16h1.78l-2.56,4.86,2.7,5.22H144Z"/><path class="cls-2" d="M157.05,558.57c0,3-1.82,5.3-5,5.3s-5-2.3-5-5.3,1.8-5.3,5-5.3S157.05,555.57,157.05,558.57Zm-1.7,0c0-2-1-3.82-3.27-3.82s-3.26,1.86-3.26,3.82,1,3.82,3.26,3.82S155.35,560.55,155.35,558.57Z"/><path class="cls-2" d="M159.2,563.61V553.53h1.66v7.8h.4l4.51-7.8h2.44v10.08h-1.67v-7.8h-.4l-4.58,7.8Zm7.58-14.48a3.12,3.12,0,0,1-6.22,0h1.38a1.73,1.73,0,0,0,3.46,0Z"/><path class="cls-2" d="M176,553.53h7.56V555h-5.86v8.6H176Z"/><path class="cls-2" d="M185.36,567.62V553.53H187v1.1h.4a3.81,3.81,0,0,1,3.12-1.36c2.8,0,4.49,2.3,4.49,5.3s-1.69,5.3-4.49,5.3a3.62,3.62,0,0,1-3.06-1.36h-.4v5.11Zm1.68-9c0,2,.92,3.82,3.16,3.82,2,0,3.11-1.58,3.11-3.82s-1.07-3.82-3.11-3.82C188,554.75,187,556.61,187,558.57Z"/><path class="cls-2" d="M197.16,563.61V553.53h1.66v7.8h.4l4.51-7.8h2.44v10.08H204.5v-7.8h-.4l-4.58,7.8Z"/><path class="cls-2" d="M207.8,562h.34c1.38,0,2-1,2-4.58v-3.9h7.73v10.08h-1.72V555H211.7v2.46c0,4.64-1.08,6.14-3.56,6.14h-.34Z"/><path class="cls-2" d="M222.3,556.89h3c2.44,0,3.8,1.26,3.8,3.34s-1.36,3.38-3.8,3.38H220.6V553.53h1.7Zm5.08,3.34c0-1.18-.58-1.9-2.34-1.9H222.3v3.8H225C226.8,562.13,227.38,561.39,227.38,560.23Z"/><path class="cls-4" d="M470.19,623c2.78,0,4.85,1.56,4.85,4.55,0,2-1.54,4-3.31,5.42L468,636.13v.42h7.54v1.67H465.25v-2.09s4-3.27,5.58-4.7c1-.9,2.33-2.16,2.33-3.91a2.71,2.71,0,0,0-3-2.89,2.83,2.83,0,0,0-3.06,2.76h-1.88C465.4,624.4,467.52,623,470.19,623Z"/><path class="cls-4" d="M482,623c2.78,0,4.85,1.56,4.85,4.55,0,2-1.54,4-3.31,5.42l-3.74,3.19v.42h7.54v1.67H477.05v-2.09s4-3.27,5.57-4.7c1-.9,2.33-2.16,2.33-3.91a2.71,2.71,0,0,0-3-2.89,2.83,2.83,0,0,0-3.06,2.76H477C477.19,624.4,479.31,623,482,623Z"/><path class="cls-4" d="M488.6,628.12a4.88,4.88,0,0,1,5.08-5.15c3.19,0,5.49,2,5.49,7.35,0,4.57-1.77,8.18-5.68,8.18a4.26,4.26,0,0,1-4.48-3.57h1.85a2.45,2.45,0,0,0,2.63,1.9c2.37,0,3.76-2.05,3.87-5.32h-.43a4.54,4.54,0,0,1-3.52,1.48A4.69,4.69,0,0,1,488.6,628.12Zm1.88-.09a3.26,3.26,0,1,0,6.52,0,3.18,3.18,0,0,0-3.29-3.42A3.09,3.09,0,0,0,490.48,628Z"/><path class="cls-2" d="M75,634.67A5.39,5.39,0,0,1,69.29,639c-4.25,0-6.61-3.16-6.61-7.4s2.38-7.4,6.63-7.4c2.88,0,4.92,1.56,5.48,4h-1.9a3.36,3.36,0,0,0-3.58-2.36c-3.33,0-4.81,2.74-4.81,5.76s1.46,5.76,4.79,5.76a3.6,3.6,0,0,0,3.76-2.68Z"/><path class="cls-2" d="M81,637.13h.34c1.38,0,2-1,2-4.58v-3.9h7.73v10.08H89.33v-8.6H84.9v2.46c0,4.64-1.08,6.14-3.56,6.14H81Z"/><path class="cls-2" d="M103.11,633.69c0,3-1.82,5.3-5,5.3s-5-2.3-5-5.3,1.8-5.3,5-5.3S103.11,630.69,103.11,633.69Zm-1.7,0c0-2-1-3.82-3.27-3.82s-3.26,1.86-3.26,3.82,1,3.82,3.26,3.82S101.41,635.67,101.41,633.69Z"/><path class="cls-2" d="M113.78,635.69a4,4,0,0,1-4.24,3.3c-3.14,0-4.9-2.3-4.9-5.3s1.76-5.3,4.9-5.3a3.88,3.88,0,0,1,4.18,3.18H112a2.35,2.35,0,0,0-2.48-1.7c-2.28,0-3.2,1.76-3.2,3.78s.94,3.86,3.2,3.86a2.33,2.33,0,0,0,2.54-1.82Z"/><path class="cls-2" d="M125.12,633.69c0,3-1.82,5.3-5,5.3s-5-2.3-5-5.3,1.8-5.3,5-5.3S125.12,630.69,125.12,633.69Zm-1.7,0c0-2-1-3.82-3.26-3.82s-3.26,1.86-3.26,3.82,1,3.82,3.26,3.82S123.42,635.67,123.42,633.69Z"/><path class="cls-2" d="M135.8,635.69a4,4,0,0,1-4.24,3.3c-3.14,0-4.9-2.3-4.9-5.3s1.76-5.3,4.9-5.3a3.88,3.88,0,0,1,4.18,3.18H134a2.35,2.35,0,0,0-2.48-1.7c-2.28,0-3.2,1.76-3.2,3.78s.94,3.86,3.2,3.86a2.33,2.33,0,0,0,2.54-1.82Z"/><path class="cls-2" d="M146.58,633.67H138.9c0,2.38,1.14,3.84,3.22,3.84a2.39,2.39,0,0,0,2.56-1.56h1.72c-.34,1.72-1.78,3-4.28,3-3.14,0-4.9-2.32-4.9-5.4s1.8-5.2,4.86-5.2,4.46,2.22,4.5,4.7ZM139,632.25h5.82a2.6,2.6,0,0,0-2.78-2.38A2.85,2.85,0,0,0,139,632.25Z"/><path class="cls-2" d="M148.72,628.65h2.66l2.54,4.8h.4l2.54-4.8h2.62v10.08h-1.66v-8.1h-.4l-2.4,4.52h-1.84l-2.4-4.52h-.4v8.1h-1.66Z"/><path class="cls-2" d="M167.32,638.73V628.65H169v7.8h.4l4.5-7.8h2.44v10.08h-1.66v-7.8h-.4l-4.58,7.8Z"/><path class="cls-2" d="M182.32,628.65H191v1.48h-3.48v8.6h-1.7v-8.6h-3.5Z"/><path class="cls-2" d="M201.88,633.69c0,3-1.82,5.3-5,5.3s-5-2.3-5-5.3,1.8-5.3,5-5.3S201.88,630.69,201.88,633.69Zm-1.7,0c0-2-1-3.82-3.26-3.82s-3.26,1.86-3.26,3.82,1,3.82,3.26,3.82S200.18,635.67,200.18,633.69Z"/><path class="cls-2" d="M204,628.65h2.66l2.54,4.8h.4l2.54-4.8h2.62v10.08h-1.66v-8.1h-.4l-2.4,4.52H208.5l-2.4-4.52h-.4v8.1H204Z"/><path class="cls-2" d="M224,637.65h-.4a3.94,3.94,0,0,1-3.16,1.34,3.33,3.33,0,0,1-3.64-3.28c0-1.62,1-3.34,3.86-3.34h3.28V632c0-1.22-.72-2.1-2.46-2.1-1.48,0-2.26.58-2.34,1.46h-1.7c.12-1.86,1.74-2.94,4-2.94,2.52,0,4.16,1.22,4.16,3.48v6.86H224Zm-.06-3v-.9h-3c-1.64,0-2.42.7-2.42,1.88s.86,1.84,2.34,1.84A3,3,0,0,0,223.94,634.69Z"/><path class="cls-2" d="M227.06,628.65h8.68v1.48h-3.48v8.6h-1.7v-8.6h-3.5Z"/><path class="cls-2" d="M243.9,637.65h-.4a3.94,3.94,0,0,1-3.16,1.34,3.33,3.33,0,0,1-3.64-3.28c0-1.62,1-3.34,3.86-3.34h3.28V632c0-1.22-.72-2.1-2.46-2.1-1.48,0-2.26.58-2.34,1.46h-1.7c.12-1.86,1.74-2.94,4-2.94,2.52,0,4.16,1.22,4.16,3.48v6.86h-1.6Zm-.06-3v-.9h-3c-1.64,0-2.42.7-2.42,1.88s.86,1.84,2.34,1.84A3,3,0,0,0,243.84,634.69Z"/><path class="cls-2" d="M248.12,628.65h2.66l2.54,4.8h.4l2.54-4.8h2.62v10.08h-1.66v-8.1h-.4l-2.4,4.52h-1.84l-2.4-4.52h-.4v8.1h-1.66Z"/><path class="cls-2" d="M261.66,638.73V628.65h1.66v7.8h.4l4.5-7.8h2.44v10.08H269v-7.8h-.4l-4.58,7.8Z"/><path class="cls-3" d="M75,585.13a5.39,5.39,0,0,1-5.66,4.32c-4.25,0-6.61-3.16-6.61-7.4s2.38-7.4,6.63-7.4c2.88,0,4.92,1.56,5.48,4h-1.9a3.36,3.36,0,0,0-3.58-2.36c-3.33,0-4.81,2.74-4.81,5.76s1.46,5.76,4.79,5.76a3.6,3.6,0,0,0,3.76-2.68Z"/><path class="cls-3" d="M89.35,589.19v-8.6H83.84v8.6h-1.7V579.11h8.91v10.08Z"/><path class="cls-3" d="M100.25,588.11h-.4a4,4,0,0,1-3.17,1.34A3.33,3.33,0,0,1,93,586.17c0-1.62,1-3.34,3.86-3.34h3.28v-.4c0-1.22-.71-2.1-2.46-2.1-1.48,0-2.26.58-2.34,1.46h-1.7c.12-1.86,1.74-2.94,4-2.94,2.53,0,4.17,1.22,4.17,3.48v6.86h-1.6Zm-.07-3v-.9h-3c-1.64,0-2.42.7-2.42,1.88S95.6,588,97.08,588A3,3,0,0,0,100.18,585.15Z"/><path class="cls-3" d="M104.46,593.19V579.11h1.64v1.1h.4a3.81,3.81,0,0,1,3.12-1.36c2.81,0,4.49,2.3,4.49,5.3s-1.68,5.3-4.49,5.3a3.62,3.62,0,0,1-3.06-1.36h-.4v5.1Zm1.68-9c0,2,.92,3.82,3.16,3.82,2,0,3.11-1.58,3.11-3.82s-1.06-3.82-3.11-3.82C107.06,580.33,106.14,582.19,106.14,584.15Z"/><path class="cls-3" d="M116.26,579.11h2.66l2.54,4.8h.4l2.55-4.8H127v10.08h-1.66v-8.1H125l-2.41,4.52h-1.84l-2.4-4.52h-.4v8.1h-1.66Z"/><path class="cls-3" d="M138.55,584.13h-7.69c0,2.38,1.14,3.84,3.22,3.84a2.39,2.39,0,0,0,2.56-1.56h1.73c-.34,1.72-1.79,3-4.29,3-3.14,0-4.9-2.32-4.9-5.4s1.8-5.2,4.86-5.2,4.47,2.22,4.51,4.7ZM131,582.71h5.83a2.61,2.61,0,0,0-2.79-2.38A2.85,2.85,0,0,0,131,582.71Z"/><path class="cls-3" d="M144.24,580.33c-1.44,0-2.2.48-2.44,1.56h-1.62c.18-1.92,1.78-3,4.1-3,2.52,0,3.86,1.28,3.86,2.8a2.05,2.05,0,0,1-1.1,2.06v.4a2.18,2.18,0,0,1,1.46,2.3c0,1.64-1.48,3-4.18,3s-4.26-1.24-4.54-3.12h1.64c.38,1.26,1.52,1.64,2.9,1.64s2.48-.54,2.48-1.62-.56-1.56-2.22-1.56H142.8v-1.48h1.7c1.42,0,2-.66,2-1.44C146.46,580.87,145.54,580.33,144.24,580.33Z"/><path class="cls-3" d="M157.14,588.11h-.4a3.94,3.94,0,0,1-3.16,1.34,3.33,3.33,0,0,1-3.64-3.28c0-1.62,1-3.34,3.86-3.34h3.28v-.4c0-1.22-.72-2.1-2.46-2.1-1.48,0-2.26.58-2.34,1.46h-1.7c.12-1.86,1.74-2.94,4-2.94,2.52,0,4.16,1.22,4.16,3.48v6.86h-1.6Zm-.06-3v-.9h-3c-1.64,0-2.42.7-2.42,1.88S152.5,588,154,588A3,3,0,0,0,157.08,585.15Z"/><path class="cls-3" d="M168.64,589.19v-4.44h-5.58v4.44h-1.7V579.11h1.7v4.16h5.58v-4.16h1.7v10.08Z"/><path class="cls-3" d="M182.42,584.15c0,3-1.82,5.3-5,5.3s-5-2.3-5-5.3,1.8-5.3,5-5.3S182.42,581.15,182.42,584.15Zm-1.7,0c0-2-1-3.82-3.26-3.82s-3.26,1.86-3.26,3.82,1,3.82,3.26,3.82S180.72,586.13,180.72,584.15Z"/><path class="cls-3" d="M184.58,579.11h2.66l2.54,4.8h.4l2.54-4.8h2.63v10.08h-1.67v-8.1h-.4l-2.4,4.52H189l-2.4-4.52h-.4v8.1h-1.66Z"/><path class="cls-3" d="M198,589.19v-2.32h2.08v2.66l-1.12,2h-1.12l1.12-2v-.34Z"/><path class="cls-3" d="M217.14,584.15c0,3-1.82,5.3-5,5.3s-5-2.3-5-5.3,1.8-5.3,5-5.3S217.14,581.15,217.14,584.15Zm-1.7,0c0-2-1-3.82-3.26-3.82s-3.26,1.86-3.26,3.82,1,3.82,3.26,3.82S215.44,586.13,215.44,584.15Z"/><path class="cls-3" d="M219.3,579.11h7.56v1.48H221v8.6h-1.7Z"/><path class="cls-3" d="M229.6,593.19l2.06-4.9-4.24-9.18h1.84l3,6.64h.5l2.8-6.64h1.82l-6.08,14.08Z"/><path class="cls-3" d="M238.88,593.19V579.11h1.64v1.1h.4a3.81,3.81,0,0,1,3.12-1.36c2.8,0,4.48,2.3,4.48,5.3s-1.68,5.3-4.48,5.3a3.62,3.62,0,0,1-3.06-1.36h-.4v5.1Zm1.68-9c0,2,.92,3.82,3.16,3.82,2,0,3.1-1.58,3.1-3.82s-1.06-3.82-3.1-3.82C241.48,580.33,240.56,582.19,240.56,584.15Z"/><path class="cls-3" d="M251.8,579.11V582c0,1,0,2,2.54,2a11.91,11.91,0,0,0,2.52-.26v-4.6h1.72v10.08h-1.72v-4a15.45,15.45,0,0,1-2.88.28c-3.66,0-3.88-1.74-3.88-3.4v-3Z"/><path class="cls-3" d="M261.36,589.19V579.11H263v7.8h.4l4.5-7.8h2.44v10.08H268.7v-7.8h-.4l-4.58,7.8Z"/><path class="cls-3" d="M277.76,584.75h-2.92v4.44h-1.7V579.11h1.7v4.16h3l2.2-4.16h1.78L279.22,584l2.7,5.22H280.1Z"/><path class="cls-3" d="M293.14,584.15c0,3-1.82,5.3-5,5.3s-5-2.3-5-5.3,1.8-5.3,5-5.3S293.14,581.15,293.14,584.15Zm-1.7,0c0-2-1-3.82-3.26-3.82s-3.26,1.86-3.26,3.82,1,3.82,3.26,3.82S291.44,586.13,291.44,584.15Z"/><path class="cls-3" d="M295.3,579.11H298l2.54,4.8h.4l2.54-4.8h2.62v10.08H304.4v-8.1H304l-2.4,4.52h-1.84l-2.4-4.52H297v8.1H295.3Z"/><path class="cls-3" d="M63.22,611.19V601.11h1.66v7.8h.4l4.51-7.8h2.44v10.08H70.57v-7.8h-.4l-4.59,7.8Z"/><path class="cls-3" d="M78.22,601.11h8.69v1.48H83.43v8.6h-1.7v-8.6H78.22Z"/><path class="cls-3" d="M88.64,615.19V601.11h1.64v1.1h.4a3.83,3.83,0,0,1,3.13-1.36c2.8,0,4.48,2.3,4.48,5.3s-1.68,5.3-4.48,5.3a3.64,3.64,0,0,1-3.07-1.36h-.4v5.1Zm1.68-9c0,2,.92,3.82,3.17,3.82,2,0,3.1-1.58,3.1-3.82s-1.06-3.82-3.1-3.82C91.24,602.33,90.32,604.19,90.32,606.15Z"/><path class="cls-3" d="M114.15,606.15c0,3-1.82,5.3-4.88,5.3-2.86,0-4.61-2-4.85-4.7h-2.3v4.44h-1.68V601.11h1.68v4.16h2.36a4.7,4.7,0,0,1,4.79-4.42C112.33,600.85,114.15,603.19,114.15,606.15Zm-1.7,0c0-2-1-3.82-3.18-3.82s-3.18,1.86-3.18,3.82,1,3.82,3.18,3.82S112.45,608.13,112.45,606.15Z"/><path class="cls-3" d="M122.67,615.19H121v-4h-.32a5,5,0,0,1,0-10.08H121v-4.46h1.69v4.46H123a4.67,4.67,0,0,1,5,5c0,3.1-1.88,5-5.28,5Zm-2-5.44H121v-7.2h-.32c-2.24,0-3.3,1.64-3.3,3.6S118.4,609.75,120.66,609.75Zm2.29,0c2.26,0,3.32-1.64,3.32-3.6s-1.06-3.6-3.32-3.6h-.28v7.2Z"/><path class="cls-3" d="M138.85,606.13h-7.69c0,2.38,1.14,3.84,3.22,3.84a2.41,2.41,0,0,0,2.57-1.56h1.72c-.34,1.72-1.78,3-4.29,3-3.14,0-4.9-2.32-4.9-5.4s1.8-5.2,4.86-5.2,4.47,2.22,4.51,4.7Zm-7.59-1.42h5.83a2.61,2.61,0,0,0-2.79-2.38A2.85,2.85,0,0,0,131.26,604.71Z"/><path class="cls-3" d="M139.84,609.59h.34c1.38,0,2-1,2-4.58v-3.9h7.73v10.08h-1.73v-8.6h-4.42v2.46c0,4.64-1.08,6.14-3.56,6.14h-.34Z"/><path class="cls-3" d="M154.34,604.47h3c2.44,0,3.8,1.26,3.8,3.34s-1.36,3.38-3.8,3.38h-4.68V601.11h1.7Zm5.08,3.34c0-1.18-.58-1.9-2.34-1.9h-2.74v3.8h2.74C158.84,609.71,159.42,609,159.42,607.81Z"/><path class="cls-3" d="M170.32,611.19v-4.44h-5.58v4.44H163V601.11h1.7v4.16h5.58v-4.16H172v10.08Z"/><path class="cls-3" d="M176.5,601.11v3.36h2.78c2.44,0,3.8,1.26,3.8,3.34s-1.36,3.38-3.8,3.38H174.8V601.11Zm0,8.6H179c1.76,0,2.34-.74,2.34-1.9s-.58-1.9-2.34-1.9H176.5Zm9.91-8.6v10.08h-1.7V601.11Z"/><path class="cls-3" d="M189.18,601.11h2.66l2.54,4.8h.4l2.54-4.8H200v10.08h-1.67v-8.1h-.4l-2.4,4.52h-1.84l-2.4-4.52h-.4v8.1h-1.66Z"/><path class="cls-3" d="M216.3,608.15a4,4,0,0,1-4.24,3.3c-3.14,0-4.9-2.3-4.9-5.3s1.76-5.3,4.9-5.3a3.88,3.88,0,0,1,4.18,3.18h-1.7a2.35,2.35,0,0,0-2.48-1.7c-2.28,0-3.2,1.76-3.2,3.78s.94,3.86,3.2,3.86a2.33,2.33,0,0,0,2.54-1.82Z"/><path class="cls-3" d="M227.64,606.15c0,3-1.82,5.3-5,5.3s-5-2.3-5-5.3,1.8-5.3,5-5.3S227.64,603.15,227.64,606.15Zm-1.7,0c0-2-1-3.82-3.26-3.82s-3.26,1.86-3.26,3.82,1,3.82,3.26,3.82S225.94,608.13,225.94,606.15Z"/><path class="cls-3" d="M230.54,615.19l2.06-4.9-4.24-9.18h1.84l3,6.64h.5l2.8-6.64h1.82l-6.08,14.08Z"/><path class="cls-3" d="M248.14,608.15a4,4,0,0,1-4.24,3.3c-3.14,0-4.9-2.3-4.9-5.3s1.76-5.3,4.9-5.3a3.88,3.88,0,0,1,4.18,3.18h-1.7a2.35,2.35,0,0,0-2.48-1.7c-2.28,0-3.2,1.76-3.2,3.78s.94,3.86,3.2,3.86a2.33,2.33,0,0,0,2.54-1.82Z"/><path class="cls-3" d="M259.48,606.15c0,3-1.82,5.3-5,5.3s-5-2.3-5-5.3,1.8-5.3,5-5.3S259.48,603.15,259.48,606.15Zm-1.7,0c0-2-1-3.82-3.26-3.82s-3.26,1.86-3.26,3.82,1,3.82,3.26,3.82S257.78,608.13,257.78,606.15Z"/><path class="cls-3" d="M261.64,601.11h2.66l2.54,4.8h.4l2.54-4.8h2.62v10.08h-1.66v-8.1h-.4l-2.4,4.52H266.1l-2.4-4.52h-.4v8.1h-1.66Z"/><path class="cls-5" d="M465.36,609.72h3.54V598.4h-.38l-3.19,2.11v-2l3.17-2.12h2.28v13.29h3.27v1.67h-8.69Z"/><path class="cls-5" d="M475.14,601.28a4.88,4.88,0,0,1,5.08-5.15c3.19,0,5.49,2,5.49,7.35,0,4.57-1.77,8.18-5.68,8.18a4.27,4.27,0,0,1-4.49-3.56h1.86A2.45,2.45,0,0,0,480,610c2.37,0,3.76-2,3.87-5.32h-.43a4.54,4.54,0,0,1-3.52,1.47A4.69,4.69,0,0,1,475.14,601.28Zm1.88-.08a3.26,3.26,0,1,0,6.51,0,3.17,3.17,0,0,0-3.29-3.42A3.09,3.09,0,0,0,477,601.2Z"/><path class="cls-5" d="M487.16,601.28a4.89,4.89,0,0,1,5.09-5.15c3.18,0,5.49,2,5.49,7.35,0,4.57-1.77,8.18-5.68,8.18a4.25,4.25,0,0,1-4.49-3.56h1.86a2.43,2.43,0,0,0,2.63,1.9c2.37,0,3.76-2,3.86-5.32h-.42a4.57,4.57,0,0,1-3.53,1.47A4.69,4.69,0,0,1,487.16,601.28Zm1.88-.08a3.26,3.26,0,1,0,6.52,0,3.17,3.17,0,0,0-3.29-3.42A3.09,3.09,0,0,0,489,601.2Z"/><path class="cls-5" d="M470.81,882.44c2.78,0,4.85,1.55,4.85,4.55,0,2-1.54,4-3.31,5.42l-3.74,3.18V896h7.54v1.67H465.87v-2.1s4-3.26,5.58-4.69c1-.9,2.33-2.16,2.33-3.91a2.71,2.71,0,0,0-3-2.89,2.83,2.83,0,0,0-3.06,2.76h-1.88C466,883.87,468.14,882.44,470.81,882.44Z"/><path class="cls-5" d="M487,882.73v2.06l-3.74,3.28v.41a4.26,4.26,0,0,1,4.44,4.55c0,3.1-2.22,4.94-5.27,4.94s-5.09-1.93-5.24-4.47h1.88a3.4,3.4,0,0,0,6.75-.47c0-1.94-1.19-3.18-3.37-3.18a5.43,5.43,0,0,0-1.3.13v-2l3.65-3.24v-.43h-6.54v-1.63Z"/><path class="cls-5" d="M489,887.58a4.87,4.87,0,0,1,5.08-5.14c3.19,0,5.49,2,5.49,7.34,0,4.58-1.77,8.19-5.68,8.19a4.27,4.27,0,0,1-4.49-3.57h1.86a2.45,2.45,0,0,0,2.63,1.9c2.37,0,3.76-2,3.87-5.32h-.43a4.55,4.55,0,0,1-3.53,1.47A4.68,4.68,0,0,1,489,887.58Zm1.88-.08a3.26,3.26,0,1,0,6.51,0,3.17,3.17,0,0,0-3.29-3.42A3.09,3.09,0,0,0,490.91,887.5Z"/><path class="cls-4" d="M470.81,907.51c2.78,0,4.85,1.56,4.85,4.55,0,2-1.54,4-3.31,5.42l-3.74,3.18v.43h7.54v1.67H465.87v-2.1s4-3.26,5.58-4.69c1-.9,2.33-2.16,2.33-3.91a2.71,2.71,0,0,0-3-2.89,2.83,2.83,0,0,0-3.06,2.76h-1.88C466,908.94,468.14,907.51,470.81,907.51Z"/><path class="cls-4" d="M477.77,921.09h3.55V909.77h-.39l-3.18,2.12v-2l3.16-2.11h2.29v13.28h3.27v1.67h-8.7Z"/><path class="cls-4" d="M487.56,912.65a4.87,4.87,0,0,1,5.08-5.14c3.18,0,5.49,2,5.49,7.34,0,4.58-1.77,8.19-5.68,8.19a4.27,4.27,0,0,1-4.49-3.57h1.86a2.44,2.44,0,0,0,2.63,1.9c2.37,0,3.76-2,3.86-5.32h-.42a4.57,4.57,0,0,1-3.53,1.47A4.68,4.68,0,0,1,487.56,912.65Zm1.88-.08a3.26,3.26,0,1,0,6.51,0,3.17,3.17,0,0,0-3.29-3.42A3.09,3.09,0,0,0,489.44,912.57Z"/><path class="cls-1" d="M33.35,674.19h2.79v9.45h6.54l4.59-9.45h2.95L45.1,684.94l5.4,11.38h-3l-4.87-10.13H36.14v10.13H33.35Z"/><path class="cls-1" d="M72.63,685.26c0,6.38-3.6,11.47-10.33,11.47S52,691.64,52,685.26s3.56-11.48,10.32-11.48S72.63,678.87,72.63,685.26Zm-2.82,0c0-4.65-2.23-8.93-7.51-8.93s-7.5,4.28-7.5,8.93,2.23,8.93,7.5,8.93S69.81,689.91,69.81,685.26Z"/><path class="cls-1" d="M76.22,674.19h4.59l5.67,10.38h.62l5.59-10.38H97.3v22.13H94.58v-19H94l-5.77,10.51H85.34l-5.77-10.51H79v19H76.22Z"/><path class="cls-1" d="M118.88,689.75c0,4.09-2.67,6.57-7.41,6.57H102V674.19h15.16v2.54H104.8v6.45h6.67C116.21,683.18,118.88,685.66,118.88,689.75Zm-2.79,0c0-2.54-1.33-4.09-5.09-4.09h-6.2v8.21H111C114.76,693.84,116.09,692.26,116.09,689.72Z"/><path class="cls-1" d="M141.91,685.26c0,6.38-3.59,11.47-10.32,11.47s-10.33-5.09-10.33-11.47,3.57-11.48,10.33-11.48S141.91,678.87,141.91,685.26Zm-2.82,0c0-4.65-2.23-8.93-7.5-8.93s-7.5,4.28-7.5,8.93,2.23,8.93,7.5,8.93S139.09,689.91,139.09,685.26Z"/><path class="cls-3" d="M64.29,720.2l.7-3.88h1.42l-.7,3.88h2.72l.7-3.88h1.42l-.7,3.88h2v1.36H69.61l-.6,3.52h2v1.36H68.77l-.7,3.88H66.63l.7-3.88h-2.7l-.7,3.88H62.49l.7-3.88h-2v-1.36h2.24l.62-3.52H62V720.2Zm.58,4.88h2.7l.62-3.52H65.47Z"/><path class="cls-3" d="M73.19,728.76h3.32v-10.6h-.36l-3,2V718.3l3-2h2.14v12.44h3.06v1.56H73.19Z"/><path class="cls-3" d="M100,726.26a5.39,5.39,0,0,1-5.66,4.32c-4.24,0-6.6-3.16-6.6-7.4s2.38-7.4,6.62-7.4c2.88,0,4.92,1.56,5.48,4H98a3.36,3.36,0,0,0-3.58-2.36c-3.32,0-4.8,2.74-4.8,5.76s1.46,5.76,4.78,5.76a3.6,3.6,0,0,0,3.76-2.68Z"/><path class="cls-3" d="M103.13,734.32l2.06-4.9L101,720.24h1.84l3,6.64h.5l2.8-6.64H111l-6.08,14.08Z"/><path class="cls-3" d="M119.61,730.32v-8.6h-5.5v8.6h-1.7V720.24h8.9v10.08Z"/><path class="cls-3" d="M133.59,719.56h1.46v4.34h4.36v1.46h-4.36v4.34h-1.46v-4.34h-4.34V723.9h4.34Z"/><path class="cls-3" d="M152,725.88h-2.92v4.44h-1.7V720.24h1.7v4.16h3l2.2-4.16H156l-2.56,4.86,2.7,5.22h-1.82Z"/><path class="cls-3" d="M164.47,729.24h-.4a3.94,3.94,0,0,1-3.16,1.34,3.33,3.33,0,0,1-3.64-3.28c0-1.62,1-3.34,3.86-3.34h3.28v-.4c0-1.22-.72-2.1-2.46-2.1-1.48,0-2.26.58-2.34,1.46h-1.7c.12-1.86,1.74-2.94,4-2.94,2.52,0,4.16,1.22,4.16,3.48v6.86h-1.6Zm-.06-3v-.9h-3c-1.64,0-2.42.7-2.42,1.88s.86,1.84,2.34,1.84A3,3,0,0,0,164.41,726.28Z"/><path class="cls-3" d="M168.69,734.32V720.24h1.64v1.1h.4a3.81,3.81,0,0,1,3.12-1.36c2.8,0,4.48,2.3,4.48,5.3s-1.68,5.3-4.48,5.3a3.62,3.62,0,0,1-3.06-1.36h-.4v5.1Zm1.68-9c0,2,.92,3.82,3.16,3.82,2,0,3.1-1.58,3.1-3.82s-1.06-3.82-3.1-3.82C171.29,721.46,170.37,723.32,170.37,725.28Z"/><path class="cls-3" d="M179.25,720.24h8.68v1.48h-3.48v8.6h-1.7v-8.6h-3.5Z"/><path class="cls-3" d="M198.81,725.28c0,3-1.82,5.3-5,5.3s-5-2.3-5-5.3,1.8-5.3,5-5.3S198.81,722.28,198.81,725.28Zm-1.7,0c0-2-1-3.82-3.26-3.82s-3.26,1.86-3.26,3.82,1,3.82,3.26,3.82S197.11,727.26,197.11,725.28Z"/><path class="cls-3" d="M213.87,720.24v10.08H201V720.24h1.66v8.6h4v-8.6h1.66v8.6h4v-8.6Z"/><path class="cls-3" d="M225.39,725.26h-7.68c0,2.38,1.14,3.84,3.22,3.84a2.39,2.39,0,0,0,2.56-1.56h1.72c-.34,1.72-1.78,3-4.28,3-3.14,0-4.9-2.32-4.9-5.4s1.8-5.2,4.86-5.2,4.46,2.22,4.5,4.7Zm-7.58-1.42h5.82a2.6,2.6,0,0,0-2.78-2.38A2.85,2.85,0,0,0,217.81,723.84Z"/><path class="cls-3" d="M228.65,720.24v2.84c0,1,0,2,2.54,2a11.91,11.91,0,0,0,2.52-.26v-4.6h1.72v10.08h-1.72v-4a15.45,15.45,0,0,1-2.88.28c-3.66,0-3.88-1.74-3.88-3.4v-3Z"/><path class="cls-3" d="M242.83,725.88h-2.92v4.44h-1.7V720.24h1.7v4.16h3l2.2-4.16h1.78l-2.56,4.86,2.7,5.22h-1.82Z"/><path class="cls-3" d="M255.33,729.24h-.4a3.94,3.94,0,0,1-3.16,1.34,3.33,3.33,0,0,1-3.64-3.28c0-1.62,1-3.34,3.86-3.34h3.28v-.4c0-1.22-.72-2.1-2.46-2.1-1.48,0-2.26.58-2.34,1.46h-1.7c.12-1.86,1.74-2.94,4-2.94,2.52,0,4.16,1.22,4.16,3.48v6.86h-1.6Zm-.06-3v-.9h-3c-1.64,0-2.42.7-2.42,1.88s.86,1.84,2.34,1.84A3,3,0,0,0,255.27,726.28Z"/><path class="cls-3" d="M271,734.32h-1.68v-4H269a5,5,0,0,1,0-10.08h.34v-4.46H271v4.46h.32a4.67,4.67,0,0,1,5,5c0,3.1-1.88,5-5.28,5Zm-2-5.44h.32v-7.2H269c-2.24,0-3.31,1.64-3.31,3.6S266.71,728.88,269,728.88Zm2.28,0c2.26,0,3.32-1.64,3.32-3.6s-1.06-3.6-3.32-3.6H271v7.2Z"/><path class="cls-3" d="M278.41,734.32V720.24H280v1.1h.41a3.81,3.81,0,0,1,3.12-1.36c2.8,0,4.48,2.3,4.48,5.3s-1.68,5.3-4.48,5.3a3.62,3.62,0,0,1-3.06-1.36h-.4v5.1Zm1.67-9c0,2,.93,3.82,3.17,3.82,2,0,3.1-1.58,3.1-3.82s-1.06-3.82-3.1-3.82C281,721.46,280.08,723.32,280.08,725.28Z"/><path class="cls-3" d="M290.21,730.32V720.24h1.66V728h.4l4.5-7.8h2.44v10.08h-1.66v-7.8h-.4l-4.58,7.8Z"/><path class="cls-3" d="M311.49,719.56H313v4.34h4.36v1.46H313v4.34h-1.46v-4.34h-4.35V723.9h4.35Z"/><path class="cls-3" d="M68.59,754.24h-.4A3.94,3.94,0,0,1,65,755.58a3.33,3.33,0,0,1-3.64-3.28c0-1.62,1-3.34,3.86-3.34h3.28v-.4c0-1.22-.72-2.1-2.46-2.1-1.48,0-2.26.58-2.34,1.46H62c.12-1.86,1.74-2.94,4-2.94,2.52,0,4.16,1.22,4.16,3.48v6.86h-1.6Zm-.06-3v-.9h-3c-1.64,0-2.42.7-2.42,1.88s.86,1.84,2.34,1.84A3,3,0,0,0,68.53,751.28Z"/><path class="cls-3" d="M72.81,745.24h2.66L78,750h.4l2.54-4.8h2.62v10.08H81.91v-8.1h-.4l-2.4,4.52H77.27l-2.4-4.52h-.4v8.1H72.81Z"/><path class="cls-3" d="M95.09,750.26H87.41c0,2.38,1.14,3.84,3.22,3.84a2.39,2.39,0,0,0,2.56-1.56h1.72c-.34,1.72-1.78,3-4.28,3-3.14,0-4.9-2.32-4.9-5.4s1.8-5.2,4.86-5.2,4.46,2.22,4.5,4.7Zm-7.58-1.42h5.82a2.6,2.6,0,0,0-2.78-2.38A2.85,2.85,0,0,0,87.51,748.84Z"/><path class="cls-3" d="M97.23,759.32V745.24h1.64v1.1h.4a3.81,3.81,0,0,1,3.12-1.36c2.8,0,4.48,2.3,4.48,5.3s-1.68,5.3-4.48,5.3a3.62,3.62,0,0,1-3.06-1.36h-.4v5.1Zm1.68-9c0,2,.92,3.82,3.16,3.82,2,0,3.1-1.58,3.1-3.82s-1.06-3.82-3.1-3.82C99.83,746.46,98.91,748.32,98.91,750.28Z"/><path class="cls-3" d="M109,755.32V745.24h1.66V753h.4l4.5-7.8H118v10.08h-1.66v-7.8H116l-4.58,7.8Z"/><path class="cls-3" d="M125.43,750.88h-2.92v4.44h-1.7V745.24h1.7v4.16h3l2.2-4.16h1.78l-2.56,4.86,2.7,5.22h-1.82Z"/><path class="cls-3" d="M137.93,754.24h-.4a3.94,3.94,0,0,1-3.16,1.34,3.33,3.33,0,0,1-3.64-3.28c0-1.62,1-3.34,3.86-3.34h3.28v-.4c0-1.22-.72-2.1-2.46-2.1-1.48,0-2.26.58-2.34,1.46h-1.7c.12-1.86,1.74-2.94,4-2.94,2.52,0,4.16,1.22,4.16,3.48v6.86h-1.6Zm-.06-3v-.9h-3c-1.64,0-2.42.7-2.42,1.88s.86,1.84,2.34,1.84A3,3,0,0,0,137.87,751.28Z"/><path class="cls-3" d="M149.43,755.32v-4.44h-5.58v4.44h-1.7V745.24h1.7v4.16h5.58v-4.16h1.7v10.08Z"/><path class="cls-3" d="M163.21,750.28c0,3-1.82,5.3-5,5.3s-5-2.3-5-5.3,1.8-5.3,5-5.3S163.21,747.28,163.21,750.28Zm-1.7,0c0-2-1-3.82-3.26-3.82s-3.26,1.86-3.26,3.82,1,3.82,3.26,3.82S161.51,752.26,161.51,750.28Z"/><path class="cls-2" d="M64.29,770.2l.7-3.88h1.42l-.7,3.88h2.72l.7-3.88h1.42l-.7,3.88h2v1.36H69.61l-.6,3.52h2v1.36H68.77l-.7,3.88H66.63l.7-3.88h-2.7l-.7,3.88H62.49l.7-3.88h-2v-1.36h2.24l.62-3.52H62V770.2Zm.58,4.88h2.7l.62-3.52H65.47Z"/><path class="cls-2" d="M77.71,766c2.6,0,4.54,1.46,4.54,4.26,0,1.9-1.44,3.7-3.1,5.08l-3.5,3v.4h7.06v1.56H73.09v-2s3.72-3.06,5.22-4.4c1-.84,2.18-2,2.18-3.66a2.54,2.54,0,0,0-2.82-2.7,2.65,2.65,0,0,0-2.86,2.58H73.05C73.23,767.38,75.21,766,77.71,766Z"/><path class="cls-2" d="M97.85,767.22c3.92,0,6.52,1.94,6.52,5.76s-2.6,5.76-6.52,5.76h-.24v1.84H95.85v-1.84h-.24c-3.94,0-6.52-1.86-6.52-5.76s2.6-5.76,6.52-5.76h.24v-1.64h1.76v1.64Zm-2,9.92v-8.32h-.24c-2.9,0-4.74,1.32-4.74,4.16s1.84,4.16,4.74,4.16Zm2,0c2.88,0,4.74-1.32,4.74-4.16s-1.84-4.16-4.74-4.16h-.24v8.32Z"/><path class="cls-2" d="M106.39,784.32V770.24H108v1.1h.4a3.81,3.81,0,0,1,3.12-1.36c2.8,0,4.48,2.3,4.48,5.3s-1.68,5.3-4.48,5.3a3.62,3.62,0,0,1-3.06-1.36h-.4v5.1Zm1.68-9c0,2,.92,3.82,3.16,3.82,2,0,3.1-1.58,3.1-3.82s-1.06-3.82-3.1-3.82C109,771.46,108.07,773.32,108.07,775.28Z"/><path class="cls-2" d="M124.61,779.24h-.4a3.94,3.94,0,0,1-3.16,1.34,3.33,3.33,0,0,1-3.64-3.28c0-1.62,1-3.34,3.86-3.34h3.28v-.4c0-1.22-.72-2.1-2.46-2.1-1.48,0-2.26.58-2.34,1.46h-1.7c.12-1.86,1.74-2.94,4-2.94,2.52,0,4.16,1.22,4.16,3.48v6.86h-1.6Zm-.06-3v-.9h-3c-1.64,0-2.42.7-2.42,1.88s.86,1.84,2.34,1.84A3,3,0,0,0,124.55,776.28Z"/><path class="cls-2" d="M136.11,780.32v-4.44h-5.58v4.44h-1.7V770.24h1.7v4.16h5.58v-4.16h1.7v10.08Z"/><path class="cls-2" d="M149.41,770.24v8.6h1.84v4.34h-1.64v-2.86h-9V770.24h1.7v8.6h5.42v-8.6Z"/><path class="cls-2" d="M153.93,784.32l2.06-4.9-4.24-9.18h1.84l3,6.64h.5l2.8-6.64h1.82l-6.08,14.08Z"/><path class="cls-2" d="M166.47,771.46c-1.44,0-2.2.48-2.44,1.56h-1.62c.18-1.92,1.78-3,4.1-3,2.52,0,3.86,1.28,3.86,2.8a2.05,2.05,0,0,1-1.1,2.06v.4a2.18,2.18,0,0,1,1.46,2.3c0,1.64-1.48,3-4.18,3s-4.26-1.24-4.54-3.12h1.64c.38,1.26,1.52,1.64,2.9,1.64s2.48-.54,2.48-1.62-.56-1.56-2.22-1.56H165v-1.48h1.7c1.42,0,2-.66,2-1.44C168.69,772,167.77,771.46,166.47,771.46Z"/><path class="cls-2" d="M181.47,777.28a4,4,0,0,1-4.24,3.3c-3.14,0-4.9-2.3-4.9-5.3s1.76-5.3,4.9-5.3a3.88,3.88,0,0,1,4.18,3.18h-1.7a2.35,2.35,0,0,0-2.48-1.7c-2.28,0-3.2,1.76-3.2,3.78s.94,3.86,3.2,3.86a2.33,2.33,0,0,0,2.54-1.82Z"/><path class="cls-2" d="M188.13,775.88h-2.92v4.44h-1.7V770.24h1.7v4.16h3l2.2-4.16h1.78l-2.56,4.86,2.7,5.22h-1.82Z"/><path class="cls-2" d="M194.21,780.32V770.24h1.66V778h.4l4.5-7.8h2.44v10.08h-1.66v-7.8h-.4l-4.58,7.8Z"/><path class="cls-2" d="M206,780.32V770.24h1.66V778h.4l4.5-7.8H215v10.08h-1.66v-7.8h-.4l-4.58,7.8Zm7.58-14.48a3.12,3.12,0,0,1-6.22,0h1.38a1.73,1.73,0,0,0,3.46,0Z"/><path class="cls-2" d="M227,776.1h-.58l-2.58,4.22h-1.92l3.16-5.16-2.84-4.92h1.86l2.34,4H227l2.38-4h1.84l-2.88,4.86,3.14,5.22h-2Z"/><path class="cls-2" d="M242.65,775.28c0,3-1.82,5.3-5,5.3s-5-2.3-5-5.3,1.8-5.3,5-5.3S242.65,772.28,242.65,775.28Zm-1.7,0c0-2-1-3.82-3.26-3.82s-3.26,1.86-3.26,3.82,1,3.82,3.26,3.82S241,777.26,241,775.28Z"/><path class="cls-2" d="M243.57,770.24h8.68v1.48h-3.48v8.6h-1.7v-8.6h-3.5Z"/><path class="cls-2" d="M253.33,775.52V774h5.46v1.5Z"/><path class="cls-2" d="M271.15,778.84v4.34h-1.66v-2.86h-8.72v2.86h-1.66v-4.34h1.34a13.6,13.6,0,0,0,1.28-5.84v-2.76h7.56v8.6Zm-3.56-7.12h-4.28V773a14.06,14.06,0,0,1-1.14,5.84h5.42Z"/><path class="cls-2" d="M282.15,775.28c0,3-1.82,5.3-5,5.3s-5-2.3-5-5.3,1.8-5.3,5-5.3S282.15,772.28,282.15,775.28Zm-1.7,0c0-2-1-3.82-3.26-3.82s-3.26,1.86-3.26,3.82,1,3.82,3.26,3.82S280.45,777.26,280.45,775.28Z"/><path class="cls-2" d="M284.31,770.24h7.56v1.48H286v8.6h-1.7Z"/><path class="cls-2" d="M292,783.14l6.05-18h1.54l-6,18Z"/><path class="cls-2" d="M75.07,795.24v10.08H62.17V795.24h1.66v8.6h4v-8.6h1.66v8.6h4v-8.6Z"/><path class="cls-2" d="M84.27,804.24h-.4a3.94,3.94,0,0,1-3.16,1.34,3.33,3.33,0,0,1-3.64-3.28c0-1.62,1-3.34,3.86-3.34h3.28v-.4c0-1.22-.72-2.1-2.46-2.1-1.48,0-2.26.58-2.34,1.46h-1.7c.12-1.86,1.74-2.94,4-2.94,2.52,0,4.16,1.22,4.16,3.48v6.86h-1.6Zm-.06-3v-.9h-3c-1.64,0-2.42.7-2.42,1.88s.86,1.84,2.34,1.84A3,3,0,0,0,84.21,801.28Z"/><path class="cls-2" d="M89.31,809.32l2.06-4.9-4.24-9.18H89l3,6.64h.5l2.8-6.64h1.82l-6.08,14.08Z"/><path class="cls-2" d="M98.59,809.32V795.24h1.64v1.1h.4a3.81,3.81,0,0,1,3.12-1.36c2.8,0,4.48,2.3,4.48,5.3s-1.68,5.3-4.48,5.3a3.62,3.62,0,0,1-3.06-1.36h-.4v5.1Zm1.68-9c0,2,.92,3.82,3.16,3.82,2,0,3.1-1.58,3.1-3.82s-1.06-3.82-3.1-3.82C101.19,796.46,100.27,798.32,100.27,800.28Z"/><path class="cls-2" d="M110.39,795.24h2.66l2.54,4.8h.4l2.54-4.8h2.62v10.08h-1.66v-8.1h-.4l-2.4,4.52h-1.84l-2.4-4.52h-.4v8.1h-1.66Z"/><path class="cls-2" d="M130.35,804.24H130a3.94,3.94,0,0,1-3.16,1.34,3.33,3.33,0,0,1-3.64-3.28c0-1.62,1-3.34,3.86-3.34h3.28v-.4c0-1.22-.72-2.1-2.46-2.1-1.48,0-2.26.58-2.34,1.46h-1.7c.12-1.86,1.74-2.94,4-2.94,2.52,0,4.16,1.22,4.16,3.48v6.86h-1.6Zm-.06-3v-.9h-3c-1.64,0-2.42.7-2.42,1.88s.86,1.84,2.34,1.84A3,3,0,0,0,130.29,801.28Z"/><path class="cls-2" d="M139.63,795.24h2.66l2.54,4.8h.4l2.54-4.8h2.62v10.08h-1.66v-8.1h-.4l-2.4,4.52h-1.84l-2.4-4.52h-.4v8.1h-1.66Z"/><path class="cls-2" d="M153.17,805.32V795.24h1.66V803h.4l4.5-7.8h2.44v10.08h-1.66v-7.8h-.4l-4.58,7.8Z"/><path class="cls-2" d="M172.23,805.32v-4.44h-5.58v4.44H165V795.24h1.7v4.16h5.58v-4.16h1.7v10.08Z"/><path class="cls-2" d="M176.71,805.32V795.24h1.66V803h.4l4.5-7.8h2.44v10.08h-1.66v-7.8h-.4l-4.58,7.8Z"/><path class="cls-2" d="M198,794.56h1.46v4.34h4.36v1.46h-4.36v4.34H198v-4.34h-4.34V798.9H198Z"/><path class="cls-2" d="M218.17,804.24h-.4a3.94,3.94,0,0,1-3.16,1.34A3.33,3.33,0,0,1,211,802.3c0-1.62,1-3.34,3.86-3.34h3.28v-.4c0-1.22-.72-2.1-2.46-2.1-1.48,0-2.26.58-2.34,1.46h-1.7c.12-1.86,1.74-2.94,4-2.94,2.52,0,4.16,1.22,4.16,3.48v6.86h-1.6Zm-.06-3v-.9h-3c-1.64,0-2.42.7-2.42,1.88s.86,1.84,2.34,1.84A3,3,0,0,0,218.11,801.28Z"/><path class="cls-2" d="M222.39,795.24h2.66l2.54,4.8h.4l2.54-4.8h2.62v10.08h-1.66v-8.1h-.4l-2.4,4.52h-1.84l-2.4-4.52h-.4v8.1h-1.66Z"/><path class="cls-2" d="M244.67,800.26H237c0,2.38,1.14,3.84,3.22,3.84a2.39,2.39,0,0,0,2.56-1.56h1.72c-.34,1.72-1.78,3-4.28,3-3.14,0-4.9-2.32-4.9-5.4s1.8-5.2,4.86-5.2,4.46,2.22,4.5,4.7Zm-7.58-1.42h5.82a2.6,2.6,0,0,0-2.78-2.38A2.85,2.85,0,0,0,237.09,798.84Z"/><path class="cls-2" d="M246.81,809.32V795.24h1.64v1.1h.4A3.81,3.81,0,0,1,252,795c2.8,0,4.48,2.3,4.48,5.3s-1.68,5.3-4.48,5.3a3.62,3.62,0,0,1-3.06-1.36h-.4v5.1Zm1.68-9c0,2,.92,3.82,3.16,3.82,2,0,3.1-1.58,3.1-3.82s-1.06-3.82-3.1-3.82C249.41,796.46,248.49,798.32,248.49,800.28Z"/><path class="cls-2" d="M258.61,805.32V795.24h1.66V803h.4l4.5-7.8h2.44v10.08H266v-7.8h-.4l-4.58,7.8Z"/><path class="cls-2" d="M275,800.88h-2.92v4.44h-1.7V795.24h1.7v4.16h3l2.2-4.16H279l-2.56,4.86,2.7,5.22h-1.82Z"/><path class="cls-2" d="M287.51,804.24h-.4a3.94,3.94,0,0,1-3.16,1.34,3.33,3.33,0,0,1-3.64-3.28c0-1.62,1-3.34,3.86-3.34h3.28v-.4c0-1.22-.72-2.1-2.46-2.1-1.48,0-2.26.58-2.34,1.46H281c.12-1.86,1.74-2.94,4-2.94,2.52,0,4.16,1.22,4.16,3.48v6.86h-1.6Zm-.06-3v-.9h-3c-1.64,0-2.42.7-2.42,1.88s.86,1.84,2.34,1.84A3,3,0,0,0,287.45,801.28Z"/><path class="cls-2" d="M299,805.32v-4.44h-5.58v4.44h-1.7V795.24h1.7v4.16H299v-4.16h1.7v10.08Z"/><path class="cls-2" d="M312.79,800.28c0,3-1.82,5.3-5,5.3s-5-2.3-5-5.3,1.79-5.3,5-5.3S312.79,797.28,312.79,800.28Zm-1.7,0c0-2-1-3.82-3.26-3.82s-3.26,1.86-3.26,3.82,1,3.82,3.26,3.82S311.09,802.26,311.09,800.28Z"/><path class="cls-5" d="M469.9,741.07c2.78,0,4.85,1.56,4.85,4.55,0,2-1.54,4-3.31,5.43l-3.74,3.18v.43h7.54v1.66H465v-2.09s4-3.27,5.58-4.7c1-.9,2.33-2.16,2.33-3.91a2.71,2.71,0,0,0-3-2.88,2.82,2.82,0,0,0-3.06,2.75h-1.88C465.11,742.5,467.23,741.07,469.9,741.07Z"/><path class="cls-5" d="M481.69,741.07c2.78,0,4.85,1.56,4.85,4.55,0,2-1.54,4-3.31,5.43l-3.74,3.18v.43H487v1.66H476.75v-2.09s4-3.27,5.58-4.7c1-.9,2.33-2.16,2.33-3.91a2.71,2.71,0,0,0-3-2.88,2.82,2.82,0,0,0-3.06,2.75h-1.88C476.9,742.5,479,741.07,481.69,741.07Z"/><path class="cls-5" d="M488.31,746.22a4.89,4.89,0,0,1,5.09-5.15c3.18,0,5.49,2,5.49,7.35,0,4.57-1.78,8.18-5.69,8.18a4.26,4.26,0,0,1-4.48-3.57h1.86a2.43,2.43,0,0,0,2.62,1.9c2.37,0,3.76-2,3.87-5.32h-.43a4.51,4.51,0,0,1-3.52,1.48A4.69,4.69,0,0,1,488.31,746.22Zm1.88-.09a3.26,3.26,0,1,0,6.52,0,3.17,3.17,0,0,0-3.29-3.41A3.08,3.08,0,0,0,490.19,746.13Z"/><path class="cls-4" d="M465.07,804.8h3.55V793.47h-.39l-3.18,2.12v-2l3.16-2.11h2.29V804.8h3.27v1.66h-8.7Z"/><path class="cls-4" d="M486.05,801.29V803H484v3.5h-1.84V803h-7.39v-2.1l6.64-9.35H484v9.78Zm-3.87,0v-7.67h-.43l-5,7.24v.43Z"/><path class="cls-4" d="M487.29,796.36a4.88,4.88,0,0,1,5.08-5.15c3.18,0,5.49,2,5.49,7.35,0,4.57-1.77,8.18-5.68,8.18a4.27,4.27,0,0,1-4.49-3.57h1.86a2.44,2.44,0,0,0,2.63,1.9c2.37,0,3.76-2.05,3.86-5.32h-.42a4.57,4.57,0,0,1-3.53,1.48A4.68,4.68,0,0,1,487.29,796.36Zm1.88-.09a3.26,3.26,0,1,0,6.51,0,3.17,3.17,0,0,0-3.29-3.42A3.09,3.09,0,0,0,489.17,796.27Z"/><path class="cls-1" d="M42.57,38.35H41.49l-5.77,10h-3l6.67-11.69L33.64,26.26h3l4.87,8.84H42.6l4.94-8.84h3L44.74,36.58,51.38,48.4H48.19Z"/><path class="cls-1" d="M73.17,37.33c0,6.39-3.59,11.47-10.32,11.47S52.52,43.72,52.52,37.33s3.57-11.47,10.33-11.47S73.17,30.94,73.17,37.33Zm-2.82,0c0-4.65-2.23-8.93-7.5-8.93s-7.51,4.28-7.51,8.93,2.24,8.93,7.51,8.93S70.35,42,70.35,37.33Z"/><path class="cls-1" d="M91.37,28.74H84.11V48.4H81.32V28.74H74V26.26H91.37Z"/><path class="cls-1" d="M91.58,38.32V36h8.47v2.33Z"/><path class="cls-1" d="M121.93,45.85v8h-2.76V48.4H102.4v5.42H99.64v-8h2.3c1.42-3,2.79-7.75,2.79-15.13V26.26h14V45.85Zm-6-17h-8.59v2.39c0,6.85-1.21,11.75-2.48,14.66H116Z"/><path class="cls-1" d="M144.19,37.33c0,6.39-3.59,11.47-10.32,11.47s-10.33-5.08-10.33-11.47,3.57-11.47,10.33-11.47S144.19,30.94,144.19,37.33Zm-2.82,0c0-4.65-2.23-8.93-7.5-8.93s-7.51,4.28-7.51,8.93,2.24,8.93,7.51,8.93S141.37,42,141.37,37.33Z"/><path class="cls-1" d="M150.58,28.8V48.4h-2.8V26.26h15.13V28.8Z"/><path class="cls-2" d="M65,68.11v4.08c0,1.4,0,2.86,3.6,2.86a15.14,15.14,0,0,0,3.42-.4V68.11h1.8V82.4H72V76.32a18.73,18.73,0,0,1-3.64.37c-5,0-5.18-2.3-5.18-4.5V68.11Z"/><path class="cls-2" d="M85.48,77.33H77.8c0,2.39,1.14,3.85,3.22,3.85a2.39,2.39,0,0,0,2.56-1.56H85.3c-.34,1.72-1.78,3-4.28,3-3.14,0-4.9-2.32-4.9-5.4s1.8-5.21,4.86-5.21,4.46,2.22,4.5,4.7ZM77.9,75.91h5.82a2.6,2.6,0,0,0-2.78-2.38A2.85,2.85,0,0,0,77.9,75.91Z"/><path class="cls-2" d="M94.9,82.4V78H89.32V82.4h-1.7V72.31h1.7v4.17H94.9V72.31h1.7V82.4Z"/><path class="cls-2" d="M98.72,77.6V76.09h5.46V77.6Z"/><path class="cls-2" d="M116.54,80.92v4.34h-1.66V82.4h-8.72v2.86H104.5V80.92h1.34a13.65,13.65,0,0,0,1.28-5.85V72.31h7.56v8.61ZM113,73.79H108.7v1.28a14.08,14.08,0,0,1-1.14,5.85H113Z"/><path class="cls-2" d="M127.54,77.36c0,3-1.82,5.3-5,5.3s-5-2.3-5-5.3,1.8-5.31,5-5.31S127.54,74.35,127.54,77.36Zm-1.7,0c0-2-1-3.83-3.26-3.83s-3.26,1.86-3.26,3.83,1,3.82,3.26,3.82S125.84,79.34,125.84,77.36Z"/><path class="cls-2" d="M129.7,72.31h7.56v1.48H131.4V82.4h-1.7Z"/><path class="cls-3" d="M64.84,103.52A3.6,3.6,0,0,0,68.6,106c3.12,0,4.58-2.4,4.7-5.18H66.6V99.25h6.68c-.26-2.58-1.7-4.78-4.66-4.78A3.44,3.44,0,0,0,65,96.73H63.1c.6-2.38,2.66-3.88,5.5-3.88,4.24,0,6.58,3.2,6.58,7.4s-2.34,7.41-6.58,7.41c-3.06,0-5.14-1.7-5.66-4.14Z"/><path class="cls-3" d="M84.7,107.4V103H79.12v4.45h-1.7V97.31h1.7v4.17H84.7V97.31h1.7V107.4Z"/><path class="cls-3" d="M100,105.92v4.34H98.36V107.4H89.64v2.86H88v-4.34h1.34a13.65,13.65,0,0,0,1.28-5.85V97.31h7.56v8.61Zm-3.56-7.13H92.18v1.28A14.08,14.08,0,0,1,91,105.92h5.42Z"/><path class="cls-3" d="M101.72,107.4V97.31h1.66v7.81h.4l4.5-7.81h2.44V107.4h-1.66V99.59h-.4l-4.58,7.81Z"/><path class="cls-3" d="M112.84,102.6v-1.51h5.46v1.51Z"/><path class="cls-3" d="M130.66,105.92v4.34H129V107.4h-8.72v2.86h-1.66v-4.34H120a13.65,13.65,0,0,0,1.28-5.85V97.31h7.56v8.61Zm-3.56-7.13h-4.28v1.28a14.08,14.08,0,0,1-1.14,5.85h5.42Z"/><path class="cls-3" d="M141.66,102.36c0,3-1.82,5.3-5,5.3s-5-2.3-5-5.3,1.8-5.31,5-5.31S141.66,99.35,141.66,102.36Zm-1.7,0c0-2-1-3.83-3.26-3.83s-3.26,1.86-3.26,3.83,1,3.82,3.26,3.82S140,104.34,140,102.36Z"/><path class="cls-3" d="M143.82,97.31h7.56v1.48h-5.86v8.61h-1.7Z"/><path class="cls-2" d="M71.64,119.29c3.92,0,6.52,1.94,6.52,5.76s-2.6,5.77-6.52,5.77H71.4v1.84H69.64v-1.84H69.4c-3.94,0-6.52-1.86-6.52-5.77s2.6-5.76,6.52-5.76h.24v-1.64H71.4v1.64Zm-2,9.93v-8.33H69.4c-2.9,0-4.74,1.32-4.74,4.16s1.84,4.17,4.74,4.17Zm2,0c2.88,0,4.74-1.32,4.74-4.17s-1.84-4.16-4.74-4.16H71.4v8.33Z"/><path class="cls-2" d="M80.18,136.4V122.31h1.64v1.1h.4a3.81,3.81,0,0,1,3.12-1.36c2.8,0,4.48,2.3,4.48,5.31s-1.68,5.3-4.48,5.3a3.62,3.62,0,0,1-3.06-1.36h-.4v5.1Zm1.68-9c0,2,.92,3.82,3.16,3.82,2,0,3.1-1.58,3.1-3.82s-1.06-3.83-3.1-3.83C82.78,123.53,81.86,125.39,81.86,127.36Z"/><path class="cls-2" d="M98.4,131.32H98a3.94,3.94,0,0,1-3.16,1.34,3.33,3.33,0,0,1-3.64-3.28c0-1.62,1-3.35,3.86-3.35h3.28v-.4c0-1.22-.72-2.1-2.46-2.1-1.48,0-2.26.58-2.34,1.46h-1.7c.12-1.86,1.74-2.94,4-2.94,2.52,0,4.16,1.22,4.16,3.48v6.87H98.4Zm-.06-3v-.91h-3c-1.64,0-2.42.7-2.42,1.89s.86,1.84,2.34,1.84A3,3,0,0,0,98.34,128.36Z"/><path class="cls-2" d="M103.44,136.4l2.06-4.9-4.24-9.19h1.84l3,6.65h.5l2.8-6.65h1.82l-6.08,14.09Z"/><path class="cls-2" d="M111.9,127.6v-1.51h5.46v1.51Z"/><path class="cls-2" d="M129.72,130.92v4.34h-1.66V132.4h-8.72v2.86h-1.66v-4.34H119a13.65,13.65,0,0,0,1.28-5.85v-2.76h7.56v8.61Zm-3.56-7.13h-4.28v1.28a14.08,14.08,0,0,1-1.14,5.85h5.42Z"/><path class="cls-2" d="M140.72,127.36c0,3-1.82,5.3-5,5.3s-5-2.3-5-5.3,1.8-5.31,5-5.31S140.72,124.35,140.72,127.36Zm-1.7,0c0-2-1-3.83-3.26-3.83s-3.26,1.86-3.26,3.83,1,3.82,3.26,3.82S139,129.34,139,127.36Z"/><path class="cls-2" d="M142.88,122.31h7.56v1.48h-5.86v8.61h-1.7Z"/><path class="cls-2" d="M71.64,144.29c3.92,0,6.52,1.94,6.52,5.76s-2.6,5.77-6.52,5.77H71.4v1.84H69.64v-1.84H69.4c-3.94,0-6.52-1.86-6.52-5.77s2.6-5.76,6.52-5.76h.24v-1.64H71.4v1.64Zm-2,9.93v-8.33H69.4c-2.9,0-4.74,1.32-4.74,4.16s1.84,4.17,4.74,4.17Zm2,0c2.88,0,4.74-1.32,4.74-4.17s-1.84-4.16-4.74-4.16H71.4v8.33Z"/><path class="cls-2" d="M80.18,161.4V147.31h1.64v1.1h.4a3.81,3.81,0,0,1,3.12-1.36c2.8,0,4.48,2.3,4.48,5.31s-1.68,5.3-4.48,5.3a3.62,3.62,0,0,1-3.06-1.36h-.4v5.1Zm1.68-9c0,2,.92,3.82,3.16,3.82,2,0,3.1-1.58,3.1-3.82s-1.06-3.83-3.1-3.83C82.78,148.53,81.86,150.39,81.86,152.36Z"/><path class="cls-2" d="M98.4,156.32H98a3.94,3.94,0,0,1-3.16,1.34,3.33,3.33,0,0,1-3.64-3.28c0-1.62,1-3.35,3.86-3.35h3.28v-.4c0-1.22-.72-2.1-2.46-2.1-1.48,0-2.26.58-2.34,1.46h-1.7c.12-1.86,1.74-2.94,4-2.94,2.52,0,4.16,1.22,4.16,3.48v6.87H98.4Zm-.06-3v-.91h-3c-1.64,0-2.42.7-2.42,1.89s.86,1.84,2.34,1.84A3,3,0,0,0,98.34,153.36Z"/><path class="cls-2" d="M109.9,157.4V153h-5.58v4.45h-1.7V147.31h1.7v4.17h5.58v-4.17h1.7V157.4Z"/><path class="cls-2" d="M123.2,147.31v8.61H125v4.34H123.4V157.4h-9V147.31h1.7v8.61h5.42v-8.61Z"/><path class="cls-2" d="M127.72,161.4l2.06-4.9-4.24-9.19h1.84l3,6.65h.5l2.8-6.65h1.82l-6.08,14.09Z"/><path class="cls-2" d="M140.26,148.53c-1.44,0-2.2.48-2.44,1.56H136.2c.18-1.92,1.78-3,4.1-3,2.52,0,3.86,1.28,3.86,2.8a2,2,0,0,1-1.1,2.06v.41a2.16,2.16,0,0,1,1.46,2.3c0,1.64-1.48,3-4.18,3s-4.26-1.24-4.54-3.12h1.64c.38,1.26,1.52,1.64,2.9,1.64s2.48-.54,2.48-1.62-.56-1.57-2.22-1.57h-1.78v-1.47h1.7c1.42,0,2-.66,2-1.45C142.48,149.07,141.56,148.53,140.26,148.53Z"/><path class="cls-2" d="M155.26,154.36a4,4,0,0,1-4.24,3.3c-3.14,0-4.9-2.3-4.9-5.3s1.76-5.31,4.9-5.31a3.88,3.88,0,0,1,4.18,3.18h-1.7a2.35,2.35,0,0,0-2.48-1.7c-2.28,0-3.2,1.76-3.2,3.79s.94,3.86,3.2,3.86a2.33,2.33,0,0,0,2.54-1.82Z"/><path class="cls-2" d="M161.92,153H159v4.45h-1.7V147.31H159v4.17h3l2.2-4.17h1.78l-2.56,4.87,2.7,5.22h-1.82Z"/><path class="cls-2" d="M168,157.4V147.31h1.66v7.81h.4l4.5-7.81H177V157.4h-1.66v-7.81h-.4l-4.58,7.81Z"/><path class="cls-2" d="M179.78,157.4V147.31h1.66v7.81h.4l4.5-7.81h2.44V157.4h-1.66v-7.81h-.4l-4.58,7.81Zm7.58-14.49a3.12,3.12,0,0,1-6.22,0h1.38a1.73,1.73,0,0,0,3.46,0Z"/><path class="cls-2" d="M200.78,153.18h-.58l-2.58,4.22H195.7l3.16-5.17L196,147.31h1.86l2.34,4h.58l2.38-4H205l-2.88,4.87,3.14,5.22h-2Z"/><path class="cls-2" d="M216.44,152.36c0,3-1.82,5.3-5,5.3s-5-2.3-5-5.3,1.8-5.31,5-5.31S216.44,149.35,216.44,152.36Zm-1.7,0c0-2-1-3.83-3.26-3.83s-3.26,1.86-3.26,3.83,1,3.82,3.26,3.82S214.74,154.34,214.74,152.36Z"/><path class="cls-2" d="M217.36,147.31H226v1.48h-3.48v8.61h-1.7v-8.61h-3.5Z"/><path class="cls-2" d="M227.12,152.6v-1.51h5.46v1.51Z"/><path class="cls-2" d="M244.94,155.92v4.34h-1.66V157.4h-8.72v2.86H232.9v-4.34h1.34a13.65,13.65,0,0,0,1.28-5.85v-2.76h7.56v8.61Zm-3.56-7.13H237.1v1.28a14.08,14.08,0,0,1-1.14,5.85h5.42Z"/><path class="cls-2" d="M255.94,152.36c0,3-1.82,5.3-5,5.3s-5-2.3-5-5.3,1.8-5.31,5-5.31S255.94,149.35,255.94,152.36Zm-1.7,0c0-2-1-3.83-3.26-3.83s-3.26,1.86-3.26,3.83,1,3.82,3.26,3.82S254.24,154.34,254.24,152.36Z"/><path class="cls-2" d="M258.1,147.31h7.56v1.48H259.8v8.61h-1.7Z"/><path class="cls-4" d="M465.55,80.73h3.54V69.41h-.38l-3.19,2.11v-2l3.17-2.12H471V80.73h3.27V82.4h-8.69Z"/><path class="cls-4" d="M486.33,78.32c0,2.47-2.11,4.35-5.4,4.35s-5.41-1.88-5.41-4.35a3.79,3.79,0,0,1,2.35-3.59V74.3a3.47,3.47,0,0,1-1.9-3.16c0-2.37,2-4,5-4s4.95,1.63,4.95,4A3.56,3.56,0,0,1,484,74.3v.43A3.82,3.82,0,0,1,486.33,78.32Zm-1.86-.17c0-1.76-1.37-2.83-3.54-2.83s-3.55,1.07-3.55,2.83S478.75,81,480.93,81,484.47,79.88,484.47,78.15Zm-6.66-6.93c0,1.61,1.43,2.48,3.12,2.48s3.11-.87,3.11-2.48-1.43-2.45-3.11-2.45S477.81,69.62,477.81,71.22Z"/><path class="cls-4" d="M487.74,72.29a4.88,4.88,0,0,1,5.08-5.15c3.18,0,5.49,2,5.49,7.35,0,4.57-1.77,8.18-5.68,8.18a4.27,4.27,0,0,1-4.49-3.56H490a2.45,2.45,0,0,0,2.63,1.9c2.37,0,3.76-2.05,3.87-5.32h-.43a4.55,4.55,0,0,1-3.53,1.47A4.68,4.68,0,0,1,487.74,72.29Zm1.88-.08a3.26,3.26,0,1,0,6.51,0,3.17,3.17,0,0,0-3.29-3.42A3.08,3.08,0,0,0,489.62,72.21Z"/><path class="cls-5" d="M465.55,105.8h3.54V94.48h-.38l-3.19,2.11v-2l3.17-2.12H471V105.8h3.27v1.67h-8.69Z"/><path class="cls-5" d="M486.33,103.39c0,2.47-2.11,4.35-5.4,4.35s-5.41-1.88-5.41-4.35a3.79,3.79,0,0,1,2.35-3.59v-.43a3.47,3.47,0,0,1-1.9-3.16c0-2.37,2-4,5-4s4.95,1.63,4.95,4a3.56,3.56,0,0,1-1.9,3.16v.43A3.82,3.82,0,0,1,486.33,103.39Zm-1.86-.17c0-1.76-1.37-2.82-3.54-2.82s-3.55,1.06-3.55,2.82,1.37,2.86,3.55,2.86S484.47,105,484.47,103.22Zm-6.66-6.93c0,1.61,1.43,2.48,3.12,2.48S484,97.9,484,96.29s-1.43-2.45-3.11-2.45S477.81,94.69,477.81,96.29Z"/><path class="cls-5" d="M487.74,97.36a4.88,4.88,0,0,1,5.08-5.15c3.18,0,5.49,2,5.49,7.35,0,4.57-1.77,8.18-5.68,8.18a4.27,4.27,0,0,1-4.49-3.56H490a2.45,2.45,0,0,0,2.63,1.9c2.37,0,3.76-2,3.87-5.32h-.43a4.55,4.55,0,0,1-3.53,1.47A4.68,4.68,0,0,1,487.74,97.36Zm1.88-.08a3.26,3.26,0,1,0,6.51,0,3.17,3.17,0,0,0-3.29-3.42A3.09,3.09,0,0,0,489.62,97.28Z"/><path class="cls-4" d="M465.55,130.87h3.54V119.55h-.38l-3.19,2.11v-2l3.17-2.12H471v13.29h3.27v1.67h-8.69Z"/><path class="cls-4" d="M486.33,128.46c0,2.47-2.11,4.35-5.4,4.35s-5.41-1.88-5.41-4.35a3.79,3.79,0,0,1,2.35-3.59v-.43a3.47,3.47,0,0,1-1.9-3.16c0-2.37,2-4,5-4s4.95,1.63,4.95,4a3.56,3.56,0,0,1-1.9,3.16v.43A3.82,3.82,0,0,1,486.33,128.46Zm-1.86-.18c0-1.75-1.37-2.82-3.54-2.82s-3.55,1.07-3.55,2.82,1.37,2.87,3.55,2.87S484.47,130,484.47,128.28Zm-6.66-6.92c0,1.61,1.43,2.48,3.12,2.48S484,123,484,121.36s-1.43-2.45-3.11-2.45S477.81,119.76,477.81,121.36Z"/><path class="cls-4" d="M487.74,122.43a4.88,4.88,0,0,1,5.08-5.15c3.18,0,5.49,2,5.49,7.35,0,4.57-1.77,8.18-5.68,8.18a4.27,4.27,0,0,1-4.49-3.56H490a2.46,2.46,0,0,0,2.63,1.9c2.37,0,3.76-2.05,3.87-5.32h-.43a4.55,4.55,0,0,1-3.53,1.47A4.68,4.68,0,0,1,487.74,122.43Zm1.88-.08a3.26,3.26,0,1,0,6.51,0,3.17,3.17,0,0,0-3.29-3.42A3.08,3.08,0,0,0,489.62,122.35Z"/><path class="cls-4" d="M465.2,147.5a4.89,4.89,0,0,1,5.09-5.15c3.18,0,5.49,2,5.49,7.35,0,4.57-1.78,8.18-5.68,8.18a4.25,4.25,0,0,1-4.49-3.56h1.86a2.43,2.43,0,0,0,2.63,1.9c2.37,0,3.76-2.05,3.86-5.32h-.42a4.57,4.57,0,0,1-3.53,1.47A4.69,4.69,0,0,1,465.2,147.5Zm1.88-.08a3.26,3.26,0,1,0,6.52,0,3.17,3.17,0,0,0-3.29-3.42A3.09,3.09,0,0,0,467.08,147.42Z"/><path class="cls-4" d="M477.23,147.5a4.88,4.88,0,0,1,5.08-5.15c3.19,0,5.49,2,5.49,7.35,0,4.57-1.77,8.18-5.68,8.18a4.27,4.27,0,0,1-4.49-3.56h1.86a2.45,2.45,0,0,0,2.63,1.9c2.37,0,3.76-2.05,3.87-5.32h-.43a4.54,4.54,0,0,1-3.52,1.47A4.69,4.69,0,0,1,477.23,147.5Zm1.88-.08a3.26,3.26,0,1,0,6.51,0,3.17,3.17,0,0,0-3.29-3.42A3.08,3.08,0,0,0,479.11,147.42Z"/><line class="cls-6" y1="171.05" x2="536.72" y2="171.05"/><path class="cls-2" d="M178.18,694.19a2.8,2.8,0,0,1-3,2.32c-2.2,0-3.43-1.61-3.43-3.72s1.23-3.71,3.43-3.71a2.73,2.73,0,0,1,2.93,2.23H177a1.65,1.65,0,0,0-1.74-1.19c-1.6,0-2.24,1.23-2.24,2.65s.66,2.7,2.24,2.7a1.63,1.63,0,0,0,1.78-1.28Z"/><path class="cls-2" d="M182.83,695.23h2.32v-7.42h-.25l-2.09,1.38V687.9l2.07-1.38h1.5v8.71h2.15v1.09h-5.7Z"/><path class="cls-2" d="M192.7,686.32a2.88,2.88,0,0,1,3.18,3,5.09,5.09,0,0,1-2.17,3.55L191.25,695v.28h4.95v1.09h-6.74V695s2.61-2.14,3.66-3.08a3.61,3.61,0,0,0,1.52-2.56,1.78,1.78,0,0,0-2-1.9,1.85,1.85,0,0,0-2,1.81h-1.24A3,3,0,0,1,192.7,686.32Z"/><path class="cls-2" d="M197.58,690.89v-1.63H199v1.63Zm0,5.43V694.7H199v1.62Z"/><path class="cls-2" d="M207.75,691.42c0,3.53-1.54,5.09-3.62,5.09s-3.59-1.56-3.59-5.09,1.52-5.1,3.59-5.1S207.75,687.89,207.75,691.42Zm-1.23,0c0-2.44-.75-4-2.39-4s-2.36,1.57-2.36,4,.74,4,2.36,4S206.52,693.84,206.52,691.42Z"/><path class="cls-2" d="M216.15,691.42c0,3.53-1.54,5.09-3.61,5.09s-3.61-1.56-3.61-5.09,1.53-5.1,3.61-5.1S216.15,687.89,216.15,691.42Zm-1.23,0c0-2.44-.75-4-2.38-4s-2.37,1.57-2.37,4,.74,4,2.37,4S214.92,693.84,214.92,691.42Z"/><path class="cls-2" d="M228.85,695.29v3h-1.17v-2h-6.1v2h-1.17v-3h.94a9.5,9.5,0,0,0,.9-4.09v-1.94h5.29v6Zm-2.5-5h-3v.9a9.94,9.94,0,0,1-.8,4.09h3.79Z"/><path class="cls-2" d="M236.55,692.79a3.48,3.48,0,1,1-3.48-3.71A3.41,3.41,0,0,1,236.55,692.79Zm-1.19,0c0-1.37-.73-2.67-2.29-2.67s-2.28,1.3-2.28,2.67.71,2.68,2.28,2.68S235.36,694.18,235.36,692.79Z"/><path class="cls-2" d="M241.27,695.23h2.33v-7.42h-.25l-2.09,1.38V687.9l2.07-1.38h1.5v8.71H247v1.09h-5.71Z"/><path class="cls-2" d="M254.75,693a3.26,3.26,0,0,1-3.37,3.51,3.08,3.08,0,0,1-3.41-2.93h1.22a2,2,0,0,0,2.14,1.83,2.33,2.33,0,0,0,0-4.65,2.23,2.23,0,0,0-2,.93h-1.23l.43-5.17h5.61v1.06h-4.61l-.22,2.85h.28a2.57,2.57,0,0,1,1.9-.7A3.08,3.08,0,0,1,254.75,693Z"/><path class="cls-2" d="M256.21,690.89v-1.63h1.46v1.63Zm0,5.43V694.7h1.46v1.62Z"/><path class="cls-2" d="M266.38,691.42c0,3.53-1.54,5.09-3.61,5.09s-3.6-1.56-3.6-5.09,1.52-5.1,3.6-5.1S266.38,687.89,266.38,691.42Zm-1.23,0c0-2.44-.74-4-2.38-4s-2.37,1.57-2.37,4,.74,4,2.37,4S265.15,693.84,265.15,691.42Z"/><path class="cls-2" d="M274.78,691.42c0,3.53-1.54,5.09-3.61,5.09s-3.6-1.56-3.6-5.09,1.52-5.1,3.6-5.1S274.78,687.89,274.78,691.42Zm-1.23,0c0-2.44-.75-4-2.38-4s-2.37,1.57-2.37,4,.74,4,2.37,4S273.55,693.84,273.55,691.42Z"/><line class="cls-6" y1="823.06" x2="536.72" y2="823.06"/></svg>