<svg id="Layer_1" data-name="Layer 1" xmlns="http://www.w3.org/2000/svg" viewBox="0 0 536.34 954.16"><defs><style>.cls-1,.cls-8,.cls-9{fill:none;}.cls-2,.cls-6{fill:#f40;}.cls-2{stroke:#f40;}.cls-10,.cls-2,.cls-3,.cls-4,.cls-7,.cls-8,.cls-9{stroke-miterlimit:10;}.cls-2,.cls-3{stroke-width:0.25px;}.cls-3,.cls-4,.cls-5{fill:#241f20;}.cls-3,.cls-4,.cls-7,.cls-8{stroke:#241f20;}.cls-10,.cls-4,.cls-8,.cls-9{stroke-width:0.5px;}.cls-10,.cls-7{fill:#fff;}.cls-7{stroke-width:1.5px;}.cls-10,.cls-9{stroke:#231e1f;}</style></defs><title>andy menu</title><rect class="cls-1" x="-40.35" width="536.72" height="954.16"/><path class="cls-2" d="M464,648.52a4.88,4.88,0,0,1,5.08-5.15c3.18,0,5.49,2,5.49,7.35,0,4.57-1.77,8.18-5.68,8.18a4.27,4.27,0,0,1-4.49-3.56h1.86a2.44,2.44,0,0,0,2.63,1.9c2.37,0,3.76-2,3.86-5.32h-.42a4.57,4.57,0,0,1-3.53,1.47A4.68,4.68,0,0,1,464,648.52Zm1.88-.08a3.26,3.26,0,1,0,6.51,0,3.17,3.17,0,0,0-3.29-3.42A3.09,3.09,0,0,0,465.91,648.44Z"/><path class="cls-2" d="M476.16,648.52a4.88,4.88,0,0,1,5.08-5.15c3.19,0,5.49,2,5.49,7.35,0,4.57-1.77,8.18-5.68,8.18a4.27,4.27,0,0,1-4.49-3.56h1.86a2.45,2.45,0,0,0,2.63,1.9c2.37,0,3.76-2,3.87-5.32h-.43a4.54,4.54,0,0,1-3.52,1.47A4.69,4.69,0,0,1,476.16,648.52Zm1.88-.08a3.26,3.26,0,1,0,6.51,0,3.17,3.17,0,0,0-3.29-3.42A3.09,3.09,0,0,0,478,648.44Z"/><path class="cls-3" d="M464.37,682h3.54V670.64h-.38l-3.18,2.11v-2l3.16-2.12h2.28V682h3.27v1.67h-8.69Z"/><path class="cls-3" d="M483.76,668.67v2.05L480,674v.41a4.25,4.25,0,0,1,4.44,4.55c0,3.1-2.22,4.93-5.28,4.93s-5.08-1.92-5.23-4.46h1.88a3.4,3.4,0,0,0,6.75-.47c0-1.94-1.2-3.18-3.38-3.18a6.06,6.06,0,0,0-1.3.12V674l3.65-3.25v-.42H475v-1.63Z"/><path class="cls-3" d="M485.88,673.52a4.88,4.88,0,0,1,5.08-5.15c3.18,0,5.49,2,5.49,7.35,0,4.57-1.77,8.18-5.68,8.18a4.27,4.27,0,0,1-4.49-3.56h1.86a2.44,2.44,0,0,0,2.63,1.9c2.37,0,3.76-2,3.87-5.32h-.43a4.57,4.57,0,0,1-3.53,1.47A4.68,4.68,0,0,1,485.88,673.52Zm1.88-.08a3.26,3.26,0,1,0,6.51,0A3.17,3.17,0,0,0,491,670,3.09,3.09,0,0,0,487.76,673.44Z"/><path class="cls-3" d="M464.37,707h3.54V695.64h-.38l-3.18,2.11v-2l3.16-2.12h2.28V707h3.27v1.67h-8.69Z"/><path class="cls-3" d="M483.76,693.67v2.05L480,699v.41a4.25,4.25,0,0,1,4.44,4.55c0,3.1-2.22,4.93-5.28,4.93s-5.08-1.92-5.23-4.46h1.88a3.4,3.4,0,0,0,6.75-.47c0-1.94-1.2-3.18-3.38-3.18a6.06,6.06,0,0,0-1.3.12V699l3.65-3.25v-.42H475v-1.63Z"/><path class="cls-3" d="M485.88,698.52a4.88,4.88,0,0,1,5.08-5.15c3.18,0,5.49,2,5.49,7.35,0,4.57-1.77,8.18-5.68,8.18a4.27,4.27,0,0,1-4.49-3.56h1.86a2.44,2.44,0,0,0,2.63,1.9c2.37,0,3.76-2,3.87-5.32h-.43a4.57,4.57,0,0,1-3.53,1.47A4.68,4.68,0,0,1,485.88,698.52Zm1.88-.08a3.26,3.26,0,1,0,6.51,0A3.17,3.17,0,0,0,491,695,3.09,3.09,0,0,0,487.76,698.44Z"/><path class="cls-2" d="M422.29,643.85v2l-3.74,3.29v.41a4.25,4.25,0,0,1,4.44,4.55c0,3.09-2.22,4.93-5.27,4.93s-5.09-1.92-5.24-4.46h1.88a3.4,3.4,0,0,0,6.75-.47c0-1.95-1.19-3.19-3.37-3.19a6.17,6.17,0,0,0-1.31.13v-1.94l3.66-3.25v-.43h-6.54v-1.62Z"/><path class="cls-2" d="M424.4,648.7a4.88,4.88,0,0,1,5.08-5.15c3.19,0,5.49,2,5.49,7.35,0,4.57-1.77,8.18-5.68,8.18a4.26,4.26,0,0,1-4.48-3.57h1.85a2.46,2.46,0,0,0,2.63,1.91c2.37,0,3.76-2.06,3.87-5.32h-.43a4.54,4.54,0,0,1-3.52,1.47A4.69,4.69,0,0,1,424.4,648.7Zm1.88-.09a3.26,3.26,0,1,0,6.52,0,3.18,3.18,0,0,0-3.29-3.42A3.08,3.08,0,0,0,426.28,648.61Z"/><path class="cls-3" d="M422.29,668.85v2l-3.74,3.29v.41a4.25,4.25,0,0,1,4.44,4.55c0,3.09-2.22,4.93-5.27,4.93s-5.09-1.92-5.24-4.46h1.88a3.4,3.4,0,0,0,6.75-.47c0-1.95-1.19-3.19-3.37-3.19a6.17,6.17,0,0,0-1.31.13v-1.94l3.66-3.25v-.43h-6.54v-1.62Z"/><path class="cls-3" d="M424.4,673.7a4.88,4.88,0,0,1,5.08-5.15c3.19,0,5.49,2,5.49,7.35,0,4.57-1.77,8.18-5.68,8.18a4.26,4.26,0,0,1-4.48-3.57h1.85a2.46,2.46,0,0,0,2.63,1.91c2.37,0,3.76-2.06,3.87-5.32h-.43a4.54,4.54,0,0,1-3.52,1.47A4.69,4.69,0,0,1,424.4,673.7Zm1.88-.09a3.26,3.26,0,1,0,6.52,0,3.18,3.18,0,0,0-3.29-3.42A3.08,3.08,0,0,0,426.28,673.61Z"/><path class="cls-3" d="M422.29,693.85v2l-3.74,3.29v.41a4.25,4.25,0,0,1,4.44,4.55c0,3.09-2.22,4.93-5.27,4.93s-5.09-1.92-5.24-4.46h1.88a3.4,3.4,0,0,0,6.75-.47c0-1.95-1.19-3.19-3.37-3.19a6.17,6.17,0,0,0-1.31.13v-1.94l3.66-3.25v-.43h-6.54v-1.62Z"/><path class="cls-3" d="M424.4,698.7a4.88,4.88,0,0,1,5.08-5.15c3.19,0,5.49,2,5.49,7.35,0,4.57-1.77,8.18-5.68,8.18a4.26,4.26,0,0,1-4.48-3.57h1.85a2.46,2.46,0,0,0,2.63,1.91c2.37,0,3.76-2.06,3.87-5.32h-.43a4.54,4.54,0,0,1-3.52,1.47A4.69,4.69,0,0,1,424.4,698.7Zm1.88-.09a3.26,3.26,0,1,0,6.52,0,3.18,3.18,0,0,0-3.29-3.42A3.08,3.08,0,0,0,426.28,698.61Z"/><path class="cls-4" d="M50.65,602.73v22.14H47.86V605.28H35.71v19.59H32.92V602.73Z"/><path class="cls-4" d="M74.9,613.8c0,6.39-3.6,11.48-10.33,11.48s-10.33-5.09-10.33-11.48,3.57-11.47,10.33-11.47S74.9,607.42,74.9,613.8Zm-2.83,0c0-4.65-2.23-8.93-7.5-8.93s-7.5,4.28-7.5,8.93,2.23,8.93,7.5,8.93S72.07,618.45,72.07,613.8Z"/><path class="cls-4" d="M96.44,602.73v22.14H93.65v-10.1H81.28v10.1H78.49V602.73h2.79v9.43H93.65v-9.43Z"/><path class="cls-4" d="M102.91,602.73v6.33c0,2.17,0,4.43,5.59,4.43a23,23,0,0,0,5.3-.62V602.73h2.79v22.14H113.8v-9.42a29.3,29.3,0,0,1-5.65.59c-7.72,0-8-3.57-8-7v-6.33Z"/><path class="cls-4" d="M124,602.73v18.76h.63l10.41-18.76h4.31v22.14h-2.73V606.11H136l-10.41,18.76H121.3V602.73Z"/><path class="cls-4" d="M144.08,602.73h2.79v9.46h6.54l4.59-9.46H161l-5.12,10.76,5.4,11.38h-2.95l-4.87-10.14h-6.54v10.14h-2.79Z"/><path class="cls-4" d="M166.87,602.73v18.76h.62l10.41-18.76h4.31v22.14h-2.72V606.11h-.62l-10.42,18.76h-4.31V602.73Z"/><path class="cls-4" d="M191.76,629.24l9.36-27.9h2.39l-9.27,27.9Z"/><path class="cls-4" d="M231.35,618.64c0,3.54-2.48,6.23-7.5,6.23H214V602.73h9.65c4.71,0,7.07,2.58,7.07,5.62a4.88,4.88,0,0,1-2.45,4.52v.62A5.67,5.67,0,0,1,231.35,618.64Zm-14.6-6.51h6.79c2.44,0,4.31-.78,4.31-3.54,0-2.51-2.14-3.38-4.38-3.38h-6.72Zm11.78,6.29c0-2.88-2.23-3.84-4.84-3.84h-6.94v7.81h6.91C226.17,622.39,228.53,621.46,228.53,618.42Z"/><path class="cls-4" d="M247.41,618.08H237.7l-2.29,6.79h-2.86l7.66-22.14h4.72l7.68,22.14H249.7Zm-8.87-2.54h8l-3.38-9.95h-1.24Z"/><path class="cls-4" d="M266.87,604.56c6.08,0,10.11,3,10.11,8.93s-4,8.93-10.11,8.93h-.37v2.86h-2.73v-2.86h-.37c-6.11,0-10.11-2.88-10.11-8.93s4-8.93,10.11-8.93h.37V602h2.73v2.54Zm-3.1,15.38V607h-.37c-4.49,0-7.35,2.05-7.35,6.45s2.86,6.45,7.35,6.45Zm3.1,0c4.47,0,7.35-2,7.35-6.45s-2.85-6.45-7.35-6.45h-.37v12.9Z"/><path class="cls-4" d="M278.09,622.11c2.92,0,4.16-1.67,4.16-11.25v-8.13h14.54v22.14H294V605.28h-9.12v6.11c0,10.88-2,13.48-6.76,13.48h-.62v-2.76Z"/><path class="cls-4" d="M304.23,602.73v18.76h.62l10.42-18.76h4.31v22.14h-2.73V606.11h-.62l-10.42,18.76H301.5V602.73Z"/><path class="cls-4" d="M33.73,744.42h4.59L44,754.81h.62l5.58-10.39h4.62v22.14H52.08v-19h-.62L45.7,758.1H42.84l-5.76-10.51h-.62v19H33.73Z"/><path class="cls-4" d="M79.05,755.49c0,6.39-3.59,11.47-10.32,11.47S58.4,761.88,58.4,755.49,62,744,68.73,744,79.05,749.11,79.05,755.49Zm-2.82,0c0-4.65-2.23-8.93-7.5-8.93s-7.51,4.28-7.51,8.93,2.24,8.93,7.51,8.93S76.23,760.14,76.23,755.49Z"/><path class="cls-4" d="M99.51,751c0,4.15-2.69,6.66-7.5,6.66H85.44v8.87H82.65V744.42H92C96.82,744.42,99.51,746.93,99.51,751Zm-2.82,0c0-2.58-1.36-4.16-5.15-4.16h-6.1v8.31h6.1C95.33,755.21,96.69,753.63,96.69,751.06Z"/><path class="cls-4" d="M122.55,755.49c0,6.39-3.6,11.47-10.33,11.47s-10.32-5.08-10.32-11.47S105.46,744,112.22,744,122.55,749.11,122.55,755.49Zm-2.83,0c0-4.65-2.23-8.93-7.5-8.93s-7.5,4.28-7.5,8.93,2.23,8.93,7.5,8.93S119.72,760.14,119.72,755.49Z"/><path class="cls-4" d="M140.31,756.58v10h-2.76v-10h-5.61l-4.25,10h-3l4.81-11.22L125,744.42h3l4,9.61h5.61v-9.61h2.76V754h5.58l4-9.61h2.94l-4.55,10.92,4.83,11.22h-2.94l-4.28-10Z"/><path class="cls-4" d="M172.61,764v2.54H156.7V744.42h15.41V747H159.49v6.85h10.17v2.54H159.49V764Z"/><path class="cls-4" d="M193.94,744.42v22.14h-2.79V756.45H178.78v10.11H176V744.42h2.79v9.43h12.37v-9.43Z"/><path class="cls-4" d="M218.18,755.49c0,6.39-3.6,11.47-10.33,11.47s-10.32-5.08-10.32-11.47S201.1,744,207.85,744,218.18,749.11,218.18,755.49Zm-2.82,0c0-4.65-2.23-8.93-7.51-8.93s-7.5,4.28-7.5,8.93,2.23,8.93,7.5,8.93S215.36,760.14,215.36,755.49Z"/><path class="cls-4" d="M237.68,764v2.54H221.77V744.42h15.41V747H224.56v6.85h10.17v2.54H224.56V764Z"/><path class="cls-5" d="M62.73,783.28h3l3.66,6.7h.4l3.6-6.7h3v14.28H74.57V785.32h-.4l-3.72,6.78H68.61l-3.72-6.78h-.4v12.24H62.73Z"/><path class="cls-5" d="M85.71,796.48h-.4a3.94,3.94,0,0,1-3.16,1.34,3.33,3.33,0,0,1-3.64-3.28c0-1.62,1-3.34,3.86-3.34h3.28v-.4c0-1.22-.72-2.1-2.46-2.1-1.48,0-2.26.58-2.34,1.46h-1.7c.12-1.86,1.74-2.94,4-2.94,2.52,0,4.16,1.22,4.16,3.48v6.86h-1.6Zm-.06-3v-.9h-3c-1.64,0-2.42.7-2.42,1.88s.86,1.84,2.34,1.84A3,3,0,0,0,85.65,793.52Z"/><path class="cls-5" d="M97.21,797.56v-4.44H91.63v4.44h-1.7V787.48h1.7v4.16h5.58v-4.16h1.7v10.08Z"/><path class="cls-5" d="M101.69,787.48h7.56V789h-5.86v8.6h-1.7Z"/><path class="cls-5" d="M119.81,792.52c0,3-1.82,5.3-5,5.3s-5-2.3-5-5.3,1.8-5.3,5-5.3S119.81,789.52,119.81,792.52Zm-1.7,0c0-2-1-3.82-3.26-3.82s-3.26,1.86-3.26,3.82,1,3.82,3.26,3.82S118.11,794.5,118.11,792.52Z"/><path class="cls-6" d="M73.61,812.54c0,2.68-1.74,4.3-4.84,4.3H64.53v5.72h-1.8V808.28h6C71.87,808.28,73.61,809.9,73.61,812.54Zm-1.82,0c0-1.66-.88-2.68-3.32-2.68H64.53v5.36h3.94C70.91,815.24,71.79,814.22,71.79,812.56Z"/><path class="cls-6" d="M84.49,817.52c0,3-1.82,5.3-5,5.3s-5-2.3-5-5.3,1.8-5.3,5-5.3S84.49,814.52,84.49,817.52Zm-1.7,0c0-2-1-3.82-3.26-3.82s-3.26,1.86-3.26,3.82,1,3.82,3.26,3.82S82.79,819.5,82.79,817.52Z"/><path class="cls-6" d="M90.21,813.7c-1.44,0-2.2.48-2.44,1.56H86.15c.18-1.92,1.78-3,4.1-3,2.52,0,3.86,1.28,3.86,2.8a2.05,2.05,0,0,1-1.1,2.06v.4a2.18,2.18,0,0,1,1.46,2.3c0,1.64-1.48,3-4.18,3s-4.26-1.24-4.54-3.12h1.64c.38,1.26,1.52,1.64,2.9,1.64s2.48-.54,2.48-1.62-.56-1.56-2.22-1.56H88.77v-1.48h1.7c1.42,0,2-.66,2-1.44C92.43,814.24,91.51,813.7,90.21,813.7Z"/><path class="cls-6" d="M103.11,821.48h-.4a3.94,3.94,0,0,1-3.16,1.34,3.33,3.33,0,0,1-3.64-3.28c0-1.62,1-3.34,3.86-3.34h3.28v-.4c0-1.22-.72-2.1-2.46-2.1-1.48,0-2.26.58-2.34,1.46h-1.7c.12-1.86,1.74-2.94,4-2.94,2.52,0,4.16,1.22,4.16,3.48v6.86h-1.6Zm-.06-3v-.9h-3c-1.64,0-2.42.7-2.42,1.88s.86,1.84,2.34,1.84A3,3,0,0,0,103.05,818.52Z"/><path class="cls-5" d="M62.73,833.28h3l3.66,6.7h.4l3.6-6.7h3v14.28H74.57V835.32h-.4l-3.72,6.78H68.61l-3.72-6.78h-.4v12.24H62.73Z"/><path class="cls-5" d="M87.57,837.48v10.08H85.85v-4H82.79c-.22,0-.42,0-.62,0l-1.52,4H78.87l1.7-4.38A2.71,2.71,0,0,1,79,840.54c0-1.9,1.26-3.06,3.54-3.06Zm-4.84,1.44c-1.52,0-2,.62-2,1.64s.5,1.58,2,1.58h3.12v-3.22Z"/><path class="cls-5" d="M89.29,837.48H98V839H94.49v8.6h-1.7V839h-3.5Z"/><path class="cls-5" d="M106.13,846.48h-.4a3.94,3.94,0,0,1-3.16,1.34,3.33,3.33,0,0,1-3.64-3.28c0-1.62,1-3.34,3.86-3.34h3.28v-.4c0-1.22-.72-2.1-2.46-2.1-1.48,0-2.26.58-2.34,1.46h-1.7c.12-1.86,1.74-2.94,4-2.94,2.52,0,4.16,1.22,4.16,3.48v6.86h-1.6Zm-.06-3v-.9h-3c-1.64,0-2.42.7-2.42,1.88s.86,1.84,2.34,1.84A3,3,0,0,0,106.07,843.52Z"/><path class="cls-5" d="M113.75,850.38l6-18h1.54l-6,18Z"/><path class="cls-5" d="M127.09,845.78c1.88,0,2.68-1.08,2.68-7.26v-5.24h9.38v14.28h-1.8V834.92h-5.88v3.94c0,7-1.3,8.7-4.36,8.7h-.4v-1.78Z"/><path class="cls-5" d="M148.53,846.48h-.4a3.94,3.94,0,0,1-3.16,1.34,3.33,3.33,0,0,1-3.64-3.28c0-1.62,1-3.34,3.86-3.34h3.28v-.4c0-1.22-.72-2.1-2.46-2.1-1.48,0-2.26.58-2.34,1.46H142c.12-1.86,1.74-2.94,4-2.94,2.52,0,4.16,1.22,4.16,3.48v6.86h-1.6Zm-.06-3v-.9h-3c-1.64,0-2.42.7-2.42,1.88s.86,1.84,2.34,1.84A3,3,0,0,0,148.47,843.52Z"/><path class="cls-5" d="M161.49,844.8c0,1.82-1.28,2.76-3.56,2.76h-5.18V837.48H158c2,0,3.18,1,3.18,2.54a2.15,2.15,0,0,1-1.28,2v.4A2.21,2.21,0,0,1,161.49,844.8Zm-7.06-3.14h3.38c1.22,0,1.64-.64,1.64-1.36s-.42-1.38-1.64-1.38h-3.38Zm5.36,3c0-.84-.5-1.52-2-1.52h-3.4v3h3.4C159.29,846.12,159.79,845.48,159.79,844.62Z"/><path class="cls-5" d="M170.05,846.48h-.4a3.94,3.94,0,0,1-3.16,1.34,3.33,3.33,0,0,1-3.64-3.28c0-1.62,1-3.34,3.86-3.34H170v-.4c0-1.22-.72-2.1-2.46-2.1-1.48,0-2.26.58-2.34,1.46h-1.7c.12-1.86,1.74-2.94,4-2.94,2.52,0,4.16,1.22,4.16,3.48v6.86h-1.6Zm-.06-3v-.9h-3c-1.64,0-2.42.7-2.42,1.88s.86,1.84,2.34,1.84A3,3,0,0,0,170,843.52Z"/><path class="cls-5" d="M181.55,847.56v-4.44H176v4.44h-1.7V837.48H176v4.16h5.58v-4.16h1.7v10.08Z"/><path class="cls-5" d="M196.87,846.08v4.34h-1.66v-2.86h-8.72v2.86h-1.66v-4.34h1.34a13.6,13.6,0,0,0,1.28-5.84v-2.76H195v8.6ZM193.31,839H189v1.28a14.06,14.06,0,0,1-1.14,5.84h5.42Z"/><path class="cls-5" d="M205,846.48h-.4a3.94,3.94,0,0,1-3.16,1.34,3.33,3.33,0,0,1-3.64-3.28c0-1.62,1-3.34,3.86-3.34h3.28v-.4c0-1.22-.72-2.1-2.46-2.1-1.48,0-2.26.58-2.34,1.46h-1.71c.12-1.86,1.75-2.94,4-2.94,2.52,0,4.16,1.22,4.16,3.48v6.86H205Zm-.06-3v-.9h-3c-1.64,0-2.42.7-2.42,1.88s.86,1.84,2.34,1.84A3,3,0,0,0,204.93,843.52Z"/><path class="cls-5" d="M62.73,858.28h1.8v6.1h4.22l3-6.1h1.9l-3.3,6.94,3.48,7.34h-1.9L68.75,866H64.53v6.54h-1.8Z"/><path class="cls-5" d="M84.49,867.52c0,3-1.82,5.3-5,5.3s-5-2.3-5-5.3,1.8-5.3,5-5.3S84.49,864.52,84.49,867.52Zm-1.7,0c0-2-1-3.82-3.26-3.82s-3.26,1.86-3.26,3.82,1,3.82,3.26,3.82S82.79,869.5,82.79,867.52Z"/><path class="cls-5" d="M91.27,868.12H88.35v4.44h-1.7V862.48h1.7v4.16h3l2.2-4.16h1.78l-2.56,4.86,2.7,5.22H93.61Z"/><path class="cls-5" d="M106.65,867.52c0,3-1.82,5.3-5,5.3s-5-2.3-5-5.3,1.8-5.3,5-5.3S106.65,864.52,106.65,867.52Zm-1.7,0c0-2-1-3.82-3.26-3.82s-3.26,1.86-3.26,3.82,1,3.82,3.26,3.82S105,869.5,105,867.52Z"/><path class="cls-5" d="M117.33,869.52a4,4,0,0,1-4.24,3.3c-3.14,0-4.9-2.3-4.9-5.3s1.76-5.3,4.9-5.3a3.88,3.88,0,0,1,4.18,3.18h-1.7a2.35,2.35,0,0,0-2.48-1.7c-2.28,0-3.2,1.76-3.2,3.78s.94,3.86,3.2,3.86a2.33,2.33,0,0,0,2.54-1.82Z"/><path class="cls-5" d="M133,869.52a4,4,0,0,1-4.24,3.3c-3.14,0-4.9-2.3-4.9-5.3s1.76-5.3,4.9-5.3a3.88,3.88,0,0,1,4.18,3.18h-1.7a2.35,2.35,0,0,0-2.48-1.7c-2.28,0-3.2,1.76-3.2,3.78s.94,3.86,3.2,3.86a2.33,2.33,0,0,0,2.54-1.82Z"/><path class="cls-5" d="M141.17,862.48v2.84c0,1,0,2,2.54,2a11.91,11.91,0,0,0,2.52-.26v-4.6H148v10.08h-1.72v-4a15.45,15.45,0,0,1-2.88.28c-3.66,0-3.88-1.74-3.88-3.4v-3Z"/><path class="cls-5" d="M150.73,872.56V862.48h1.66v7.8h.4l4.5-7.8h2.44v10.08h-1.66v-7.8h-.4l-4.58,7.8Z"/><path class="cls-5" d="M168.93,871.48h-.4a3.94,3.94,0,0,1-3.16,1.34,3.33,3.33,0,0,1-3.64-3.28c0-1.62,1-3.34,3.86-3.34h3.28v-.4c0-1.22-.72-2.1-2.46-2.1-1.48,0-2.26.58-2.34,1.46h-1.7c.12-1.86,1.74-2.94,4-2.94,2.52,0,4.16,1.22,4.16,3.48v6.86h-1.6Zm-.06-3v-.9h-3c-1.64,0-2.42.7-2.42,1.88s.86,1.84,2.34,1.84A3,3,0,0,0,168.87,868.52Z"/><path class="cls-5" d="M74.27,893.5a5.39,5.39,0,0,1-5.66,4.32c-4.24,0-6.6-3.16-6.6-7.4s2.38-7.4,6.62-7.4c2.88,0,4.92,1.56,5.48,4h-1.9a3.36,3.36,0,0,0-3.58-2.36c-3.32,0-4.8,2.74-4.8,5.76s1.46,5.76,4.78,5.76a3.6,3.6,0,0,0,3.76-2.68Z"/><path class="cls-5" d="M85.71,892.52c0,3-1.82,5.3-5,5.3s-5-2.3-5-5.3,1.8-5.3,5-5.3S85.71,889.52,85.71,892.52Zm-1.7,0c0-2-1-3.82-3.26-3.82s-3.26,1.86-3.26,3.82,1,3.82,3.26,3.82S84,894.5,84,892.52Z"/><path class="cls-5" d="M86.73,896h.34c1.38,0,2-1,2-4.58v-3.9h7.72v10.08H95.05V889H90.63v2.46c0,4.64-1.08,6.14-3.56,6.14h-.34Z"/><path class="cls-5" d="M108.27,892.5h-7.68c0,2.38,1.14,3.84,3.22,3.84a2.39,2.39,0,0,0,2.56-1.56h1.72c-.34,1.72-1.78,3-4.28,3-3.14,0-4.9-2.32-4.9-5.4s1.8-5.2,4.86-5.2,4.46,2.22,4.5,4.7Zm-7.58-1.42h5.82a2.6,2.6,0,0,0-2.78-2.38A2.85,2.85,0,0,0,100.69,891.08Z"/><path class="cls-5" d="M117.69,897.56v-4.44h-5.58v4.44h-1.7V887.48h1.7v4.16h5.58v-4.16h1.7v10.08Z"/><path class="cls-5" d="M128.59,896.48h-.4a3.94,3.94,0,0,1-3.16,1.34,3.33,3.33,0,0,1-3.64-3.28c0-1.62,1-3.34,3.86-3.34h3.28v-.4c0-1.22-.72-2.1-2.46-2.1-1.48,0-2.26.58-2.34,1.46H122c.12-1.86,1.74-2.94,4-2.94,2.52,0,4.16,1.22,4.16,3.48v6.86h-1.6Zm-.06-3v-.9h-3c-1.64,0-2.42.7-2.42,1.88s.86,1.84,2.34,1.84A3,3,0,0,0,128.53,893.52Z"/><path class="cls-5" d="M141.09,887.48v10.08h-1.72v-4h-3.06c-.22,0-.42,0-.62,0l-1.52,4h-1.78l1.7-4.38a2.71,2.71,0,0,1-1.56-2.64c0-1.9,1.26-3.06,3.54-3.06Zm-4.84,1.44c-1.52,0-2,.62-2,1.64s.5,1.58,2,1.58h3.12v-3.22Z"/><path class="cls-5" d="M153.53,893.12h-2.92v4.44h-1.7V887.48h1.7v4.16h3l2.2-4.16h1.78L155,892.34l2.7,5.22h-1.82Z"/><path class="cls-5" d="M166,896.48h-.4a3.94,3.94,0,0,1-3.16,1.34,3.33,3.33,0,0,1-3.64-3.28c0-1.62,1-3.34,3.86-3.34H166v-.4c0-1.22-.72-2.1-2.46-2.1-1.48,0-2.26.58-2.34,1.46h-1.71c.13-1.86,1.75-2.94,4-2.94,2.52,0,4.16,1.22,4.16,3.48v6.86H166Zm-.06-3v-.9h-3c-1.64,0-2.42.7-2.42,1.88s.86,1.84,2.34,1.84A3,3,0,0,0,166,893.52Z"/><path class="cls-5" d="M170.25,901.56V887.48h1.63v1.1h.41a3.81,3.81,0,0,1,3.12-1.36c2.8,0,4.48,2.3,4.48,5.3s-1.68,5.3-4.48,5.3a3.62,3.62,0,0,1-3.06-1.36H172v5.1Zm1.67-9c0,2,.93,3.82,3.17,3.82,2,0,3.1-1.58,3.1-3.82s-1.06-3.82-3.1-3.82C172.85,888.7,171.92,890.56,171.92,892.52Z"/><path class="cls-5" d="M188.47,896.48h-.4a3.94,3.94,0,0,1-3.16,1.34,3.33,3.33,0,0,1-3.65-3.28c0-1.62,1-3.34,3.87-3.34h3.28v-.4c0-1.22-.72-2.1-2.46-2.1-1.49,0-2.27.58-2.34,1.46H181.9c.12-1.86,1.74-2.94,4-2.94,2.52,0,4.16,1.22,4.16,3.48v6.86h-1.6Zm-.06-3v-.9h-3c-1.64,0-2.43.7-2.43,1.88s.87,1.84,2.35,1.84A3,3,0,0,0,188.41,893.52Z"/><path class="cls-5" d="M192.68,887.48h2.66l2.55,4.8h.4l2.54-4.8h2.62v10.08h-1.66v-8.1h-.4L199,894h-1.84l-2.4-4.52h-.41v8.1h-1.66Z"/><path class="cls-5" d="M215,892.5h-7.69c0,2.38,1.14,3.84,3.22,3.84a2.4,2.4,0,0,0,2.57-1.56h1.72c-.34,1.72-1.78,3-4.29,3-3.14,0-4.9-2.32-4.9-5.4s1.8-5.2,4.86-5.2,4.47,2.22,4.51,4.7Zm-7.59-1.42h5.83a2.6,2.6,0,0,0-2.79-2.38A2.86,2.86,0,0,0,207.38,891.08Z"/><path class="cls-5" d="M216,896h.34c1.38,0,2-1,2-4.58v-3.9H226v10.08h-1.72V889h-4.42v2.46c0,4.64-1.09,6.14-3.57,6.14H216Z"/><path class="cls-5" d="M230.46,890.84h3c2.44,0,3.8,1.26,3.8,3.34s-1.36,3.38-3.8,3.38h-4.69V887.48h1.7Zm5.09,3.34c0-1.18-.58-1.9-2.34-1.9h-2.75v3.8h2.75C235,896.08,235.55,895.34,235.55,894.18Z"/><path class="cls-5" d="M74.17,908.28v14.28h-1.8V909.92H64.53v12.64h-1.8V908.28Z"/><path class="cls-5" d="M76,921h.34c1.38,0,2-1,2-4.58v-3.9H86v10.08H84.31V914H79.89v2.46c0,4.64-1.08,6.14-3.56,6.14H76Z"/><path class="cls-5" d="M98.09,917.52c0,3-1.82,5.3-5,5.3s-5-2.3-5-5.3,1.8-5.3,5-5.3S98.09,914.52,98.09,917.52Zm-1.7,0c0-2-1-3.82-3.26-3.82s-3.26,1.86-3.26,3.82,1,3.82,3.26,3.82S96.39,919.5,96.39,917.52Z"/><path class="cls-5" d="M100.25,912.48h2.66l2.54,4.8h.4l2.54-4.8H111v10.08h-1.66v-8.1H109l-2.4,4.52h-1.84l-2.4-4.52h-.4v8.1h-1.66Z"/><path class="cls-5" d="M123.17,917.72a4.76,4.76,0,0,1-5,5.1c-3.12,0-5-2.16-5-6.06,0-3.42.5-6.86,4-7.52l2.7-.42c.76-.12,1-.24,1-.8h1.58a2.17,2.17,0,0,1-2,2.36c-.72.14-2.86.44-3.1.48-1.86.32-2.4,1.68-2.6,3.26h.38a3.79,3.79,0,0,1,3.3-1.48C121.45,912.64,123.17,914.84,123.17,917.72Zm-1.7,0c0-1.88-1.06-3.6-3.3-3.6s-3.3,1.72-3.3,3.6,1.06,3.62,3.3,3.62S121.47,919.6,121.47,917.72Z"/><path class="cls-5" d="M125.33,922.56V912.48H127v7.8h.4l4.5-7.8h2.44v10.08h-1.66v-7.8h-.4l-4.58,7.8Z"/><path class="cls-5" d="M137.11,926.56V912.48h1.64v1.1h.4a3.81,3.81,0,0,1,3.12-1.36c2.8,0,4.48,2.3,4.48,5.3s-1.68,5.3-4.48,5.3a3.62,3.62,0,0,1-3.06-1.36h-.4v5.1Zm1.68-9c0,2,.92,3.82,3.16,3.82,2,0,3.1-1.58,3.1-3.82S144,913.7,142,913.7C139.71,913.7,138.79,915.56,138.79,917.52Z"/><path class="cls-5" d="M152.31,925.38l6-18h1.54l-6,18Z"/><path class="cls-5" d="M179.55,912.48v10.08h-12.9V912.48h1.66v8.6h4v-8.6h1.66v8.6h4v-8.6Z"/><path class="cls-5" d="M191.63,917.52c0,3-1.82,5.3-5,5.3s-5-2.3-5-5.3,1.79-5.3,5-5.3S191.63,914.52,191.63,917.52Zm-1.7,0c0-2-1-3.82-3.26-3.82s-3.26,1.86-3.26,3.82,1,3.82,3.26,3.82S189.93,919.5,189.93,917.52Z"/><path class="cls-5" d="M198.41,918.12h-2.92v4.44h-1.7V912.48h1.7v4.16h3l2.2-4.16h1.78l-2.56,4.86,2.7,5.22h-1.82Z"/><path class="cls-5" d="M213.79,917.52c0,3-1.82,5.3-5,5.3s-5-2.3-5-5.3,1.8-5.3,5-5.3S213.79,914.52,213.79,917.52Zm-1.7,0c0-2-1-3.82-3.26-3.82s-3.26,1.86-3.26,3.82,1,3.82,3.26,3.82S212.09,919.5,212.09,917.52Z"/><path class="cls-5" d="M214.8,921h.34c1.39,0,2-1,2-4.58v-3.9h7.72v10.08h-1.72V914h-4.42v2.46c0,4.64-1.08,6.14-3.57,6.14h-.34Z"/><path class="cls-5" d="M234,921.48h-.4a4,4,0,0,1-3.17,1.34,3.33,3.33,0,0,1-3.64-3.28c0-1.62,1-3.34,3.86-3.34H234v-.4c0-1.22-.72-2.1-2.47-2.1-1.48,0-2.26.58-2.34,1.46h-1.7c.12-1.86,1.74-2.94,4-2.94,2.53,0,4.17,1.22,4.17,3.48v6.86H234Zm-.06-3v-.9h-3c-1.65,0-2.43.7-2.43,1.88s.86,1.84,2.35,1.84A3,3,0,0,0,234,918.52Z"/><path class="cls-5" d="M249.09,921.08v4.34h-1.66v-2.86h-8.72v2.86H237v-4.34h1.34a13.44,13.44,0,0,0,1.29-5.84v-2.76h7.56v8.6ZM245.53,914h-4.28v1.28a14.06,14.06,0,0,1-1.14,5.84h5.42Z"/><path class="cls-3" d="M370.78,787.46a4.88,4.88,0,0,1,5.08-5.15c3.18,0,5.49,2,5.49,7.35,0,4.57-1.77,8.18-5.68,8.18a4.27,4.27,0,0,1-4.49-3.57H373a2.43,2.43,0,0,0,2.63,1.9c2.37,0,3.76-2,3.86-5.32h-.42a4.57,4.57,0,0,1-3.53,1.48A4.68,4.68,0,0,1,370.78,787.46Zm1.88-.09a3.26,3.26,0,1,0,6.51,0,3.17,3.17,0,0,0-3.29-3.41A3.08,3.08,0,0,0,372.66,787.37Z"/><path class="cls-3" d="M382.8,787.46a4.88,4.88,0,0,1,5.09-5.15c3.18,0,5.49,2,5.49,7.35,0,4.57-1.78,8.18-5.69,8.18a4.26,4.26,0,0,1-4.48-3.57h1.86a2.43,2.43,0,0,0,2.62,1.9c2.37,0,3.76-2,3.87-5.32h-.43a4.54,4.54,0,0,1-3.52,1.48A4.69,4.69,0,0,1,382.8,787.46Zm1.88-.09a3.26,3.26,0,1,0,6.52,0,3.17,3.17,0,0,0-3.29-3.41A3.08,3.08,0,0,0,384.68,787.37Z"/><path class="cls-2" d="M374,822.63h-2l6.5-12.9v-.43H370.9v-1.62h9.53v2.05Z"/><path class="cls-2" d="M385,822.63h-2l6.49-12.9v-.43H382v-1.62h9.53v2.05Z"/><path class="cls-3" d="M374,847.7h-2l6.5-12.9v-.43H370.9v-1.62h9.53v2Z"/><path class="cls-3" d="M385,847.7h-2l6.49-12.9v-.43H382v-1.62h9.53v2Z"/><path class="cls-3" d="M374,872.77h-2l6.5-12.9v-.43H370.9v-1.62h9.53v2Z"/><path class="cls-3" d="M385,872.77h-2l6.49-12.9v-.43H382v-1.62h9.53v2Z"/><path class="cls-3" d="M374,897.84h-2l6.5-12.9v-.43H370.9v-1.62h9.53v2.05Z"/><path class="cls-3" d="M385,897.84h-2l6.49-12.9v-.43H382v-1.62h9.53v2.05Z"/><path class="cls-3" d="M374,922.91h-2l6.5-12.9v-.43H370.9V908h9.53v2Z"/><path class="cls-3" d="M385,922.91h-2l6.49-12.9v-.43H382V908h9.53v2Z"/><path class="cls-3" d="M412.12,795.9h3.54V784.57h-.38l-3.18,2.12v-2l3.16-2.11h2.28V795.9h3.27v1.66h-8.69Z"/><path class="cls-3" d="M425.08,797.56h-2l6.49-12.9v-.43H422v-1.62h9.53v2Z"/><path class="cls-3" d="M443.41,792.5c0,3.25-2.09,5.34-5.13,5.34-3.29,0-5-1.94-5.21-4.47h1.86a3,3,0,0,0,3.27,2.8c2,0,3.33-1.36,3.33-3.59a3.2,3.2,0,0,0-3.27-3.5,3.38,3.38,0,0,0-3,1.41h-1.88l.67-7.88h8.54v1.62h-7l-.34,4.34h.43a4,4,0,0,1,2.9-1.07A4.69,4.69,0,0,1,443.41,792.5Z"/><path class="cls-2" d="M412.12,821h3.54V809.64h-.38l-3.18,2.12v-2l3.16-2.11h2.28V821h3.27v1.66h-8.69Z"/><path class="cls-2" d="M431.41,807.68v2.05L427.67,813v.4a4.26,4.26,0,0,1,4.44,4.55c0,3.1-2.22,4.94-5.27,4.94s-5.09-1.92-5.24-4.47h1.88a3.4,3.4,0,0,0,6.75-.47c0-1.94-1.19-3.18-3.37-3.18a5.58,5.58,0,0,0-1.31.13V813l3.66-3.25v-.43h-6.54v-1.62Z"/><path class="cls-2" d="M444.07,817.57c0,3.25-2.09,5.34-5.12,5.34-3.29,0-5-1.94-5.22-4.47h1.86a3,3,0,0,0,3.27,2.8c2,0,3.33-1.36,3.33-3.59a3.2,3.2,0,0,0-3.27-3.5,3.35,3.35,0,0,0-3,1.41h-1.88l.66-7.88h8.54v1.62h-7l-.34,4.34h.43a4,4,0,0,1,2.91-1.07A4.69,4.69,0,0,1,444.07,817.57Z"/><path class="cls-3" d="M412.12,846h3.54V834.71h-.38l-3.18,2.12v-2l3.16-2.11h2.28V846h3.27v1.67h-8.69Z"/><path class="cls-3" d="M431.41,832.75v2l-3.74,3.29v.4a4.26,4.26,0,0,1,4.44,4.55c0,3.1-2.22,4.94-5.27,4.94s-5.09-1.92-5.24-4.47h1.88a3.4,3.4,0,0,0,6.75-.47c0-1.94-1.19-3.18-3.37-3.18a5.58,5.58,0,0,0-1.31.13v-1.94l3.66-3.25v-.43h-6.54v-1.62Z"/><path class="cls-3" d="M444.07,842.64c0,3.25-2.09,5.34-5.12,5.34-3.29,0-5-2-5.22-4.47h1.86a3,3,0,0,0,3.27,2.8c2,0,3.33-1.37,3.33-3.59a3.2,3.2,0,0,0-3.27-3.5,3.35,3.35,0,0,0-3,1.41h-1.88l.66-7.88h8.54v1.62h-7l-.34,4.34h.43a4,4,0,0,1,2.91-1.07A4.69,4.69,0,0,1,444.07,842.64Z"/><path class="cls-3" d="M412.12,871.11h3.54V859.78h-.38l-3.18,2.12v-2l3.16-2.11h2.28v13.29h3.27v1.66h-8.69Z"/><path class="cls-3" d="M431.41,857.82v2l-3.74,3.29v.4a4.26,4.26,0,0,1,4.44,4.55c0,3.1-2.22,4.94-5.27,4.94s-5.09-1.92-5.24-4.47h1.88a3.4,3.4,0,0,0,6.75-.47c0-1.94-1.19-3.18-3.37-3.18a5.58,5.58,0,0,0-1.31.13v-1.94l3.66-3.25v-.43h-6.54v-1.62Z"/><path class="cls-3" d="M444.07,867.71c0,3.25-2.09,5.34-5.12,5.34-3.29,0-5-1.94-5.22-4.47h1.86a3,3,0,0,0,3.27,2.8c2,0,3.33-1.36,3.33-3.59a3.2,3.2,0,0,0-3.27-3.5,3.35,3.35,0,0,0-3,1.41h-1.88l.66-7.88h8.54v1.62h-7l-.34,4.34h.43a4,4,0,0,1,2.91-1.07A4.69,4.69,0,0,1,444.07,867.71Z"/><path class="cls-3" d="M412.12,896.18h3.54V884.85h-.38L412.1,887v-2l3.16-2.11h2.28v13.29h3.27v1.66h-8.69Z"/><path class="cls-3" d="M431.41,882.89v2.05l-3.74,3.29v.4a4.26,4.26,0,0,1,4.44,4.55c0,3.1-2.22,4.94-5.27,4.94s-5.09-1.92-5.24-4.47h1.88a3.4,3.4,0,0,0,6.75-.47c0-1.94-1.19-3.18-3.37-3.18a5.58,5.58,0,0,0-1.31.13v-1.94l3.66-3.25v-.43h-6.54v-1.62Z"/><path class="cls-3" d="M444.07,892.78c0,3.25-2.09,5.34-5.12,5.34-3.29,0-5-1.94-5.22-4.47h1.86a3,3,0,0,0,3.27,2.8c2,0,3.33-1.36,3.33-3.59a3.2,3.2,0,0,0-3.27-3.5,3.35,3.35,0,0,0-3,1.41h-1.88l.66-7.88h8.54v1.62h-7l-.34,4.34h.43a4,4,0,0,1,2.91-1.07A4.69,4.69,0,0,1,444.07,892.78Z"/><path class="cls-3" d="M412.12,921.24h3.54V909.92h-.38L412.1,912v-2l3.16-2.11h2.28v13.28h3.27v1.67h-8.69Z"/><path class="cls-3" d="M431.41,908v2l-3.74,3.29v.4a4.26,4.26,0,0,1,4.44,4.55c0,3.1-2.22,4.94-5.27,4.94s-5.09-1.92-5.24-4.47h1.88a3.4,3.4,0,0,0,6.75-.47c0-1.94-1.19-3.18-3.37-3.18a5.58,5.58,0,0,0-1.31.13v-2l3.66-3.24v-.43h-6.54V908Z"/><path class="cls-3" d="M444.07,917.85c0,3.25-2.09,5.34-5.12,5.34-3.29,0-5-2-5.22-4.47h1.86a3,3,0,0,0,3.27,2.8c2,0,3.33-1.37,3.33-3.59a3.2,3.2,0,0,0-3.27-3.5,3.35,3.35,0,0,0-3,1.41h-1.88l.66-7.88h8.54v1.62h-7l-.34,4.34h.43a4,4,0,0,1,2.91-1.07A4.69,4.69,0,0,1,444.07,917.85Z"/><path class="cls-3" d="M469.28,782.31c2.78,0,4.85,1.56,4.85,4.55,0,2-1.54,3.95-3.31,5.42l-3.74,3.19v.43h7.54v1.66H464.34v-2.09s4-3.27,5.58-4.7c1-.9,2.33-2.16,2.33-3.91a2.71,2.71,0,0,0-3-2.88,2.82,2.82,0,0,0-3.06,2.75H464.3C464.49,783.74,466.61,782.31,469.28,782.31Z"/><path class="cls-3" d="M485.41,782.61v2L481.67,788v.4a4.26,4.26,0,0,1,4.44,4.55c0,3.1-2.22,4.94-5.28,4.94s-5.08-1.92-5.23-4.47h1.88a3.4,3.4,0,0,0,6.75-.47c0-1.94-1.2-3.18-3.37-3.18a5.46,5.46,0,0,0-1.31.13v-2l3.66-3.24v-.43h-6.54v-1.62Z"/><path class="cls-3" d="M498.07,792.5c0,3.25-2.09,5.34-5.13,5.34-3.28,0-5-1.94-5.21-4.47h1.86a3,3,0,0,0,3.27,2.8c2,0,3.33-1.36,3.33-3.59a3.2,3.2,0,0,0-3.27-3.5,3.38,3.38,0,0,0-3,1.41h-1.88l.67-7.88h8.54v1.62h-7l-.34,4.34h.43a4,4,0,0,1,2.9-1.07A4.69,4.69,0,0,1,498.07,792.5Z"/><path class="cls-2" d="M464.45,821H468V809.64h-.39l-3.18,2.12v-2l3.16-2.11h2.29V821h3.27v1.66h-8.7Z"/><path class="cls-2" d="M485.24,818.55c0,2.48-2.12,4.36-5.41,4.36s-5.4-1.88-5.4-4.36a3.79,3.79,0,0,1,2.35-3.59v-.43a3.47,3.47,0,0,1-1.9-3.16c0-2.37,2.05-4,4.95-4s5,1.62,5,4a3.56,3.56,0,0,1-1.9,3.16V815A3.83,3.83,0,0,1,485.24,818.55Zm-1.86-.17c0-1.75-1.37-2.82-3.55-2.82s-3.54,1.07-3.54,2.82,1.36,2.86,3.54,2.86S483.38,820.11,483.38,818.38Zm-6.67-6.92c0,1.6,1.43,2.48,3.12,2.48s3.12-.88,3.12-2.48-1.43-2.46-3.12-2.46S476.71,809.86,476.71,811.46Z"/><path class="cls-2" d="M497.9,815.15c0,5.39-2.35,7.76-5.51,7.76s-5.49-2.37-5.49-7.76,2.33-7.77,5.49-7.77S497.9,809.77,497.9,815.15Zm-1.88,0c0-3.71-1.13-6.1-3.63-6.1s-3.61,2.39-3.61,6.1,1.13,6.09,3.61,6.09S496,818.85,496,815.15Z"/><path class="cls-3" d="M464.45,846H468V834.71h-.39l-3.18,2.12v-2l3.16-2.11h2.29V846h3.27v1.67h-8.7Z"/><path class="cls-3" d="M485.24,843.62c0,2.48-2.12,4.36-5.41,4.36s-5.4-1.88-5.4-4.36a3.79,3.79,0,0,1,2.35-3.59v-.43a3.47,3.47,0,0,1-1.9-3.16c0-2.37,2.05-4,4.95-4s5,1.62,5,4a3.56,3.56,0,0,1-1.9,3.16V840A3.83,3.83,0,0,1,485.24,843.62Zm-1.86-.17c0-1.75-1.37-2.82-3.55-2.82s-3.54,1.07-3.54,2.82,1.36,2.86,3.54,2.86S483.38,845.18,483.38,843.45Zm-6.67-6.92c0,1.6,1.43,2.48,3.12,2.48s3.12-.88,3.12-2.48-1.43-2.46-3.12-2.46S476.71,834.93,476.71,836.53Z"/><path class="cls-3" d="M497.9,840.22c0,5.39-2.35,7.76-5.51,7.76s-5.49-2.37-5.49-7.76,2.33-7.77,5.49-7.77S497.9,834.84,497.9,840.22Zm-1.88,0c0-3.71-1.13-6.11-3.63-6.11s-3.61,2.4-3.61,6.11,1.13,6.09,3.61,6.09S496,843.92,496,840.22Z"/><path class="cls-3" d="M464.45,871.11H468V859.78h-.39l-3.18,2.12v-2l3.16-2.11h2.29v13.29h3.27v1.66h-8.7Z"/><path class="cls-3" d="M485.24,868.69c0,2.48-2.12,4.36-5.41,4.36s-5.4-1.88-5.4-4.36a3.79,3.79,0,0,1,2.35-3.59v-.43a3.47,3.47,0,0,1-1.9-3.16c0-2.37,2.05-4,4.95-4s5,1.62,5,4a3.56,3.56,0,0,1-1.9,3.16v.43A3.83,3.83,0,0,1,485.24,868.69Zm-1.86-.17c0-1.75-1.37-2.82-3.55-2.82s-3.54,1.07-3.54,2.82,1.36,2.86,3.54,2.86S483.38,870.25,483.38,868.52Zm-6.67-6.92c0,1.6,1.43,2.48,3.12,2.48s3.12-.88,3.12-2.48-1.43-2.46-3.12-2.46S476.71,860,476.71,861.6Z"/><path class="cls-3" d="M497.9,865.29c0,5.39-2.35,7.76-5.51,7.76s-5.49-2.37-5.49-7.76,2.33-7.77,5.49-7.77S497.9,859.91,497.9,865.29Zm-1.88,0c0-3.71-1.13-6.11-3.63-6.11s-3.61,2.4-3.61,6.11,1.13,6.09,3.61,6.09S496,869,496,865.29Z"/><path class="cls-3" d="M464.45,896.18H468V884.85h-.39L464.43,887v-2l3.16-2.11h2.29v13.29h3.27v1.66h-8.7Z"/><path class="cls-3" d="M485.24,893.76c0,2.48-2.12,4.36-5.41,4.36s-5.4-1.88-5.4-4.36a3.79,3.79,0,0,1,2.35-3.59v-.43a3.47,3.47,0,0,1-1.9-3.16c0-2.37,2.05-4,4.95-4s5,1.62,5,4a3.56,3.56,0,0,1-1.9,3.16v.43A3.83,3.83,0,0,1,485.24,893.76Zm-1.86-.17c0-1.75-1.37-2.82-3.55-2.82s-3.54,1.07-3.54,2.82,1.36,2.86,3.54,2.86S483.38,895.32,483.38,893.59Zm-6.67-6.92c0,1.6,1.43,2.48,3.12,2.48s3.12-.88,3.12-2.48-1.43-2.46-3.12-2.46S476.71,885.07,476.71,886.67Z"/><path class="cls-3" d="M497.9,890.36c0,5.39-2.35,7.76-5.51,7.76s-5.49-2.37-5.49-7.76,2.33-7.77,5.49-7.77S497.9,885,497.9,890.36Zm-1.88,0c0-3.71-1.13-6.11-3.63-6.11s-3.61,2.4-3.61,6.11,1.13,6.09,3.61,6.09S496,894.06,496,890.36Z"/><path class="cls-3" d="M464.45,921.24H468V909.92h-.39L464.43,912v-2l3.16-2.11h2.29v13.28h3.27v1.67h-8.7Z"/><path class="cls-3" d="M485.24,918.83c0,2.48-2.12,4.36-5.41,4.36s-5.4-1.88-5.4-4.36a3.79,3.79,0,0,1,2.35-3.59v-.43a3.47,3.47,0,0,1-1.9-3.16c0-2.37,2.05-4,4.95-4s5,1.62,5,4a3.56,3.56,0,0,1-1.9,3.16v.43A3.83,3.83,0,0,1,485.24,918.83Zm-1.86-.17c0-1.75-1.37-2.82-3.55-2.82s-3.54,1.07-3.54,2.82,1.36,2.86,3.54,2.86S483.38,920.39,483.38,918.66Zm-6.67-6.92c0,1.6,1.43,2.48,3.12,2.48s3.12-.88,3.12-2.48-1.43-2.46-3.12-2.46S476.71,910.14,476.71,911.74Z"/><path class="cls-3" d="M497.9,915.43c0,5.39-2.35,7.76-5.51,7.76s-5.49-2.37-5.49-7.76,2.33-7.77,5.49-7.77S497.9,910.05,497.9,915.43Zm-1.88,0c0-3.71-1.13-6.11-3.63-6.11s-3.61,2.4-3.61,6.11,1.13,6.09,3.61,6.09S496,919.13,496,915.43Z"/><path class="cls-7" d="M380,764.53a4,4,0,1,0-4,4A4,4,0,0,0,380,764.53Z"/><path class="cls-7" d="M419.91,764.53a4,4,0,1,0-4,4A4,4,0,0,0,419.91,764.53Z"/><path class="cls-7" d="M432.16,764.53a4,4,0,1,0-4,4A4,4,0,0,0,432.16,764.53Z"/><path class="cls-7" d="M472.24,764.53a4,4,0,1,0-4,4A4,4,0,0,0,472.24,764.53Z"/><path class="cls-7" d="M484.62,764.53a4,4,0,1,0-4,4A4,4,0,0,0,484.62,764.53Z"/><path class="cls-7" d="M497,764.53a4,4,0,1,0-4,4A4,4,0,0,0,497,764.53Z"/><path class="cls-5" d="M198.35,863.33v10.18h-1.19V863.33Z"/><path class="cls-5" d="M204.79,872.75h-.28a2.74,2.74,0,0,1-2.21.94,2.33,2.33,0,0,1-2.55-2.3c0-1.13.73-2.33,2.7-2.33h2.3v-.29c0-.85-.51-1.47-1.72-1.47-1,0-1.59.41-1.64,1H200.2c.08-1.31,1.22-2.06,2.8-2.06,1.76,0,2.91.85,2.91,2.43v4.81h-1.12Zm0-2.07v-.63h-2.12c-1.15,0-1.69.49-1.69,1.32s.6,1.28,1.64,1.28A2.07,2.07,0,0,0,204.75,870.68Z"/><path class="cls-5" d="M213.71,871.38a2.8,2.8,0,0,1-3,2.31c-2.2,0-3.43-1.61-3.43-3.71s1.23-3.71,3.43-3.71a2.72,2.72,0,0,1,2.93,2.22h-1.19a1.66,1.66,0,0,0-1.74-1.19c-1.6,0-2.24,1.24-2.24,2.65s.66,2.7,2.24,2.7a1.63,1.63,0,0,0,1.78-1.27Z"/><path class="cls-5" d="M218.89,866.45v1H217v3.9c0,.7.31,1.05,1.25,1.05h.66v1.07h-.74c-1.55,0-2.36-.39-2.36-1.88v-4.14h-1.43v-1h1.43v-2.13H217v2.13Z"/><path class="cls-5" d="M226.83,870a3.48,3.48,0,1,1-3.48-3.71A3.41,3.41,0,0,1,226.83,870Zm-1.19,0c0-1.37-.73-2.68-2.29-2.68s-2.28,1.31-2.28,2.68.71,2.67,2.28,2.67S225.64,871.37,225.64,870Z"/><path class="cls-5" d="M231.71,869.38c1.29.22,2.08.82,2.08,2.11s-1,2.2-2.9,2.2-3-.87-3.14-2.21h1.19c.15.8.87,1.17,1.89,1.17s1.76-.36,1.76-1.13-.36-.95-1.3-1.12l-1.41-.25c-1.08-.2-1.84-.72-1.84-1.79s.9-2.09,2.78-2.09c1.62,0,2.63.81,2.77,2h-1.18c-.08-.67-.85-1-1.66-1s-1.52.33-1.52,1,.35.74,1.12.88Z"/><path class="cls-5" d="M241.3,870h-5.38c0,1.66.8,2.68,2.26,2.68a1.67,1.67,0,0,0,1.79-1.09h1.21a2.75,2.75,0,0,1-3,2.13c-2.2,0-3.43-1.62-3.43-3.78s1.26-3.64,3.4-3.64a3.07,3.07,0,0,1,3.15,3.29ZM236,869h4.08a1.82,1.82,0,0,0-1.95-1.67A2,2,0,0,0,236,869Z"/><path class="cls-5" d="M248.15,867.49v6H247v-6h-1.39v-1H247v-.81c0-1.63.79-2.31,2.36-2.31h.9v1h-.84c-.95,0-1.23.55-1.23,1.32v.77h2v1Z"/><path class="cls-5" d="M255.43,867.57h-.55a2.13,2.13,0,0,0-2.23,2.41v3.53h-1.19v-7.06h1.15v.85h.28a2.58,2.58,0,0,1,2.05-.85h.49Z"/><path class="cls-5" d="M262.75,870h-5.38c0,1.66.8,2.68,2.26,2.68a1.67,1.67,0,0,0,1.79-1.09h1.2a2.73,2.73,0,0,1-3,2.13c-2.2,0-3.43-1.62-3.43-3.78s1.26-3.64,3.4-3.64a3.07,3.07,0,0,1,3.15,3.29Zm-5.31-1h4.08a1.83,1.83,0,0,0-1.95-1.67A2,2,0,0,0,257.44,869Z"/><path class="cls-5" d="M270.37,870H265c0,1.66.8,2.68,2.25,2.68a1.69,1.69,0,0,0,1.8-1.09h1.2a2.75,2.75,0,0,1-3,2.13c-2.2,0-3.43-1.62-3.43-3.78s1.26-3.64,3.4-3.64a3.08,3.08,0,0,1,3.16,3.29Zm-5.31-1h4.07a1.82,1.82,0,0,0-1.94-1.67A2,2,0,0,0,265.06,869Z"/><path class="cls-3" d="M469.48,428.4c2.78,0,4.85,1.56,4.85,4.55,0,2-1.53,3.95-3.31,5.42l-3.74,3.19V442h7.55v1.67H464.55v-2.09s4-3.27,5.58-4.7c1-.9,2.32-2.16,2.32-3.91a2.71,2.71,0,0,0-3-2.89,2.83,2.83,0,0,0-3.05,2.76h-1.88C464.7,429.83,466.81,428.4,469.48,428.4Z"/><path class="cls-3" d="M486.87,438.59c0,3.24-2.09,5.34-5.12,5.34-3.29,0-5.05-1.95-5.22-4.47h1.86a3,3,0,0,0,3.27,2.8c2,0,3.33-1.37,3.33-3.59a3.2,3.2,0,0,0-3.27-3.5,3.35,3.35,0,0,0-3,1.41h-1.88l.66-7.88h8.54v1.62h-7l-.34,4.34h.43a4,4,0,0,1,2.91-1.07A4.69,4.69,0,0,1,486.87,438.59Z"/><path class="cls-2" d="M469.48,453.4c2.78,0,4.85,1.56,4.85,4.55,0,2-1.53,3.95-3.31,5.42l-3.74,3.19V467h7.55v1.67H464.55v-2.09s4-3.27,5.58-4.7c1-.9,2.32-2.16,2.32-3.91a2.71,2.71,0,0,0-3-2.89,2.83,2.83,0,0,0-3.05,2.76h-1.88C464.7,454.83,466.81,453.4,469.48,453.4Z"/><path class="cls-2" d="M486.87,463.59c0,3.24-2.09,5.34-5.12,5.34-3.29,0-5.05-1.95-5.22-4.47h1.86a3,3,0,0,0,3.27,2.8c2,0,3.33-1.37,3.33-3.59a3.2,3.2,0,0,0-3.27-3.5,3.35,3.35,0,0,0-3,1.41h-1.88l.66-7.88h8.54v1.62h-7l-.34,4.34h.43a4,4,0,0,1,2.91-1.07A4.69,4.69,0,0,1,486.87,463.59Z"/><path class="cls-3" d="M469.48,478.4c2.78,0,4.85,1.56,4.85,4.55,0,2-1.53,3.95-3.31,5.42l-3.74,3.19V492h7.55v1.67H464.55v-2.09s4-3.27,5.58-4.7c1-.9,2.32-2.16,2.32-3.91a2.71,2.71,0,0,0-3-2.89,2.83,2.83,0,0,0-3.05,2.76h-1.88C464.7,479.83,466.81,478.4,469.48,478.4Z"/><path class="cls-3" d="M486.87,488.59c0,3.24-2.09,5.34-5.12,5.34-3.29,0-5.05-1.95-5.22-4.47h1.86a3,3,0,0,0,3.27,2.8c2,0,3.33-1.37,3.33-3.59a3.2,3.2,0,0,0-3.27-3.5,3.35,3.35,0,0,0-3,1.41h-1.88l.66-7.88h8.54v1.62h-7l-.34,4.34h.43a4,4,0,0,1,2.91-1.07A4.69,4.69,0,0,1,486.87,488.59Z"/><path class="cls-3" d="M469.48,503.4c2.78,0,4.85,1.56,4.85,4.55,0,2-1.53,3.95-3.31,5.42l-3.74,3.19V517h7.55v1.67H464.55v-2.09s4-3.27,5.58-4.7c1-.9,2.32-2.16,2.32-3.91a2.71,2.71,0,0,0-3-2.89,2.83,2.83,0,0,0-3.05,2.76h-1.88C464.7,504.83,466.81,503.4,469.48,503.4Z"/><path class="cls-3" d="M486.87,513.59c0,3.24-2.09,5.34-5.12,5.34-3.29,0-5.05-1.95-5.22-4.47h1.86a3,3,0,0,0,3.27,2.8c2,0,3.33-1.37,3.33-3.59a3.2,3.2,0,0,0-3.27-3.5,3.35,3.35,0,0,0-3,1.41h-1.88l.66-7.88h8.54v1.62h-7l-.34,4.34h.43a4,4,0,0,1,2.91-1.07A4.69,4.69,0,0,1,486.87,513.59Z"/><path class="cls-3" d="M469.48,528.4c2.78,0,4.85,1.56,4.85,4.55,0,2-1.53,3.95-3.31,5.42l-3.74,3.19V542h7.55v1.67H464.55v-2.09s4-3.27,5.58-4.7c1-.9,2.32-2.16,2.32-3.91a2.71,2.71,0,0,0-3-2.89,2.83,2.83,0,0,0-3.05,2.76h-1.88C464.7,529.83,466.81,528.4,469.48,528.4Z"/><path class="cls-3" d="M486.87,538.59c0,3.24-2.09,5.34-5.12,5.34-3.29,0-5.05-1.95-5.22-4.47h1.86a3,3,0,0,0,3.27,2.8c2,0,3.33-1.37,3.33-3.59a3.2,3.2,0,0,0-3.27-3.5,3.35,3.35,0,0,0-3,1.41h-1.88l.66-7.88h8.54v1.62h-7l-.34,4.34h.43a4,4,0,0,1,2.91-1.07A4.69,4.69,0,0,1,486.87,538.59Z"/><path class="cls-3" d="M469.48,553.4c2.78,0,4.85,1.56,4.85,4.55,0,2-1.53,3.95-3.31,5.42l-3.74,3.19V567h7.55v1.67H464.55v-2.09s4-3.27,5.58-4.7c1-.9,2.32-2.16,2.32-3.91a2.71,2.71,0,0,0-3-2.89,2.83,2.83,0,0,0-3.05,2.76h-1.88C464.7,554.83,466.81,553.4,469.48,553.4Z"/><path class="cls-3" d="M486.87,563.59c0,3.24-2.09,5.34-5.12,5.34-3.29,0-5.05-1.95-5.22-4.47h1.86a3,3,0,0,0,3.27,2.8c2,0,3.33-1.37,3.33-3.59a3.2,3.2,0,0,0-3.27-3.5,3.35,3.35,0,0,0-3,1.41h-1.88l.66-7.88h8.54v1.62h-7l-.34,4.34h.43a4,4,0,0,1,2.91-1.07A4.69,4.69,0,0,1,486.87,563.59Z"/><path class="cls-3" d="M464.37,226.33h3.54V215h-.38l-3.18,2.12v-2l3.16-2.11h2.28v13.28h3.27V228h-8.69Z"/><path class="cls-3" d="M485,223.13a4.88,4.88,0,0,1-5.08,5.15c-3.18,0-5.49-2-5.49-7.35,0-4.57,1.77-8.18,5.68-8.18a4.27,4.27,0,0,1,4.49,3.56h-1.86a2.45,2.45,0,0,0-2.63-1.9c-2.37,0-3.76,2.05-3.87,5.32h.43a4.57,4.57,0,0,1,3.53-1.47A4.68,4.68,0,0,1,485,223.13Zm-1.88.08a3.26,3.26,0,1,0-6.51,0,3.17,3.17,0,0,0,3.29,3.42A3.08,3.08,0,0,0,483.1,223.21Z"/><path class="cls-3" d="M486.18,217.9a4.88,4.88,0,0,1,5.08-5.15c3.18,0,5.49,2,5.49,7.35,0,4.57-1.77,8.18-5.68,8.18a4.27,4.27,0,0,1-4.49-3.57h1.86a2.44,2.44,0,0,0,2.63,1.9c2.37,0,3.76-2.05,3.87-5.32h-.43a4.57,4.57,0,0,1-3.53,1.48A4.68,4.68,0,0,1,486.18,217.9Zm1.88-.09a3.26,3.26,0,1,0,6.51,0,3.17,3.17,0,0,0-3.29-3.42A3.09,3.09,0,0,0,488.06,217.81Z"/><path class="cls-2" d="M464.37,251.4h3.54V240.08h-.38l-3.18,2.12v-2l3.16-2.11h2.28V251.4h3.27v1.67h-8.69Z"/><path class="cls-2" d="M484.81,248c0,3.24-2.09,5.34-5.13,5.34-3.28,0-5-1.95-5.21-4.47h1.86a3,3,0,0,0,3.27,2.8c2,0,3.33-1.37,3.33-3.59a3.2,3.2,0,0,0-3.27-3.5,3.38,3.38,0,0,0-3,1.41h-1.88l.67-7.88H484v1.62h-7l-.34,4.34h.43A4,4,0,0,1,480,243,4.69,4.69,0,0,1,484.81,248Z"/><path class="cls-2" d="M486.22,243a4.88,4.88,0,0,1,5.08-5.15c3.19,0,5.49,2,5.49,7.35,0,4.57-1.77,8.18-5.68,8.18a4.27,4.27,0,0,1-4.49-3.57h1.86a2.45,2.45,0,0,0,2.63,1.9c2.37,0,3.76-2.05,3.87-5.32h-.43a4.54,4.54,0,0,1-3.52,1.48A4.69,4.69,0,0,1,486.22,243Zm1.88-.09a3.26,3.26,0,1,0,6.51,0,3.17,3.17,0,0,0-3.29-3.42A3.09,3.09,0,0,0,488.1,242.88Z"/><path class="cls-3" d="M464.37,276.47h3.54V265.15h-.38l-3.18,2.12v-2l3.16-2.11h2.28v13.28h3.27v1.67h-8.69Z"/><path class="cls-3" d="M484.81,273.08c0,3.24-2.09,5.34-5.13,5.34-3.28,0-5-1.95-5.21-4.47h1.86a3,3,0,0,0,3.27,2.8c2,0,3.33-1.37,3.33-3.59a3.2,3.2,0,0,0-3.27-3.5,3.38,3.38,0,0,0-3,1.41h-1.88l.67-7.88H484v1.62h-7l-.34,4.34h.43a4,4,0,0,1,2.9-1.07A4.69,4.69,0,0,1,484.81,273.08Z"/><path class="cls-3" d="M486.22,268a4.87,4.87,0,0,1,5.08-5.14c3.19,0,5.49,2,5.49,7.34,0,4.58-1.77,8.19-5.68,8.19a4.27,4.27,0,0,1-4.49-3.57h1.86a2.45,2.45,0,0,0,2.63,1.9c2.37,0,3.76-2.05,3.87-5.32h-.43a4.54,4.54,0,0,1-3.52,1.48A4.69,4.69,0,0,1,486.22,268Zm1.88-.08a3.26,3.26,0,1,0,6.51,0,3.17,3.17,0,0,0-3.29-3.42A3.09,3.09,0,0,0,488.1,268Z"/><path class="cls-3" d="M473.53,288.26v2.05l-3.74,3.29v.4a4.26,4.26,0,0,1,4.45,4.55c0,3.1-2.22,4.94-5.28,4.94s-5.08-1.92-5.23-4.47h1.88a3.4,3.4,0,0,0,6.75-.47c0-1.94-1.2-3.18-3.38-3.18a5.43,5.43,0,0,0-1.3.13v-1.95l3.65-3.24v-.43H464.8v-1.62Z"/><path class="cls-3" d="M486,295.73c0,5.39-2.35,7.76-5.51,7.76s-5.49-2.37-5.49-7.76,2.32-7.77,5.49-7.77S486,290.35,486,295.73Zm-1.88,0c0-3.71-1.14-6.11-3.63-6.11s-3.61,2.4-3.61,6.11,1.13,6.09,3.61,6.09S484.13,299.43,484.13,295.73Z"/><path class="cls-3" d="M486.67,293.11a4.88,4.88,0,0,1,5.08-5.15c3.19,0,5.49,2,5.49,7.35,0,4.57-1.77,8.18-5.68,8.18a4.27,4.27,0,0,1-4.49-3.57h1.86a2.45,2.45,0,0,0,2.63,1.9c2.37,0,3.76-2.05,3.87-5.32H495a4.54,4.54,0,0,1-3.52,1.48A4.69,4.69,0,0,1,486.67,293.11Zm1.88-.09a3.26,3.26,0,1,0,6.51,0,3.17,3.17,0,0,0-3.29-3.42A3.09,3.09,0,0,0,488.55,293Z"/><path class="cls-3" d="M464.37,326.61h3.54V315.29h-.38l-3.18,2.12v-2l3.16-2.11h2.28v13.28h3.27v1.67h-8.69Z"/><path class="cls-3" d="M474.88,326.61h3.54V315.29H478l-3.18,2.12v-2l3.16-2.11h2.28v13.28h3.27v1.67h-8.69Z"/><path class="cls-3" d="M485.05,318.18a4.88,4.88,0,0,1,5.08-5.15c3.18,0,5.49,2,5.49,7.35,0,4.57-1.77,8.18-5.68,8.18a4.27,4.27,0,0,1-4.49-3.57h1.86a2.43,2.43,0,0,0,2.63,1.9c2.37,0,3.76-2.05,3.86-5.32h-.42a4.57,4.57,0,0,1-3.53,1.48A4.68,4.68,0,0,1,485.05,318.18Zm1.88-.09a3.26,3.26,0,1,0,6.51,0,3.17,3.17,0,0,0-3.29-3.42A3.09,3.09,0,0,0,486.93,318.09Z"/><path class="cls-3" d="M464.37,351.68h3.54V340.36h-.38l-3.18,2.12v-2l3.16-2.11h2.28v13.28h3.27v1.67h-8.69Z"/><path class="cls-3" d="M477.33,353.35h-2l6.49-12.9V340h-7.58V338.4h9.53v2.05Z"/><path class="cls-3" d="M485,343.24a4.88,4.88,0,0,1,5.09-5.14c3.18,0,5.49,2,5.49,7.34,0,4.58-1.77,8.19-5.68,8.19a4.26,4.26,0,0,1-4.49-3.57h1.86a2.43,2.43,0,0,0,2.63,1.9c2.37,0,3.76-2,3.86-5.32h-.42a4.57,4.57,0,0,1-3.53,1.48A4.69,4.69,0,0,1,485,343.24Zm1.88-.08a3.26,3.26,0,1,0,6.52,0,3.17,3.17,0,0,0-3.29-3.42A3.09,3.09,0,0,0,486.92,343.16Z"/><path class="cls-4" d="M42.27,173.28c-3.1,0-4.68,1.3-5.17,3.47H34.24c.47-3.69,3.47-6,8-6,5,0,7.63,2.7,7.63,5.86a4.79,4.79,0,0,1-2.39,4.53v.62c1.77.74,3.2,2.23,3.2,5.3,0,3.5-2.89,6.63-8.34,6.63s-8.47-2.57-9.12-6.48h2.91c.69,2.64,3,3.94,6.24,3.94s5.45-1.58,5.45-4.15c0-2.36-1.3-4-5-4H39.3v-2.55h3.56c3.13,0,4.22-1.67,4.22-3.53C47.08,174.55,45,173.28,42.27,173.28Z"/><path class="cls-4" d="M66.79,186.49h-9.7l-2.29,6.79H51.94l7.66-22.14h4.71L72,193.28H69.09ZM57.93,184h8L62.55,174H61.31Z"/><path class="cls-4" d="M74.51,171.14H77.3v9.46h6.54l4.59-9.46h2.95L86.26,181.9l5.4,11.38h-3l-4.87-10.14H77.3v10.14H74.51Z"/><path class="cls-4" d="M102.32,182.77l5.55-11.63h2.91l-10.57,22.14H97.33l3.16-6.63L92.3,171.14h3l6.14,11.63Z"/><path class="cls-4" d="M130.35,187c-.87,3.93-3.94,6.69-8.78,6.69-6.57,0-10.23-4.9-10.23-11.47s3.69-11.47,10.26-11.47c4.47,0,7.63,2.42,8.5,6.2h-2.95c-.84-2.36-2.51-3.66-5.55-3.66-5.15,0-7.44,4.25-7.44,8.93s2.26,8.93,7.41,8.93c3.1,0,5.12-1.61,5.83-4.15Z"/><path class="cls-4" d="M133.78,171.14h2.79v9.46h6.54l4.59-9.46h3l-5.12,10.76,5.4,11.38h-3l-4.87-10.14h-6.54v10.14h-2.79Z"/><path class="cls-4" d="M156.57,171.14V189.9h.62l10.42-18.76h4.31v22.14h-2.73V174.52h-.62l-10.42,18.76h-4.31V171.14Z"/><path class="cls-5" d="M70,214.9c3.92,0,6.52,1.94,6.52,5.76S74,226.42,70,226.42h-.24v1.84H68v-1.84h-.24c-3.94,0-6.52-1.86-6.52-5.76s2.6-5.76,6.52-5.76H68v-1.64h1.76v1.64Zm-2,9.92V216.5h-.24c-2.9,0-4.74,1.32-4.74,4.16s1.84,4.16,4.74,4.16Zm2,0c2.88,0,4.74-1.32,4.74-4.16S72.93,216.5,70,216.5h-.24v8.32Z"/><path class="cls-5" d="M78.57,232V217.92h1.64V219h.4a3.81,3.81,0,0,1,3.12-1.36c2.8,0,4.48,2.3,4.48,5.3s-1.68,5.3-4.48,5.3a3.62,3.62,0,0,1-3.06-1.36h-.4V232Zm1.68-9c0,2,.92,3.82,3.16,3.82,2,0,3.1-1.58,3.1-3.82s-1.06-3.82-3.1-3.82C81.17,219.14,80.25,221,80.25,223Z"/><path class="cls-5" d="M90.37,228V217.92H92v7.8h.4l4.5-7.8h2.44V228H97.71v-7.8h-.4L92.73,228Z"/><path class="cls-5" d="M106.77,223.56h-2.92V228h-1.7V217.92h1.7v4.16h3l2.2-4.16h1.78l-2.56,4.86,2.7,5.22h-1.82Z"/><path class="cls-5" d="M119.27,226.92h-.4a3.94,3.94,0,0,1-3.16,1.34,3.33,3.33,0,0,1-3.64-3.28c0-1.62,1-3.34,3.86-3.34h3.28v-.4c0-1.22-.72-2.1-2.46-2.1-1.48,0-2.26.58-2.34,1.46h-1.7c.12-1.86,1.74-2.94,4-2.94,2.52,0,4.16,1.22,4.16,3.48V228h-1.6Zm-.06-3v-.9h-3c-1.64,0-2.42.7-2.42,1.88s.86,1.84,2.34,1.84A3,3,0,0,0,119.21,224Z"/><path class="cls-5" d="M134.33,226.52v4.34h-1.66V228H124v2.86h-1.66v-4.34h1.34a13.6,13.6,0,0,0,1.28-5.84v-2.76h7.56v8.6Zm-3.56-7.12h-4.28v1.28a14.06,14.06,0,0,1-1.14,5.84h5.42Z"/><path class="cls-5" d="M144.77,222.94h-7.68c0,2.38,1.14,3.84,3.22,3.84a2.39,2.39,0,0,0,2.56-1.56h1.72c-.34,1.72-1.78,3-4.28,3-3.14,0-4.9-2.32-4.9-5.4s1.8-5.2,4.86-5.2,4.46,2.22,4.5,4.7Zm-7.58-1.42H143a2.6,2.6,0,0,0-2.78-2.38A2.85,2.85,0,0,0,137.19,221.52Z"/><path class="cls-5" d="M145.77,226.4h.34c1.38,0,2-1,2-4.58v-3.9h7.72V228h-1.72v-8.6h-4.42v2.46c0,4.64-1.08,6.14-3.56,6.14h-.34Z"/><path class="cls-5" d="M160.27,221.28h3c2.44,0,3.8,1.26,3.8,3.34s-1.36,3.38-3.8,3.38h-4.68V217.92h1.7Zm5.08,3.34c0-1.18-.58-1.9-2.34-1.9h-2.74v3.8H163C164.77,226.52,165.35,225.78,165.35,224.62Z"/><path class="cls-5" d="M173.59,223.56h-2.92V228H169V217.92h1.7v4.16h3l2.2-4.16h1.78l-2.56,4.86,2.7,5.22h-1.82Z"/><path class="cls-5" d="M179.67,228V217.92h1.66v7.8h.4l4.5-7.8h2.44V228H187v-7.8h-.4L182,228Z"/><path class="cls-5" d="M205,225a4,4,0,0,1-4.24,3.3c-3.14,0-4.9-2.3-4.9-5.3s1.76-5.3,4.9-5.3a3.88,3.88,0,0,1,4.18,3.18h-1.7a2.35,2.35,0,0,0-2.48-1.7c-2.28,0-3.2,1.76-3.2,3.78s.94,3.86,3.2,3.86a2.33,2.33,0,0,0,2.54-1.82Z"/><path class="cls-5" d="M216.75,223.56h-2.92V228h-1.7V217.92h1.7v4.16h3l2.2-4.16h1.78l-2.56,4.86,2.7,5.22h-1.82Z"/><path class="cls-5" d="M229.25,226.92h-.4a3.94,3.94,0,0,1-3.16,1.34,3.33,3.33,0,0,1-3.64-3.28c0-1.62,1-3.34,3.86-3.34h3.28v-.4c0-1.22-.72-2.1-2.46-2.1-1.48,0-2.26.58-2.34,1.46h-1.7c.12-1.86,1.74-2.94,4-2.94,2.52,0,4.16,1.22,4.16,3.48V228h-1.6Zm-.06-3v-.9h-3c-1.64,0-2.42.7-2.42,1.88s.86,1.84,2.34,1.84A3,3,0,0,0,229.19,224Z"/><path class="cls-5" d="M233.47,232V217.92h1.64V219h.4a3.81,3.81,0,0,1,3.12-1.36c2.8,0,4.48,2.3,4.48,5.3s-1.68,5.3-4.48,5.3a3.62,3.62,0,0,1-3.06-1.36h-.4V232Zm1.68-9c0,2,.92,3.82,3.16,3.82,2,0,3.1-1.58,3.1-3.82s-1.06-3.82-3.1-3.82C236.07,219.14,235.15,221,235.15,223Z"/><path class="cls-5" d="M244,217.92h8.68v1.48h-3.48V228h-1.7v-8.6H244Z"/><path class="cls-5" d="M263.59,223c0,3-1.82,5.3-5,5.3s-5-2.3-5-5.3,1.8-5.3,5-5.3S263.59,220,263.59,223Zm-1.7,0c0-2-1-3.82-3.26-3.82s-3.26,1.86-3.26,3.82,1,3.82,3.26,3.82S261.89,224.94,261.89,223Z"/><path class="cls-5" d="M278.65,217.92V228h-12.9V217.92h1.66v8.6h4v-8.6H273v8.6h4v-8.6Z"/><path class="cls-5" d="M290.17,222.94h-7.69c0,2.38,1.15,3.84,3.23,3.84a2.39,2.39,0,0,0,2.56-1.56H290c-.34,1.72-1.78,3-4.28,3-3.15,0-4.9-2.32-4.9-5.4s1.8-5.2,4.86-5.2,4.46,2.22,4.5,4.7Zm-7.58-1.42h5.82a2.6,2.6,0,0,0-2.78-2.38A2.85,2.85,0,0,0,282.59,221.52Z"/><path class="cls-5" d="M293.43,217.92v2.84c0,1,0,2,2.54,2a11.91,11.91,0,0,0,2.52-.26v-4.6h1.72V228h-1.72v-4a15.45,15.45,0,0,1-2.88.28c-3.67,0-3.88-1.74-3.88-3.4v-3Z"/><path class="cls-5" d="M307.61,223.56h-2.92V228H303V217.92h1.71v4.16h3l2.2-4.16h1.78l-2.56,4.86,2.7,5.22H310Z"/><path class="cls-5" d="M323,223c0,3-1.82,5.3-5,5.3s-5-2.3-5-5.3,1.8-5.3,5-5.3S323,220,323,223Zm-1.7,0c0-2-1-3.82-3.26-3.82s-3.26,1.86-3.26,3.82,1,3.82,3.26,3.82S321.29,224.94,321.29,223Z"/><path class="cls-5" d="M325.15,228V217.92h1.66v7.8h.4l4.5-7.8h2.44V228h-1.66v-7.8h-.4l-4.58,7.8Zm7.58-14.48a3.12,3.12,0,0,1-6.22,0h1.38a1.73,1.73,0,0,0,3.46,0Z"/><path class="cls-5" d="M348.35,232h-1.68v-4h-.32a5,5,0,0,1,0-10.08h.34v-4.46h1.68v4.46h.32a4.67,4.67,0,0,1,5,5c0,3.1-1.88,5-5.28,5Zm-2-5.44h.32v-7.2h-.32c-2.24,0-3.31,1.64-3.31,3.6S344.09,226.56,346.35,226.56Zm2.28,0c2.26,0,3.32-1.64,3.32-3.6s-1.06-3.6-3.32-3.6h-.28v7.2Z"/><path class="cls-5" d="M355.78,232V217.92h1.64V219h.4a3.83,3.83,0,0,1,3.13-1.36c2.8,0,4.48,2.3,4.48,5.3s-1.68,5.3-4.48,5.3a3.6,3.6,0,0,1-3.06-1.36h-.41V232Zm1.68-9c0,2,.93,3.82,3.17,3.82,2,0,3.1-1.58,3.1-3.82s-1.06-3.82-3.1-3.82C358.39,219.14,357.46,221,357.46,223Z"/><path class="cls-5" d="M367.58,228V217.92h1.66v7.8h.41l4.5-7.8h2.44V228h-1.66v-7.8h-.4l-4.59,7.8Z"/><path class="cls-6" d="M70,239.9c3.92,0,6.52,1.94,6.52,5.76S74,251.42,70,251.42h-.24v1.84H68v-1.84h-.24c-3.94,0-6.52-1.86-6.52-5.76s2.6-5.76,6.52-5.76H68v-1.64h1.76v1.64Zm-2,9.92V241.5h-.24c-2.9,0-4.74,1.32-4.74,4.16s1.84,4.16,4.74,4.16Zm2,0c2.88,0,4.74-1.32,4.74-4.16S72.93,241.5,70,241.5h-.24v8.32Z"/><path class="cls-6" d="M85,251.92h-.4a3.94,3.94,0,0,1-3.16,1.34A3.33,3.33,0,0,1,77.79,250c0-1.62,1-3.34,3.86-3.34h3.28v-.4c0-1.22-.72-2.1-2.46-2.1-1.48,0-2.26.58-2.34,1.46h-1.7c.12-1.86,1.74-2.94,4-2.94,2.52,0,4.16,1.22,4.16,3.48V253H85Zm-.06-3v-.9h-3c-1.64,0-2.42.7-2.42,1.88s.86,1.84,2.34,1.84A3,3,0,0,0,84.93,249Z"/><path class="cls-6" d="M88.07,251.4h.34c1.38,0,2-1,2-4.58v-3.9h7.72V253H96.39v-8.6H92v2.46c0,4.64-1.08,6.14-3.56,6.14h-.34Z"/><path class="cls-6" d="M107.29,251.92h-.4a3.94,3.94,0,0,1-3.16,1.34,3.33,3.33,0,0,1-3.64-3.28c0-1.62,1-3.34,3.86-3.34h3.28v-.4c0-1.22-.72-2.1-2.46-2.1-1.48,0-2.26.58-2.34,1.46h-1.7c.12-1.86,1.74-2.94,4-2.94,2.52,0,4.16,1.22,4.16,3.48V253h-1.6Zm-.06-3v-.9h-3c-1.64,0-2.42.7-2.42,1.88s.86,1.84,2.34,1.84A3,3,0,0,0,107.23,249Z"/><path class="cls-6" d="M117.87,257h-1.68v-4h-.32a5,5,0,0,1,0-10.08h.34v-4.46h1.68v4.46h.32a4.67,4.67,0,0,1,5,5c0,3.1-1.88,5-5.28,5Zm-2-5.44h.32v-7.2h-.32c-2.24,0-3.3,1.64-3.3,3.6S113.61,251.56,115.87,251.56Zm2.28,0c2.26,0,3.32-1.64,3.32-3.6s-1.06-3.6-3.32-3.6h-.28v7.2Z"/><path class="cls-6" d="M134.05,247.94h-7.68c0,2.38,1.14,3.84,3.22,3.84a2.39,2.39,0,0,0,2.56-1.56h1.72c-.34,1.72-1.78,3-4.28,3-3.14,0-4.9-2.32-4.9-5.4s1.8-5.2,4.86-5.2,4.46,2.22,4.5,4.7Zm-7.58-1.42h5.82a2.6,2.6,0,0,0-2.78-2.38A2.85,2.85,0,0,0,126.47,246.52Z"/><path class="cls-6" d="M135.05,251.4h.34c1.38,0,2-1,2-4.58v-3.9h7.72V253h-1.72v-8.6H139v2.46c0,4.64-1.08,6.14-3.56,6.14h-.34Z"/><path class="cls-6" d="M149.55,246.28h3c2.44,0,3.8,1.26,3.8,3.34S155,253,152.53,253h-4.68V242.92h1.7Zm5.08,3.34c0-1.18-.58-1.9-2.34-1.9h-2.74v3.8h2.74C154.05,251.52,154.63,250.78,154.63,249.62Z"/><path class="cls-6" d="M171.83,250a4,4,0,0,1-4.24,3.3c-3.14,0-4.9-2.3-4.9-5.3s1.76-5.3,4.9-5.3a3.88,3.88,0,0,1,4.18,3.18h-1.7a2.35,2.35,0,0,0-2.48-1.7c-2.28,0-3.2,1.76-3.2,3.78s.94,3.86,3.2,3.86a2.33,2.33,0,0,0,2.54-1.82Z"/><path class="cls-6" d="M183.17,248c0,3-1.82,5.3-5,5.3s-5-2.3-5-5.3,1.8-5.3,5-5.3S183.17,245,183.17,248Zm-1.7,0c0-2-1-3.82-3.26-3.82S175,246,175,248s1,3.82,3.26,3.82S181.47,249.94,181.47,248Z"/><path class="cls-6" d="M198.91,250a4,4,0,0,1-4.24,3.3c-3.14,0-4.9-2.3-4.9-5.3s1.76-5.3,4.9-5.3a3.88,3.88,0,0,1,4.18,3.18h-1.7a2.35,2.35,0,0,0-2.48-1.7c-2.28,0-3.2,1.76-3.2,3.78s.94,3.86,3.2,3.86a2.33,2.33,0,0,0,2.54-1.82Z"/><path class="cls-6" d="M209.69,250.24c0,1.82-1.28,2.76-3.56,2.76H201V242.92h5.22c2,0,3.18,1,3.18,2.54a2.15,2.15,0,0,1-1.28,2v.4A2.21,2.21,0,0,1,209.69,250.24Zm-7.06-3.14H206c1.22,0,1.64-.64,1.64-1.36s-.42-1.38-1.64-1.38h-3.38Zm5.36,3c0-.84-.5-1.52-2-1.52h-3.4v3H206C207.49,251.56,208,250.92,208,250.06Z"/><path class="cls-6" d="M220.57,247.94h-7.68c0,2.38,1.14,3.84,3.22,3.84a2.39,2.39,0,0,0,2.56-1.56h1.72c-.34,1.72-1.78,3-4.28,3-3.14,0-4.9-2.32-4.9-5.4s1.8-5.2,4.86-5.2,4.46,2.22,4.5,4.7ZM213,246.52h5.82a2.6,2.6,0,0,0-2.78-2.38A2.85,2.85,0,0,0,213,246.52Z"/><path class="cls-6" d="M223.63,253h-1.78l2.38-5.18-2.25-4.9h1.77l1.92,4.18h2.48v-4.18h1.64v4.18h2.48l1.92-4.18H236l-2.24,4.9,2.4,5.18h-1.8l-2-4.42h-2.48V253h-1.64v-4.42h-2.48Z"/><path class="cls-6" d="M238,253V242.92h1.66v7.8h.4l4.5-7.8H247V253h-1.66v-7.8H245l-4.58,7.8Z"/><path class="cls-6" d="M249.79,242.92h2.66l2.54,4.8h.4l2.54-4.8h2.62V253h-1.66v-8.1h-.4l-2.4,4.52h-1.84l-2.4-4.52h-.4V253h-1.66Z"/><path class="cls-6" d="M277.69,248c0,3-1.82,5.3-5,5.3s-5-2.3-5-5.3,1.79-5.3,5-5.3S277.69,245,277.69,248Zm-1.7,0c0-2-1-3.82-3.26-3.82s-3.26,1.86-3.26,3.82,1,3.82,3.26,3.82S276,249.94,276,248Z"/><path class="cls-6" d="M279.85,242.92h7.56v1.48h-5.86V253h-1.7Z"/><path class="cls-6" d="M290.14,257l2.06-4.9L288,242.92h1.84l3.05,6.64h.5l2.8-6.64H298L291.89,257Z"/><path class="cls-6" d="M299.42,257V242.92h1.64V244h.4a3.82,3.82,0,0,1,3.13-1.36c2.8,0,4.48,2.3,4.48,5.3s-1.68,5.3-4.48,5.3a3.63,3.63,0,0,1-3.07-1.36h-.4V257Zm1.68-9c0,2,.92,3.82,3.17,3.82,2,0,3.1-1.58,3.1-3.82s-1.06-3.82-3.1-3.82C302,244.14,301.1,246,301.1,248Z"/><path class="cls-6" d="M312.34,242.92v2.84c0,1,0,2,2.54,2a11.91,11.91,0,0,0,2.52-.26v-4.6h1.73V253H317.4v-4a15.45,15.45,0,0,1-2.88.28c-3.66,0-3.88-1.74-3.88-3.4v-3Z"/><path class="cls-6" d="M321.9,253V242.92h1.66v7.8H324l4.5-7.8h2.44V253h-1.66v-7.8h-.4l-4.58,7.8Z"/><path class="cls-6" d="M338.31,248.56h-2.93V253h-1.7V242.92h1.7v4.16h3l2.2-4.16h1.78l-2.56,4.86,2.7,5.22h-1.82Z"/><path class="cls-6" d="M353.69,248c0,3-1.82,5.3-5,5.3s-5-2.3-5-5.3,1.8-5.3,5-5.3S353.69,245,353.69,248Zm-1.7,0c0-2-1-3.82-3.26-3.82s-3.27,1.86-3.27,3.82,1,3.82,3.27,3.82S352,249.94,352,248Z"/><path class="cls-6" d="M355.84,242.92h2.66l2.55,4.8h.39l2.55-4.8h2.62V253H365v-8.1h-.4l-2.4,4.52h-1.84l-2.41-4.52h-.4V253h-1.66Z"/><path class="cls-5" d="M73.75,273.94a5.39,5.39,0,0,1-5.66,4.32c-4.24,0-6.6-3.16-6.6-7.4s2.38-7.4,6.62-7.4c2.88,0,4.92,1.56,5.48,4h-1.9a3.36,3.36,0,0,0-3.58-2.36c-3.32,0-4.8,2.74-4.8,5.76s1.46,5.76,4.78,5.76a3.6,3.6,0,0,0,3.76-2.68Z"/><path class="cls-5" d="M77.59,267.92v3.36h2.78c2.44,0,3.8,1.26,3.8,3.34S82.81,278,80.37,278H75.89V267.92Zm0,8.6h2.54c1.76,0,2.34-.74,2.34-1.9s-.58-1.9-2.34-1.9H77.59Zm9.9-8.6V278h-1.7V267.92Z"/><path class="cls-5" d="M90.27,282V267.92h1.64V269h.4a3.81,3.81,0,0,1,3.12-1.36c2.8,0,4.48,2.3,4.48,5.3s-1.68,5.3-4.48,5.3a3.62,3.62,0,0,1-3.06-1.36H92V282ZM92,273c0,2,.92,3.82,3.16,3.82,2,0,3.1-1.58,3.1-3.82s-1.06-3.82-3.1-3.82C92.87,269.14,92,271,92,273Z"/><path class="cls-5" d="M109.35,278v-4.44h-5.58V278h-1.7V267.92h1.7v4.16h5.58v-4.16h1.7V278Z"/><path class="cls-5" d="M115.53,267.92v3.36h2.78c2.44,0,3.8,1.26,3.8,3.34s-1.36,3.38-3.8,3.38h-4.48V267.92Zm0,8.6h2.54c1.76,0,2.34-.74,2.34-1.9s-.58-1.9-2.34-1.9h-2.54Zm9.9-8.6V278h-1.7V267.92Z"/><path class="cls-5" d="M137,272.94h-7.68c0,2.38,1.14,3.84,3.22,3.84a2.39,2.39,0,0,0,2.56-1.56h1.72c-.34,1.72-1.78,3-4.28,3-3.14,0-4.9-2.32-4.9-5.4s1.8-5.2,4.86-5.2,4.46,2.22,4.5,4.7Zm-7.58-1.42h5.82a2.6,2.6,0,0,0-2.78-2.38A2.85,2.85,0,0,0,129.37,271.52Z"/><path class="cls-5" d="M151.35,278v-8.6h-5.5V278h-1.7V267.92h8.9V278Z"/><path class="cls-5" d="M162.25,276.92h-.4a3.94,3.94,0,0,1-3.16,1.34,3.33,3.33,0,0,1-3.64-3.28c0-1.62,1-3.34,3.86-3.34h3.28v-.4c0-1.22-.72-2.1-2.46-2.1-1.48,0-2.26.58-2.34,1.46h-1.7c.12-1.86,1.74-2.94,4-2.94,2.52,0,4.16,1.22,4.16,3.48V278h-1.6Zm-.06-3v-.9h-3c-1.64,0-2.42.7-2.42,1.88s.86,1.84,2.34,1.84A3,3,0,0,0,162.19,274Z"/><path class="cls-5" d="M165.33,276.4h.34c1.38,0,2-1,2-4.58v-3.9h7.72V278h-1.72v-8.6h-4.42v2.46c0,4.64-1.08,6.14-3.56,6.14h-.34Z"/><path class="cls-5" d="M187.43,273c0,3-1.82,5.3-5,5.3s-5-2.3-5-5.3,1.8-5.3,5-5.3S187.43,270,187.43,273Zm-1.7,0c0-2-1-3.82-3.26-3.82s-3.26,1.86-3.26,3.82,1,3.82,3.26,3.82S185.73,274.94,185.73,273Z"/><path class="cls-5" d="M190.71,267.92v2.84c0,1,0,2,2.54,2a11.91,11.91,0,0,0,2.52-.26v-4.6h1.72V278h-1.72v-4a15.45,15.45,0,0,1-2.88.28c-3.66,0-3.88-1.74-3.88-3.4v-3Z"/><path class="cls-5" d="M204.89,273.56H202V278h-1.7V267.92H202v4.16h3l2.2-4.16h1.78l-2.56,4.86,2.7,5.22h-1.82Z"/><path class="cls-5" d="M211,278V267.92h1.66v7.8h.4l4.5-7.8H220V278h-1.66v-7.8h-.4l-4.58,7.8Z"/><path class="cls-5" d="M62.21,288.72H64v6.1h4.22l3-6.1h1.9l-3.3,6.94L73.27,303h-1.9l-3.14-6.54H64V303h-1.8Z"/><path class="cls-5" d="M75.07,307V292.92h1.64V294h.4a3.81,3.81,0,0,1,3.12-1.36c2.8,0,4.48,2.3,4.48,5.3s-1.68,5.3-4.48,5.3a3.62,3.62,0,0,1-3.06-1.36h-.4V307Zm1.68-9c0,2,.92,3.82,3.16,3.82,2,0,3.1-1.58,3.1-3.82s-1.06-3.82-3.1-3.82C77.67,294.14,76.75,296,76.75,298Z"/><path class="cls-5" d="M95.61,297.94H87.93c0,2.38,1.14,3.84,3.22,3.84a2.39,2.39,0,0,0,2.56-1.56h1.72c-.34,1.72-1.78,3-4.28,3-3.14,0-4.9-2.32-4.9-5.4s1.8-5.2,4.86-5.2,4.46,2.22,4.5,4.7ZM88,296.52h5.82a2.6,2.6,0,0,0-2.78-2.38A2.85,2.85,0,0,0,88,296.52Z"/><path class="cls-5" d="M106.49,300.24c0,1.82-1.28,2.76-3.56,2.76H97.75V292.92H103c2,0,3.18,1,3.18,2.54a2.15,2.15,0,0,1-1.28,2v.4A2.21,2.21,0,0,1,106.49,300.24Zm-7.06-3.14h3.38c1.22,0,1.64-.64,1.64-1.36s-.42-1.38-1.64-1.38H99.43Zm5.36,3c0-.84-.5-1.52-2-1.52h-3.4v3h3.4C104.29,301.56,104.79,300.92,104.79,300.06Z"/><path class="cls-5" d="M117.37,297.94h-7.68c0,2.38,1.14,3.84,3.22,3.84a2.39,2.39,0,0,0,2.56-1.56h1.72c-.34,1.72-1.78,3-4.28,3-3.14,0-4.9-2.32-4.9-5.4s1.8-5.2,4.86-5.2,4.46,2.22,4.5,4.7Zm-7.58-1.42h5.82a2.6,2.6,0,0,0-2.78-2.38A2.85,2.85,0,0,0,109.79,296.52Z"/><path class="cls-5" d="M118.13,292.92h8.68v1.48h-3.48V303h-1.7v-8.6h-3.5Z"/><path class="cls-5" d="M133.17,298.56h-2.92V303h-1.7V292.92h1.7v4.16h3l2.2-4.16h1.78l-2.56,4.86,2.7,5.22h-1.82Z"/><path class="cls-5" d="M139.25,303V292.92h1.66v7.8h.4l4.5-7.8h2.44V303h-1.66v-7.8h-.4l-4.58,7.8Z"/><path class="cls-5" d="M162.45,307h-1.68v-4h-.32a5,5,0,0,1,0-10.08h.34v-4.46h1.68v4.46h.32a4.67,4.67,0,0,1,5,5c0,3.1-1.88,5-5.28,5Zm-2-5.44h.32v-7.2h-.32c-2.24,0-3.3,1.64-3.3,3.6S158.19,301.56,160.45,301.56Zm2.28,0c2.26,0,3.32-1.64,3.32-3.6s-1.06-3.6-3.32-3.6h-.28v7.2Z"/><path class="cls-5" d="M169.89,307V292.92h1.64V294h.4a3.81,3.81,0,0,1,3.12-1.36c2.8,0,4.48,2.3,4.48,5.3s-1.68,5.3-4.48,5.3A3.62,3.62,0,0,1,172,301.9h-.4V307Zm1.68-9c0,2,.92,3.82,3.16,3.82,2,0,3.1-1.58,3.1-3.82s-1.06-3.82-3.1-3.82C172.49,294.14,171.57,296,171.57,298Z"/><path class="cls-5" d="M181.69,303V292.92h1.66v7.8h.4l4.5-7.8h2.44V303H189v-7.8h-.4l-4.58,7.8Z"/><path class="cls-5" d="M207.05,300a4,4,0,0,1-4.24,3.3c-3.14,0-4.9-2.3-4.9-5.3s1.76-5.3,4.9-5.3a3.88,3.88,0,0,1,4.18,3.18h-1.7a2.35,2.35,0,0,0-2.48-1.7c-2.28,0-3.2,1.76-3.2,3.78s.94,3.86,3.2,3.86a2.33,2.33,0,0,0,2.54-1.82Z"/><path class="cls-5" d="M223.45,298c0,3-1.82,5.3-5,5.3s-5-2.3-5-5.3,1.8-5.3,5-5.3S223.45,295,223.45,298Zm-1.7,0c0-2-1-3.82-3.26-3.82s-3.26,1.86-3.26,3.82,1,3.82,3.26,3.82S221.75,299.94,221.75,298Z"/><path class="cls-5" d="M234.13,300a4,4,0,0,1-4.24,3.3c-3.14,0-4.9-2.3-4.9-5.3s1.76-5.3,4.9-5.3a3.88,3.88,0,0,1,4.18,3.18h-1.7a2.35,2.35,0,0,0-2.48-1.7c-2.28,0-3.2,1.76-3.2,3.78s.94,3.86,3.2,3.86a2.33,2.33,0,0,0,2.54-1.82Z"/><path class="cls-5" d="M235.13,292.92h8.68v1.48h-3.48V303h-1.7v-8.6h-3.5Z"/><path class="cls-5" d="M245.55,307V292.92h1.64V294h.4a3.81,3.81,0,0,1,3.12-1.36c2.8,0,4.48,2.3,4.48,5.3s-1.68,5.3-4.48,5.3a3.62,3.62,0,0,1-3.06-1.36h-.4V307Zm1.68-9c0,2,.92,3.82,3.16,3.82,2,0,3.1-1.58,3.1-3.82s-1.06-3.82-3.1-3.82C248.15,294.14,247.23,296,247.23,298Z"/><path class="cls-5" d="M259.05,292.92v3.36h2.78c2.44,0,3.8,1.26,3.8,3.34s-1.36,3.38-3.8,3.38h-4.48V292.92Zm0,8.6h2.54c1.76,0,2.34-.74,2.34-1.9s-.58-1.9-2.34-1.9h-2.54Zm9.9-8.6V303h-1.7V292.92Z"/><path class="cls-5" d="M271.73,292.92h2.66l2.54,4.8h.4l2.54-4.8h2.62V303h-1.66v-8.1h-.4l-2.4,4.52h-1.84l-2.4-4.52h-.4V303h-1.66Z"/><path class="cls-5" d="M298.85,300a4,4,0,0,1-4.24,3.3c-3.15,0-4.91-2.3-4.91-5.3s1.76-5.3,4.91-5.3a3.88,3.88,0,0,1,4.18,3.18h-1.7a2.35,2.35,0,0,0-2.48-1.7c-2.29,0-3.21,1.76-3.21,3.78s1,3.86,3.21,3.86a2.33,2.33,0,0,0,2.54-1.82Z"/><path class="cls-5" d="M310.19,298c0,3-1.82,5.3-5,5.3s-5-2.3-5-5.3,1.8-5.3,5-5.3S310.19,295,310.19,298Zm-1.7,0c0-2-1-3.82-3.26-3.82S302,296,302,298s1,3.82,3.27,3.82S308.49,299.94,308.49,298Z"/><path class="cls-5" d="M313.08,307l2.07-4.9-4.25-9.18h1.84l3.05,6.64h.5l2.8-6.64h1.82L314.83,307Z"/><path class="cls-5" d="M330.69,300a4,4,0,0,1-4.25,3.3c-3.14,0-4.9-2.3-4.9-5.3s1.76-5.3,4.9-5.3a3.89,3.89,0,0,1,4.19,3.18h-1.7a2.36,2.36,0,0,0-2.49-1.7c-2.28,0-3.2,1.76-3.2,3.78s.95,3.86,3.2,3.86A2.33,2.33,0,0,0,329,300Z"/><path class="cls-5" d="M342,298c0,3-1.82,5.3-5,5.3s-5-2.3-5-5.3,1.8-5.3,5-5.3S342,295,342,298Zm-1.7,0c0-2-1-3.82-3.27-3.82S333.8,296,333.8,298s1,3.82,3.26,3.82S340.33,299.94,340.33,298Z"/><path class="cls-5" d="M344.18,292.92h2.66l2.55,4.8h.39l2.55-4.8H355V303h-1.66v-8.1h-.4l-2.41,4.52h-1.83l-2.41-4.52h-.4V303h-1.66Z"/><path class="cls-5" d="M62.21,313.72H64v6.1h4.22l3-6.1h1.9l-3.3,6.94L73.27,328h-1.9l-3.14-6.54H64V328h-1.8Z"/><path class="cls-5" d="M75.45,332l2.06-4.9-4.24-9.18h1.84l3,6.64h.5l2.8-6.64h1.82L77.19,332Z"/><path class="cls-5" d="M84.73,332V317.92h1.64V319h.4a3.81,3.81,0,0,1,3.12-1.36c2.8,0,4.48,2.3,4.48,5.3s-1.68,5.3-4.48,5.3a3.62,3.62,0,0,1-3.06-1.36h-.4V332Zm1.68-9c0,2,.92,3.82,3.16,3.82,2,0,3.1-1.58,3.1-3.82s-1.06-3.82-3.1-3.82C87.33,319.14,86.41,321,86.41,323Z"/><path class="cls-5" d="M96.53,328V317.92h1.66v7.8h.4l4.5-7.8h2.44V328h-1.66v-7.8h-.4L98.89,328Z"/><path class="cls-5" d="M115.59,328v-4.44H110V328h-1.7V317.92H110v4.16h5.58v-4.16h1.7V328Z"/><path class="cls-5" d="M121.77,317.92v3.36h2.78c2.44,0,3.8,1.26,3.8,3.34S127,328,124.55,328h-4.48V317.92Zm0,8.6h2.54c1.76,0,2.34-.74,2.34-1.9s-.58-1.9-2.34-1.9h-2.54Zm9.9-8.6V328H130V317.92Z"/><path class="cls-5" d="M143.19,322.94h-7.68c0,2.38,1.14,3.84,3.22,3.84a2.39,2.39,0,0,0,2.56-1.56H143c-.34,1.72-1.78,3-4.28,3-3.14,0-4.9-2.32-4.9-5.4s1.8-5.2,4.86-5.2,4.46,2.22,4.5,4.7Zm-7.58-1.42h5.82a2.6,2.6,0,0,0-2.78-2.38A2.85,2.85,0,0,0,135.61,321.52Z"/><path class="cls-5" d="M155,323.56h-2.92V328h-1.7V317.92h1.7v4.16h3l2.2-4.16H159l-2.56,4.86,2.7,5.22h-1.82Z"/><path class="cls-5" d="M161.09,332V317.92h1.64V319h.4a3.81,3.81,0,0,1,3.12-1.36c2.8,0,4.48,2.3,4.48,5.3s-1.68,5.3-4.48,5.3a3.62,3.62,0,0,1-3.06-1.36h-.4V332Zm1.68-9c0,2,.92,3.82,3.16,3.82,2,0,3.1-1.58,3.1-3.82s-1.06-3.82-3.1-3.82C163.69,319.14,162.77,321,162.77,323Z"/><path class="cls-5" d="M174.59,317.92v3.36h2.78c2.44,0,3.8,1.26,3.8,3.34s-1.36,3.38-3.8,3.38h-4.48V317.92Zm0,8.6h2.54c1.76,0,2.34-.74,2.34-1.9s-.58-1.9-2.34-1.9h-2.54Zm9.9-8.6V328h-1.7V317.92Z"/><path class="cls-5" d="M186.13,326.4h.34c1.38,0,2-1,2-4.58v-3.9h7.72V328h-1.72v-8.6H190v2.46c0,4.64-1.08,6.14-3.56,6.14h-.34Z"/><path class="cls-5" d="M200.63,317.92v3.36h2.78c2.44,0,3.8,1.26,3.8,3.34s-1.36,3.38-3.8,3.38h-4.48V317.92Zm0,8.6h2.54c1.76,0,2.34-.74,2.34-1.9s-.58-1.9-2.34-1.9h-2.54Zm9.9-8.6V328h-1.7V317.92Z"/><path class="cls-5" d="M226.21,317.92V328h-12.9V317.92H215v8.6h4v-8.6h1.66v8.6h4v-8.6Z"/><path class="cls-5" d="M233.61,323.56h-2.92V328H229V317.92h1.71v4.16h3l2.2-4.16h1.78l-2.56,4.86,2.7,5.22H236Z"/><path class="cls-5" d="M239.69,328V317.92h1.66v7.8h.4l4.5-7.8h2.44V328H247v-7.8h-.4l-4.58,7.8Z"/><path class="cls-5" d="M62.21,338.72H64v6.1h4.22l3-6.1h1.9l-3.3,6.94L73.27,353h-1.9l-3.14-6.54H64V353h-1.8Z"/><path class="cls-5" d="M75.45,357l2.06-4.9-4.24-9.18h1.84l3,6.64h.5l2.8-6.64h1.82L77.19,357Z"/><path class="cls-5" d="M84.73,357V342.92h1.64V344h.4a3.81,3.81,0,0,1,3.12-1.36c2.8,0,4.48,2.3,4.48,5.3s-1.68,5.3-4.48,5.3a3.62,3.62,0,0,1-3.06-1.36h-.4V357Zm1.68-9c0,2,.92,3.82,3.16,3.82,2,0,3.1-1.58,3.1-3.82s-1.06-3.82-3.1-3.82C87.33,344.14,86.41,346,86.41,348Z"/><path class="cls-5" d="M96.53,353V342.92h1.66v7.8h.4l4.5-7.8h2.44V353h-1.66v-7.8h-.4L98.89,353Z"/><path class="cls-5" d="M115.59,353v-4.44H110V353h-1.7V342.92H110v4.16h5.58v-4.16h1.7V353Z"/><path class="cls-5" d="M121.77,342.92v3.36h2.78c2.44,0,3.8,1.26,3.8,3.34S127,353,124.55,353h-4.48V342.92Zm0,8.6h2.54c1.76,0,2.34-.74,2.34-1.9s-.58-1.9-2.34-1.9h-2.54Zm9.9-8.6V353H130V342.92Z"/><path class="cls-5" d="M143.19,347.94h-7.68c0,2.38,1.14,3.84,3.22,3.84a2.39,2.39,0,0,0,2.56-1.56H143c-.34,1.72-1.78,3-4.28,3-3.14,0-4.9-2.32-4.9-5.4s1.8-5.2,4.86-5.2,4.46,2.22,4.5,4.7Zm-7.58-1.42h5.82a2.6,2.6,0,0,0-2.78-2.38A2.85,2.85,0,0,0,135.61,346.52Z"/><path class="cls-5" d="M155,348.56h-2.92V353h-1.7V342.92h1.7v4.16h3l2.2-4.16H159l-2.56,4.86,2.7,5.22h-1.82Z"/><path class="cls-5" d="M161.09,357V342.92h1.64V344h.4a3.81,3.81,0,0,1,3.12-1.36c2.8,0,4.48,2.3,4.48,5.3s-1.68,5.3-4.48,5.3a3.62,3.62,0,0,1-3.06-1.36h-.4V357Zm1.68-9c0,2,.92,3.82,3.16,3.82,2,0,3.1-1.58,3.1-3.82s-1.06-3.82-3.1-3.82C163.69,344.14,162.77,346,162.77,348Z"/><path class="cls-5" d="M174.59,342.92v3.36h2.78c2.44,0,3.8,1.26,3.8,3.34s-1.36,3.38-3.8,3.38h-4.48V342.92Zm0,8.6h2.54c1.76,0,2.34-.74,2.34-1.9s-.58-1.9-2.34-1.9h-2.54Zm9.9-8.6V353h-1.7V342.92Z"/><path class="cls-5" d="M186.13,351.4h.34c1.38,0,2-1,2-4.58v-3.9h7.72V353h-1.72v-8.6H190v2.46c0,4.64-1.08,6.14-3.56,6.14h-.34Z"/><path class="cls-5" d="M200.63,342.92v3.36h2.78c2.44,0,3.8,1.26,3.8,3.34s-1.36,3.38-3.8,3.38h-4.48V342.92Zm0,8.6h2.54c1.76,0,2.34-.74,2.34-1.9s-.58-1.9-2.34-1.9h-2.54Zm9.9-8.6V353h-1.7V342.92Z"/><path class="cls-5" d="M226.21,342.92V353h-12.9V342.92H215v8.6h4v-8.6h1.66v8.6h4v-8.6Z"/><path class="cls-5" d="M233.61,348.56h-2.92V353H229V342.92h1.71v4.16h3l2.2-4.16h1.78l-2.56,4.86,2.7,5.22H236Z"/><path class="cls-5" d="M239.69,353V342.92h1.66v7.8h.4l4.5-7.8h2.44V353H247v-7.8h-.4l-4.58,7.8Z"/><path class="cls-5" d="M64.53,431.62v12.64h-1.8V430h9.76v1.64Z"/><path class="cls-5" d="M71.79,448.26V434.18h1.64v1.1h.4A3.81,3.81,0,0,1,77,433.92c2.8,0,4.48,2.3,4.48,5.3s-1.68,5.3-4.48,5.3a3.62,3.62,0,0,1-3.06-1.36h-.4v5.1Zm1.68-9c0,2,.92,3.82,3.16,3.82,2,0,3.1-1.58,3.1-3.82s-1.06-3.82-3.1-3.82C74.39,435.4,73.47,437.26,73.47,439.22Z"/><path class="cls-5" d="M83.59,444.26V434.18h1.66V442h.4l4.5-7.8h2.44v10.08H90.93v-7.8h-.4L86,444.26Z"/><path class="cls-5" d="M94.23,442.66h.34c1.38,0,2-1,2-4.58v-3.9h7.72v10.08h-1.72v-8.6H98.13v2.46c0,4.64-1.08,6.14-3.56,6.14h-.34Z"/><path class="cls-5" d="M108.73,437.54h3c2.44,0,3.8,1.26,3.8,3.34s-1.36,3.38-3.8,3.38H107V434.18h1.7Zm5.08,3.34c0-1.18-.58-1.9-2.34-1.9h-2.74v3.8h2.74C113.23,442.78,113.81,442,113.81,440.88Z"/><path class="cls-6" d="M72.47,456.58H67.79v12.68H66V456.58H61.27V455h11.2Z"/><path class="cls-6" d="M81.43,464.22c0,3-1.82,5.3-5,5.3s-5-2.3-5-5.3,1.8-5.3,5-5.3S81.43,461.22,81.43,464.22Zm-1.7,0c0-2-1-3.82-3.26-3.82s-3.26,1.86-3.26,3.82,1,3.82,3.26,3.82S79.73,466.2,79.73,464.22Z"/><path class="cls-6" d="M83.59,459.18h2.66l2.54,4.8h.4l2.54-4.8h2.62v10.08H92.69v-8.1h-.4l-2.4,4.52H88.05l-2.4-4.52h-.4v8.1H83.59Z"/><path class="cls-6" d="M110.47,459.18v10.08h-1.72v-4h-3.06c-.22,0-.42,0-.62,0l-1.52,4h-1.78l1.7-4.38a2.71,2.71,0,0,1-1.56-2.64c0-1.9,1.26-3.06,3.54-3.06Zm-4.84,1.44c-1.52,0-2,.62-2,1.64s.5,1.58,2,1.58h3.12v-3.22Z"/><path class="cls-6" d="M113.23,459.18h2.66l2.54,4.8h.4l2.54-4.8H124v10.08h-1.66v-8.1h-.4l-2.4,4.52h-1.84l-2.4-4.52h-.4v8.1h-1.66Z"/><path class="cls-5" d="M74.35,494.26H62.73V480h1.8v12.64h7.74V480h1.8v12.64h2.06v5.14H74.35Z"/><path class="cls-5" d="M86.55,489.2H78.87c0,2.38,1.14,3.84,3.22,3.84a2.39,2.39,0,0,0,2.56-1.56h1.72c-.34,1.72-1.78,3-4.28,3-3.14,0-4.9-2.32-4.9-5.4s1.8-5.2,4.86-5.2,4.46,2.22,4.5,4.7ZM79,487.78h5.82A2.6,2.6,0,0,0,82,485.4,2.85,2.85,0,0,0,79,487.78Z"/><path class="cls-5" d="M92.25,485.4c-1.44,0-2.2.48-2.44,1.56H88.19c.18-1.92,1.78-3,4.1-3,2.52,0,3.86,1.28,3.86,2.8a2.05,2.05,0,0,1-1.1,2.06v.4a2.18,2.18,0,0,1,1.46,2.3c0,1.64-1.48,3-4.18,3s-4.26-1.24-4.54-3.12h1.64c.38,1.26,1.52,1.64,2.9,1.64s2.48-.54,2.48-1.62-.56-1.56-2.22-1.56H90.81v-1.48h1.7c1.42,0,2-.66,2-1.44C94.47,485.94,93.55,485.4,92.25,485.4Z"/><path class="cls-5" d="M105.15,493.18h-.4a3.94,3.94,0,0,1-3.16,1.34A3.33,3.33,0,0,1,98,491.24c0-1.62,1-3.34,3.86-3.34h3.28v-.4c0-1.22-.72-2.1-2.46-2.1-1.48,0-2.26.58-2.34,1.46h-1.7c.12-1.86,1.74-2.94,4-2.94,2.52,0,4.16,1.22,4.16,3.48v6.86h-1.6Zm-.06-3v-.9h-3c-1.64,0-2.42.7-2.42,1.88S100.51,493,102,493A3,3,0,0,0,105.09,490.22Z"/><path class="cls-5" d="M109.37,498.26V484.18H111v1.1h.4a3.81,3.81,0,0,1,3.12-1.36c2.8,0,4.48,2.3,4.48,5.3s-1.68,5.3-4.48,5.3a3.62,3.62,0,0,1-3.06-1.36h-.4v5.1Zm1.68-9c0,2,.92,3.82,3.16,3.82,2,0,3.1-1.58,3.1-3.82s-1.06-3.82-3.1-3.82C112,485.4,111.05,487.26,111.05,489.22Z"/><path class="cls-5" d="M122.87,487.54h3c2.44,0,3.8,1.26,3.8,3.34s-1.36,3.38-3.8,3.38h-4.68V484.18h1.7Zm5.08,3.34c0-1.18-.58-1.9-2.34-1.9h-2.74v3.8h2.74C127.37,492.78,128,492,128,490.88Z"/><path class="cls-5" d="M74.27,515.2a5.39,5.39,0,0,1-5.66,4.32c-4.24,0-6.6-3.16-6.6-7.4s2.38-7.4,6.62-7.4c2.88,0,4.92,1.56,5.48,4h-1.9a3.36,3.36,0,0,0-3.58-2.36c-3.32,0-4.8,2.74-4.8,5.76s1.46,5.76,4.78,5.76a3.6,3.6,0,0,0,3.76-2.68Z"/><path class="cls-5" d="M83.61,519.26v-8.6h-5.5v8.6h-1.7V509.18h8.9v10.08Z"/><path class="cls-5" d="M94.51,518.18h-.4A3.94,3.94,0,0,1,91,519.52a3.33,3.33,0,0,1-3.64-3.28c0-1.62,1-3.34,3.86-3.34h3.28v-.4c0-1.22-.72-2.1-2.46-2.1-1.48,0-2.26.58-2.34,1.46H88c.12-1.86,1.74-2.94,4-2.94,2.52,0,4.16,1.22,4.16,3.48v6.86h-1.6Zm-.06-3v-.9h-3c-1.64,0-2.42.7-2.42,1.88s.86,1.84,2.34,1.84A3,3,0,0,0,94.45,515.22Z"/><path class="cls-5" d="M98.73,519.26V509.18h1.66V517h.4l4.5-7.8h2.44v10.08h-1.66v-7.8h-.4l-4.58,7.8Zm7.58-14.48a3.12,3.12,0,0,1-6.22,0h1.38a1.73,1.73,0,0,0,3.46,0Z"/><path class="cls-5" d="M119,516.22a4,4,0,0,1-4.24,3.3c-3.14,0-4.9-2.3-4.9-5.3s1.76-5.3,4.9-5.3A3.88,3.88,0,0,1,119,512.1h-1.7a2.35,2.35,0,0,0-2.48-1.7c-2.28,0-3.2,1.76-3.2,3.78s.94,3.86,3.2,3.86a2.33,2.33,0,0,0,2.54-1.82Z"/><path class="cls-5" d="M121.07,519.26V509.18h1.66V517h.4l4.5-7.8h2.44v10.08h-1.66v-7.8H128l-4.58,7.8Z"/><path class="cls-5" d="M64.53,531.62v12.64h-1.8V530h9.76v1.64Z"/><path class="cls-5" d="M80.45,539.22c0,3-1.82,5.3-5,5.3s-5-2.3-5-5.3,1.8-5.3,5-5.3S80.45,536.22,80.45,539.22Zm-1.7,0c0-2-1-3.82-3.26-3.82s-3.26,1.86-3.26,3.82,1,3.82,3.26,3.82S78.75,541.2,78.75,539.22Z"/><path class="cls-5" d="M82.61,548.26V534.18h1.64v1.1h.4a3.81,3.81,0,0,1,3.12-1.36c2.8,0,4.48,2.3,4.48,5.3s-1.68,5.3-4.48,5.3a3.62,3.62,0,0,1-3.06-1.36h-.4v5.1Zm1.68-9c0,2,.92,3.82,3.16,3.82,2,0,3.1-1.58,3.1-3.82s-1.06-3.82-3.1-3.82C85.21,535.4,84.29,537.26,84.29,539.22Z"/><path class="cls-5" d="M95.53,534.18V537c0,1,0,2,2.54,2a11.91,11.91,0,0,0,2.52-.26v-4.6h1.72v10.08h-1.72v-4a15.45,15.45,0,0,1-2.88.28c-3.66,0-3.88-1.74-3.88-3.4v-3Z"/><path class="cls-5" d="M105.09,544.26V534.18h1.66V542h.4l4.5-7.8h2.44v10.08h-1.66v-7.8H112l-4.58,7.8Z"/><path class="cls-5" d="M118,534.18V537c0,1,0,2,2.54,2a11.91,11.91,0,0,0,2.52-.26v-4.6h1.72v10.08h-1.72v-4a15.45,15.45,0,0,1-2.88.28c-3.66,0-3.88-1.74-3.88-3.4v-3Z"/><path class="cls-5" d="M134.83,544.26v-4.44h-5.58v4.44h-1.7V534.18h1.7v4.16h5.58v-4.16h1.7v10.08Z"/><path class="cls-5" d="M141,534.18v3.36h2.78c2.44,0,3.8,1.26,3.8,3.34s-1.36,3.38-3.8,3.38h-4.48V534.18Zm0,8.6h2.54c1.76,0,2.34-.74,2.34-1.9s-.58-1.9-2.34-1.9H141Zm9.9-8.6v10.08h-1.7V534.18Z"/><path class="cls-5" d="M153.69,544.26V534.18h1.66V542h.4l4.5-7.8h2.44v10.08H161v-7.8h-.4l-4.58,7.8Zm7.58-14.48a3.12,3.12,0,0,1-6.22,0h1.38a1.73,1.73,0,0,0,3.46,0Z"/><path class="cls-5" d="M171.65,534.18V537c0,1,0,2,2.54,2a11.91,11.91,0,0,0,2.52-.26v-4.6h1.72v10.08h-1.72v-4a15.45,15.45,0,0,1-2.88.28c-3.66,0-3.88-1.74-3.88-3.4v-3Z"/><path class="cls-5" d="M181.21,544.26V534.18h1.66V542h.4l4.5-7.8h2.44v10.08h-1.66v-7.8h-.4l-4.58,7.8Z"/><path class="cls-5" d="M191.84,542.66h.34c1.39,0,2-1,2-4.58v-3.9h7.72v10.08h-1.72v-8.6h-4.42v2.46c0,4.64-1.08,6.14-3.57,6.14h-.34Z"/><path class="cls-5" d="M204.64,544.26V534.18h1.66V542h.41l4.5-7.8h2.44v10.08H212v-7.8h-.4l-4.59,7.8Z"/><path class="cls-5" d="M72.47,556.58H67.79v12.68H66V556.58H61.27V555h11.2Z"/><path class="cls-5" d="M72.83,573.26V559.18h1.64v1.1h.4A3.81,3.81,0,0,1,78,558.92c2.8,0,4.48,2.3,4.48,5.3s-1.68,5.3-4.48,5.3a3.62,3.62,0,0,1-3.06-1.36h-.4v5.1Zm1.68-9c0,2,.92,3.82,3.16,3.82,2,0,3.1-1.58,3.1-3.82s-1.06-3.82-3.1-3.82C75.43,560.4,74.51,562.26,74.51,564.22Z"/><path class="cls-5" d="M98.33,564.22c0,3-1.82,5.3-4.88,5.3-2.86,0-4.6-2-4.84-4.7h-2.3v4.44H84.63V559.18h1.68v4.16h2.36a4.69,4.69,0,0,1,4.78-4.42C96.51,558.92,98.33,561.26,98.33,564.22Zm-1.7,0c0-2-1-3.82-3.18-3.82s-3.18,1.86-3.18,3.82,1,3.82,3.18,3.82S96.63,566.2,96.63,564.22Z"/><path class="cls-5" d="M106.85,573.26h-1.68v-4h-.32a5,5,0,0,1,0-10.08h.34v-4.46h1.68v4.46h.32a4.67,4.67,0,0,1,5,5c0,3.1-1.88,5-5.28,5Zm-2-5.44h.32v-7.2h-.32c-2.24,0-3.3,1.64-3.3,3.6S102.59,567.82,104.85,567.82Zm2.28,0c2.26,0,3.32-1.64,3.32-3.6s-1.06-3.6-3.32-3.6h-.28v7.2Z"/><path class="cls-5" d="M123,564.2h-7.68c0,2.38,1.14,3.84,3.22,3.84a2.39,2.39,0,0,0,2.56-1.56h1.72c-.34,1.72-1.78,3-4.28,3-3.14,0-4.9-2.32-4.9-5.4s1.8-5.2,4.86-5.2,4.46,2.22,4.5,4.7Zm-7.58-1.42h5.82a2.6,2.6,0,0,0-2.78-2.38A2.85,2.85,0,0,0,115.45,562.78Z"/><path class="cls-5" d="M124,567.66h.34c1.38,0,2-1,2-4.58v-3.9h7.72v10.08h-1.72v-8.6h-4.42v2.46c0,4.64-1.08,6.14-3.56,6.14H124Z"/><path class="cls-5" d="M138.53,562.54h3c2.44,0,3.8,1.26,3.8,3.34s-1.36,3.38-3.8,3.38h-4.68V559.18h1.7Zm5.08,3.34c0-1.18-.58-1.9-2.34-1.9h-2.74v3.8h2.74C143,567.78,143.61,567,143.61,565.88Z"/><path class="cls-5" d="M154.51,569.26v-4.44h-5.58v4.44h-1.7V559.18h1.7v4.16h5.58v-4.16h1.7v10.08Z"/><path class="cls-5" d="M160.69,559.18v3.36h2.78c2.44,0,3.8,1.26,3.8,3.34s-1.36,3.38-3.8,3.38H159V559.18Zm0,8.6h2.54c1.76,0,2.34-.74,2.34-1.9s-.58-1.9-2.34-1.9h-2.54Zm9.9-8.6v10.08h-1.7V559.18Z"/><path class="cls-5" d="M173.37,569.26V559.18H175V567h.4l4.5-7.8h2.44v10.08h-1.66v-7.8h-.4l-4.58,7.8ZM181,554.78a3.12,3.12,0,0,1-6.22,0h1.38a1.73,1.73,0,0,0,3.46,0Z"/><path class="cls-6" d="M63.21,644.34H65v6.1h4.22l3-6.1h1.9l-3.3,6.94,3.48,7.35h-1.9l-3.14-6.54H65v6.54h-1.8Z"/><path class="cls-6" d="M74.93,657h.34c1.38,0,2-1,2-4.58v-3.9H85v10.09H83.25V650H78.83v2.46c0,4.65-1.08,6.15-3.56,6.15h-.34Z"/><path class="cls-6" d="M94.15,657.55h-.4a3.94,3.94,0,0,1-3.16,1.34A3.33,3.33,0,0,1,87,655.61c0-1.62,1-3.34,3.86-3.34h3.28v-.41c0-1.22-.72-2.1-2.46-2.1-1.48,0-2.26.58-2.34,1.46h-1.7c.12-1.86,1.74-2.94,4-2.94,2.52,0,4.16,1.22,4.16,3.49v6.86h-1.6Zm-.06-3v-.9h-3c-1.64,0-2.42.69-2.42,1.88s.86,1.84,2.34,1.84A3,3,0,0,0,94.09,654.59Z"/><path class="cls-6" d="M106.89,655.59a4,4,0,0,1-4.24,3.3c-3.14,0-4.9-2.3-4.9-5.3s1.76-5.31,4.9-5.31a3.89,3.89,0,0,1,4.18,3.18h-1.7a2.35,2.35,0,0,0-2.48-1.7c-2.28,0-3.2,1.76-3.2,3.78s.94,3.87,3.2,3.87a2.33,2.33,0,0,0,2.54-1.82Z"/><path class="cls-6" d="M117.45,655.59a4,4,0,0,1-4.24,3.3c-3.14,0-4.9-2.3-4.9-5.3s1.76-5.31,4.9-5.31a3.89,3.89,0,0,1,4.18,3.18h-1.7a2.35,2.35,0,0,0-2.48-1.7c-2.28,0-3.2,1.76-3.2,3.78s.94,3.87,3.2,3.87a2.33,2.33,0,0,0,2.54-1.82Z"/><path class="cls-6" d="M119.49,658.63V648.54h1.66v7.81h.4l4.5-7.81h2.44v10.09h-1.66v-7.81h-.4l-4.58,7.81Z"/><path class="cls-6" d="M132.39,648.54v2.84c0,1,0,2,2.54,2a11.87,11.87,0,0,0,2.52-.27v-4.6h1.72v10.09h-1.72v-4a15.45,15.45,0,0,1-2.88.28c-3.66,0-3.88-1.74-3.88-3.41v-3Z"/><path class="cls-6" d="M150.69,653.56H143c0,2.38,1.14,3.85,3.22,3.85a2.39,2.39,0,0,0,2.56-1.56h1.72c-.34,1.72-1.78,3-4.28,3-3.14,0-4.9-2.32-4.9-5.4s1.8-5.21,4.86-5.21,4.46,2.22,4.5,4.7Zm-7.58-1.42h5.82a2.6,2.6,0,0,0-2.78-2.38A2.85,2.85,0,0,0,143.11,652.14Z"/><path class="cls-6" d="M161.35,655.59a4,4,0,0,1-4.24,3.3c-3.14,0-4.9-2.3-4.9-5.3s1.76-5.31,4.9-5.31a3.89,3.89,0,0,1,4.18,3.18h-1.7a2.35,2.35,0,0,0-2.48-1.7c-2.28,0-3.2,1.76-3.2,3.78s.94,3.87,3.2,3.87a2.33,2.33,0,0,0,2.54-1.82Z"/><path class="cls-6" d="M168,654.19h-2.92v4.44h-1.7V648.54h1.7v4.16h3l2.2-4.16H172l-2.56,4.87,2.7,5.22h-1.82Z"/><path class="cls-6" d="M174.09,658.63V648.54h1.66v7.81h.4l4.5-7.81h2.44v10.09h-1.66v-7.81H181l-4.58,7.81Z"/><path class="cls-6" d="M185.87,658.63V648.54h1.66v7.81h.4l4.5-7.81h2.44v10.09h-1.66v-7.81h-.4l-4.58,7.81Zm7.58-14.49a3.12,3.12,0,0,1-6.22,0h1.38a1.73,1.73,0,0,0,3.46,0Z"/><path class="cls-5" d="M70.59,669.34h1.76V682H78V669.34h1.76v14.29H63.21V669.34H65V682h5.62Z"/><path class="cls-5" d="M92,678.59c0,3-1.82,5.3-5,5.3s-5-2.3-5-5.3,1.8-5.31,5-5.31S92,675.58,92,678.59Zm-1.7,0c0-2-1-3.83-3.26-3.83s-3.26,1.86-3.26,3.83,1,3.82,3.26,3.82S90.29,680.57,90.29,678.59Z"/><path class="cls-5" d="M98.77,679.19H95.85v4.44h-1.7V673.54h1.7v4.16h3l2.2-4.16h1.78l-2.56,4.87,2.7,5.22h-1.82Z"/><path class="cls-5" d="M114.15,678.59c0,3-1.82,5.3-5,5.3s-5-2.3-5-5.3,1.8-5.31,5-5.31S114.15,675.58,114.15,678.59Zm-1.7,0c0-2-1-3.83-3.26-3.83s-3.26,1.86-3.26,3.83,1,3.82,3.26,3.82S112.45,680.57,112.45,678.59Z"/><path class="cls-5" d="M115.17,682h.34c1.38,0,2-1,2-4.58v-3.9h7.72v10.09h-1.72V675h-4.42v2.46c0,4.65-1.08,6.15-3.56,6.15h-.34Z"/><path class="cls-5" d="M134.39,682.55H134a3.94,3.94,0,0,1-3.16,1.34,3.33,3.33,0,0,1-3.64-3.28c0-1.62,1-3.34,3.86-3.34h3.28v-.41c0-1.22-.72-2.1-2.46-2.1-1.48,0-2.26.58-2.34,1.46h-1.7c.12-1.86,1.74-2.94,4-2.94,2.52,0,4.16,1.22,4.16,3.49v6.86h-1.6Zm-.06-3v-.9h-3c-1.64,0-2.42.69-2.42,1.88s.86,1.84,2.34,1.84A3,3,0,0,0,134.33,679.59Z"/><path class="cls-5" d="M149.45,682.15v4.34h-1.66v-2.86h-8.72v2.86h-1.66v-4.34h1.34A13.65,13.65,0,0,0,140,676.3v-2.76h7.56v8.61ZM145.89,675h-4.28v1.28a14.08,14.08,0,0,1-1.14,5.85h5.42Z"/><path class="cls-5" d="M158.43,683.63v-4.44h-5.58v4.44h-1.7V673.54h1.7v4.16h5.58v-4.16h1.7v10.09Z"/><path class="cls-5" d="M164.61,673.54v3.36h2.78c2.44,0,3.8,1.27,3.8,3.35s-1.36,3.38-3.8,3.38h-4.48V673.54Zm0,8.61h2.54c1.76,0,2.34-.74,2.34-1.9s-.58-1.9-2.34-1.9h-2.54Zm9.9-8.61v10.09h-1.7V673.54Z"/><path class="cls-5" d="M177.29,683.63V673.54H179v7.81h.4l4.5-7.81h2.44v10.09h-1.66v-7.81h-.4l-4.58,7.81Zm7.58-14.49a3.12,3.12,0,0,1-6.22,0H180a1.73,1.73,0,0,0,3.46,0Z"/><path class="cls-5" d="M74.75,704.57a5.39,5.39,0,0,1-5.66,4.32c-4.24,0-6.6-3.16-6.6-7.41s2.38-7.4,6.62-7.4c2.88,0,4.92,1.56,5.48,4h-1.9a3.36,3.36,0,0,0-3.58-2.36c-3.32,0-4.8,2.74-4.8,5.76s1.46,5.77,4.78,5.77a3.61,3.61,0,0,0,3.76-2.68Z"/><path class="cls-5" d="M76.89,698.54h7.56V700H78.59v8.61h-1.7Z"/><path class="cls-5" d="M87.19,712.63l2.06-4.9L85,698.54h1.84l3,6.65h.5l2.8-6.65H95l-6.08,14.09Z"/><path class="cls-5" d="M109.37,698.54v8.61h1.86v4.34h-1.66v-2.86H96.47V698.54h1.66v8.61h4v-8.61h1.66v8.61h4v-8.61Z"/><path class="cls-5" d="M121.67,703.56H114c0,2.38,1.14,3.85,3.22,3.85a2.39,2.39,0,0,0,2.56-1.56h1.72c-.34,1.72-1.78,3-4.28,3-3.14,0-4.9-2.32-4.9-5.4s1.8-5.21,4.86-5.21,4.46,2.22,4.5,4.7Zm-7.58-1.42h5.82a2.6,2.6,0,0,0-2.78-2.38A2.85,2.85,0,0,0,114.09,702.14Z"/><path class="cls-5" d="M131.09,708.63v-4.44h-5.58v4.44h-1.7V698.54h1.7v4.16h5.58v-4.16h1.7v10.09Z"/><path class="cls-5" d="M142.85,708.63v-4.44h-5.58v4.44h-1.7V698.54h1.7v4.16h5.58v-4.16h1.7v10.09Z"/><path class="cls-5" d="M156.63,703.59c0,3-1.82,5.3-5,5.3s-5-2.3-5-5.3,1.8-5.31,5-5.31S156.63,700.58,156.63,703.59Zm-1.7,0c0-2-1-3.83-3.26-3.83s-3.26,1.86-3.26,3.83,1,3.82,3.26,3.82S154.93,705.57,154.93,703.59Z"/><path class="cls-5" d="M167.53,703.56h-7.68c0,2.38,1.14,3.85,3.22,3.85a2.39,2.39,0,0,0,2.56-1.56h1.72c-.34,1.72-1.78,3-4.28,3-3.14,0-4.9-2.32-4.9-5.4s1.8-5.21,4.86-5.21,4.46,2.22,4.5,4.7ZM160,702.14h5.82a2.6,2.6,0,0,0-2.78-2.38A2.85,2.85,0,0,0,160,702.14Z"/><path class="cls-5" d="M174.73,698.54h2.66l2.54,4.81h.4l2.54-4.81h2.62v10.09h-1.66v-8.11h-.4L181,705h-1.84l-2.4-4.52h-.4v8.11h-1.66Z"/><path class="cls-5" d="M197.57,703.59c0,3-1.82,5.3-5,5.3s-5-2.3-5-5.3,1.8-5.31,5-5.31S197.57,700.58,197.57,703.59Zm-1.7,0c0-2-1-3.83-3.26-3.83s-3.26,1.86-3.26,3.83,1,3.82,3.26,3.82S195.87,705.57,195.87,703.59Z"/><path class="cls-5" d="M198.59,707h.34c1.38,0,2-1,2-4.58v-3.9h7.72v10.09h-1.72V700h-4.42v2.46c0,4.65-1.08,6.15-3.56,6.15h-.34Z"/><path class="cls-5" d="M220.69,703.59c0,3-1.82,5.3-5,5.3s-5-2.3-5-5.3,1.79-5.31,5-5.31S220.69,700.58,220.69,703.59Zm-1.7,0c0-2-1-3.83-3.26-3.83s-3.26,1.86-3.26,3.83,1,3.82,3.26,3.82S219,705.57,219,703.59Z"/><path class="cls-5" d="M227.47,704.19h-2.92v4.44h-1.7V698.54h1.7v4.16h3l2.2-4.16h1.78l-2.56,4.87,2.7,5.22h-1.82Z"/><path class="cls-5" d="M242.85,703.59c0,3-1.82,5.3-5,5.3s-5-2.3-5-5.3,1.8-5.31,5-5.31S242.85,700.58,242.85,703.59Zm-1.7,0c0-2-1-3.83-3.26-3.83s-3.26,1.86-3.26,3.83,1,3.82,3.26,3.82S241.15,705.57,241.15,703.59Z"/><path class="cls-4" d="M52.71,404.17c-.87,3.94-3.94,6.7-8.77,6.7-6.58,0-10.23-4.9-10.23-11.47S37.4,387.93,44,387.93c4.46,0,7.63,2.41,8.49,6.2H49.52c-.84-2.36-2.51-3.66-5.55-3.66-5.15,0-7.44,4.25-7.44,8.93s2.26,8.93,7.41,8.93a5.59,5.59,0,0,0,5.83-4.16Z"/><path class="cls-4" d="M75.68,399.4c0,6.38-3.59,11.47-10.32,11.47S55,405.78,55,399.4s3.57-11.47,10.33-11.47S75.68,393,75.68,399.4Zm-2.82,0c0-4.65-2.23-8.93-7.5-8.93s-7.51,4.28-7.51,8.93,2.24,8.93,7.51,8.93S72.86,404.05,72.86,399.4Z"/><path class="cls-4" d="M86.35,400l5.55-11.63h2.91L84.24,410.47H81.35l3.17-6.64-8.19-15.5h3L85.48,400Z"/><path class="cls-4" d="M114.37,404.17c-.87,3.94-3.94,6.7-8.77,6.7-6.58,0-10.24-4.9-10.24-11.47s3.69-11.47,10.27-11.47c4.46,0,7.62,2.41,8.49,6.2h-2.94c-.84-2.36-2.51-3.66-5.55-3.66-5.15,0-7.44,4.25-7.44,8.93s2.26,8.93,7.41,8.93a5.59,5.59,0,0,0,5.83-4.16Z"/><path class="cls-4" d="M117.81,410.47V388.33h2.79v8.46h6c4.9,0,7.69,2.58,7.69,6.82s-2.79,6.86-7.69,6.86Zm13.64-6.86c0-2.66-1.43-4.34-5.36-4.34H120.6V408h5.49C130,408,131.45,406.28,131.45,403.61ZM140,388.33v22.14h-2.79V388.33Z"/><line class="cls-8" x1="-0.09" y1="372.31" x2="536.62" y2="372.31"/><line class="cls-8" x1="-0.09" y1="585.77" x2="536.62" y2="585.77"/><line class="cls-8" x1="-0.28" y1="725.83" x2="536.43" y2="725.83"/><path class="cls-4" d="M52.71,43.74c-.87,3.93-3.94,6.69-8.77,6.69-6.58,0-10.23-4.9-10.23-11.47S37.4,27.49,44,27.49c4.46,0,7.63,2.42,8.49,6.2H49.52C48.68,31.33,47,30,44,30c-5.15,0-7.44,4.25-7.44,8.93s2.26,8.93,7.41,8.93a5.59,5.59,0,0,0,5.83-4.15Z"/><path class="cls-4" d="M63.9,39.52l5.55-11.63h2.92L61.79,50H58.91l3.16-6.64-8.18-15.5h3L63,39.52Z"/><path class="cls-4" d="M92.7,27.89V50H89.91V30.43H77.76V50H75V27.89Z"/><path class="cls-4" d="M97.41,50V27.89h2.79v8.47h6c4.9,0,7.69,2.57,7.69,6.82S111.08,50,106.18,50Zm13.64-6.85c0-2.67-1.42-4.34-5.36-4.34H100.2v8.71h5.49C109.63,47.55,111.05,45.84,111.05,43.18Zm8.59-15.29V50h-2.79V27.89Z"/><path class="cls-5" d="M75.36,80a5.39,5.39,0,0,1-5.66,4.32c-4.24,0-6.6-3.16-6.6-7.4s2.38-7.41,6.62-7.41c2.88,0,4.92,1.57,5.48,4H73.3a3.36,3.36,0,0,0-3.58-2.36c-3.32,0-4.8,2.74-4.8,5.76s1.46,5.76,4.78,5.76A3.6,3.6,0,0,0,73.46,80Z"/><path class="cls-5" d="M79.2,74v3.36H82c2.44,0,3.8,1.26,3.8,3.34S84.42,84,82,84H77.5V74Zm0,8.6h2.54c1.76,0,2.34-.74,2.34-1.9s-.58-1.9-2.34-1.9H79.2ZM89.1,74V84H87.4V74Z"/><path class="cls-5" d="M91.88,88V74h1.64v1.1h.4A3.81,3.81,0,0,1,97,73.69c2.8,0,4.48,2.3,4.48,5.3s-1.68,5.3-4.48,5.3A3.62,3.62,0,0,1,94,82.93h-.4V88Zm1.68-9c0,2,.92,3.82,3.16,3.82,2,0,3.1-1.58,3.1-3.82s-1.06-3.82-3.1-3.82C94.48,75.17,93.56,77,93.56,79Z"/><path class="cls-5" d="M111,84V79.59h-5.58V84h-1.7V74h1.7v4.16H111V74h1.7V84Z"/><path class="cls-5" d="M117.14,74v3.36h2.78c2.44,0,3.8,1.26,3.8,3.34S122.36,84,119.92,84h-4.48V74Zm0,8.6h2.54c1.76,0,2.34-.74,2.34-1.9s-.58-1.9-2.34-1.9h-2.54ZM127,74V84h-1.7V74Z"/><path class="cls-5" d="M129.82,84V74h1.66v7.8h.4l4.5-7.8h2.44V84h-1.66v-7.8h-.4L132.18,84Zm7.58-14.49a3.12,3.12,0,0,1-6.22,0h1.38a1.73,1.73,0,0,0,3.46,0Z"/><path class="cls-5" d="M155.18,81a4,4,0,0,1-4.24,3.3c-3.14,0-4.9-2.3-4.9-5.3s1.76-5.3,4.9-5.3a3.88,3.88,0,0,1,4.18,3.18h-1.7a2.35,2.35,0,0,0-2.48-1.7c-2.28,0-3.2,1.76-3.2,3.78s.94,3.86,3.2,3.86A2.33,2.33,0,0,0,153.48,81Z"/><path class="cls-5" d="M158.2,88l2.06-4.9L156,74h1.84l3,6.64h.5L164.2,74H166L159.94,88Z"/><path class="cls-5" d="M174.68,84v-8.6h-5.5V84h-1.7V74h8.9V84Z"/><path class="cls-6" d="M65.62,96.39V109h-1.8V94.74h9.76v1.65Z"/><path class="cls-6" d="M72.88,113V99h1.64v1.1h.4A3.81,3.81,0,0,1,78,98.69c2.8,0,4.48,2.3,4.48,5.3s-1.68,5.3-4.48,5.3A3.62,3.62,0,0,1,75,107.93h-.4V113Zm1.68-9c0,2,.92,3.82,3.16,3.82,2,0,3.1-1.58,3.1-3.82s-1.06-3.82-3.1-3.82C75.48,100.17,74.56,102,74.56,104Z"/><path class="cls-6" d="M84.68,109V99h1.66v7.8h.4l4.5-7.8h2.44V109H92v-7.8h-.4L87,109Z"/><path class="cls-6" d="M105.84,104.19a4.76,4.76,0,0,1-5,5.1c-3.12,0-5-2.16-5-6.06,0-3.42.5-6.87,4-7.53l2.7-.42c.76-.12,1-.24,1-.8h1.58a2.18,2.18,0,0,1-2,2.37c-.72.13-2.86.44-3.1.48-1.86.32-2.4,1.68-2.6,3.26h.38a3.79,3.79,0,0,1,3.3-1.48C104.12,99.11,105.84,101.31,105.84,104.19Zm-1.7,0c0-1.88-1.06-3.6-3.3-3.6s-3.3,1.72-3.3,3.6,1.06,3.62,3.3,3.62S104.14,106.07,104.14,104.19Z"/><path class="cls-6" d="M115.28,109v-4.44H109.7V109H108V99h1.7v4.16h5.58V99H117V109Z"/><path class="cls-6" d="M129.06,104c0,3-1.82,5.3-5,5.3s-5-2.3-5-5.3,1.8-5.3,5-5.3S129.06,101,129.06,104Zm-1.7,0c0-2-1-3.82-3.26-3.82s-3.26,1.86-3.26,3.82,1,3.82,3.26,3.82S127.36,106,127.36,104Z"/><path class="cls-6" d="M131.22,109V99h1.66v7.8h.4l4.5-7.8h2.44V109h-1.66v-7.8h-.4l-4.58,7.8Zm7.58-14.49a3.12,3.12,0,0,1-6.22,0H134a1.73,1.73,0,0,0,3.46,0Z"/><path class="cls-6" d="M156.58,106a4,4,0,0,1-4.24,3.3c-3.14,0-4.9-2.3-4.9-5.3s1.76-5.3,4.9-5.3a3.88,3.88,0,0,1,4.18,3.18h-1.7a2.35,2.35,0,0,0-2.48-1.7c-2.28,0-3.2,1.76-3.2,3.78s.94,3.86,3.2,3.86a2.33,2.33,0,0,0,2.54-1.82Z"/><path class="cls-6" d="M159.6,113l2.06-4.9L157.42,99h1.84l3,6.64h.5L165.6,99h1.82L161.34,113Z"/><path class="cls-6" d="M176.08,109v-8.6h-5.5V109h-1.7V99h8.9V109Z"/><path class="cls-5" d="M65,119.74v4.09c0,1.4,0,2.86,3.6,2.86a15.14,15.14,0,0,0,3.42-.4v-6.55h1.8V134H72V128a18.75,18.75,0,0,1-3.64.38c-5,0-5.18-2.3-5.18-4.5v-4.09Z"/><path class="cls-5" d="M85.48,129H77.8c0,2.38,1.14,3.84,3.22,3.84a2.39,2.39,0,0,0,2.56-1.56H85.3c-.34,1.72-1.78,3-4.28,3-3.14,0-4.9-2.32-4.9-5.4s1.8-5.2,4.86-5.2,4.46,2.22,4.5,4.7Zm-7.58-1.42h5.82a2.6,2.6,0,0,0-2.78-2.38A2.85,2.85,0,0,0,77.9,127.55Z"/><path class="cls-5" d="M88.74,124v2.84c0,1,0,2,2.54,2a11.91,11.91,0,0,0,2.52-.26V124h1.72V134H93.8v-4a15.45,15.45,0,0,1-2.88.28c-3.66,0-3.88-1.74-3.88-3.4v-3Z"/><path class="cls-5" d="M107,129H99.36c0,2.38,1.14,3.84,3.22,3.84a2.39,2.39,0,0,0,2.56-1.56h1.72c-.34,1.72-1.78,3-4.28,3-3.14,0-4.9-2.32-4.9-5.4s1.8-5.2,4.86-5.2,4.46,2.22,4.5,4.7Zm-7.58-1.42h5.82a2.6,2.6,0,0,0-2.78-2.38A2.85,2.85,0,0,0,99.46,127.55Z"/><path class="cls-5" d="M117.92,131.27c0,1.82-1.28,2.76-3.56,2.76h-5.18V124h5.22c2,0,3.18,1,3.18,2.54a2.15,2.15,0,0,1-1.28,2v.4A2.21,2.21,0,0,1,117.92,131.27Zm-7.06-3.14h3.38c1.22,0,1.64-.64,1.64-1.36s-.42-1.38-1.64-1.38h-3.38Zm5.36,3c0-.84-.5-1.52-2-1.52h-3.4v3h3.4C115.72,132.59,116.22,132,116.22,131.09Z"/><path class="cls-5" d="M120.06,134V124h1.66v7.8h.4l4.5-7.8h2.44V134H127.4v-7.8H127l-4.58,7.8Z"/><path class="cls-5" d="M133,124v2.84c0,1,0,2,2.54,2a11.91,11.91,0,0,0,2.52-.26V124h1.72V134H138v-4a15.45,15.45,0,0,1-2.88.28c-3.66,0-3.88-1.74-3.88-3.4v-3Z"/><path class="cls-5" d="M149.8,134v-4.44h-5.58V134h-1.7V124h1.7v4.16h5.58V124h1.7V134Z"/><path class="cls-5" d="M156,124v3.36h2.78c2.44,0,3.8,1.26,3.8,3.34s-1.36,3.38-3.8,3.38h-4.48V124Zm0,8.6h2.54c1.76,0,2.34-.74,2.34-1.9s-.58-1.9-2.34-1.9H156Zm9.9-8.6V134h-1.7V124Z"/><path class="cls-5" d="M168.66,134V124h1.66v7.8h.4l4.5-7.8h2.44V134H176v-7.8h-.4L171,134Zm7.58-14.49a3.12,3.12,0,0,1-6.22,0h1.38a1.73,1.73,0,0,0,3.46,0Z"/><path class="cls-5" d="M194,131a4,4,0,0,1-4.24,3.3c-3.14,0-4.9-2.3-4.9-5.3s1.76-5.3,4.9-5.3a3.88,3.88,0,0,1,4.18,3.18h-1.7a2.35,2.35,0,0,0-2.48-1.7c-2.28,0-3.2,1.76-3.2,3.78s.94,3.86,3.2,3.86a2.33,2.33,0,0,0,2.54-1.82Z"/><path class="cls-5" d="M197,138l2.06-4.9L194.86,124h1.84l3,6.64h.5L203,124h1.82L198.78,138Z"/><path class="cls-5" d="M213.52,134v-8.6H208V134h-1.7V124h8.9V134Z"/><path class="cls-3" d="M465.55,82.36h3.54V71h-.38l-3.19,2.11v-2l3.17-2.12H471V82.36h3.27V84h-8.69Z"/><path class="cls-3" d="M480.5,68.77c2.77,0,4.85,1.56,4.85,4.56,0,2-1.54,4-3.31,5.42l-3.74,3.18v.43h7.54V84H475.56v-2.1s4-3.26,5.58-4.7c1-.89,2.33-2.15,2.33-3.9a2.71,2.71,0,0,0-3-2.89,2.83,2.83,0,0,0-3.06,2.76h-1.88C475.71,70.21,477.83,68.77,480.5,68.77Z"/><path class="cls-3" d="M487.12,73.92a4.88,4.88,0,0,1,5.08-5.15c3.19,0,5.49,2,5.49,7.35,0,4.58-1.77,8.19-5.68,8.19a4.27,4.27,0,0,1-4.49-3.57h1.86a2.45,2.45,0,0,0,2.63,1.9c2.37,0,3.76-2,3.87-5.32h-.43a4.54,4.54,0,0,1-3.52,1.47A4.68,4.68,0,0,1,487.12,73.92Zm1.88-.08a3.26,3.26,0,1,0,6.51,0,3.17,3.17,0,0,0-3.29-3.42A3.09,3.09,0,0,0,489,73.84Z"/><path class="cls-2" d="M465.55,107.43h3.54V96.11h-.38l-3.19,2.12v-2l3.17-2.11H471v13.28h3.27v1.67h-8.69Z"/><path class="cls-2" d="M480.5,93.85c2.77,0,4.85,1.55,4.85,4.55,0,2-1.54,3.95-3.31,5.42L478.3,107v.43h7.54v1.67H475.56V107s4-3.26,5.58-4.69c1-.9,2.33-2.16,2.33-3.91a2.71,2.71,0,0,0-3-2.89,2.83,2.83,0,0,0-3.06,2.76h-1.88C475.71,95.28,477.83,93.85,480.5,93.85Z"/><path class="cls-2" d="M487.12,99a4.87,4.87,0,0,1,5.08-5.14c3.19,0,5.49,2,5.49,7.34,0,4.58-1.77,8.19-5.68,8.19a4.27,4.27,0,0,1-4.49-3.57h1.86a2.45,2.45,0,0,0,2.63,1.9c2.37,0,3.76-2,3.87-5.32h-.43a4.54,4.54,0,0,1-3.52,1.47A4.68,4.68,0,0,1,487.12,99Zm1.88-.08a3.26,3.26,0,1,0,6.51,0,3.17,3.17,0,0,0-3.29-3.42A3.09,3.09,0,0,0,489,98.91Z"/><path class="cls-3" d="M465.55,132.5h3.54V121.18h-.38l-3.19,2.11v-2l3.17-2.12H471V132.5h3.27v1.67h-8.69Z"/><path class="cls-3" d="M480.5,118.91c2.77,0,4.85,1.56,4.85,4.56,0,2-1.54,4-3.31,5.42l-3.74,3.18v.43h7.54v1.67H475.56v-2.1s4-3.26,5.58-4.7c1-.89,2.33-2.15,2.33-3.9a2.71,2.71,0,0,0-3-2.89,2.83,2.83,0,0,0-3.06,2.76h-1.88C475.71,120.35,477.83,118.91,480.5,118.91Z"/><path class="cls-3" d="M487.12,124.06a4.88,4.88,0,0,1,5.08-5.15c3.19,0,5.49,2,5.49,7.35,0,4.57-1.77,8.18-5.68,8.18a4.27,4.27,0,0,1-4.49-3.56h1.86a2.45,2.45,0,0,0,2.63,1.9c2.37,0,3.76-2.05,3.87-5.32h-.43a4.54,4.54,0,0,1-3.52,1.47A4.68,4.68,0,0,1,487.12,124.06ZM489,124a3.26,3.26,0,1,0,6.51,0,3.17,3.17,0,0,0-3.29-3.42A3.09,3.09,0,0,0,489,124Z"/><line class="cls-8" x1="-0.09" y1="151.05" x2="536.62" y2="151.05"/><path class="cls-5" d="M276.67,324.22v1.17h-1.44v2.46h-1.29v-2.46h-5.19v-1.47l4.67-6.57h1.81v6.87Zm-2.71,0v-5.38h-.3l-3.53,5.08v.3Z"/><path class="cls-5" d="M287.88,320.29v7.56H278.2v-7.56h1.25v6.45h3v-6.45h1.24v6.45h3v-6.45Z"/><path class="cls-5" d="M289.18,320.29h6.51v1.11h-2.61v6.45h-1.27V321.4h-2.63Z"/><path class="cls-5" d="M276.42,349.43a3.43,3.43,0,0,1-3.57,3.61c-2.24,0-3.86-1.38-3.86-5.16,0-3.21,1.25-5.75,4-5.75a3,3,0,0,1,3.15,2.51h-1.3A1.73,1.73,0,0,0,273,343.3c-1.66,0-2.64,1.45-2.71,3.74h.3a3.18,3.18,0,0,1,2.47-1A3.29,3.29,0,0,1,276.42,349.43Zm-1.32.05a2.29,2.29,0,1,0-4.58,0,2.23,2.23,0,0,0,2.31,2.4A2.18,2.18,0,0,0,275.1,349.48Z"/><path class="cls-5" d="M287.59,345.28v7.57h-9.67v-7.57h1.24v6.45h3v-6.45h1.25v6.45h3v-6.45Z"/><path class="cls-5" d="M288.9,345.28h6.51v1.11H292.8v6.46h-1.28v-6.46H288.9Z"/><rect class="cls-9" x="463.53" y="610.06" width="13.59" height="15.41" rx="1"/><line class="cls-9" x1="463.53" y1="615.19" x2="477.38" y2="615.19"/><line class="cls-9" x1="477.38" y1="620.33" x2="463.53" y2="620.33"/><line class="cls-9" x1="468.08" y1="610.06" x2="468.08" y2="625.46"/><line class="cls-9" x1="472.6" y1="610.06" x2="472.6" y2="625.46"/><ellipse class="cls-9" cx="418.29" cy="620.32" rx="6.36" ry="5.48"/><path class="cls-10" d="M419.24,613.08l-3.5.15c-.66,0-1,.68-.62,1.13l2.27,2.57a.88.88,0,0,0,1.42-.17l1.24-2.72A.73.73,0,0,0,419.24,613.08Z"/></svg>