<svg id="Layer_1" data-name="Layer 1" xmlns="http://www.w3.org/2000/svg" viewBox="0 0 536.34 954.16"><defs><style>.cls-1{fill:#fff;}.cls-2,.cls-3,.cls-5{fill:#241f20;}.cls-10,.cls-11,.cls-2,.cls-5,.cls-7,.cls-8,.cls-9{stroke:#241f20;}.cls-10,.cls-11,.cls-2,.cls-5,.cls-6,.cls-7,.cls-8,.cls-9{stroke-miterlimit:10;}.cls-2{stroke-width:0.41px;}.cls-4,.cls-6{fill:#f40;}.cls-5,.cls-6{stroke-width:0.21px;}.cls-6{stroke:#f40;}.cls-10,.cls-11,.cls-7,.cls-8,.cls-9{fill:none;}.cls-7{stroke-width:0.96px;}.cls-8{stroke-width:0.5px;}.cls-9{stroke-width:0.82px;}.cls-10{stroke-width:0.75px;}.cls-11{stroke-width:0.25px;}</style></defs><title>andy menu</title><rect class="cls-1" x="-0.19" width="536.72" height="954.16"/><path class="cls-2" d="M44.82,28.13h2.73V47.72h8.71V28.13H59V50.26H33.38V28.13h2.73V47.72h8.71Z"/><path class="cls-2" d="M79.61,47.72v2.54H63.7V28.13H79.11v2.54H66.49v6.85H76.66v2.54H66.49v7.66Z"/><path class="cls-2" d="M85.71,28.13V46.88h.62L96.75,28.13h4.31V50.26H98.33V31.51h-.62L87.29,50.26H83V28.13Zm11.72-5.9C97.37,25.3,95.07,27,92,27s-5.3-1.74-5.36-4.81H88.9A2.83,2.83,0,0,0,92,25a2.86,2.86,0,0,0,3.17-2.79Z"/><path class="cls-2" d="M105.77,28.13h2.79v9.45h6.54l4.59-9.45h2.94l-5.11,10.76,5.39,11.37H120L115.1,40.13h-6.54V50.26h-2.79Z"/><path class="cls-2" d="M128.55,28.13V46.88h.62l10.42-18.75h4.31V50.26h-2.73V31.51h-.62L130.13,50.26h-4.31V28.13Z"/><path class="cls-3" d="M61,68.73h3l3.66,6.71h.4l3.6-6.71h3V83H72.87V70.77h-.4l-3.72,6.79H66.91l-3.72-6.79h-.4V83H61Z"/><path class="cls-3" d="M77.59,83V72.94h1.66v7.8h.4l4.5-7.8h2.44V83H84.93v-7.8h-.4L80,83Z"/><path class="cls-3" d="M88.23,81.42h.34c1.38,0,2-1,2-4.58v-3.9h7.72V83H96.55v-8.6H92.13v2.46c0,4.64-1.08,6.14-3.56,6.14h-.34Z"/><path class="cls-3" d="M105.65,78.58h-2.92V83H101V72.94h1.7V77.1h3l2.2-4.16h1.78l-2.56,4.86,2.7,5.22H108Z"/><path class="cls-3" d="M129.69,72.94V83H116.78V72.94h1.67v8.6h4v-8.6h1.66v8.6h4v-8.6Z"/><path class="cls-3" d="M141.21,78h-7.68c0,2.38,1.14,3.84,3.22,3.84a2.39,2.39,0,0,0,2.56-1.56H141c-.34,1.72-1.78,3-4.28,3-3.14,0-4.91-2.32-4.91-5.4s1.81-5.2,4.87-5.2,4.46,2.22,4.5,4.7Zm-7.58-1.42h5.82a2.61,2.61,0,0,0-2.78-2.39A2.86,2.86,0,0,0,133.63,76.54Z"/><path class="cls-3" d="M143.34,83V72.94H145v7.8h.4l4.5-7.8h2.44V83h-1.66v-7.8h-.4L145.71,83Zm7.59-14.49a3.12,3.12,0,0,1-6.23,0h1.39a1.73,1.73,0,0,0,3.46,0Z"/><path class="cls-3" d="M159.75,78.58h-2.92V83h-1.71V72.94h1.71V77.1h3l2.2-4.16h1.78l-2.56,4.86,2.7,5.22h-1.82Z"/><path class="cls-3" d="M68.41,92.48h1.76v12.65h5.62V92.48h1.76v14.29H61V92.48h1.76v12.65h5.62Z"/><path class="cls-3" d="M89.81,101.73c0,3-1.82,5.3-5,5.3s-5-2.3-5-5.3,1.8-5.3,5-5.3S89.81,98.73,89.81,101.73Zm-1.7,0c0-2-1-3.83-3.26-3.83s-3.26,1.87-3.26,3.83,1,3.82,3.26,3.82S88.11,103.71,88.11,101.73Z"/><path class="cls-3" d="M96.59,102.33H93.67v4.44H92V96.69h1.7v4.16h3l2.2-4.16h1.78l-2.56,4.86,2.7,5.22H98.93Z"/><path class="cls-3" d="M112,101.73c0,3-1.82,5.3-5,5.3s-5-2.3-5-5.3,1.8-5.3,5-5.3S112,98.73,112,101.73Zm-1.7,0c0-2-1-3.83-3.26-3.83s-3.26,1.87-3.26,3.83,1,3.82,3.26,3.82S110.27,103.71,110.27,101.73Z"/><path class="cls-3" d="M132.09,96.69v10.08H119.18V96.69h1.67v8.6h4v-8.6h1.66v8.6h4v-8.6Z"/><path class="cls-3" d="M143.61,101.71h-7.68c0,2.38,1.14,3.84,3.22,3.84a2.39,2.39,0,0,0,2.56-1.56h1.72c-.34,1.72-1.78,3-4.28,3-3.14,0-4.91-2.32-4.91-5.4s1.81-5.2,4.87-5.2,4.46,2.22,4.5,4.7ZM136,100.29h5.82a2.61,2.61,0,0,0-2.78-2.39A2.86,2.86,0,0,0,136,100.29Z"/><path class="cls-3" d="M145.74,106.77V96.69h1.67v7.8h.39l4.51-7.8h2.44v10.08h-1.66V99h-.4l-4.58,7.8Zm7.59-14.49a3.12,3.12,0,0,1-6.23,0h1.39a1.73,1.73,0,0,0,3.46,0Z"/><path class="cls-3" d="M162.15,102.33h-2.92v4.44h-1.71V96.69h1.71v4.16h3l2.2-4.16h1.78l-2.56,4.86,2.7,5.22h-1.82Z"/><path class="cls-4" d="M73.83,128.88V134H72.05v-3.5H61.23V134H59.45v-5.14h1.48a22.57,22.57,0,0,0,1.8-9.76v-2.89h9v12.65Zm-3.84-11H64.45v1.54a24.3,24.3,0,0,1-1.6,9.46H70Z"/><path class="cls-4" d="M77.81,120.44v3.36h2.78c2.44,0,3.8,1.26,3.8,3.34s-1.36,3.38-3.8,3.38H76.11V120.44Zm0,8.6h2.54c1.76,0,2.34-.74,2.34-1.9s-.58-1.9-2.34-1.9H77.81Zm9.9-8.6v10.08H86V120.44Z"/><path class="cls-4" d="M97.77,130.52v-4.44H92.19v4.44h-1.7V120.44h1.7v4.16h5.58v-4.16h1.7v10.08Z"/><path class="cls-4" d="M110.53,120.44v10.08h-1.72v-4h-3.06c-.22,0-.42,0-.62,0l-1.52,4h-1.79l1.71-4.38A2.71,2.71,0,0,1,102,123.5c0-1.9,1.26-3.06,3.54-3.06Zm-4.84,1.44c-1.52,0-2,.62-2,1.64s.5,1.58,2,1.58h3.12v-3.22Z"/><path class="cls-4" d="M131.25,120.44v10.08H118.34V120.44H120V129h4v-8.6h1.66V129h4v-8.6Z"/><path class="cls-4" d="M142.77,125.46h-7.68c0,2.38,1.14,3.84,3.22,3.84a2.39,2.39,0,0,0,2.56-1.56h1.72c-.34,1.72-1.78,3-4.28,3-3.14,0-4.91-2.32-4.91-5.4s1.81-5.2,4.87-5.2,4.46,2.22,4.5,4.7ZM135.19,124H141a2.6,2.6,0,0,0-2.78-2.38A2.85,2.85,0,0,0,135.19,124Z"/><path class="cls-4" d="M144.9,130.52V120.44h1.67v7.8h.4l4.5-7.8h2.44v10.08h-1.66v-7.8h-.4l-4.58,7.8ZM152.49,116a3.12,3.12,0,0,1-6.23,0h1.39a1.73,1.73,0,0,0,3.46,0Z"/><path class="cls-4" d="M161.31,126.08h-2.92v4.44h-1.71V120.44h1.71v4.16h3l2.2-4.16h1.78l-2.56,4.86,2.7,5.22h-1.82Z"/><path class="cls-3" d="M70.77,141.59H66.09v12.68h-1.8V141.59H59.57V140h11.2Z"/><path class="cls-3" d="M76.83,153.19h-.4a3.94,3.94,0,0,1-3.16,1.34,3.33,3.33,0,0,1-3.64-3.28c0-1.62,1-3.34,3.86-3.34h3.28v-.4c0-1.22-.72-2.1-2.46-2.1-1.48,0-2.26.58-2.34,1.46h-1.7c.12-1.86,1.74-2.94,4-2.94,2.52,0,4.16,1.22,4.16,3.48v6.86h-1.6Zm-.06-3v-.9h-3c-1.64,0-2.42.7-2.42,1.88s.86,1.84,2.34,1.84A3,3,0,0,0,76.77,150.23Z"/><path class="cls-3" d="M81.05,158.27V144.19h1.64v1.1h.4a3.81,3.81,0,0,1,3.12-1.36c2.8,0,4.48,2.3,4.48,5.3s-1.68,5.3-4.48,5.3a3.62,3.62,0,0,1-3.06-1.36h-.4v5.1Zm1.68-9c0,2,.92,3.82,3.16,3.82,2,0,3.1-1.58,3.1-3.82s-1.06-3.82-3.1-3.82C83.65,145.41,82.73,147.27,82.73,149.23Z"/><path class="cls-3" d="M102.15,149.23c0,3-1.82,5.3-5,5.3s-5-2.3-5-5.3,1.81-5.3,5-5.3S102.15,146.23,102.15,149.23Zm-1.7,0c0-2-1-3.82-3.26-3.82s-3.26,1.86-3.26,3.82,1,3.82,3.26,3.82S100.45,151.21,100.45,149.23Z"/><path class="cls-3" d="M122.27,144.19v10.08H109.36V144.19H111v8.6h4v-8.6h1.66v8.6h4v-8.6Z"/><path class="cls-3" d="M133.79,149.21h-7.68c0,2.38,1.14,3.84,3.22,3.84a2.39,2.39,0,0,0,2.56-1.56h1.72c-.34,1.72-1.78,3-4.28,3-3.14,0-4.91-2.32-4.91-5.4s1.81-5.2,4.87-5.2,4.46,2.22,4.5,4.7Zm-7.58-1.42H132a2.6,2.6,0,0,0-2.78-2.38A2.85,2.85,0,0,0,126.21,147.79Z"/><path class="cls-3" d="M135.92,154.27V144.19h1.66V152h.4l4.51-7.8h2.44v10.08h-1.66v-7.8h-.4l-4.59,7.8Zm7.59-14.49a3.12,3.12,0,0,1-6.23,0h1.38a1.74,1.74,0,0,0,3.47,0Z"/><path class="cls-3" d="M152.33,149.83h-2.92v4.44H147.7V144.19h1.71v4.16h3l2.2-4.16h1.78l-2.56,4.86,2.7,5.22h-1.82Z"/><path class="cls-3" d="M72.47,163.74V178h-1.8V165.38H62.83V178H61V163.74Z"/><path class="cls-3" d="M84.17,173H76.49c0,2.38,1.14,3.84,3.22,3.84a2.39,2.39,0,0,0,2.56-1.56H84c-.34,1.72-1.78,3-4.28,3-3.14,0-4.9-2.32-4.9-5.4s1.8-5.2,4.86-5.2,4.46,2.22,4.5,4.7Zm-7.58-1.42h5.82a2.6,2.6,0,0,0-2.78-2.38A2.85,2.85,0,0,0,76.59,171.54Z"/><path class="cls-3" d="M86.3,182V167.94H88V169h.4a3.81,3.81,0,0,1,3.12-1.36c2.8,0,4.48,2.3,4.48,5.3s-1.68,5.3-4.48,5.3a3.62,3.62,0,0,1-3.06-1.36H88V182ZM88,173c0,2,.92,3.82,3.16,3.82,2,0,3.1-1.58,3.1-3.82s-1.06-3.82-3.1-3.82C88.91,169.16,88,171,88,173Z"/><path class="cls-3" d="M106.63,175a4,4,0,0,1-4.24,3.3c-3.14,0-4.91-2.3-4.91-5.3s1.77-5.3,4.91-5.3a3.88,3.88,0,0,1,4.18,3.18h-1.7a2.35,2.35,0,0,0-2.48-1.7c-2.28,0-3.2,1.76-3.2,3.78s.94,3.86,3.2,3.86a2.33,2.33,0,0,0,2.54-1.82Z"/><path class="cls-3" d="M108.66,178V167.94h1.67v7.8h.4l4.5-7.8h2.44V178H116v-7.8h-.4L111,178Z"/><path class="cls-3" d="M125.07,173.58h-2.92V178h-1.71V167.94h1.71v4.16h3l2.2-4.16h1.78l-2.56,4.86,2.7,5.22h-1.82Z"/><path class="cls-3" d="M149.11,167.94V178H136.2V167.94h1.67v8.6h4v-8.6h1.66v8.6h4v-8.6Z"/><path class="cls-3" d="M160.63,173H153c0,2.38,1.14,3.84,3.22,3.84a2.39,2.39,0,0,0,2.56-1.56h1.72c-.34,1.72-1.78,3-4.28,3-3.14,0-4.91-2.32-4.91-5.4s1.81-5.2,4.87-5.2,4.46,2.22,4.5,4.7Zm-7.58-1.42h5.82a2.6,2.6,0,0,0-2.78-2.38A2.84,2.84,0,0,0,153.05,171.54Z"/><path class="cls-3" d="M162.76,178V167.94h1.67v7.8h.39l4.51-7.8h2.44V178h-1.66v-7.8h-.4l-4.58,7.8Zm7.59-14.48a3.12,3.12,0,0,1-6.23,0h1.39a1.73,1.73,0,0,0,3.46,0Z"/><path class="cls-3" d="M179.17,173.58h-2.93V178h-1.7V167.94h1.7v4.16h3l2.2-4.16h1.78l-2.56,4.86,2.7,5.22h-1.82Z"/><path class="cls-2" d="M33.2,757.22H36v9.52H42.6l4.62-9.52h3L45,768.05l5.44,11.46h-3L42.6,769.3H36v10.21H33.2Z"/><path class="cls-2" d="M72.75,768.37c0,6.43-3.62,11.55-10.39,11.55S52,774.8,52,768.37s3.59-11.55,10.4-11.55S72.75,761.94,72.75,768.37Zm-2.84,0c0-4.69-2.25-9-7.55-9s-7.56,4.31-7.56,9,2.25,9,7.56,9S69.91,773.05,69.91,768.37Z"/><path class="cls-2" d="M88.58,759.06c6.12,0,10.18,3,10.18,9s-4.06,9-10.18,9H88.2v2.88H85.46V777h-.38c-6.15,0-10.18-2.9-10.18-9s4.06-9,10.18-9h.38V756.5H88.2v2.56Zm-3.12,15.49v-13h-.38c-4.52,0-7.4,2.06-7.4,6.49s2.88,6.5,7.4,6.5Zm3.12,0c4.49,0,7.4-2.06,7.4-6.5s-2.87-6.49-7.4-6.49H88.2v13Z"/><path class="cls-2" d="M118.05,777v2.56H102V757.22h15.52v2.56H104.84v6.9h10.24v2.56H104.84V777Z"/><path class="cls-3" d="M68.93,808.39H62.67l-1.48,4.38H59.35l4.94-14.29h3l5,14.29H70.41Zm-5.72-1.64h5.16l-2.18-6.42h-.8Z"/><path class="cls-3" d="M73.83,802.69h2.66l2.54,4.8h.4l2.54-4.8h2.62v10.08H82.93v-8.1h-.4l-2.4,4.52H78.29l-2.4-4.52h-.4v8.1H73.83Z"/><path class="cls-3" d="M96.11,807.71H88.43c0,2.38,1.14,3.84,3.22,3.84A2.39,2.39,0,0,0,94.21,810h1.72c-.34,1.72-1.78,3-4.28,3-3.14,0-4.9-2.32-4.9-5.4s1.8-5.2,4.86-5.2,4.46,2.22,4.5,4.7Zm-7.58-1.42h5.82a2.6,2.6,0,0,0-2.78-2.38A2.85,2.85,0,0,0,88.53,806.29Z"/><path class="cls-3" d="M98.25,816.77V802.69h1.64v1.1h.4a3.81,3.81,0,0,1,3.12-1.36c2.8,0,4.48,2.3,4.48,5.3s-1.68,5.3-4.48,5.3a3.62,3.62,0,0,1-3.06-1.36H100v5.1Zm1.68-9c0,2,.92,3.82,3.16,3.82,2,0,3.1-1.58,3.1-3.82s-1.06-3.82-3.1-3.82C100.85,803.91,99.93,805.77,99.93,807.73Z"/><path class="cls-3" d="M110.05,812.77V802.69h1.66v7.8h.4l4.5-7.8h2.44v10.08h-1.66V805H117l-4.58,7.8Z"/><path class="cls-3" d="M126.45,808.33h-2.92v4.44h-1.7V802.69h1.7v4.16h3l2.2-4.16h1.78l-2.56,4.86,2.7,5.22h-1.82Z"/><path class="cls-3" d="M139,811.69h-.4a3.94,3.94,0,0,1-3.16,1.34,3.33,3.33,0,0,1-3.64-3.28c0-1.62,1-3.34,3.86-3.34h3.28V806c0-1.22-.72-2.1-2.46-2.1-1.48,0-2.26.58-2.34,1.46h-1.7c.12-1.86,1.74-2.94,4-2.94,2.52,0,4.16,1.22,4.16,3.48v6.86H139Zm-.06-3v-.9h-3c-1.64,0-2.42.7-2.42,1.88s.86,1.84,2.34,1.84A3,3,0,0,0,138.89,808.73Z"/><path class="cls-3" d="M150.45,812.77v-4.44h-5.58v4.44h-1.7V802.69h1.7v4.16h5.58v-4.16h1.7v10.08Z"/><path class="cls-3" d="M164.23,807.73c0,3-1.82,5.3-5,5.3s-5-2.3-5-5.3,1.8-5.3,5-5.3S164.23,804.73,164.23,807.73Zm-1.7,0c0-2-1-3.82-3.26-3.82s-3.26,1.86-3.26,3.82,1,3.82,3.26,3.82S162.53,809.71,162.53,807.73Z"/><path class="cls-3" d="M60.77,822.23h1.8v6.11h4.22l3-6.11h1.9l-3.3,6.95,3.48,7.34h-1.9L66.79,830H62.57v6.54h-1.8Z"/><path class="cls-3" d="M80.05,835.44h-.4a3.94,3.94,0,0,1-3.16,1.34,3.33,3.33,0,0,1-3.64-3.28c0-1.62,1-3.34,3.86-3.34H80v-.4c0-1.22-.72-2.1-2.46-2.1-1.48,0-2.26.58-2.34,1.46h-1.7c.12-1.86,1.74-2.94,4-2.94,2.52,0,4.16,1.22,4.16,3.48v6.86h-1.6Zm-.06-3v-.9H77c-1.64,0-2.42.7-2.42,1.88s.86,1.84,2.34,1.84A3,3,0,0,0,80,832.48Z"/><path class="cls-3" d="M91.47,836.52v-8.6H86v8.6h-1.7V826.44h8.9v10.08Z"/><path class="cls-3" d="M96.93,840.52l2.06-4.9-4.24-9.18h1.84l3,6.64h.5l2.8-6.64h1.82l-6.08,14.08Z"/><path class="cls-3" d="M107.33,826.44v2.84c0,1,0,2,2.54,2a11.91,11.91,0,0,0,2.52-.26v-4.6h1.72v10.08h-1.72v-4a15.45,15.45,0,0,1-2.88.28c-3.66,0-3.88-1.74-3.88-3.4v-3Z"/><path class="cls-3" d="M116.89,836.52V826.44h1.66v7.8h.4l4.5-7.8h2.44v10.08h-1.66v-7.8h-.4l-4.58,7.8Z"/><path class="cls-3" d="M136,836.52v-4.44h-5.58v4.44h-1.7V826.44h1.7v4.16H136v-4.16h1.7v10.08Z"/><path class="cls-3" d="M149.73,831.48c0,3-1.82,5.3-5,5.3s-5-2.3-5-5.3,1.8-5.3,5-5.3S149.73,828.48,149.73,831.48Zm-1.7,0c0-2-1-3.82-3.26-3.82s-3.26,1.86-3.26,3.82,1,3.82,3.26,3.82S148,833.46,148,831.48Z"/><path class="cls-3" d="M59.59,858.49c1.88,0,2.68-1.08,2.68-7.26V846h9.38v14.28h-1.8V847.63H64v3.94c0,7-1.3,8.7-4.36,8.7h-.4v-1.78Z"/><path class="cls-3" d="M81,859.19h-.4a3.94,3.94,0,0,1-3.16,1.34,3.33,3.33,0,0,1-3.64-3.28c0-1.62,1-3.34,3.86-3.34H81v-.4c0-1.22-.72-2.1-2.46-2.1-1.48,0-2.26.58-2.34,1.46h-1.7c.12-1.86,1.74-2.94,4-2.94,2.52,0,4.16,1.22,4.16,3.48v6.86H81Zm-.06-3v-.9H78c-1.64,0-2.42.7-2.42,1.88s.86,1.84,2.34,1.84A3,3,0,0,0,81,856.23Z"/><path class="cls-3" d="M84.09,850.19h8.68v1.48H89.29v8.6h-1.7v-8.6h-3.5Z"/><path class="cls-3" d="M94.07,850.19h8.68v1.48H99.27v8.6h-1.7v-8.6h-3.5Z"/><path class="cls-3" d="M113.07,855.21h-7.68c0,2.38,1.14,3.84,3.22,3.84a2.39,2.39,0,0,0,2.56-1.56h1.72c-.34,1.72-1.78,3-4.28,3-3.14,0-4.9-2.32-4.9-5.4s1.8-5.2,4.86-5.2,4.46,2.22,4.5,4.7Zm-7.58-1.42h5.82a2.6,2.6,0,0,0-2.78-2.38A2.85,2.85,0,0,0,105.49,853.79Z"/><path class="cls-4" d="M71.65,874c0,2.68-1.74,4.3-4.84,4.3H62.57V884h-1.8V869.74h6C69.91,869.74,71.65,871.36,71.65,874Zm-1.82,0c0-1.66-.88-2.68-3.32-2.68H62.57v5.36h3.94C69,876.7,69.83,875.68,69.83,874Z"/><path class="cls-4" d="M79.85,882.94h-.4a3.94,3.94,0,0,1-3.16,1.34A3.33,3.33,0,0,1,72.65,881c0-1.62,1-3.34,3.86-3.34h3.28v-.4c0-1.22-.72-2.1-2.46-2.1-1.48,0-2.26.58-2.34,1.46h-1.7c.12-1.86,1.74-2.94,4-2.94,2.52,0,4.16,1.22,4.16,3.48V884h-1.6Zm-.06-3v-.9h-3c-1.64,0-2.42.7-2.42,1.88s.86,1.84,2.34,1.84A3,3,0,0,0,79.79,880Z"/><path class="cls-4" d="M90.43,888H88.75v-4h-.32a5,5,0,0,1,0-10.08h.34v-4.46h1.68v4.46h.32a4.67,4.67,0,0,1,5,5c0,3.1-1.88,5-5.28,5Zm-2-5.44h.32v-7.2h-.32c-2.24,0-3.3,1.64-3.3,3.6S86.17,882.58,88.43,882.58Zm2.28,0c2.26,0,3.32-1.64,3.32-3.6s-1.06-3.6-3.32-3.6h-.28v7.2Z"/><path class="cls-3" d="M60.77,893.49h1.8v6.1h4.22l3-6.1h1.9l-3.3,6.94,3.48,7.34h-1.9l-3.14-6.54H62.57v6.54h-1.8Z"/><path class="cls-3" d="M80.05,906.69h-.4A3.94,3.94,0,0,1,76.49,908a3.33,3.33,0,0,1-3.64-3.28c0-1.62,1-3.34,3.86-3.34H80V901c0-1.22-.72-2.1-2.46-2.1-1.48,0-2.26.58-2.34,1.46h-1.7c.12-1.86,1.74-2.94,4-2.94,2.52,0,4.16,1.22,4.16,3.48v6.86h-1.6Zm-.06-3v-.9H77c-1.64,0-2.42.7-2.42,1.88s.86,1.84,2.34,1.84A3,3,0,0,0,80,903.73Z"/><path class="cls-3" d="M88.89,903.33H86v4.44h-1.7V897.69H86v4.16h3l2.2-4.16h1.78l-2.56,4.86,2.7,5.22H91.23Z"/><path class="cls-3" d="M101.39,906.69H101A3.94,3.94,0,0,1,97.83,908a3.33,3.33,0,0,1-3.64-3.28c0-1.62,1-3.34,3.86-3.34h3.28V901c0-1.22-.72-2.1-2.46-2.1-1.48,0-2.26.58-2.34,1.46h-1.7c.12-1.86,1.74-2.94,4-2.94,2.52,0,4.16,1.22,4.16,3.48v6.86h-1.6Zm-.06-3v-.9h-3c-1.64,0-2.42.7-2.42,1.88s.86,1.84,2.34,1.84A3,3,0,0,0,101.33,903.73Z"/><path class="cls-3" d="M114.91,902.73c0,3-1.82,5.3-5,5.3s-5-2.3-5-5.3,1.8-5.3,5-5.3S114.91,899.73,114.91,902.73Zm-1.7,0c0-2-1-3.82-3.26-3.82s-3.26,1.86-3.26,3.82,1,3.82,3.26,3.82S113.21,904.71,113.21,902.73Z"/><path class="cls-3" d="M61.91,538.93V543c0,1.4,0,2.86,3.6,2.86a15.14,15.14,0,0,0,3.42-.4v-6.54h1.8v14.28h-1.8v-6.08a18.75,18.75,0,0,1-3.64.38c-5,0-5.18-2.3-5.18-4.5v-4.08Z"/><path class="cls-3" d="M80.11,552.13h-.4a3.94,3.94,0,0,1-3.16,1.34,3.33,3.33,0,0,1-3.64-3.28c0-1.62,1-3.34,3.86-3.34h3.28v-.4c0-1.22-.72-2.1-2.46-2.1-1.48,0-2.26.58-2.34,1.46h-1.7c.12-1.86,1.74-2.94,4-2.94,2.52,0,4.16,1.22,4.16,3.48v6.86h-1.6Zm-.06-3v-.9H77c-1.64,0-2.42.7-2.42,1.88S75.47,552,77,552A3,3,0,0,0,80.05,549.17Z"/><path class="cls-3" d="M84.33,553.21V543.13H86v7.8h.4l4.5-7.8h2.44v10.08H91.67v-7.8h-.4l-4.58,7.8Zm7.58-14.48a3.12,3.12,0,0,1-6.22,0h1.38a1.73,1.73,0,0,0,3.46,0Z"/><path class="cls-3" d="M60.77,562.68h3l3.66,6.7h.4l3.6-6.7h3V577H72.61V564.72h-.4l-3.72,6.78H66.65l-3.72-6.78h-.4V577H60.77Z"/><path class="cls-3" d="M83.75,575.88h-.4a3.94,3.94,0,0,1-3.16,1.34,3.33,3.33,0,0,1-3.64-3.28c0-1.62,1-3.34,3.86-3.34h3.28v-.4c0-1.22-.72-2.1-2.46-2.1-1.48,0-2.26.58-2.34,1.46h-1.7c.12-1.86,1.74-2.94,4-2.94,2.52,0,4.16,1.22,4.16,3.48V577h-1.6Zm-.06-3V572h-3c-1.64,0-2.42.7-2.42,1.88s.86,1.84,2.34,1.84A3,3,0,0,0,83.69,572.92Z"/><path class="cls-3" d="M86.81,566.88h8.68v1.48H92V577h-1.7v-8.6h-3.5Z"/><path class="cls-3" d="M98.35,566.88v2.84c0,1,0,2,2.54,2a11.91,11.91,0,0,0,2.52-.26v-4.6h1.72V577h-1.72v-4a15.45,15.45,0,0,1-2.88.28c-3.66,0-3.88-1.74-3.88-3.4v-3Z"/><path class="cls-3" d="M114.33,575.88h-.4a3.94,3.94,0,0,1-3.16,1.34,3.33,3.33,0,0,1-3.64-3.28c0-1.62,1-3.34,3.86-3.34h3.28v-.4c0-1.22-.72-2.1-2.46-2.1-1.48,0-2.26.58-2.34,1.46h-1.7c.12-1.86,1.74-2.94,4-2.94,2.52,0,4.16,1.22,4.16,3.48V577h-1.6Zm-.06-3V572h-3c-1.64,0-2.42.7-2.42,1.88s.86,1.84,2.34,1.84A3,3,0,0,0,114.27,572.92Z"/><path class="cls-3" d="M132.63,566.88v9.58a4.33,4.33,0,0,1-4.7,4.64c-2.56,0-4.26-1.1-4.56-3.08h1.68c.28,1.2,1.34,1.64,2.86,1.64,2.08,0,3-1.26,3-3.28v-.82h-.4a3.58,3.58,0,0,1-3,1.36c-2.78,0-4.54-2.2-4.54-5.14s1.76-5.16,4.54-5.16a3.7,3.7,0,0,1,3.06,1.36h.4v-1.1Zm-1.66,4.9c0-1.94-1-3.68-3.18-3.68-2,0-3.1,1.48-3.1,3.68s1.14,3.66,3.1,3.66C130,575.44,131,573.7,131,571.78Z"/><path class="cls-3" d="M141.07,568.48h-.78c-2,0-3.18,1.24-3.18,3.44v5h-1.7V566.88h1.64v1.22h.4a3.64,3.64,0,0,1,2.92-1.22h.7Z"/><path class="cls-3" d="M151.53,571.9h-7.68c0,2.38,1.14,3.84,3.22,3.84a2.39,2.39,0,0,0,2.56-1.56h1.72c-.34,1.72-1.78,3-4.28,3-3.14,0-4.9-2.32-4.9-5.4s1.8-5.2,4.86-5.2,4.46,2.22,4.5,4.7ZM144,570.48h5.82A2.6,2.6,0,0,0,147,568.1,2.85,2.85,0,0,0,144,570.48Z"/><path class="cls-3" d="M162.41,571.9h-7.68c0,2.38,1.14,3.84,3.22,3.84a2.39,2.39,0,0,0,2.56-1.56h1.72c-.34,1.72-1.78,3-4.28,3-3.14,0-4.9-2.32-4.9-5.4s1.8-5.2,4.86-5.2,4.46,2.22,4.5,4.7Zm-7.58-1.42h5.82a2.6,2.6,0,0,0-2.78-2.38A2.85,2.85,0,0,0,154.83,570.48Z"/><path class="cls-3" d="M173.51,570.62V577h-1.7v-6c0-1.84-.88-2.78-2.58-2.78a3.13,3.13,0,0,0-3,3.34V577h-1.7V566.88h1.64V568h.38a3.57,3.57,0,0,1,3-1.36A3.68,3.68,0,0,1,173.51,570.62Z"/><path class="cls-3" d="M60.77,586.43h3l3.66,6.7h.4l3.6-6.7h3v14.28H72.61V588.47h-.4l-3.72,6.78H66.65l-3.72-6.78h-.4v12.24H60.77Z"/><path class="cls-3" d="M83.75,599.63h-.4A3.94,3.94,0,0,1,80.19,601a3.33,3.33,0,0,1-3.64-3.28c0-1.62,1-3.34,3.86-3.34h3.28V594c0-1.22-.72-2.1-2.46-2.1-1.48,0-2.26.58-2.34,1.46h-1.7c.12-1.86,1.74-2.94,4-2.94,2.52,0,4.16,1.22,4.16,3.48v6.86h-1.6Zm-.06-3v-.9h-3c-1.64,0-2.42.7-2.42,1.88s.86,1.84,2.34,1.84A3,3,0,0,0,83.69,596.67Z"/><path class="cls-3" d="M86.81,590.63h8.68v1.48H92v8.6h-1.7v-8.6h-3.5Z"/><path class="cls-3" d="M98.35,590.63v2.84c0,1,0,2,2.54,2a11.91,11.91,0,0,0,2.52-.26v-4.6h1.72v10.08h-1.72v-4a15.45,15.45,0,0,1-2.88.28c-3.66,0-3.88-1.74-3.88-3.4v-3Z"/><path class="cls-3" d="M114.33,599.63h-.4a3.94,3.94,0,0,1-3.16,1.34,3.33,3.33,0,0,1-3.64-3.28c0-1.62,1-3.34,3.86-3.34h3.28V594c0-1.22-.72-2.1-2.46-2.1-1.48,0-2.26.58-2.34,1.46h-1.7c.12-1.86,1.74-2.94,4-2.94,2.52,0,4.16,1.22,4.16,3.48v6.86h-1.6Zm-.06-3v-.9h-3c-1.64,0-2.42.7-2.42,1.88s.86,1.84,2.34,1.84A3,3,0,0,0,114.27,596.67Z"/><path class="cls-3" d="M125.31,586.17v5.56h.4a3.62,3.62,0,0,1,3.06-1.36c2.8,0,4.48,2.28,4.48,5.3s-1.68,5.3-4.48,5.3a3.81,3.81,0,0,1-3.12-1.36h-.4v1.1h-1.64V586.17Zm6.24,9.5c0-2.24-1.06-3.82-3.1-3.82-2.24,0-3.16,1.84-3.16,3.82s.92,3.82,3.16,3.82C130.49,599.49,131.55,597.91,131.55,595.67Z"/><path class="cls-3" d="M137.11,586.17v14.54h-1.7V586.17Z"/><path class="cls-3" d="M139.73,597v-6.34h1.7v6c0,1.84.84,2.78,2.54,2.78a3.11,3.11,0,0,0,3-3.34v-5.48h1.7v10.08H147v-1.1h-.38a3.53,3.53,0,0,1-3,1.36A3.65,3.65,0,0,1,139.73,597Z"/><path class="cls-3" d="M160.15,595.65h-7.68c0,2.38,1.14,3.84,3.22,3.84a2.39,2.39,0,0,0,2.56-1.56H160c-.34,1.72-1.78,3-4.28,3-3.14,0-4.9-2.32-4.9-5.4s1.8-5.2,4.86-5.2,4.46,2.22,4.5,4.7Zm-7.58-1.42h5.82a2.6,2.6,0,0,0-2.78-2.38A2.85,2.85,0,0,0,152.57,594.23Z"/><path class="cls-4" d="M62.57,611.82v12.64h-1.8V610.18h9.76v1.64Z"/><path class="cls-4" d="M68.65,622.86H69c1.38,0,2-1,2-4.58v-3.9h7.72v10.08H77v-8.6H72.55v2.46c0,4.64-1.08,6.14-3.56,6.14h-.34Z"/><path class="cls-4" d="M81.45,624.46V614.38h1.66v7.8h.4l4.5-7.8h2.44v10.08H88.79v-7.8h-.4l-4.58,7.8Z"/><path class="cls-4" d="M100.51,624.46V620H94.93v4.44h-1.7V614.38h1.7v4.16h5.58v-4.16h1.7v10.08Z"/><path class="cls-4" d="M104,614.38h8.68v1.48h-3.48v8.6h-1.7v-8.6H104Z"/><path class="cls-4" d="M123.11,621.7c0,1.82-1.28,2.76-3.56,2.76h-5.18V614.38h5.22c2,0,3.18,1,3.18,2.54a2.15,2.15,0,0,1-1.28,2v.4A2.21,2.21,0,0,1,123.11,621.7Zm-7.06-3.14h3.38c1.22,0,1.64-.64,1.64-1.36s-.42-1.38-1.64-1.38h-3.38Zm5.36,3c0-.84-.5-1.52-2-1.52h-3.4v3h3.4C120.91,623,121.41,622.38,121.41,621.52Z"/><path class="cls-4" d="M134,619.4h-7.68c0,2.38,1.14,3.84,3.22,3.84a2.39,2.39,0,0,0,2.56-1.56h1.72c-.34,1.72-1.78,3-4.28,3-3.14,0-4.9-2.32-4.9-5.4s1.8-5.2,4.86-5.2,4.46,2.22,4.5,4.7ZM126.41,618h5.82a2.6,2.6,0,0,0-2.78-2.38A2.85,2.85,0,0,0,126.41,618Z"/><path class="cls-4" d="M136.13,624.46V614.38h1.66v7.8h.4l4.5-7.8h2.44v10.08h-1.66v-7.8h-.4l-4.58,7.8ZM143.71,610a3.12,3.12,0,0,1-6.22,0h1.38a1.73,1.73,0,0,0,3.46,0Z"/><path class="cls-4" d="M155.19,624.46V620h-5.58v4.44h-1.7V614.38h1.7v4.16h5.58v-4.16h1.7v10.08Z"/><path class="cls-3" d="M60.77,633.93h3l3.66,6.7h.4l3.6-6.7h3v14.28H72.61V636h-.4l-3.72,6.78H66.65L62.93,636h-.4v12.24H60.77Z"/><path class="cls-3" d="M83.75,647.13h-.4a3.94,3.94,0,0,1-3.16,1.34,3.33,3.33,0,0,1-3.64-3.28c0-1.62,1-3.34,3.86-3.34h3.28v-.4c0-1.22-.72-2.1-2.46-2.1-1.48,0-2.26.58-2.34,1.46h-1.7c.12-1.86,1.74-2.94,4-2.94,2.52,0,4.16,1.22,4.16,3.48v6.86h-1.6Zm-.06-3v-.9h-3c-1.64,0-2.42.7-2.42,1.88s.86,1.84,2.34,1.84A3,3,0,0,0,83.69,644.17Z"/><path class="cls-3" d="M86.83,646.61h.34c1.38,0,2-1,2-4.58v-3.9h7.72v10.08H95.15v-8.6H90.73v2.46c0,4.64-1.08,6.14-3.56,6.14h-.34Z"/><path class="cls-3" d="M99.63,648.21V638.13h1.66v7.8h.4l4.5-7.8h2.44v10.08H107v-7.8h-.4l-4.58,7.8Z"/><path class="cls-3" d="M118.69,648.21v-4.44h-5.58v4.44h-1.7V638.13h1.7v4.16h5.58v-4.16h1.7v10.08Z"/><path class="cls-3" d="M132.47,643.17c0,3-1.82,5.3-5,5.3s-5-2.3-5-5.3,1.8-5.3,5-5.3S132.47,640.17,132.47,643.17Zm-1.7,0c0-2-1-3.82-3.26-3.82s-3.26,1.86-3.26,3.82,1,3.82,3.26,3.82S130.77,645.15,130.77,643.17Z"/><path class="cls-3" d="M143.37,645.45c0,1.82-1.28,2.76-3.56,2.76h-5.18V638.13h5.22c2,0,3.18,1,3.18,2.54a2.15,2.15,0,0,1-1.28,2v.4A2.21,2.21,0,0,1,143.37,645.45Zm-7.06-3.14h3.38c1.22,0,1.64-.64,1.64-1.36s-.42-1.38-1.64-1.38h-3.38Zm5.36,3c0-.84-.5-1.52-2-1.52h-3.4v3h3.4C141.17,646.77,141.67,646.13,141.67,645.27Z"/><path class="cls-3" d="M147.21,638.13v3.36H150c2.44,0,3.8,1.26,3.8,3.34s-1.36,3.38-3.8,3.38h-4.48V638.13Zm0,8.6h2.54c1.76,0,2.34-.74,2.34-1.9s-.58-1.9-2.34-1.9h-2.54Zm9.9-8.6v10.08h-1.7V638.13Z"/><path class="cls-3" d="M159.89,648.21V638.13h1.66v7.8h.4l4.5-7.8h2.44v10.08h-1.66v-7.8h-.4l-4.58,7.8Zm7.58-14.48a3.12,3.12,0,0,1-6.22,0h1.38a1.73,1.73,0,0,0,3.46,0Z"/><path class="cls-3" d="M177.85,638.13V641c0,1,0,2,2.54,2a11.91,11.91,0,0,0,2.52-.26v-4.6h1.72v10.08h-1.72v-4a15.45,15.45,0,0,1-2.88.28c-3.66,0-3.88-1.74-3.88-3.4v-3Z"/><path class="cls-3" d="M193.83,647.13h-.4a3.94,3.94,0,0,1-3.16,1.34,3.33,3.33,0,0,1-3.64-3.28c0-1.62,1-3.34,3.86-3.34h3.28v-.4c0-1.22-.72-2.1-2.46-2.1-1.48,0-2.26.58-2.34,1.46h-1.7c.12-1.86,1.74-2.94,4-2.94,2.52,0,4.16,1.22,4.16,3.48v6.86h-1.6Zm-.06-3v-.9h-3c-1.64,0-2.42.7-2.42,1.88s.86,1.84,2.34,1.84A3,3,0,0,0,193.77,644.17Z"/><path class="cls-3" d="M198.05,648.21V638.13h1.66v7.8h.4l4.5-7.8h2.44v10.08h-1.66v-7.8H205l-4.58,7.8Zm7.58-14.48a3.12,3.12,0,0,1-6.22,0h1.38a1.73,1.73,0,0,0,3.46,0Z"/><path class="cls-3" d="M73.37,664.82c0,4.12-2.32,7.4-6.66,7.4s-6.66-3.28-6.66-7.4,2.3-7.4,6.66-7.4S73.37,660.7,73.37,664.82Zm-1.82,0c0-3-1.44-5.76-4.84-5.76s-4.84,2.76-4.84,5.76,1.44,5.76,4.84,5.76S71.55,667.82,71.55,664.82Z"/><path class="cls-3" d="M85,667.12a4.76,4.76,0,0,1-5,5.1c-3.12,0-5-2.16-5-6.06,0-3.42.5-6.86,4-7.52l2.7-.42c.76-.12,1-.24,1-.8h1.58a2.17,2.17,0,0,1-2,2.36c-.72.14-2.86.44-3.1.48-1.86.32-2.4,1.68-2.6,3.26H77a3.79,3.79,0,0,1,3.3-1.48C83.27,662,85,664.24,85,667.12Zm-1.7,0c0-1.88-1.06-3.6-3.3-3.6s-3.3,1.72-3.3,3.6,1.06,3.62,3.3,3.62S83.29,669,83.29,667.12Z"/><path class="cls-3" d="M85.81,670.36h.34c1.38,0,2-1,2-4.58v-3.9h7.72V672H94.13v-8.6H89.71v2.46c0,4.64-1.08,6.14-3.56,6.14h-.34Z"/><path class="cls-3" d="M107.35,666.9H99.67c0,2.38,1.14,3.84,3.22,3.84a2.39,2.39,0,0,0,2.56-1.56h1.72c-.34,1.72-1.78,3-4.28,3-3.14,0-4.9-2.32-4.9-5.4s1.8-5.2,4.86-5.2,4.46,2.22,4.5,4.7Zm-7.58-1.42h5.82a2.6,2.6,0,0,0-2.78-2.38A2.85,2.85,0,0,0,99.77,665.48Z"/><path class="cls-3" d="M116.69,672v-8.6h-5.5V672h-1.7V661.88h8.9V672Z"/><path class="cls-3" d="M121.17,672V661.88h1.66v7.8h.4l4.5-7.8h2.44V672h-1.66v-7.8h-.4l-4.58,7.8Z"/><path class="cls-3" d="M137.11,667.74h-.58L134,672H132l3.16-5.16-2.84-4.92h1.86l2.34,4h.58l2.38-4h1.84l-2.88,4.86,3.14,5.22h-2Z"/><path class="cls-3" d="M152.77,666.92c0,3-1.82,5.3-5,5.3s-5-2.3-5-5.3,1.8-5.3,5-5.3S152.77,663.92,152.77,666.92Zm-1.7,0c0-2-1-3.82-3.26-3.82s-3.26,1.86-3.26,3.82,1,3.82,3.26,3.82S151.07,668.9,151.07,666.92Z"/><path class="cls-3" d="M163.67,669.2c0,1.82-1.28,2.76-3.56,2.76h-5.18V661.88h5.22c2,0,3.18,1,3.18,2.54a2.15,2.15,0,0,1-1.28,2v.4A2.21,2.21,0,0,1,163.67,669.2Zm-7.06-3.14H160c1.22,0,1.64-.64,1.64-1.36s-.42-1.38-1.64-1.38h-3.38Zm5.36,3c0-.84-.5-1.52-2-1.52h-3.4v3H160C161.47,670.52,162,669.88,162,669Z"/><path class="cls-3" d="M167.51,661.88v3.36h2.78c2.44,0,3.8,1.26,3.8,3.34s-1.36,3.38-3.8,3.38h-4.48V661.88Zm0,8.6h2.54c1.76,0,2.34-.74,2.34-1.9s-.58-1.9-2.34-1.9h-2.54Zm9.9-8.6V672h-1.7V661.88Z"/><path class="cls-3" d="M180.19,672V661.88h1.66v7.8h.4l4.5-7.8h2.44V672h-1.66v-7.8h-.4l-4.58,7.8Zm7.58-14.48a3.12,3.12,0,0,1-6.22,0h1.38a1.73,1.73,0,0,0,3.46,0Z"/><path class="cls-3" d="M198.15,661.88v2.84c0,1,0,2,2.54,2a11.91,11.91,0,0,0,2.52-.26v-4.6h1.72V672h-1.72v-4a15.45,15.45,0,0,1-2.88.28c-3.66,0-3.88-1.74-3.88-3.4v-3Z"/><path class="cls-3" d="M214.13,670.88h-.4a3.94,3.94,0,0,1-3.16,1.34,3.33,3.33,0,0,1-3.64-3.28c0-1.62,1-3.34,3.86-3.34h3.28v-.4c0-1.22-.72-2.1-2.46-2.1-1.48,0-2.26.58-2.34,1.46h-1.7c.12-1.86,1.74-2.94,4-2.94,2.52,0,4.16,1.22,4.16,3.48V672h-1.6Zm-.06-3V667h-3c-1.64,0-2.42.7-2.42,1.88s.86,1.84,2.34,1.84A3,3,0,0,0,214.07,667.92Z"/><path class="cls-3" d="M218.35,672V661.88H220v7.8h.4l4.5-7.8h2.44V672h-1.66v-7.8h-.4l-4.58,7.8Zm7.58-14.48a3.12,3.12,0,0,1-6.22,0h1.38a1.73,1.73,0,0,0,3.46,0Z"/><path class="cls-3" d="M60.77,681.43h3l3.66,6.7h.4l3.6-6.7h3v14.28H72.61V683.47h-.4l-3.72,6.78H66.65l-3.72-6.78h-.4v12.24H60.77Z"/><path class="cls-3" d="M83.75,694.63h-.4A3.94,3.94,0,0,1,80.19,696a3.33,3.33,0,0,1-3.64-3.28c0-1.62,1-3.34,3.86-3.34h3.28V689c0-1.22-.72-2.1-2.46-2.1-1.48,0-2.26.58-2.34,1.46h-1.7c.12-1.86,1.74-2.94,4-2.94,2.52,0,4.16,1.22,4.16,3.48v6.86h-1.6Zm-.06-3v-.9h-3c-1.64,0-2.42.7-2.42,1.88s.86,1.84,2.34,1.84A3,3,0,0,0,83.69,691.67Z"/><path class="cls-3" d="M86.81,685.63h8.68v1.48H92v8.6h-1.7v-8.6h-3.5Z"/><path class="cls-3" d="M98.35,685.63v2.84c0,1,0,2,2.54,2a11.91,11.91,0,0,0,2.52-.26v-4.6h1.72v10.08h-1.72v-4a15.45,15.45,0,0,1-2.88.28c-3.66,0-3.88-1.74-3.88-3.4v-3Z"/><path class="cls-3" d="M114.33,694.63h-.4a3.94,3.94,0,0,1-3.16,1.34,3.33,3.33,0,0,1-3.64-3.28c0-1.62,1-3.34,3.86-3.34h3.28V689c0-1.22-.72-2.1-2.46-2.1-1.48,0-2.26.58-2.34,1.46h-1.7c.12-1.86,1.74-2.94,4-2.94,2.52,0,4.16,1.22,4.16,3.48v6.86h-1.6Zm-.06-3v-.9h-3c-1.64,0-2.42.7-2.42,1.88s.86,1.84,2.34,1.84A3,3,0,0,0,114.27,691.67Z"/><path class="cls-3" d="M130,694.63h-.4a3.94,3.94,0,0,1-3.16,1.34,3.33,3.33,0,0,1-3.64-3.28c0-1.62,1-3.34,3.86-3.34H130V689c0-1.22-.72-2.1-2.46-2.1-1.48,0-2.26.58-2.34,1.46h-1.7c.12-1.86,1.74-2.94,4-2.94,2.52,0,4.16,1.22,4.16,3.48v6.86H130Zm-.06-3v-.9h-3c-1.64,0-2.42.7-2.42,1.88s.86,1.84,2.34,1.84A3,3,0,0,0,130,691.67Z"/><path class="cls-3" d="M141.45,695.71v-8.6H136v8.6h-1.7V685.63h8.9v10.08Z"/><path class="cls-3" d="M154.67,690.65H147c0,2.38,1.14,3.84,3.22,3.84a2.39,2.39,0,0,0,2.56-1.56h1.72c-.34,1.72-1.78,3-4.28,3-3.14,0-4.9-2.32-4.9-5.4s1.8-5.2,4.86-5.2,4.46,2.22,4.5,4.7Zm-7.58-1.42h5.82a2.6,2.6,0,0,0-2.78-2.38A2.85,2.85,0,0,0,147.09,689.23Z"/><path class="cls-3" d="M155.67,694.11H156c1.38,0,2-1,2-4.58v-3.9h7.72v10.08H164v-8.6h-4.42v2.46c0,4.64-1.08,6.14-3.56,6.14h-.34Z"/><path class="cls-3" d="M170.17,689h3c2.44,0,3.8,1.26,3.8,3.34s-1.36,3.38-3.8,3.38h-4.68V685.63h1.7Zm5.08,3.34c0-1.18-.58-1.9-2.34-1.9h-2.74v3.8h2.74C174.67,694.23,175.25,693.49,175.25,692.33Z"/><path class="cls-3" d="M187.39,692.67a4,4,0,0,1-4.24,3.3c-3.14,0-4.9-2.3-4.9-5.3s1.76-5.3,4.9-5.3a3.88,3.88,0,0,1,4.18,3.18h-1.7a2.35,2.35,0,0,0-2.48-1.7c-2.28,0-3.2,1.76-3.2,3.78s.94,3.86,3.2,3.86a2.33,2.33,0,0,0,2.54-1.82Z"/><path class="cls-3" d="M189.43,695.71V685.63h1.66v7.8h.4l4.5-7.8h2.44v10.08h-1.66v-7.8h-.4l-4.58,7.8Z"/><path class="cls-3" d="M208.49,695.71v-4.44h-5.58v4.44h-1.7V685.63h1.7v4.16h5.58v-4.16h1.7v10.08Z"/><path class="cls-3" d="M222.27,690.67c0,3-1.82,5.3-5,5.3s-5-2.3-5-5.3,1.8-5.3,5-5.3S222.27,687.67,222.27,690.67Zm-1.7,0c0-2-1-3.82-3.26-3.82s-3.26,1.86-3.26,3.82,1,3.82,3.26,3.82S220.57,692.65,220.57,690.67Z"/><path class="cls-3" d="M233.17,693c0,1.82-1.28,2.76-3.56,2.76h-5.18V685.63h5.22c2,0,3.18,1,3.18,2.54a2.15,2.15,0,0,1-1.28,2v.4A2.21,2.21,0,0,1,233.17,693Zm-7.06-3.14h3.38c1.22,0,1.64-.64,1.64-1.36s-.42-1.38-1.64-1.38h-3.38Zm5.36,3c0-.84-.5-1.52-2-1.52h-3.4v3h3.4C231,694.27,231.47,693.63,231.47,692.77Z"/><path class="cls-3" d="M241.73,694.63h-.4a3.94,3.94,0,0,1-3.16,1.34,3.33,3.33,0,0,1-3.64-3.28c0-1.62,1-3.34,3.86-3.34h3.28V689c0-1.22-.72-2.1-2.46-2.1-1.48,0-2.26.58-2.34,1.46h-1.7c.12-1.86,1.74-2.94,4-2.94,2.52,0,4.16,1.22,4.16,3.48v6.86h-1.6Zm-.06-3v-.9h-3c-1.64,0-2.42.7-2.42,1.88s.86,1.84,2.34,1.84A3,3,0,0,0,241.67,691.67Z"/><path class="cls-3" d="M254.23,685.63v10.08h-1.72v-4h-3.06c-.22,0-.42,0-.62,0l-1.52,4h-1.78l1.7-4.38a2.71,2.71,0,0,1-1.56-2.64c0-1.9,1.26-3.06,3.54-3.06Zm-4.84,1.44c-1.52,0-2,.62-2,1.64s.5,1.58,2,1.58h3.12v-3.22Z"/><path class="cls-3" d="M70.51,706.78H65.83v12.68H64V706.78H59.31v-1.6h11.2Z"/><path class="cls-3" d="M70.87,723.46V709.38h1.64v1.1h.4A3.81,3.81,0,0,1,76,709.12c2.8,0,4.48,2.3,4.48,5.3s-1.68,5.3-4.48,5.3A3.62,3.62,0,0,1,73,718.36h-.4v5.1Zm1.68-9c0,2,.92,3.82,3.16,3.82,2,0,3.1-1.58,3.1-3.82s-1.06-3.82-3.1-3.82C73.47,710.6,72.55,712.46,72.55,714.42Z"/><path class="cls-3" d="M92,714.42c0,3-1.82,5.3-5,5.3s-5-2.3-5-5.3,1.8-5.3,5-5.3S92,711.42,92,714.42Zm-1.7,0c0-2-1-3.82-3.26-3.82s-3.26,1.86-3.26,3.82,1,3.82,3.26,3.82S90.27,716.4,90.27,714.42Z"/><path class="cls-3" d="M101.33,719.46v-8.6h-5.5v8.6h-1.7V709.38H103v10.08Z"/><path class="cls-3" d="M105.81,719.46V709.38h1.66v7.8h.4l4.5-7.8h2.44v10.08h-1.66v-7.8h-.4l-4.58,7.8Z"/><path class="cls-3" d="M118.71,709.38v2.84c0,1,0,2,2.54,2a11.91,11.91,0,0,0,2.52-.26v-4.6h1.72v10.08h-1.72v-4a15.45,15.45,0,0,1-2.88.28c-3.66,0-3.88-1.74-3.88-3.4v-3Z"/><path class="cls-3" d="M137,714.4h-7.68c0,2.38,1.14,3.84,3.22,3.84a2.39,2.39,0,0,0,2.56-1.56h1.72c-.34,1.72-1.78,3-4.28,3-3.14,0-4.9-2.32-4.9-5.4s1.8-5.2,4.86-5.2,4.46,2.22,4.5,4.7ZM129.43,713h5.82a2.6,2.6,0,0,0-2.78-2.38A2.85,2.85,0,0,0,129.43,713Z"/><path class="cls-3" d="M147.67,716.42a4,4,0,0,1-4.24,3.3c-3.14,0-4.9-2.3-4.9-5.3s1.76-5.3,4.9-5.3a3.88,3.88,0,0,1,4.18,3.18h-1.7a2.35,2.35,0,0,0-2.48-1.7c-2.28,0-3.2,1.76-3.2,3.78s.94,3.86,3.2,3.86a2.33,2.33,0,0,0,2.54-1.82Z"/><path class="cls-3" d="M154.33,715h-2.92v4.44h-1.7V709.38h1.7v4.16h3l2.2-4.16h1.78l-2.56,4.86,2.7,5.22h-1.82Z"/><path class="cls-3" d="M160.41,719.46V709.38h1.66v7.8h.4l4.5-7.8h2.44v10.08h-1.66v-7.8h-.4l-4.58,7.8Z"/><path class="cls-3" d="M172.19,719.46V709.38h1.66v7.8h.4l4.5-7.8h2.44v10.08h-1.66v-7.8h-.4l-4.58,7.8ZM179.77,705a3.12,3.12,0,0,1-6.22,0h1.38a1.73,1.73,0,0,0,3.46,0Z"/><path class="cls-3" d="M191.13,705.18v14.28h-1.8V705.18Z"/><path class="cls-3" d="M205.93,715.4a5.39,5.39,0,0,1-5.66,4.32c-4.24,0-6.6-3.16-6.6-7.4s2.38-7.4,6.62-7.4c2.88,0,4.92,1.56,5.48,4h-1.9a3.36,3.36,0,0,0-3.58-2.36c-3.32,0-4.8,2.74-4.8,5.76s1.46,5.76,4.78,5.76A3.6,3.6,0,0,0,204,715.4Z"/><path class="cls-3" d="M218.51,717.82v1.64H208.25V705.18h9.94v1.64h-8.14v4.42h6.56v1.64h-6.56v4.94Z"/><path class="cls-3" d="M219.79,714.66v-1.5h5.46v1.5Z"/><path class="cls-3" d="M225.83,717.86h.34c1.38,0,2-1,2-4.58v-3.9h7.72v10.08h-1.72v-8.6h-4.42v2.46c0,4.64-1.08,6.14-3.56,6.14h-.34Z"/><path class="cls-3" d="M245.05,718.38h-.4a3.94,3.94,0,0,1-3.16,1.34,3.33,3.33,0,0,1-3.64-3.28c0-1.62,1-3.34,3.86-3.34H245v-.4c0-1.22-.72-2.1-2.46-2.1-1.48,0-2.26.58-2.34,1.46h-1.7c.12-1.86,1.74-2.94,4-2.94,2.52,0,4.16,1.22,4.16,3.48v6.86h-1.6Zm-.06-3v-.9h-3c-1.64,0-2.42.7-2.42,1.88s.86,1.84,2.34,1.84A3,3,0,0,0,245,715.42Z"/><path class="cls-3" d="M248.11,709.38h8.68v1.48h-3.48v8.6h-1.7v-8.6h-3.5Z"/><path class="cls-3" d="M258.09,709.38h8.68v1.48h-3.48v8.6h-1.7v-8.6h-3.5Z"/><path class="cls-3" d="M277.09,714.4h-7.68c0,2.38,1.14,3.84,3.22,3.84a2.39,2.39,0,0,0,2.56-1.56h1.72c-.34,1.72-1.78,3-4.28,3-3.14,0-4.9-2.32-4.9-5.4s1.8-5.2,4.86-5.2,4.46,2.22,4.5,4.7ZM269.51,713h5.82a2.6,2.6,0,0,0-2.78-2.38A2.85,2.85,0,0,0,269.51,713Z"/><path class="cls-5" d="M414.12,81.53h3.55V70.21h-.39l-3.18,2.11v-2l3.16-2.12h2.29V81.53h3.27v1.66h-8.7Z"/><path class="cls-5" d="M434.73,78.32a4.88,4.88,0,0,1-5.08,5.15c-3.18,0-5.49-2-5.49-7.35,0-4.57,1.77-8.18,5.68-8.18a4.26,4.26,0,0,1,4.49,3.57h-1.86a2.43,2.43,0,0,0-2.63-1.9c-2.37,0-3.76,2-3.86,5.32h.42a4.57,4.57,0,0,1,3.53-1.48A4.68,4.68,0,0,1,434.73,78.32Zm-1.88.09a3.26,3.26,0,1,0-6.51,0,3.17,3.17,0,0,0,3.29,3.42A3.09,3.09,0,0,0,432.85,78.41Z"/><path class="cls-5" d="M435.93,73.09A4.88,4.88,0,0,1,441,67.94c3.19,0,5.49,2,5.49,7.35,0,4.57-1.77,8.18-5.68,8.18a4.27,4.27,0,0,1-4.49-3.57h1.86a2.46,2.46,0,0,0,2.63,1.91c2.37,0,3.76-2,3.87-5.32h-.43A4.55,4.55,0,0,1,440.73,78,4.68,4.68,0,0,1,435.93,73.09Zm1.88-.08a3.26,3.26,0,1,0,6.51,0A3.17,3.17,0,0,0,441,69.61,3.08,3.08,0,0,0,437.81,73Z"/><path class="cls-5" d="M414.12,105.35h3.55V94h-.39l-3.18,2.12v-2l3.16-2.12h2.29v13.29h3.27V107h-8.7Z"/><path class="cls-5" d="M434.73,102.15a4.88,4.88,0,0,1-5.08,5.15c-3.18,0-5.49-2-5.49-7.35,0-4.57,1.77-8.18,5.68-8.18a4.25,4.25,0,0,1,4.49,3.56h-1.86a2.43,2.43,0,0,0-2.63-1.9c-2.37,0-3.76,2-3.86,5.32h.42a4.57,4.57,0,0,1,3.53-1.47A4.68,4.68,0,0,1,434.73,102.15Zm-1.88.08a3.26,3.26,0,1,0-6.51,0,3.17,3.17,0,0,0,3.29,3.42A3.09,3.09,0,0,0,432.85,102.23Z"/><path class="cls-5" d="M435.93,96.91A4.87,4.87,0,0,1,441,91.77c3.19,0,5.49,2,5.49,7.34,0,4.58-1.77,8.19-5.68,8.19a4.27,4.27,0,0,1-4.49-3.57h1.86a2.45,2.45,0,0,0,2.63,1.9c2.37,0,3.76-2,3.87-5.32h-.43a4.55,4.55,0,0,1-3.53,1.47A4.68,4.68,0,0,1,435.93,96.91Zm1.88-.08a3.26,3.26,0,1,0,6.51,0A3.17,3.17,0,0,0,441,93.43,3.09,3.09,0,0,0,437.81,96.83Z"/><path class="cls-6" d="M414.12,129.18h3.55V117.85h-.39L414.1,120v-2l3.16-2.11h2.29v13.29h3.27v1.66h-8.7Z"/><path class="cls-6" d="M434.73,126a4.88,4.88,0,0,1-5.08,5.15c-3.18,0-5.49-2-5.49-7.35,0-4.57,1.77-8.18,5.68-8.18a4.26,4.26,0,0,1,4.49,3.57h-1.86a2.43,2.43,0,0,0-2.63-1.9c-2.37,0-3.76,2-3.86,5.31h.42a4.57,4.57,0,0,1,3.53-1.47A4.68,4.68,0,0,1,434.73,126Zm-1.88.09a3.26,3.26,0,1,0-6.51,0,3.17,3.17,0,0,0,3.29,3.42A3.08,3.08,0,0,0,432.85,126.06Z"/><path class="cls-6" d="M435.93,120.74a4.88,4.88,0,0,1,5.08-5.15c3.19,0,5.49,2,5.49,7.35,0,4.57-1.77,8.18-5.68,8.18a4.27,4.27,0,0,1-4.49-3.57h1.86a2.45,2.45,0,0,0,2.63,1.9c2.37,0,3.76-2,3.87-5.32h-.43a4.55,4.55,0,0,1-3.53,1.48A4.68,4.68,0,0,1,435.93,120.74Zm1.88-.09a3.26,3.26,0,1,0,6.51,0,3.17,3.17,0,0,0-3.29-3.41A3.08,3.08,0,0,0,437.81,120.65Z"/><path class="cls-5" d="M414.12,153h3.55V141.68h-.39l-3.18,2.11v-2l3.16-2.11h2.29V153h3.27v1.66h-8.7Z"/><path class="cls-5" d="M434.73,149.79a4.88,4.88,0,0,1-5.08,5.15c-3.18,0-5.49-2-5.49-7.35,0-4.57,1.77-8.18,5.68-8.18a4.26,4.26,0,0,1,4.49,3.57h-1.86a2.43,2.43,0,0,0-2.63-1.9c-2.37,0-3.76,2-3.86,5.32h.42a4.57,4.57,0,0,1,3.53-1.48A4.68,4.68,0,0,1,434.73,149.79Zm-1.88.09a3.26,3.26,0,1,0-6.51,0,3.17,3.17,0,0,0,3.29,3.41A3.08,3.08,0,0,0,432.85,149.88Z"/><path class="cls-5" d="M435.93,144.56a4.88,4.88,0,0,1,5.08-5.15c3.19,0,5.49,2,5.49,7.35,0,4.57-1.77,8.18-5.68,8.18a4.27,4.27,0,0,1-4.49-3.57h1.86a2.45,2.45,0,0,0,2.63,1.9c2.37,0,3.76-2.05,3.87-5.31h-.43a4.55,4.55,0,0,1-3.53,1.47A4.68,4.68,0,0,1,435.93,144.56Zm1.88-.09a3.26,3.26,0,1,0,6.51,0,3.17,3.17,0,0,0-3.29-3.42A3.08,3.08,0,0,0,437.81,144.47Z"/><path class="cls-5" d="M414.12,176.82h3.55V165.5h-.39l-3.18,2.11v-2l3.16-2.12h2.29v13.29h3.27v1.67h-8.7Z"/><path class="cls-5" d="M434.73,173.62a4.87,4.87,0,0,1-5.08,5.14c-3.18,0-5.49-2-5.49-7.34,0-4.58,1.77-8.19,5.68-8.19a4.26,4.26,0,0,1,4.49,3.57h-1.86a2.43,2.43,0,0,0-2.63-1.9c-2.37,0-3.76,2-3.86,5.32h.42a4.57,4.57,0,0,1,3.53-1.47A4.68,4.68,0,0,1,434.73,173.62Zm-1.88.08a3.26,3.26,0,1,0-6.51,0,3.17,3.17,0,0,0,3.29,3.42A3.09,3.09,0,0,0,432.85,173.7Z"/><path class="cls-5" d="M435.93,168.38a4.88,4.88,0,0,1,5.08-5.15c3.19,0,5.49,2,5.49,7.35,0,4.57-1.77,8.18-5.68,8.18a4.27,4.27,0,0,1-4.49-3.56h1.86a2.45,2.45,0,0,0,2.63,1.9c2.37,0,3.76-2,3.87-5.32h-.43a4.55,4.55,0,0,1-3.53,1.47A4.68,4.68,0,0,1,435.93,168.38Zm1.88-.08a3.26,3.26,0,1,0,6.51,0A3.17,3.17,0,0,0,441,164.9,3.09,3.09,0,0,0,437.81,168.3Z"/><path class="cls-5" d="M466.92,812.79h-2l6.49-12.91v-.42h-7.58v-1.63h9.52v2Z"/><path class="cls-5" d="M474.63,802.68a4.89,4.89,0,0,1,5.09-5.15c3.18,0,5.49,2,5.49,7.35,0,4.57-1.78,8.18-5.69,8.18A4.25,4.25,0,0,1,475,809.5h1.86a2.43,2.43,0,0,0,2.62,1.9c2.37,0,3.76-2,3.87-5.32H483a4.54,4.54,0,0,1-3.52,1.47A4.69,4.69,0,0,1,474.63,802.68Zm1.88-.08a3.26,3.26,0,1,0,6.52,0,3.18,3.18,0,0,0-3.29-3.42A3.09,3.09,0,0,0,476.51,802.6Z"/><path class="cls-5" d="M464.08,834.94h3.55V823.62h-.39l-3.18,2.12v-2l3.16-2.11h2.29v13.28h3.27v1.67h-8.7Z"/><path class="cls-5" d="M483.37,821.66v2.05L479.63,827v.4a4.26,4.26,0,0,1,4.44,4.55c0,3.1-2.22,4.94-5.27,4.94s-5.09-1.92-5.24-4.47h1.88a3.4,3.4,0,0,0,6.75-.47c0-1.94-1.19-3.18-3.37-3.18a5.43,5.43,0,0,0-1.3.13V827l3.65-3.24v-.43h-6.54v-1.62Z"/><path class="cls-5" d="M485.38,826.51a4.88,4.88,0,0,1,5.08-5.15c3.18,0,5.49,2,5.49,7.35,0,4.57-1.77,8.18-5.68,8.18a4.26,4.26,0,0,1-4.49-3.57h1.86a2.43,2.43,0,0,0,2.63,1.9c2.37,0,3.76-2.05,3.86-5.32h-.42a4.57,4.57,0,0,1-3.53,1.48A4.68,4.68,0,0,1,485.38,826.51Zm1.88-.09a3.26,3.26,0,1,0,6.51,0,3.17,3.17,0,0,0-3.29-3.42A3.09,3.09,0,0,0,487.26,826.42Z"/><path class="cls-5" d="M464.08,858.77h3.55V847.44h-.39l-3.18,2.12v-2l3.16-2.11h2.29v13.29h3.27v1.66h-8.7Z"/><path class="cls-5" d="M483.37,845.48v2l-3.74,3.29v.41a4.25,4.25,0,0,1,4.44,4.55c0,3.09-2.22,4.93-5.27,4.93s-5.09-1.92-5.24-4.46h1.88a3.4,3.4,0,0,0,6.75-.47c0-1.95-1.19-3.19-3.37-3.19a6,6,0,0,0-1.3.13v-1.94l3.65-3.25v-.43h-6.54v-1.62Z"/><path class="cls-5" d="M485.38,850.33a4.88,4.88,0,0,1,5.08-5.15c3.18,0,5.49,2,5.49,7.35,0,4.57-1.77,8.18-5.68,8.18a4.26,4.26,0,0,1-4.49-3.57h1.86a2.43,2.43,0,0,0,2.63,1.9c2.37,0,3.76-2,3.86-5.31h-.42a4.57,4.57,0,0,1-3.53,1.47A4.68,4.68,0,0,1,485.38,850.33Zm1.88-.09a3.26,3.26,0,1,0,6.51,0,3.17,3.17,0,0,0-3.29-3.42A3.08,3.08,0,0,0,487.26,850.24Z"/><path class="cls-6" d="M464.08,882.59h3.55V871.27h-.39l-3.18,2.11v-2l3.16-2.12h2.29v13.29h3.27v1.67h-8.7Z"/><path class="cls-6" d="M484.69,879.38a4.88,4.88,0,0,1-5.08,5.15c-3.18,0-5.49-2-5.49-7.35,0-4.57,1.77-8.18,5.68-8.18a4.27,4.27,0,0,1,4.49,3.57h-1.86a2.44,2.44,0,0,0-2.63-1.9c-2.37,0-3.76,2.05-3.87,5.32h.43a4.57,4.57,0,0,1,3.53-1.48A4.68,4.68,0,0,1,484.69,879.38Zm-1.88.09a3.26,3.26,0,1,0-6.51,0,3.17,3.17,0,0,0,3.29,3.42A3.09,3.09,0,0,0,482.81,879.47Z"/><path class="cls-6" d="M485.89,874.15A4.88,4.88,0,0,1,491,869c3.18,0,5.49,2,5.49,7.35,0,4.57-1.77,8.18-5.68,8.18a4.27,4.27,0,0,1-4.49-3.56h1.86a2.45,2.45,0,0,0,2.63,1.9c2.37,0,3.76-2,3.87-5.32h-.43a4.57,4.57,0,0,1-3.53,1.47A4.68,4.68,0,0,1,485.89,874.15Zm1.88-.08a3.26,3.26,0,1,0,6.51,0,3.17,3.17,0,0,0-3.29-3.42A3.08,3.08,0,0,0,487.77,874.07Z"/><path class="cls-5" d="M464.08,906.41h3.55V895.09h-.39l-3.18,2.12v-2l3.16-2.12h2.29v13.29h3.27v1.67h-8.7Z"/><path class="cls-5" d="M483.37,893.12v2.06l-3.74,3.29v.4a4.26,4.26,0,0,1,4.44,4.55c0,3.1-2.22,4.94-5.27,4.94s-5.09-1.93-5.24-4.47h1.88a3.4,3.4,0,0,0,6.75-.47c0-1.94-1.19-3.18-3.37-3.18a5.43,5.43,0,0,0-1.3.13v-2l3.65-3.24v-.43h-6.54v-1.63Z"/><path class="cls-5" d="M485.38,898a4.87,4.87,0,0,1,5.08-5.14c3.18,0,5.49,2,5.49,7.34,0,4.58-1.77,8.19-5.68,8.19a4.26,4.26,0,0,1-4.49-3.57h1.86a2.43,2.43,0,0,0,2.63,1.9c2.37,0,3.76-2.05,3.86-5.32h-.42a4.57,4.57,0,0,1-3.53,1.48A4.69,4.69,0,0,1,485.38,898Zm1.88-.08a3.26,3.26,0,1,0,6.51,0,3.17,3.17,0,0,0-3.29-3.42A3.09,3.09,0,0,0,487.26,897.89Z"/><path class="cls-5" d="M466.92,551.9h-2l6.49-12.9v-.43h-7.58V537h9.52v2Z"/><path class="cls-5" d="M474.63,541.8a4.89,4.89,0,0,1,5.09-5.15c3.18,0,5.49,2,5.49,7.35,0,4.57-1.78,8.18-5.69,8.18a4.26,4.26,0,0,1-4.48-3.57h1.86a2.44,2.44,0,0,0,2.62,1.91c2.37,0,3.76-2.06,3.87-5.32H483a4.54,4.54,0,0,1-3.52,1.47A4.69,4.69,0,0,1,474.63,541.8Zm1.88-.09a3.26,3.26,0,1,0,6.52,0,3.18,3.18,0,0,0-3.29-3.42A3.08,3.08,0,0,0,476.51,541.71Z"/><path class="cls-5" d="M468.91,560.47c2.78,0,4.85,1.56,4.85,4.55,0,2-1.54,4-3.31,5.43l-3.74,3.18v.43h7.54v1.67H464v-2.1s4-3.27,5.58-4.7c1-.89,2.33-2.15,2.33-3.91a2.71,2.71,0,0,0-3-2.88,2.83,2.83,0,0,0-3.06,2.76h-1.88C464.12,561.91,466.24,560.47,468.91,560.47Z"/><path class="cls-5" d="M486.64,568.25c0,5.38-2.35,7.75-5.51,7.75s-5.49-2.37-5.49-7.75,2.32-7.78,5.49-7.78S486.64,562.87,486.64,568.25Zm-1.88,0c0-3.72-1.14-6.11-3.63-6.11s-3.62,2.39-3.62,6.11,1.14,6.09,3.62,6.09S484.76,572,484.76,568.25Z"/><path class="cls-5" d="M487.94,565.62a4.88,4.88,0,0,1,5.08-5.15c3.19,0,5.49,2,5.49,7.35,0,4.57-1.77,8.18-5.68,8.18a4.27,4.27,0,0,1-4.49-3.56h1.86a2.45,2.45,0,0,0,2.63,1.9c2.37,0,3.76-2.05,3.87-5.32h-.43a4.54,4.54,0,0,1-3.52,1.47A4.69,4.69,0,0,1,487.94,565.62Zm1.88-.08a3.26,3.26,0,1,0,6.51,0,3.17,3.17,0,0,0-3.29-3.42A3.09,3.09,0,0,0,489.82,565.54Z"/><path class="cls-5" d="M468.91,584.3c2.78,0,4.85,1.56,4.85,4.55,0,2-1.54,3.95-3.31,5.42l-3.74,3.19v.42h7.54v1.67H464v-2.09s4-3.27,5.58-4.7c1-.9,2.33-2.16,2.33-3.91a2.71,2.71,0,0,0-3-2.89,2.83,2.83,0,0,0-3.06,2.76h-1.88C464.12,585.73,466.24,584.3,468.91,584.3Z"/><path class="cls-5" d="M486.57,594.38v1.67h-2.05v3.5h-1.84v-3.5h-7.39V594l6.65-9.35h2.58v9.78Zm-3.86,0v-7.67h-.43l-5,7.24v.43Z"/><path class="cls-5" d="M487.66,589.45a4.88,4.88,0,0,1,5.08-5.15c3.19,0,5.49,2,5.49,7.35,0,4.57-1.77,8.18-5.68,8.18a4.26,4.26,0,0,1-4.48-3.57h1.85a2.45,2.45,0,0,0,2.63,1.9c2.37,0,3.76-2,3.87-5.32H496a4.54,4.54,0,0,1-3.52,1.48A4.69,4.69,0,0,1,487.66,589.45Zm1.88-.09a3.26,3.26,0,1,0,6.52,0,3.18,3.18,0,0,0-3.29-3.42A3.09,3.09,0,0,0,489.54,589.36Z"/><path class="cls-6" d="M464.08,621.71h3.55V610.38h-.39l-3.18,2.12v-2l3.16-2.11h2.29v13.29h3.27v1.66h-8.7Z"/><path class="cls-6" d="M479.84,608.12c2.78,0,4.85,1.56,4.85,4.55,0,2-1.53,4-3.31,5.43l-3.74,3.18v.43h7.54v1.66H474.91v-2.09s4-3.27,5.58-4.7c1-.9,2.32-2.16,2.32-3.91a2.7,2.7,0,0,0-3-2.88,2.82,2.82,0,0,0-3.05,2.75h-1.88C475.06,609.55,477.17,608.12,479.84,608.12Z"/><path class="cls-6" d="M487.28,613.27a4.88,4.88,0,0,1,5.08-5.15c3.18,0,5.49,2,5.49,7.35,0,4.57-1.77,8.18-5.68,8.18a4.27,4.27,0,0,1-4.49-3.57h1.86a2.44,2.44,0,0,0,2.63,1.9c2.37,0,3.76-2.05,3.86-5.32h-.42a4.53,4.53,0,0,1-3.53,1.48A4.68,4.68,0,0,1,487.28,613.27Zm1.88-.09a3.26,3.26,0,1,0,6.51,0,3.17,3.17,0,0,0-3.29-3.41A3.08,3.08,0,0,0,489.16,613.18Z"/><path class="cls-5" d="M464.08,645.53h3.55V634.21h-.39l-3.18,2.11v-2l3.16-2.12h2.29v13.29h3.27v1.67h-8.7Z"/><path class="cls-5" d="M479.84,631.94c2.78,0,4.85,1.56,4.85,4.55,0,2-1.53,4-3.31,5.43l-3.74,3.18v.43h7.54v1.67H474.91v-2.1s4-3.27,5.58-4.7c1-.89,2.32-2.16,2.32-3.91a2.7,2.7,0,0,0-3-2.88,2.82,2.82,0,0,0-3.05,2.75h-1.88C475.06,633.37,477.17,631.94,479.84,631.94Z"/><path class="cls-5" d="M487.28,637.09a4.88,4.88,0,0,1,5.08-5.15c3.18,0,5.49,2,5.49,7.35,0,4.57-1.77,8.18-5.68,8.18a4.27,4.27,0,0,1-4.49-3.56h1.86a2.44,2.44,0,0,0,2.63,1.9c2.37,0,3.76-2,3.86-5.32h-.42a4.57,4.57,0,0,1-3.53,1.47A4.68,4.68,0,0,1,487.28,637.09Zm1.88-.08a3.26,3.26,0,1,0,6.51,0,3.17,3.17,0,0,0-3.29-3.42A3.08,3.08,0,0,0,489.16,637Z"/><path class="cls-5" d="M464.08,669.35h3.55V658h-.39l-3.18,2.12v-2l3.16-2.11h2.29v13.28h3.27V671h-8.7Z"/><path class="cls-5" d="M479.5,655.77c2.78,0,4.85,1.56,4.85,4.55,0,2-1.54,3.95-3.31,5.42l-3.74,3.19v.42h7.54V671H474.57v-2.09s4-3.27,5.57-4.7c1-.9,2.33-2.16,2.33-3.91a2.71,2.71,0,0,0-3-2.89,2.82,2.82,0,0,0-3,2.76h-1.89C474.72,657.2,476.83,655.77,479.5,655.77Z"/><path class="cls-5" d="M486.59,660.91a4.88,4.88,0,0,1,5.09-5.14c3.18,0,5.49,2,5.49,7.34,0,4.58-1.78,8.19-5.69,8.19a4.26,4.26,0,0,1-4.48-3.57h1.86a2.43,2.43,0,0,0,2.62,1.9c2.38,0,3.76-2,3.87-5.32h-.43a4.52,4.52,0,0,1-3.52,1.48A4.69,4.69,0,0,1,486.59,660.91Zm1.88-.08a3.26,3.26,0,1,0,6.52,0,3.17,3.17,0,0,0-3.29-3.42A3.09,3.09,0,0,0,488.47,660.83Z"/><path class="cls-5" d="M464.08,693.18h3.55V681.85h-.39L464.06,684v-2l3.16-2.11h2.29v13.29h3.27v1.66h-8.7Z"/><path class="cls-5" d="M485.51,690a4.89,4.89,0,0,1-5.09,5.15c-3.18,0-5.49-2-5.49-7.35,0-4.57,1.77-8.18,5.68-8.18a4.26,4.26,0,0,1,4.49,3.57h-1.86a2.43,2.43,0,0,0-2.63-1.9c-2.37,0-3.76,2-3.86,5.31h.42a4.57,4.57,0,0,1,3.53-1.47A4.69,4.69,0,0,1,485.51,690Zm-1.88.09a3.26,3.26,0,1,0-6.52,0,3.17,3.17,0,0,0,3.29,3.41A3.08,3.08,0,0,0,483.63,690.06Z"/><path class="cls-5" d="M487.51,684.74a4.88,4.88,0,0,1,5.08-5.15c3.19,0,5.5,2,5.5,7.35,0,4.57-1.78,8.18-5.69,8.18a4.26,4.26,0,0,1-4.48-3.57h1.85a2.45,2.45,0,0,0,2.63,1.9c2.37,0,3.76-2.05,3.87-5.32h-.43a4.54,4.54,0,0,1-3.52,1.48A4.69,4.69,0,0,1,487.51,684.74Zm1.88-.09a3.26,3.26,0,1,0,6.52,0,3.17,3.17,0,0,0-3.29-3.41A3.08,3.08,0,0,0,489.39,684.65Z"/><path class="cls-5" d="M464.08,717h3.55V705.68h-.39l-3.18,2.11v-2l3.16-2.12h2.29V717h3.27v1.66h-8.7Z"/><path class="cls-5" d="M474.68,708.56a4.88,4.88,0,0,1,5.08-5.15c3.18,0,5.49,2,5.49,7.35,0,4.57-1.77,8.18-5.68,8.18a4.26,4.26,0,0,1-4.49-3.57h1.86a2.44,2.44,0,0,0,2.63,1.91c2.37,0,3.76-2,3.86-5.32H483a4.57,4.57,0,0,1-3.53,1.47A4.68,4.68,0,0,1,474.68,708.56Zm1.87-.08a3.26,3.26,0,1,0,6.52,0,3.17,3.17,0,0,0-3.29-3.42A3.09,3.09,0,0,0,476.55,708.48Z"/><path class="cls-5" d="M487.51,708.56a4.88,4.88,0,0,1,5.08-5.15c3.19,0,5.5,2,5.5,7.35,0,4.57-1.78,8.18-5.69,8.18a4.26,4.26,0,0,1-4.48-3.57h1.85a2.46,2.46,0,0,0,2.63,1.91c2.37,0,3.76-2,3.87-5.32h-.43a4.54,4.54,0,0,1-3.52,1.47A4.69,4.69,0,0,1,487.51,708.56Zm1.88-.08a3.26,3.26,0,1,0,6.52,0,3.18,3.18,0,0,0-3.29-3.42A3.09,3.09,0,0,0,489.39,708.48Z"/><path class="cls-3" d="M185.29,33.4a3.77,3.77,0,0,1-4,3c-3,0-4.62-2.21-4.62-5.18s1.67-5.18,4.64-5.18a3.66,3.66,0,0,1,3.84,2.8h-1.33a2.37,2.37,0,0,0-2.51-1.65c-2.33,0-3.36,1.92-3.36,4s1,4,3.34,4A2.52,2.52,0,0,0,184,33.4Z"/><path class="cls-3" d="M188,29.18v2.36h1.95c1.71,0,2.66.88,2.66,2.34s-1,2.36-2.66,2.36h-3.14V29.18Zm0,6h1.78c1.23,0,1.64-.52,1.64-1.33s-.41-1.34-1.64-1.34H188Zm6.94-6v7.06h-1.19V29.18Z"/><path class="cls-3" d="M196.85,39V29.18H198V30h.28a2.66,2.66,0,0,1,2.18-.95c2,0,3.14,1.61,3.14,3.71s-1.18,3.71-3.14,3.71a2.52,2.52,0,0,1-2.14-1H198V39ZM198,32.71c0,1.39.65,2.68,2.22,2.68s2.17-1.11,2.17-2.68S201.67,30,200.24,30,198,31.34,198,32.71Z"/><path class="cls-3" d="M210.21,36.24V33.13H206.3v3.11h-1.19V29.18h1.19V32.1h3.91V29.18h1.19v7.06Z"/><path class="cls-3" d="M214.53,29.18v2.36h1.95c1.71,0,2.66.88,2.66,2.34s-.95,2.36-2.66,2.36h-3.14V29.18Zm0,6h1.78c1.23,0,1.64-.52,1.64-1.33s-.41-1.34-1.64-1.34h-1.78Zm6.93-6v7.06h-1.19V29.18Z"/><path class="cls-3" d="M223.41,36.24V29.18h1.16v5.47h.28L228,29.18h1.71v7.06h-1.16V30.78h-.28l-3.21,5.46Zm5.3-10.14a2.18,2.18,0,0,1-4.35,0h1a1.22,1.22,0,0,0,2.43,0Z"/><path class="cls-3" d="M238.43,33.13h-2.05v3.11h-1.19V29.18h1.19V32.1h2.08L240,29.18h1.24l-1.79,3.41,1.89,3.65h-1.27Z"/><path class="cls-3" d="M242.68,39V29.18h1.15V30h.28A2.67,2.67,0,0,1,246.3,29c2,0,3.14,1.61,3.14,3.71s-1.18,3.71-3.14,3.71a2.54,2.54,0,0,1-2.15-1h-.28V39Zm1.18-6.33c0,1.39.64,2.68,2.21,2.68s2.17-1.11,2.17-2.68S247.5,30,246.07,30,243.86,31.34,243.86,32.71Z"/><path class="cls-3" d="M257.06,32.7h-5.37c0,1.67.79,2.69,2.25,2.69a1.67,1.67,0,0,0,1.79-1.09h1.21a2.75,2.75,0,0,1-3,2.12c-2.2,0-3.43-1.62-3.43-3.78s1.26-3.64,3.4-3.64a3.07,3.07,0,0,1,3.15,3.29Zm-5.3-1h4.07A1.81,1.81,0,0,0,253.89,30,2,2,0,0,0,251.76,31.7Z"/><path class="cls-3" d="M258.56,29.18h1.86l1.78,3.36h.28l1.78-3.36h1.84v7.06h-1.17V30.57h-.28L263,33.73h-1.29L260,30.57h-.28v5.67h-1.16Z"/><path class="cls-3" d="M180.19,43.71h1v3h3.06v1h-3.06v3h-1v-3h-3v-1h3Z"/><path class="cls-3" d="M195.51,41.44v1.34l-2.45,2.16v.27a2.78,2.78,0,0,1,2.91,3,3.47,3.47,0,0,1-6.89.31h1.23a2.23,2.23,0,0,0,4.43-.31,2,2,0,0,0-2.22-2.09,3.46,3.46,0,0,0-.85.09V44.91l2.39-2.13V42.5h-4.28V41.44Z"/><path class="cls-3" d="M203.88,47.92a3.24,3.24,0,0,1-3.36,3.5,3.08,3.08,0,0,1-3.42-2.92h1.22a2,2,0,0,0,2.14,1.83A2.13,2.13,0,0,0,202.65,48a2.1,2.1,0,0,0-2.15-2.3,2.2,2.2,0,0,0-1.94.93h-1.24l.44-5.17h5.6V42.5h-4.61l-.22,2.85h.28a2.59,2.59,0,0,1,1.9-.7A3.08,3.08,0,0,1,203.88,47.92Z"/><path class="cls-3" d="M205.42,54V44.18h1.14V45h.28A2.68,2.68,0,0,1,209,44c2,0,3.14,1.61,3.14,3.71S211,51.42,209,51.42a2.51,2.51,0,0,1-2.14-1h-.28V54Zm1.17-6.33c0,1.39.65,2.68,2.22,2.68,1.42,0,2.17-1.11,2.17-2.68S210.23,45,208.81,45C207.24,45,206.59,46.34,206.59,47.71Z"/><path class="cls-7" d="M188,146.89a2.85,2.85,0,0,0-.29,0,4.14,4.14,0,0,0-7.72,0,3,3,0,0,0-.43,0,3.19,3.19,0,1,0,0,6.38H188a3.19,3.19,0,1,0,0-6.38Z"/><line class="cls-8" x1="0.09" y1="192.89" x2="536.24" y2="192.89"/><line class="cls-8" x1="0.09" y1="737.83" x2="536.24" y2="737.83"/><path class="cls-2" d="M36.15,497.45v6.32c0,2.17,0,4.44,5.58,4.44a23.57,23.57,0,0,0,5.3-.62V497.45h2.79v22.14H47v-9.43a29.2,29.2,0,0,1-5.64.59c-7.72,0-8-3.57-8-7v-6.32Z"/><path class="cls-2" d="M67.18,512.8h-9.7l-2.3,6.79H52.33L60,497.45H64.7l7.69,22.14H69.48Zm-8.86-2.55h8l-3.38-9.95H61.69Z"/><path class="cls-2" d="M77.63,497.45v18.76h.62l10.42-18.76H93v22.14H90.25V500.83h-.62L79.21,519.59H74.9V497.45Zm11.72-5.89c-.06,3.07-2.36,4.8-5.43,4.8s-5.3-1.73-5.36-4.8h2.26a2.83,2.83,0,0,0,3.1,2.79,2.86,2.86,0,0,0,3.16-2.79Z"/><line class="cls-8" x1="-0.13" y1="476.94" x2="536.01" y2="476.94"/><path class="cls-5" d="M469.1,67.45C471.88,67.45,474,69,474,72c0,2-1.54,4-3.31,5.43l-3.74,3.18V81h7.54v1.67H464.17v-2.1s4-3.27,5.57-4.7c1-.89,2.33-2.16,2.33-3.91a2.71,2.71,0,0,0-3-2.88A2.83,2.83,0,0,0,466,71.87h-1.88C464.32,68.88,466.43,67.45,469.1,67.45Z"/><path class="cls-5" d="M478.9,82.71h-2l6.49-12.91v-.42h-7.58V67.75h9.53v2Z"/><path class="cls-5" d="M497.79,78.63c0,2.47-2.12,4.35-5.41,4.35S487,81.1,487,78.63A3.78,3.78,0,0,1,489.33,75v-.43a3.47,3.47,0,0,1-1.9-3.16c0-2.37,2.05-4,4.95-4s5,1.63,5,4a3.56,3.56,0,0,1-1.9,3.16V75A3.82,3.82,0,0,1,497.79,78.63Zm-1.86-.18c0-1.75-1.37-2.82-3.55-2.82s-3.54,1.07-3.54,2.82,1.36,2.87,3.54,2.87S495.93,80.19,495.93,78.45Zm-6.67-6.92c0,1.61,1.43,2.48,3.12,2.48s3.12-.87,3.12-2.48-1.43-2.45-3.12-2.45S489.26,69.93,489.26,71.53Z"/><path class="cls-5" d="M469.1,91.28c2.78,0,4.85,1.56,4.85,4.55,0,2-1.54,4-3.31,5.42l-3.74,3.19v.42h7.54v1.67H464.17v-2.09s4-3.27,5.57-4.7c1-.9,2.33-2.16,2.33-3.91a2.71,2.71,0,0,0-3-2.89A2.83,2.83,0,0,0,466,95.7h-1.88C464.32,92.71,466.43,91.28,469.1,91.28Z"/><path class="cls-5" d="M478.9,106.53h-2l6.49-12.9V93.2h-7.58V91.57h9.53v2.06Z"/><path class="cls-5" d="M497.79,102.45c0,2.48-2.12,4.36-5.41,4.36s-5.4-1.88-5.4-4.36a3.78,3.78,0,0,1,2.35-3.59v-.43a3.47,3.47,0,0,1-1.9-3.16c0-2.37,2.05-4,4.95-4s5,1.62,5,4a3.56,3.56,0,0,1-1.9,3.16v.43A3.82,3.82,0,0,1,497.79,102.45Zm-1.86-.17c0-1.75-1.37-2.82-3.55-2.82s-3.54,1.07-3.54,2.82,1.36,2.86,3.54,2.86S495.93,104,495.93,102.28Zm-6.67-6.92c0,1.6,1.43,2.47,3.12,2.47s3.12-.87,3.12-2.47-1.43-2.46-3.12-2.46S489.26,93.75,489.26,95.36Z"/><path class="cls-6" d="M469.1,115.1c2.78,0,4.85,1.56,4.85,4.55,0,2-1.54,3.95-3.31,5.43l-3.74,3.18v.43h7.54v1.66H464.17v-2.09s4-3.27,5.57-4.7c1-.9,2.33-2.16,2.33-3.91a2.71,2.71,0,0,0-3-2.88,2.83,2.83,0,0,0-3.06,2.75h-1.88C464.32,116.53,466.43,115.1,469.1,115.1Z"/><path class="cls-6" d="M478.9,130.35h-2l6.49-12.9V117h-7.58V115.4h9.53v2Z"/><path class="cls-6" d="M497.79,126.27c0,2.48-2.12,4.36-5.41,4.36s-5.4-1.88-5.4-4.36a3.79,3.79,0,0,1,2.35-3.59v-.42a3.5,3.5,0,0,1-1.9-3.17c0-2.37,2.05-4,4.95-4s5,1.62,5,4a3.59,3.59,0,0,1-1.9,3.17v.42A3.83,3.83,0,0,1,497.79,126.27Zm-1.86-.17c0-1.75-1.37-2.82-3.55-2.82s-3.54,1.07-3.54,2.82,1.36,2.86,3.54,2.86S495.93,127.83,495.93,126.1Zm-6.67-6.92c0,1.6,1.43,2.48,3.12,2.48s3.12-.88,3.12-2.48-1.43-2.46-3.12-2.46S489.26,117.58,489.26,119.18Z"/><path class="cls-5" d="M469.1,138.92c2.78,0,4.85,1.56,4.85,4.55,0,2-1.54,3.95-3.31,5.43l-3.74,3.18v.43h7.54v1.66H464.17v-2.09s4-3.27,5.57-4.7c1-.9,2.33-2.16,2.33-3.91a2.71,2.71,0,0,0-3-2.88,2.83,2.83,0,0,0-3.06,2.75h-1.88C464.32,140.35,466.43,138.92,469.1,138.92Z"/><path class="cls-5" d="M478.9,154.17h-2l6.49-12.9v-.43h-7.58v-1.62h9.53v2.05Z"/><path class="cls-5" d="M497.79,150.09c0,2.48-2.12,4.36-5.41,4.36s-5.4-1.88-5.4-4.36a3.77,3.77,0,0,1,2.35-3.58v-.43a3.47,3.47,0,0,1-1.9-3.16c0-2.37,2.05-4,4.95-4s5,1.63,5,4a3.57,3.57,0,0,1-1.9,3.16v.43A3.82,3.82,0,0,1,497.79,150.09Zm-1.86-.17c0-1.75-1.37-2.82-3.55-2.82s-3.54,1.07-3.54,2.82,1.36,2.87,3.54,2.87S495.93,151.65,495.93,149.92ZM489.26,143c0,1.6,1.43,2.48,3.12,2.48s3.12-.88,3.12-2.48-1.43-2.45-3.12-2.45S489.26,141.4,489.26,143Z"/><path class="cls-5" d="M469.1,162.74c2.78,0,4.85,1.56,4.85,4.56,0,2-1.54,3.95-3.31,5.42l-3.74,3.18v.43h7.54V178H464.17v-2.1s4-3.26,5.57-4.7c1-.89,2.33-2.15,2.33-3.9a2.71,2.71,0,0,0-3-2.89,2.83,2.83,0,0,0-3.06,2.76h-1.88C464.32,164.18,466.43,162.74,469.1,162.74Z"/><path class="cls-5" d="M478.9,178h-2l6.49-12.91v-.42h-7.58V163h9.53v2.05Z"/><path class="cls-5" d="M497.79,173.92c0,2.48-2.12,4.35-5.41,4.35s-5.4-1.87-5.4-4.35a3.78,3.78,0,0,1,2.35-3.59v-.43a3.47,3.47,0,0,1-1.9-3.16c0-2.37,2.05-4,4.95-4s5,1.63,5,4a3.56,3.56,0,0,1-1.9,3.16v.43A3.82,3.82,0,0,1,497.79,173.92Zm-1.86-.17c0-1.76-1.37-2.82-3.55-2.82s-3.54,1.06-3.54,2.82,1.36,2.86,3.54,2.86S495.93,175.48,495.93,173.75Zm-6.67-6.93c0,1.61,1.43,2.48,3.12,2.48s3.12-.87,3.12-2.48-1.43-2.45-3.12-2.45S489.26,165.22,489.26,166.82Z"/><polyline class="cls-9" points="469.45 35.7 475.64 35.7 474.09 50.24 469.45 50.24"/><polyline class="cls-9" points="469.45 35.7 464.9 35.7 466.45 50.24 469.45 50.24"/><polygon class="cls-9" points="476.25 33.24 464.28 33.24 463.55 35.7 476.99 35.7 476.25 33.24"/><polyline class="cls-9" points="420.74 40.4 425.29 40.4 423.74 50 420.74 50"/><polyline class="cls-9" points="420.74 40.4 416.19 40.4 417.75 50 420.74 50"/><polygon class="cls-9" points="425.91 37.94 415.58 37.94 414.84 40.4 426.65 40.4 425.91 37.94"/><path class="cls-3" d="M115,881.76h.26c1,0,1.48-.75,1.48-3.43V875.4h5.79V883h-1.29v-6.45h-3.31v1.85c0,3.48-.81,4.6-2.67,4.6H115Z"/><path class="cls-3" d="M129.41,882.15h-.3a2.94,2.94,0,0,1-2.37,1A2.5,2.5,0,0,1,124,880.7c0-1.22.78-2.51,2.9-2.51h2.46v-.3c0-.91-.54-1.57-1.85-1.57-1.11,0-1.69.43-1.75,1.09h-1.28c.09-1.39,1.31-2.2,3-2.2,1.89,0,3.12.91,3.12,2.61V883h-1.2Zm0-2.22v-.67H127.1c-1.23,0-1.81.52-1.81,1.41s.64,1.38,1.75,1.38A2.22,2.22,0,0,0,129.37,879.93Z"/><path class="cls-3" d="M139.13,880.89c0,1.37-1,2.07-2.67,2.07h-3.88V875.4h3.91c1.52,0,2.39.72,2.39,1.91a1.62,1.62,0,0,1-1,1.53v.3A1.66,1.66,0,0,1,139.13,880.89Zm-5.29-2.35h2.53c.92,0,1.23-.48,1.23-1s-.31-1-1.23-1h-2.53Zm4,2.22c0-.63-.38-1.14-1.47-1.14h-2.55v2.26h2.55C137.48,881.88,137.86,881.4,137.86,880.76Z"/><path class="cls-3" d="M145.55,882.15h-.3a2.94,2.94,0,0,1-2.37,1,2.5,2.5,0,0,1-2.73-2.46c0-1.22.78-2.51,2.9-2.51h2.46v-.3c0-.91-.54-1.57-1.85-1.57-1.11,0-1.69.43-1.75,1.09h-1.28c.09-1.39,1.31-2.2,3-2.2,1.89,0,3.12.91,3.12,2.61V883h-1.2Zm0-2.22v-.67h-2.27c-1.23,0-1.81.52-1.81,1.41s.64,1.38,1.75,1.38A2.22,2.22,0,0,0,145.51,879.93Z"/><path class="cls-3" d="M154.18,883v-3.33H150V883h-1.27V875.4H150v3.12h4.19V875.4h1.27V883Z"/><path class="cls-3" d="M165.67,881.85v3.26h-1.25V883h-6.54v2.15h-1.24v-3.26h1a10.16,10.16,0,0,0,1-4.38V875.4h5.67v6.45ZM163,876.51h-3.21v1a10.44,10.44,0,0,1-.86,4.38H163Z"/><path class="cls-3" d="M171.76,882.15h-.3a3,3,0,0,1-2.37,1,2.5,2.5,0,0,1-2.73-2.46c0-1.22.78-2.51,2.89-2.51h2.46v-.3c0-.91-.54-1.57-1.84-1.57-1.11,0-1.7.43-1.76,1.09h-1.27c.09-1.39,1.3-2.2,3-2.2,1.89,0,3.12.91,3.12,2.61V883h-1.2Zm0-2.22v-.67h-2.26c-1.23,0-1.82.52-1.82,1.41s.65,1.38,1.76,1.38A2.22,2.22,0,0,0,171.71,879.93Z"/><path class="cls-3" d="M177.47,885.08l4.53-13.5h1.16l-4.49,13.5Z"/><path class="cls-3" d="M194.62,880.68a3,3,0,0,1-3.18,2.48c-2.36,0-3.68-1.73-3.68-4s1.32-4,3.68-4a2.91,2.91,0,0,1,3.13,2.38H193.3a1.77,1.77,0,0,0-1.86-1.27c-1.71,0-2.4,1.32-2.4,2.83s.7,2.9,2.4,2.9a1.74,1.74,0,0,0,1.9-1.37Z"/><path class="cls-3" d="M203.12,879.18c0,2.25-1.36,4-3.72,4s-3.72-1.73-3.72-4,1.35-4,3.72-4A3.64,3.64,0,0,1,203.12,879.18Zm-1.27,0c0-1.47-.78-2.86-2.45-2.86s-2.44,1.39-2.44,2.86.76,2.87,2.44,2.87S201.85,880.67,201.85,879.18Z"/><path class="cls-3" d="M203.89,881.76h.25c1,0,1.49-.75,1.49-3.43V875.4h5.79V883h-1.29v-6.45h-3.32v1.85c0,3.48-.81,4.6-2.67,4.6h-.25Z"/><path class="cls-3" d="M220,879.17h-5.76c0,1.78.86,2.88,2.42,2.88a1.8,1.8,0,0,0,1.92-1.17h1.29a3,3,0,0,1-3.21,2.28c-2.36,0-3.68-1.74-3.68-4s1.35-3.9,3.65-3.9a3.29,3.29,0,0,1,3.37,3.52Zm-5.68-1.07h4.36a1.94,1.94,0,0,0-2.08-1.78A2.13,2.13,0,0,0,214.36,878.1Z"/><path class="cls-3" d="M227.11,883v-3.33h-4.19V883h-1.27V875.4h1.27v3.12h4.19V875.4h1.27V883Z"/><path class="cls-3" d="M235.28,882.15H235a2.94,2.94,0,0,1-2.37,1,2.5,2.5,0,0,1-2.73-2.46c0-1.22.78-2.51,2.9-2.51h2.46v-.3c0-.91-.54-1.57-1.85-1.57-1.11,0-1.69.43-1.75,1.09h-1.28c.09-1.39,1.31-2.2,3-2.2,1.89,0,3.12.91,3.12,2.61V883h-1.2Zm0-2.22v-.67H233c-1.23,0-1.81.52-1.81,1.41s.64,1.38,1.75,1.38A2.22,2.22,0,0,0,235.24,879.93Z"/><path class="cls-3" d="M244.66,875.4V883h-1.29v-3h-2.3a3.46,3.46,0,0,1-.46,0l-1.14,3h-1.34l1.28-3.28a2,2,0,0,1-1.17-2c0-1.43.94-2.3,2.65-2.3ZM241,876.48c-1.14,0-1.52.47-1.52,1.23s.38,1.19,1.52,1.19h2.34v-2.42Z"/><path class="cls-3" d="M254,879.63H251.8V883h-1.28V875.4h1.28v3.12H254l1.65-3.12H257l-1.92,3.65,2,3.91h-1.37Z"/><path class="cls-3" d="M263.36,882.15h-.3a2.94,2.94,0,0,1-2.37,1A2.5,2.5,0,0,1,258,880.7c0-1.22.78-2.51,2.9-2.51h2.46v-.3c0-.91-.54-1.57-1.85-1.57-1.11,0-1.69.43-1.75,1.09h-1.28c.09-1.39,1.31-2.2,3-2.2,1.89,0,3.12.91,3.12,2.61V883h-1.2Zm0-2.22v-.67h-2.27c-1.23,0-1.81.52-1.81,1.41s.64,1.38,1.75,1.38A2.22,2.22,0,0,0,263.32,879.93Z"/><path class="cls-3" d="M266.53,886V875.4h1.23v.83h.3a2.83,2.83,0,0,1,2.34-1c2.1,0,3.36,1.72,3.36,4s-1.26,4-3.36,4a2.72,2.72,0,0,1-2.3-1h-.3V886Zm1.26-6.78c0,1.49.69,2.87,2.37,2.87,1.53,0,2.32-1.19,2.32-2.87s-.79-2.86-2.32-2.86C268.48,876.32,267.79,877.71,267.79,879.18Z"/><path class="cls-3" d="M280.19,882.15h-.3a2.94,2.94,0,0,1-2.37,1,2.5,2.5,0,0,1-2.73-2.46c0-1.22.78-2.51,2.9-2.51h2.46v-.3c0-.91-.54-1.57-1.85-1.57-1.11,0-1.69.43-1.75,1.09h-1.28c.09-1.39,1.31-2.2,3-2.2,1.89,0,3.12.91,3.12,2.61V883h-1.2Zm0-2.22v-.67h-2.27c-1.23,0-1.81.52-1.81,1.41s.64,1.38,1.75,1.38A2.22,2.22,0,0,0,280.15,879.93Z"/><path class="cls-3" d="M283.36,875.4h2l1.91,3.6h.3l1.9-3.6h2V883h-1.25v-6.07h-.3l-1.8,3.39H286.7l-1.8-3.39h-.3V883h-1.24Z"/><path class="cls-3" d="M300.07,879.17h-5.76c0,1.78.85,2.88,2.41,2.88a1.79,1.79,0,0,0,1.92-1.17h1.29a2.94,2.94,0,0,1-3.21,2.28c-2.35,0-3.67-1.74-3.67-4s1.35-3.9,3.64-3.9a3.29,3.29,0,0,1,3.38,3.52Zm-5.69-1.07h4.37a2,2,0,0,0-2.09-1.78A2.13,2.13,0,0,0,294.38,878.1Z"/><path class="cls-3" d="M300.82,881.76h.25c1,0,1.49-.75,1.49-3.43V875.4h5.79V883h-1.29v-6.45h-3.32v1.85c0,3.48-.81,4.6-2.67,4.6h-.25Z"/><path class="cls-3" d="M311.69,877.92h2.24c1.83,0,2.85,1,2.85,2.51s-1,2.53-2.85,2.53h-3.51V875.4h1.27Zm3.81,2.51c0-.89-.43-1.43-1.75-1.43h-2.06v2.85h2.06C315.07,881.85,315.5,881.3,315.5,880.43Z"/><path class="cls-7" d="M233.07,44.65l-.3,0a4.14,4.14,0,0,0-7.72,0,3,3,0,0,0-.43,0,3.19,3.19,0,1,0,0,6.38h8.45a3.19,3.19,0,0,0,0-6.38Z"/><path class="cls-3" d="M208.19,494.59h1.26v4.28h3l2.07-4.28h1.33l-2.31,4.86,2.44,5.15h-1.33l-2.2-4.58h-3v4.58h-1.26Z"/><path class="cls-3" d="M223.43,501.07a3.48,3.48,0,1,1-3.47-3.72A3.4,3.4,0,0,1,223.43,501.07Zm-1.19,0c0-1.38-.73-2.68-2.28-2.68s-2.29,1.3-2.29,2.68.72,2.67,2.29,2.67S222.24,502.45,222.24,501.07Z"/><path class="cls-3" d="M228.17,501.49h-2v3.11h-1.19v-7.06h1.19v2.91h2.07l1.54-2.91H231l-1.79,3.4,1.89,3.66h-1.28Z"/><path class="cls-3" d="M238.94,501.07a3.48,3.48,0,1,1-3.47-3.72A3.4,3.4,0,0,1,238.94,501.07Zm-1.19,0c0-1.38-.73-2.68-2.28-2.68s-2.29,1.3-2.29,2.68.72,2.67,2.29,2.67S237.75,502.45,237.75,501.07Z"/><path class="cls-3" d="M246.42,502.47a2.8,2.8,0,0,1-3,2.31c-2.2,0-3.43-1.61-3.43-3.71s1.23-3.72,3.43-3.72a2.73,2.73,0,0,1,2.93,2.23h-1.2a1.65,1.65,0,0,0-1.73-1.19c-1.6,0-2.24,1.23-2.24,2.65s.65,2.7,2.24,2.7a1.64,1.64,0,0,0,1.78-1.27Z"/><path class="cls-3" d="M254.36,501.07a3.48,3.48,0,1,1-3.48-3.72A3.41,3.41,0,0,1,254.36,501.07Zm-1.19,0c0-1.38-.73-2.68-2.29-2.68s-2.28,1.3-2.28,2.68.71,2.67,2.28,2.67S253.17,502.45,253.17,501.07Z"/><path class="cls-3" d="M262,502.66c0,1.28-.89,1.94-2.49,1.94h-3.63v-7.06h3.66c1.41,0,2.23.67,2.23,1.77a1.51,1.51,0,0,1-.9,1.43V501A1.54,1.54,0,0,1,262,502.66Zm-4.94-2.2h2.37c.85,0,1.15-.44,1.15-.95s-.3-1-1.15-1H257Zm3.75,2.08c0-.59-.35-1.07-1.37-1.07H257v2.12h2.38C260.44,503.59,260.79,503.14,260.79,502.54Z"/><path class="cls-3" d="M270,501.07a3.48,3.48,0,1,1-3.47-3.72A3.4,3.4,0,0,1,270,501.07Zm-1.19,0c0-1.38-.73-2.68-2.28-2.68s-2.28,1.3-2.28,2.68.71,2.67,2.28,2.67S268.8,502.45,268.8,501.07Z"/><path class="cls-3" d="M277.62,501.05h-5.38c0,1.67.8,2.69,2.26,2.69a1.67,1.67,0,0,0,1.79-1.09h1.21a2.76,2.76,0,0,1-3,2.13c-2.2,0-3.43-1.63-3.43-3.78s1.26-3.65,3.4-3.65a3.08,3.08,0,0,1,3.15,3.3Zm-5.31-1h4.08a1.81,1.81,0,0,0-1.95-1.67A2,2,0,0,0,272.31,500.06Z"/><path class="cls-3" d="M282.66,497.54h1.86l1.78,3.36h.28l1.78-3.36h1.84v7.06H289v-5.68h-.28l-1.68,3.17h-1.29l-1.68-3.17h-.28v5.68h-1.16Z"/><path class="cls-3" d="M298.65,501.07a3.48,3.48,0,1,1-3.47-3.72A3.4,3.4,0,0,1,298.65,501.07Zm-1.19,0c0-1.38-.73-2.68-2.28-2.68s-2.29,1.3-2.29,2.68.72,2.67,2.29,2.67S297.46,502.45,297.46,501.07Z"/><path class="cls-3" d="M299.36,503.47h.24c1,0,1.38-.7,1.38-3.2v-2.73h5.41v7.06h-1.2v-6h-3.1v1.72c0,3.25-.75,4.31-2.49,4.31h-.24Z"/><path class="cls-3" d="M314.83,501.07a3.48,3.48,0,1,1-3.47-3.72A3.4,3.4,0,0,1,314.83,501.07Zm-1.19,0c0-1.38-.72-2.68-2.28-2.68s-2.28,1.3-2.28,2.68.71,2.67,2.28,2.67S313.64,502.45,313.64,501.07Z"/><path class="cls-3" d="M319.58,501.49h-2.05v3.11h-1.19v-7.06h1.19v2.91h2.08l1.54-2.91h1.24l-1.79,3.4,1.89,3.66h-1.27Z"/><path class="cls-3" d="M330.35,501.07a3.48,3.48,0,1,1-3.48-3.72A3.41,3.41,0,0,1,330.35,501.07Zm-1.19,0c0-1.38-.73-2.68-2.29-2.68s-2.28,1.3-2.28,2.68.71,2.67,2.28,2.67S329.16,502.45,329.16,501.07Z"/><path class="cls-3" d="M211.18,512.06h1v3h3.05v1H212.2v3h-1v-3h-3v-1h3Z"/><path class="cls-3" d="M226.5,509.79v1.34L224,513.29v.27a2.79,2.79,0,0,1,2.92,3,3.47,3.47,0,0,1-6.89.31h1.23a2.23,2.23,0,0,0,4.42-.31,2,2,0,0,0-2.21-2.09,3.46,3.46,0,0,0-.85.09v-1.28l2.39-2.13v-.27h-4.28v-1.07Z"/><path class="cls-3" d="M234.87,516.28a3.25,3.25,0,0,1-3.36,3.5,3.09,3.09,0,0,1-3.42-2.93h1.22a2,2,0,0,0,2.14,1.84,2.14,2.14,0,0,0,2.19-2.36,2.11,2.11,0,0,0-2.15-2.3,2.2,2.2,0,0,0-1.94.93h-1.24l.44-5.17h5.6v1.07h-4.61l-.22,2.84h.28a2.59,2.59,0,0,1,1.9-.7A3.08,3.08,0,0,1,234.87,516.28Z"/><path class="cls-3" d="M236.4,522.4v-9.86h1.15v.77h.28a2.67,2.67,0,0,1,2.19-1c2,0,3.14,1.61,3.14,3.72s-1.18,3.71-3.14,3.71a2.55,2.55,0,0,1-2.15-1h-.28v3.58Zm1.18-6.33c0,1.38.64,2.67,2.21,2.67s2.18-1.11,2.18-2.67-.75-2.68-2.18-2.68S237.58,514.69,237.58,516.07Z"/><path class="cls-10" d="M270.22,512.41a5.8,5.8,0,0,1,0,.59,6.59,6.59,0,1,1-13.17,0,3.72,3.72,0,0,1,.07-.67"/><ellipse class="cls-10" cx="263.67" cy="512.33" rx="6.55" ry="3.17"/><ellipse class="cls-11" cx="263.64" cy="512.26" rx="4.89" ry="2.11"/><path class="cls-10" d="M204.09,570.28a5.8,5.8,0,0,1,0,.59,6.59,6.59,0,1,1-13.17,0,3.72,3.72,0,0,1,.07-.67"/><ellipse class="cls-10" cx="197.54" cy="570.2" rx="6.55" ry="3.17"/><ellipse class="cls-11" cx="197.51" cy="570.13" rx="4.89" ry="2.11"/><path class="cls-10" d="M204.12,593.59c0,.17,0,.42,0,.6a6.59,6.59,0,0,1-13.17,0,2.85,2.85,0,0,1,.08-.67"/><ellipse class="cls-10" cx="197.57" cy="593.52" rx="6.55" ry="3.17"/><ellipse class="cls-11" cx="197.54" cy="593.44" rx="4.89" ry="2.11"/><path class="cls-4" d="M71.85,256.32c0,2.68-1.74,4.3-4.84,4.3H62.77v5.72H61V252.06h6C70.11,252.06,71.85,253.68,71.85,256.32Zm-1.82,0c0-1.66-.88-2.68-3.32-2.68H62.77V259h3.94C69.15,259,70,258,70,256.34Z"/><path class="cls-4" d="M82.73,261.3c0,3-1.82,5.3-5,5.3s-5-2.3-5-5.3,1.8-5.3,5-5.3S82.73,258.3,82.73,261.3Zm-1.7,0c0-2-1-3.82-3.26-3.82s-3.26,1.86-3.26,3.82,1,3.82,3.26,3.82S81,263.28,81,261.3Z"/><path class="cls-4" d="M88.45,257.48c-1.44,0-2.2.48-2.44,1.56H84.39c.18-1.92,1.78-3,4.1-3,2.52,0,3.86,1.28,3.86,2.8a2.05,2.05,0,0,1-1.1,2.06v.4a2.18,2.18,0,0,1,1.46,2.3c0,1.64-1.48,3-4.18,3s-4.26-1.24-4.54-3.12h1.64c.38,1.26,1.52,1.64,2.9,1.64S91,264.58,91,263.5s-.56-1.56-2.22-1.56H87v-1.48h1.7c1.42,0,2-.66,2-1.44C90.67,258,89.75,257.48,88.45,257.48Z"/><path class="cls-4" d="M101.35,265.26H101a3.94,3.94,0,0,1-3.16,1.34,3.33,3.33,0,0,1-3.64-3.28c0-1.62,1-3.34,3.86-3.34h3.28v-.4c0-1.22-.72-2.1-2.46-2.1-1.48,0-2.26.58-2.34,1.46h-1.7c.12-1.86,1.74-2.94,4-2.94,2.52,0,4.16,1.22,4.16,3.48v6.86h-1.6Zm-.06-3v-.9h-3c-1.64,0-2.42.7-2.42,1.88s.86,1.84,2.34,1.84A3,3,0,0,0,101.29,262.3Z"/><path class="cls-4" d="M123.53,256.26v10.08h-12.9V256.26h1.66v8.6h4v-8.6h1.66v8.6h4v-8.6Z"/><path class="cls-4" d="M135.05,261.28h-7.68c0,2.38,1.14,3.84,3.22,3.84a2.39,2.39,0,0,0,2.56-1.56h1.72c-.34,1.72-1.78,3-4.28,3-3.14,0-4.9-2.32-4.9-5.4s1.8-5.2,4.86-5.2,4.46,2.22,4.5,4.7Zm-7.58-1.42h5.82a2.6,2.6,0,0,0-2.78-2.38A2.85,2.85,0,0,0,127.47,259.86Z"/><path class="cls-4" d="M137.19,266.34V256.26h1.66v7.8h.4l4.5-7.8h2.44v10.08h-1.66v-7.8h-.4l-4.58,7.8Zm7.58-14.48a3.12,3.12,0,0,1-6.22,0h1.38a1.73,1.73,0,0,0,3.46,0Z"/><path class="cls-4" d="M153.59,261.9h-2.92v4.44H149V256.26h1.7v4.16h3l2.2-4.16h1.78l-2.56,4.86,2.7,5.22h-1.82Z"/><path class="cls-3" d="M61,275.81h3l3.66,6.7H68l3.6-6.7h3v14.28H72.81V277.85h-.4l-3.72,6.78H66.85l-3.72-6.78h-.4v12.24H61Z"/><path class="cls-3" d="M85.81,280v10.08H84.09v-4H81c-.22,0-.42,0-.62,0l-1.52,4H77.11l1.7-4.38a2.71,2.71,0,0,1-1.56-2.64c0-1.9,1.26-3.06,3.54-3.06ZM81,281.45c-1.52,0-2,.62-2,1.64s.5,1.58,2,1.58h3.12v-3.22Z"/><path class="cls-3" d="M87.53,280h8.68v1.48H92.73v8.6H91v-8.6h-3.5Z"/><path class="cls-3" d="M104.37,289H104a3.94,3.94,0,0,1-3.16,1.34,3.33,3.33,0,0,1-3.64-3.28c0-1.62,1-3.34,3.86-3.34h3.28v-.4c0-1.22-.72-2.1-2.46-2.1-1.48,0-2.26.58-2.34,1.46h-1.7c.12-1.86,1.74-2.94,4-2.94,2.52,0,4.16,1.22,4.16,3.48v6.86h-1.6Zm-.06-3v-.9h-3c-1.64,0-2.42.7-2.42,1.88s.86,1.84,2.34,1.84A3,3,0,0,0,104.31,286.05Z"/><path class="cls-3" d="M126.55,280v10.08h-12.9V280h1.66v8.6h4V280h1.66v8.6h4V280Z"/><path class="cls-3" d="M138.07,285h-7.68c0,2.38,1.14,3.84,3.22,3.84a2.39,2.39,0,0,0,2.56-1.56h1.72c-.34,1.72-1.78,3-4.28,3-3.14,0-4.9-2.32-4.9-5.4s1.8-5.2,4.86-5.2,4.46,2.22,4.5,4.7Zm-7.58-1.42h5.82a2.6,2.6,0,0,0-2.78-2.38A2.85,2.85,0,0,0,130.49,283.61Z"/><path class="cls-3" d="M140.21,290.09V280h1.66v7.8h.4l4.5-7.8h2.44v10.08h-1.66v-7.8h-.4l-4.58,7.8Zm7.58-14.48a3.12,3.12,0,0,1-6.22,0H143a1.73,1.73,0,0,0,3.46,0Z"/><path class="cls-3" d="M156.61,285.65h-2.92v4.44H152V280h1.7v4.16h3l2.2-4.16h1.78l-2.56,4.86,2.7,5.22H159Z"/><path class="cls-3" d="M72.51,309.78a5.4,5.4,0,0,1-5.66,4.33c-4.24,0-6.6-3.17-6.6-7.41s2.38-7.4,6.62-7.4c2.88,0,4.92,1.56,5.48,4h-1.9a3.36,3.36,0,0,0-3.58-2.36c-3.32,0-4.8,2.74-4.8,5.76s1.46,5.77,4.78,5.77a3.61,3.61,0,0,0,3.76-2.69Z"/><path class="cls-3" d="M84,308.8c0,3-1.82,5.31-5,5.31s-5-2.3-5-5.31,1.8-5.3,5-5.3S84,305.8,84,308.8Zm-1.7,0c0-2-1-3.82-3.26-3.82s-3.26,1.86-3.26,3.82,1,3.82,3.26,3.82S82.25,310.78,82.25,308.8Z"/><path class="cls-3" d="M85,312.24h.34c1.38,0,2-1,2-4.58v-3.9H95v10.09H93.29v-8.61H88.87v2.46c0,4.65-1.08,6.15-3.56,6.15H85Z"/><path class="cls-3" d="M106.51,308.78H98.83c0,2.38,1.14,3.84,3.22,3.84a2.4,2.4,0,0,0,2.56-1.55h1.72c-.34,1.71-1.78,3-4.28,3-3.14,0-4.9-2.33-4.9-5.41s1.8-5.2,4.86-5.2,4.46,2.22,4.5,4.7Zm-7.58-1.42h5.82A2.6,2.6,0,0,0,102,305,2.85,2.85,0,0,0,98.93,307.36Zm.28-6v-2h1.84v2Zm3.62,0v-2h1.84v2Z"/><path class="cls-3" d="M115.93,313.85V309.4h-5.58v4.45h-1.7V303.76h1.7v4.16h5.58v-4.16h1.7v10.09Z"/><path class="cls-3" d="M126.83,312.77h-.4a3.94,3.94,0,0,1-3.16,1.34,3.33,3.33,0,0,1-3.64-3.29c0-1.62,1-3.34,3.86-3.34h3.28v-.4c0-1.22-.72-2.1-2.46-2.1-1.48,0-2.26.58-2.34,1.46h-1.7c.12-1.86,1.74-2.94,4-2.94,2.52,0,4.16,1.22,4.16,3.48v6.87h-1.6Zm-.06-3v-.9h-3c-1.64,0-2.42.7-2.42,1.88s.86,1.84,2.34,1.84A3,3,0,0,0,126.77,309.8Z"/><path class="cls-3" d="M139.33,303.76v10.09h-1.72v-4h-3.06c-.22,0-.42,0-.62,0l-1.52,4h-1.78l1.7-4.39a2.71,2.71,0,0,1-1.56-2.64c0-1.9,1.26-3.06,3.54-3.06Zm-4.84,1.44c-1.52,0-2,.62-2,1.64s.5,1.58,2,1.58h3.12V305.2Z"/><path class="cls-3" d="M151.77,309.4h-2.92v4.45h-1.7V303.76h1.7v4.16h3l2.2-4.16h1.78l-2.56,4.86,2.7,5.23h-1.82Z"/><path class="cls-3" d="M164.27,312.77h-.4a3.94,3.94,0,0,1-3.16,1.34,3.33,3.33,0,0,1-3.64-3.29c0-1.62,1-3.34,3.86-3.34h3.28v-.4c0-1.22-.72-2.1-2.46-2.1-1.48,0-2.26.58-2.34,1.46h-1.7c.12-1.86,1.74-2.94,4-2.94,2.52,0,4.16,1.22,4.16,3.48v6.87h-1.6Zm-.06-3v-.9h-3c-1.64,0-2.42.7-2.42,1.88s.86,1.84,2.34,1.84A3,3,0,0,0,164.21,309.8Z"/><path class="cls-3" d="M168.49,317.85V303.76h1.64v1.1h.4a3.81,3.81,0,0,1,3.12-1.36c2.8,0,4.48,2.3,4.48,5.3s-1.68,5.31-4.48,5.31a3.6,3.6,0,0,1-3.06-1.37h-.4v5.11Zm1.68-9.05c0,2,.92,3.82,3.16,3.82,2,0,3.1-1.58,3.1-3.82s-1.06-3.82-3.1-3.82C171.09,305,170.17,306.84,170.17,308.8Z"/><path class="cls-3" d="M186.71,312.77h-.4a3.94,3.94,0,0,1-3.16,1.34,3.33,3.33,0,0,1-3.64-3.29c0-1.62,1-3.34,3.86-3.34h3.28v-.4c0-1.22-.72-2.1-2.46-2.1-1.48,0-2.26.58-2.34,1.46h-1.7c.12-1.86,1.74-2.94,4-2.94,2.52,0,4.16,1.22,4.16,3.48v6.87h-1.6Zm-.06-3v-.9h-3c-1.64,0-2.42.7-2.42,1.88s.86,1.84,2.34,1.84A3,3,0,0,0,186.65,309.8Z"/><path class="cls-3" d="M190.93,303.76h2.66l2.54,4.8h.4l2.54-4.8h2.62v10.09H200v-8.11h-.4l-2.4,4.52h-1.84l-2.4-4.52h-.4v8.11h-1.66Z"/><path class="cls-3" d="M213.21,308.78h-7.68c0,2.38,1.14,3.84,3.22,3.84a2.4,2.4,0,0,0,2.56-1.55H213c-.34,1.71-1.78,3-4.28,3-3.14,0-4.9-2.33-4.9-5.41s1.8-5.2,4.86-5.2,4.46,2.22,4.5,4.7Zm-7.58-1.42h5.82a2.6,2.6,0,0,0-2.78-2.38A2.85,2.85,0,0,0,205.63,307.36Z"/><path class="cls-3" d="M214.21,312.24h.34c1.38,0,2-1,2-4.58v-3.9h7.72v10.09h-1.72v-8.61h-4.42v2.46c0,4.65-1.08,6.15-3.56,6.15h-.34Z"/><path class="cls-3" d="M228.71,307.12h3c2.44,0,3.8,1.26,3.8,3.34s-1.36,3.39-3.8,3.39H227V303.76h1.7Zm5.08,3.34c0-1.18-.58-1.9-2.34-1.9h-2.74v3.8h2.74C233.21,312.36,233.79,311.62,233.79,310.46Z"/><path class="cls-3" d="M255.37,303.76v10.09h-12.9V303.76h1.66v8.6h4v-8.6h1.66v8.6h4v-8.6Z"/><path class="cls-3" d="M266.89,308.78h-7.68c0,2.38,1.14,3.84,3.22,3.84a2.4,2.4,0,0,0,2.56-1.55h1.72c-.34,1.71-1.78,3-4.28,3-3.14,0-4.9-2.33-4.9-5.41s1.8-5.2,4.86-5.2,4.46,2.22,4.5,4.7Zm-7.58-1.42h5.82a2.6,2.6,0,0,0-2.78-2.38A2.85,2.85,0,0,0,259.31,307.36Z"/><path class="cls-3" d="M269,313.85V303.76h1.66v7.81h.4l4.5-7.81H278v10.09h-1.66V306H276l-4.58,7.81Zm7.58-14.49a3.12,3.12,0,0,1-6.22,0h1.38a1.73,1.73,0,0,0,3.46,0Z"/><path class="cls-3" d="M285.43,309.4h-2.92v4.45h-1.7V303.76h1.7v4.16h3l2.2-4.16h1.78l-2.56,4.86,2.7,5.23h-1.82Z"/><path class="cls-3" d="M59.79,335.82c1.88,0,2.68-1.09,2.68-7.27v-5.24h9.38V337.6h-1.8V325H64.17v3.94c0,7-1.3,8.71-4.36,8.71h-.4v-1.78Z"/><path class="cls-3" d="M81.23,336.52h-.4a3.94,3.94,0,0,1-3.16,1.34A3.33,3.33,0,0,1,74,334.57c0-1.62,1-3.34,3.86-3.34h3.28v-.4c0-1.22-.72-2.1-2.46-2.1-1.48,0-2.26.58-2.34,1.46h-1.7c.12-1.86,1.74-2.94,4-2.94,2.52,0,4.16,1.22,4.16,3.48v6.87h-1.6Zm-.06-3v-.9h-3c-1.64,0-2.42.7-2.42,1.88s.86,1.84,2.34,1.84A3,3,0,0,0,81.17,333.55Z"/><path class="cls-3" d="M94.19,334.83c0,1.82-1.28,2.77-3.56,2.77H85.45V327.51h5.22c2,0,3.18,1,3.18,2.54a2.15,2.15,0,0,1-1.28,2v.4A2.21,2.21,0,0,1,94.19,334.83Zm-7.06-3.14h3.38c1.22,0,1.64-.64,1.64-1.36S91.73,329,90.51,329H87.13Zm5.36,3c0-.84-.5-1.52-2-1.52h-3.4v3h3.4C92,336.15,92.49,335.52,92.49,334.65Z"/><path class="cls-3" d="M102.75,336.52h-.4a3.94,3.94,0,0,1-3.16,1.34,3.33,3.33,0,0,1-3.64-3.29c0-1.62,1-3.34,3.86-3.34h3.28v-.4c0-1.22-.72-2.1-2.46-2.1-1.48,0-2.26.58-2.34,1.46h-1.7c.12-1.86,1.74-2.94,4-2.94,2.52,0,4.16,1.22,4.16,3.48v6.87h-1.6Zm-.06-3v-.9h-3c-1.64,0-2.42.7-2.42,1.88s.86,1.84,2.34,1.84A3,3,0,0,0,102.69,333.55Z"/><path class="cls-3" d="M114.25,337.6v-4.45h-5.58v4.45H107V327.51h1.7v4.16h5.58v-4.16H116V337.6Z"/><path class="cls-3" d="M129.57,336.11v4.35h-1.66V337.6h-8.72v2.86h-1.66v-4.35h1.34a13.6,13.6,0,0,0,1.28-5.84v-2.76h7.56v8.6ZM126,329h-4.28v1.28a14.06,14.06,0,0,1-1.14,5.84H126Z"/><path class="cls-3" d="M137.69,336.52h-.4a3.94,3.94,0,0,1-3.16,1.34,3.33,3.33,0,0,1-3.64-3.29c0-1.62,1-3.34,3.86-3.34h3.28v-.4c0-1.22-.72-2.1-2.46-2.1-1.48,0-2.26.58-2.34,1.46h-1.7c.12-1.86,1.74-2.94,4-2.94,2.52,0,4.16,1.22,4.16,3.48v6.87h-1.6Zm-.06-3v-.9h-3c-1.64,0-2.42.7-2.42,1.88s.86,1.84,2.34,1.84A3,3,0,0,0,137.63,333.55Z"/><path class="cls-3" d="M141.25,332.79v-1.5h5.46v1.5Z"/><path class="cls-3" d="M150.35,327.51v2.84c0,1,0,2,2.54,2a11.91,11.91,0,0,0,2.52-.26v-4.6h1.72V337.6h-1.72v-4a15.45,15.45,0,0,1-2.88.28c-3.66,0-3.88-1.74-3.88-3.4v-3Z"/><path class="cls-3" d="M168.65,332.53H161c0,2.38,1.14,3.84,3.22,3.84a2.4,2.4,0,0,0,2.56-1.55h1.72c-.34,1.71-1.78,3-4.28,3-3.14,0-4.9-2.33-4.9-5.41s1.8-5.2,4.86-5.2,4.46,2.22,4.5,4.7Zm-7.58-1.42h5.82a2.6,2.6,0,0,0-2.78-2.38A2.85,2.85,0,0,0,161.07,331.11Z"/><path class="cls-3" d="M170.79,341.6V327.51h1.64v1.1h.4a3.81,3.81,0,0,1,3.12-1.36c2.8,0,4.48,2.3,4.48,5.3s-1.68,5.31-4.48,5.31a3.6,3.6,0,0,1-3.06-1.37h-.4v5.11Zm1.68-9.05c0,2,.92,3.82,3.16,3.82,2,0,3.1-1.58,3.1-3.82s-1.06-3.82-3.1-3.82C173.39,328.73,172.47,330.59,172.47,332.55Z"/><path class="cls-3" d="M189.87,337.6v-4.45h-5.58v4.45h-1.7V327.51h1.7v4.16h5.58v-4.16h1.7V337.6Z"/><path class="cls-3" d="M194.35,337.6V327.51H196v7.81h.4l4.5-7.81h2.44V337.6h-1.66v-7.81h-.4l-4.58,7.81Z"/><path class="cls-3" d="M210.75,333.15h-2.92v4.45h-1.7V327.51h1.7v4.16h3l2.2-4.16h1.78l-2.56,4.86,2.7,5.23h-1.82Z"/><path class="cls-3" d="M223.25,336.52h-.4a3.94,3.94,0,0,1-3.16,1.34,3.33,3.33,0,0,1-3.64-3.29c0-1.62,1-3.34,3.86-3.34h3.28v-.4c0-1.22-.72-2.1-2.46-2.1-1.48,0-2.26.58-2.34,1.46h-1.7c.12-1.86,1.74-2.94,4-2.94,2.52,0,4.16,1.22,4.16,3.48v6.87h-1.6Zm-.06-3v-.9h-3c-1.64,0-2.42.7-2.42,1.88s.86,1.84,2.34,1.84A3,3,0,0,0,223.19,333.55Z"/><path class="cls-3" d="M245.43,327.51V337.6h-12.9V327.51h1.66v8.6h4v-8.6h1.66v8.6h4v-8.6Z"/><path class="cls-3" d="M257,332.53h-7.68c0,2.38,1.14,3.84,3.22,3.84a2.4,2.4,0,0,0,2.56-1.55h1.72c-.34,1.71-1.78,3-4.28,3-3.14,0-4.9-2.33-4.9-5.41s1.8-5.2,4.86-5.2,4.46,2.22,4.5,4.7Zm-7.58-1.42h5.82a2.6,2.6,0,0,0-2.78-2.38A2.85,2.85,0,0,0,249.37,331.11Z"/><path class="cls-3" d="M259.09,337.6V327.51h1.66v7.81h.4l4.5-7.81h2.44V337.6h-1.66v-7.81H266l-4.58,7.81Zm7.58-14.49a3.12,3.12,0,0,1-6.22,0h1.38a1.73,1.73,0,0,0,3.46,0Z"/><path class="cls-3" d="M275.49,333.15h-2.92v4.45h-1.7V327.51h1.7v4.16h3l2.2-4.16h1.78L277,332.37l2.7,5.23h-1.82Z"/><path class="cls-6" d="M468.41,251.49c2.77,0,4.85,1.56,4.85,4.55,0,2-1.54,3.95-3.32,5.43l-3.73,3.18v.43h7.54v1.66H463.47v-2.09s4-3.27,5.58-4.7c1-.9,2.33-2.16,2.33-3.91a2.71,2.71,0,0,0-3-2.88,2.82,2.82,0,0,0-3.05,2.75h-1.88C463.62,252.92,465.74,251.49,468.41,251.49Z"/><path class="cls-6" d="M484.53,251.79v2.05l-3.73,3.29v.41a4.25,4.25,0,0,1,4.44,4.55c0,3.09-2.22,4.93-5.28,4.93s-5.08-1.92-5.23-4.46h1.88a3.4,3.4,0,0,0,6.75-.47c0-1.95-1.2-3.19-3.38-3.19a6,6,0,0,0-1.3.13v-1.94l3.65-3.25v-.43H475.8v-1.62Z"/><path class="cls-6" d="M486.54,256.64a4.88,4.88,0,0,1,5.08-5.15c3.19,0,5.49,2,5.49,7.35,0,4.57-1.77,8.18-5.68,8.18a4.27,4.27,0,0,1-4.49-3.57h1.86a2.46,2.46,0,0,0,2.63,1.91c2.37,0,3.76-2.06,3.87-5.32h-.43a4.54,4.54,0,0,1-3.52,1.47A4.69,4.69,0,0,1,486.54,256.64Zm1.88-.09a3.26,3.26,0,1,0,6.51,0,3.17,3.17,0,0,0-3.29-3.42A3.08,3.08,0,0,0,488.42,256.55Z"/><path class="cls-5" d="M468.41,275.31c2.77,0,4.85,1.56,4.85,4.55,0,2-1.54,4-3.32,5.43l-3.73,3.18v.43h7.54v1.67H463.47v-2.1s4-3.27,5.58-4.7c1-.89,2.33-2.15,2.33-3.91a2.71,2.71,0,0,0-3-2.88,2.83,2.83,0,0,0-3.05,2.76h-1.88C463.62,276.75,465.74,275.31,468.41,275.31Z"/><path class="cls-5" d="M484.53,275.61v2.05L480.8,281v.41a4.25,4.25,0,0,1,4.44,4.55c0,3.1-2.22,4.93-5.28,4.93s-5.08-1.92-5.23-4.46h1.88a3.4,3.4,0,0,0,6.75-.47c0-1.94-1.2-3.18-3.38-3.18a5.43,5.43,0,0,0-1.3.13v-1.95l3.65-3.25v-.42H475.8v-1.63Z"/><path class="cls-5" d="M486.54,280.46a4.88,4.88,0,0,1,5.08-5.15c3.19,0,5.49,2,5.49,7.35,0,4.57-1.77,8.18-5.68,8.18a4.27,4.27,0,0,1-4.49-3.56h1.86a2.45,2.45,0,0,0,2.63,1.9c2.37,0,3.76-2.05,3.87-5.32h-.43a4.54,4.54,0,0,1-3.52,1.47A4.69,4.69,0,0,1,486.54,280.46Zm1.88-.08a3.26,3.26,0,1,0,6.51,0,3.17,3.17,0,0,0-3.29-3.42A3.09,3.09,0,0,0,488.42,280.38Z"/><path class="cls-5" d="M468.41,299.14c2.77,0,4.85,1.56,4.85,4.55,0,2-1.54,3.95-3.32,5.42l-3.73,3.19v.42h7.54v1.67H463.47V312.3s4-3.27,5.58-4.7c1-.9,2.33-2.16,2.33-3.91a2.72,2.72,0,0,0-3-2.89,2.83,2.83,0,0,0-3.05,2.76h-1.88C463.62,300.57,465.74,299.14,468.41,299.14Z"/><path class="cls-5" d="M484.53,299.44v2.05l-3.73,3.29v.4a4.26,4.26,0,0,1,4.44,4.55c0,3.1-2.22,4.94-5.28,4.94s-5.08-1.92-5.23-4.47h1.88a3.4,3.4,0,0,0,6.75-.47c0-1.94-1.2-3.18-3.38-3.18a5.43,5.43,0,0,0-1.3.13v-1.95l3.65-3.24v-.43H475.8v-1.62Z"/><path class="cls-5" d="M486.54,304.29a4.88,4.88,0,0,1,5.08-5.15c3.19,0,5.49,2,5.49,7.35,0,4.57-1.77,8.18-5.68,8.18a4.27,4.27,0,0,1-4.49-3.57h1.86a2.45,2.45,0,0,0,2.63,1.9c2.37,0,3.76-2.05,3.87-5.32h-.43a4.54,4.54,0,0,1-3.52,1.48A4.69,4.69,0,0,1,486.54,304.29Zm1.88-.09a3.26,3.26,0,1,0,6.51,0,3.17,3.17,0,0,0-3.29-3.42A3.09,3.09,0,0,0,488.42,304.2Z"/><path class="cls-5" d="M468.41,323c2.77,0,4.85,1.56,4.85,4.55,0,2-1.54,3.95-3.32,5.43l-3.73,3.18v.43h7.54v1.66H463.47v-2.09s4-3.27,5.58-4.7c1-.9,2.33-2.16,2.33-3.91a2.71,2.71,0,0,0-3-2.88,2.82,2.82,0,0,0-3.05,2.75h-1.88C463.62,324.39,465.74,323,468.41,323Z"/><path class="cls-5" d="M484.53,323.26v2.05l-3.73,3.29V329a4.25,4.25,0,0,1,4.44,4.55c0,3.09-2.22,4.93-5.28,4.93s-5.08-1.92-5.23-4.47h1.88a3.4,3.4,0,0,0,6.75-.46c0-1.95-1.2-3.19-3.38-3.19a6,6,0,0,0-1.3.13v-1.94l3.65-3.25v-.43H475.8v-1.62Z"/><path class="cls-5" d="M486.54,328.11a4.88,4.88,0,0,1,5.08-5.15c3.19,0,5.49,2,5.49,7.35,0,4.57-1.77,8.18-5.68,8.18a4.27,4.27,0,0,1-4.49-3.57h1.86a2.45,2.45,0,0,0,2.63,1.9c2.37,0,3.76-2.05,3.87-5.32h-.43a4.51,4.51,0,0,1-3.52,1.48A4.69,4.69,0,0,1,486.54,328.11Zm1.88-.09a3.26,3.26,0,1,0,6.51,0,3.17,3.17,0,0,0-3.29-3.41A3.08,3.08,0,0,0,488.42,328Z"/><path class="cls-2" d="M52.27,226.76c-.87,3.94-3.94,6.7-8.77,6.7-6.58,0-10.23-4.9-10.23-11.48S37,210.51,43.53,210.51c4.46,0,7.63,2.42,8.49,6.2H49.08c-.84-2.35-2.51-3.65-5.55-3.65-5.15,0-7.44,4.24-7.44,8.92s2.26,8.93,7.41,8.93a5.59,5.59,0,0,0,5.83-4.15Z"/><path class="cls-2" d="M72.79,217.36A5.76,5.76,0,0,1,69.41,223l3.54,10H70.07l-3.32-9.36a17.64,17.64,0,0,1-1.8.09H58.5v9.27H55.71V210.92h9.8C70.16,210.92,72.79,213.33,72.79,217.36Zm-2.82,0c0-2.48-1.3-4-4.87-4H58.5v7.9h6.6C68.67,221.3,70,219.78,70,217.36Z"/><path class="cls-2" d="M92.66,230.51v2.54H76.76V210.92H92.17v2.54H79.55v6.85H89.72v2.54H79.55v7.66Z"/><path class="cls-2" d="M108.69,226.26H99l-2.3,6.79H93.84l7.66-22.13h4.71l7.69,22.13H111Zm-8.87-2.54h8l-3.38-9.95H103.2Z"/><path class="cls-2" d="M116.41,210.92H121l5.67,10.38h.62l5.58-10.38h4.62v22.13h-2.73v-19h-.62l-5.76,10.51h-2.86l-5.76-10.51h-.62v19h-2.73Z"/><path class="cls-2" d="M161.33,210.92h2.73v19.59h8.71V210.92h2.73v22.13H149.89V210.92h2.73v19.59h8.71Z"/><path class="cls-2" d="M196.11,230.51v2.54h-15.9V210.92h15.41v2.54H183v6.85h10.17v2.54H183v7.66Z"/><path class="cls-2" d="M202.22,210.92v18.75h.62l10.41-18.75h4.31v22.13h-2.73V214.3h-.62L203.8,233.05h-4.31V210.92Zm11.72-5.9c-.07,3.07-2.36,4.81-5.43,4.81s-5.3-1.74-5.36-4.81h2.26a2.83,2.83,0,0,0,3.1,2.8,2.86,2.86,0,0,0,3.16-2.8Z"/><path class="cls-2" d="M222.27,210.92h2.79v9.45h6.54l4.59-9.45h2.95L234,221.68l5.4,11.37h-2.95l-4.87-10.13h-6.54v10.13h-2.79Z"/><line class="cls-8" x1="0.09" y1="355.97" x2="536.24" y2="355.97"/><path class="cls-3" d="M72.59,431.77H61V417.49h1.8v12.64h7.74V417.49h1.8v12.64h2.06v5.14H72.59Z"/><path class="cls-3" d="M76.65,431.77V421.69h1.66v7.8h.4l4.5-7.8h2.44v10.08H84V424h-.4L79,431.77Z"/><path class="cls-3" d="M87.39,421.69h8.68v1.48H92.59v8.6h-1.7v-8.6h-3.5Z"/><path class="cls-3" d="M97.81,435.77V421.69h1.64v1.1h.4a3.81,3.81,0,0,1,3.12-1.36c2.8,0,4.48,2.3,4.48,5.3S105.77,432,103,432a3.62,3.62,0,0,1-3.06-1.36h-.4v5.1Zm1.68-9c0,2,.92,3.82,3.16,3.82,2,0,3.1-1.58,3.1-3.82s-1.06-3.82-3.1-3.82C100.41,422.91,99.49,424.77,99.49,426.73Z"/><path class="cls-3" d="M110.35,435.77l2.06-4.9-4.24-9.18H110l3,6.64h.5l2.8-6.64h1.82l-6.08,14.08Z"/><path class="cls-3" d="M128,428.73a4,4,0,0,1-4.24,3.3c-3.14,0-4.9-2.3-4.9-5.3s1.76-5.3,4.9-5.3a3.88,3.88,0,0,1,4.18,3.18h-1.7a2.35,2.35,0,0,0-2.48-1.7c-2.28,0-3.2,1.76-3.2,3.78s.94,3.86,3.2,3.86a2.33,2.33,0,0,0,2.54-1.82Z"/><path class="cls-3" d="M139.29,426.73c0,3-1.82,5.3-5,5.3s-5-2.3-5-5.3,1.8-5.3,5-5.3S139.29,423.73,139.29,426.73Zm-1.7,0c0-2-1-3.82-3.26-3.82s-3.26,1.86-3.26,3.82,1,3.82,3.26,3.82S137.59,428.71,137.59,426.73Z"/><path class="cls-3" d="M150.19,429c0,1.82-1.28,2.76-3.56,2.76h-5.18V421.69h5.22c2,0,3.18,1,3.18,2.54a2.15,2.15,0,0,1-1.28,2v.4A2.21,2.21,0,0,1,150.19,429Zm-7.06-3.14h3.38c1.22,0,1.64-.64,1.64-1.36s-.42-1.38-1.64-1.38h-3.38Zm5.36,3c0-.84-.5-1.52-2-1.52h-3.4v3h3.4C148,430.33,148.49,429.69,148.49,428.83Z"/><path class="cls-3" d="M154,421.69v3.36h2.78c2.44,0,3.8,1.26,3.8,3.34s-1.36,3.38-3.8,3.38h-4.48V421.69Zm0,8.6h2.54c1.76,0,2.34-.74,2.34-1.9s-.58-1.9-2.34-1.9H154Zm9.9-8.6v10.08h-1.7V421.69Z"/><path class="cls-3" d="M166.71,431.77V421.69h1.66v7.8h.4l4.5-7.8h2.44v10.08h-1.66V424h-.4l-4.58,7.8Zm7.58-14.48a3.12,3.12,0,0,1-6.22,0h1.38a1.73,1.73,0,0,0,3.46,0Z"/><path class="cls-4" d="M59.79,455c1.88,0,2.68-1.08,2.68-7.26v-5.24h9.38v14.28h-1.8V444.13H64.17v3.94c0,7-1.3,8.7-4.36,8.7h-.4V455Z"/><path class="cls-4" d="M81.23,455.69h-.4A3.94,3.94,0,0,1,77.67,457,3.33,3.33,0,0,1,74,453.75c0-1.62,1-3.34,3.86-3.34h3.28V450c0-1.22-.72-2.1-2.46-2.1-1.48,0-2.26.58-2.34,1.46h-1.7c.12-1.86,1.74-2.94,4-2.94,2.52,0,4.16,1.22,4.16,3.48v6.86h-1.6Zm-.06-3v-.9h-3c-1.64,0-2.42.7-2.42,1.88s.86,1.84,2.34,1.84A3,3,0,0,0,81.17,452.73Z"/><path class="cls-4" d="M94.19,454c0,1.82-1.28,2.76-3.56,2.76H85.45V446.69h5.22c2,0,3.18,1,3.18,2.54a2.15,2.15,0,0,1-1.28,2v.4A2.21,2.21,0,0,1,94.19,454Zm-7.06-3.14h3.38c1.22,0,1.64-.64,1.64-1.36s-.42-1.38-1.64-1.38H87.13Zm5.36,3c0-.84-.5-1.52-2-1.52h-3.4v3h3.4C92,455.33,92.49,454.69,92.49,453.83Z"/><path class="cls-4" d="M102.75,455.69h-.4A3.94,3.94,0,0,1,99.19,457a3.33,3.33,0,0,1-3.64-3.28c0-1.62,1-3.34,3.86-3.34h3.28V450c0-1.22-.72-2.1-2.46-2.1-1.48,0-2.26.58-2.34,1.46h-1.7c.12-1.86,1.74-2.94,4-2.94,2.52,0,4.16,1.22,4.16,3.48v6.86h-1.6Zm-.06-3v-.9h-3c-1.64,0-2.42.7-2.42,1.88s.86,1.84,2.34,1.84A3,3,0,0,0,102.69,452.73Z"/><path class="cls-4" d="M114.25,456.77v-4.44h-5.58v4.44H107V446.69h1.7v4.16h5.58v-4.16H116v10.08Z"/><path class="cls-4" d="M129.57,455.29v4.34h-1.66v-2.86h-8.72v2.86h-1.66v-4.34h1.34a13.6,13.6,0,0,0,1.28-5.84v-2.76h7.56v8.6ZM126,448.17h-4.28v1.28a14.06,14.06,0,0,1-1.14,5.84H126Z"/><path class="cls-4" d="M140.57,451.73c0,3-1.82,5.3-5,5.3s-5-2.3-5-5.3,1.8-5.3,5-5.3S140.57,448.73,140.57,451.73Zm-1.7,0c0-2-1-3.82-3.26-3.82s-3.26,1.86-3.26,3.82,1,3.82,3.26,3.82S138.87,453.71,138.87,451.73Z"/><path class="cls-4" d="M151.47,454c0,1.82-1.28,2.76-3.56,2.76h-5.18V446.69H148c2,0,3.18,1,3.18,2.54a2.15,2.15,0,0,1-1.28,2v.4A2.21,2.21,0,0,1,151.47,454Zm-7.06-3.14h3.38c1.22,0,1.64-.64,1.64-1.36s-.42-1.38-1.64-1.38h-3.38Zm5.36,3c0-.84-.5-1.52-2-1.52h-3.4v3h3.4C149.27,455.33,149.77,454.69,149.77,453.83Z"/><path class="cls-4" d="M155.31,446.69v3.36h2.78c2.44,0,3.8,1.26,3.8,3.34s-1.36,3.38-3.8,3.38h-4.48V446.69Zm0,8.6h2.54c1.76,0,2.34-.74,2.34-1.9s-.58-1.9-2.34-1.9h-2.54Zm9.9-8.6v10.08h-1.7V446.69Z"/><path class="cls-4" d="M168,456.77V446.69h1.66v7.8h.4l4.5-7.8H177v10.08h-1.66V449h-.4l-4.58,7.8Zm7.58-14.48a3.12,3.12,0,0,1-6.22,0h1.38a1.73,1.73,0,0,0,3.46,0Z"/><path class="cls-5" d="M466.06,429.06h3.55V417.73h-.38L466,419.85v-2l3.16-2.11h2.29v13.29h3.27v1.66h-8.7Z"/><path class="cls-5" d="M485.35,415.77v2.05l-3.74,3.29v.41a4.25,4.25,0,0,1,4.45,4.55c0,3.09-2.22,4.93-5.28,4.93s-5.08-1.92-5.23-4.47h1.88a3.4,3.4,0,0,0,6.75-.46c0-1.95-1.2-3.19-3.38-3.19a6,6,0,0,0-1.3.13v-1.94l3.65-3.25v-.43h-6.53v-1.62Z"/><path class="cls-5" d="M487.36,420.62a4.88,4.88,0,0,1,5.08-5.15c3.19,0,5.49,2,5.49,7.35,0,4.57-1.77,8.18-5.68,8.18a4.27,4.27,0,0,1-4.49-3.57h1.86a2.45,2.45,0,0,0,2.63,1.9c2.37,0,3.76-2.05,3.87-5.32h-.43a4.51,4.51,0,0,1-3.52,1.48A4.69,4.69,0,0,1,487.36,420.62Zm1.88-.09a3.26,3.26,0,1,0,6.51,0,3.17,3.17,0,0,0-3.29-3.41A3.08,3.08,0,0,0,489.24,420.53Z"/><path class="cls-6" d="M466.06,452.88h3.55V441.56h-.38L466,443.67v-2l3.16-2.12h2.29v13.29h3.27v1.67h-8.7Z"/><path class="cls-6" d="M485.35,439.59v2.05l-3.74,3.29v.41a4.25,4.25,0,0,1,4.45,4.55c0,3.1-2.22,4.93-5.28,4.93s-5.08-1.92-5.23-4.46h1.88a3.4,3.4,0,0,0,6.75-.47c0-1.95-1.2-3.18-3.38-3.18a6.06,6.06,0,0,0-1.3.12v-1.94l3.65-3.25v-.42h-6.53v-1.63Z"/><path class="cls-6" d="M487.36,444.44a4.88,4.88,0,0,1,5.08-5.15c3.19,0,5.49,2,5.49,7.35,0,4.57-1.77,8.18-5.68,8.18a4.27,4.27,0,0,1-4.49-3.56h1.86a2.46,2.46,0,0,0,2.63,1.9c2.37,0,3.76-2.05,3.87-5.32h-.43a4.54,4.54,0,0,1-3.52,1.47A4.69,4.69,0,0,1,487.36,444.44Zm1.88-.08a3.26,3.26,0,1,0,6.51,0,3.17,3.17,0,0,0-3.29-3.42A3.08,3.08,0,0,0,489.24,444.36Z"/><path class="cls-2" d="M32.55,392.72c2.92,0,4.16-1.67,4.16-11.25v-8.13H51.25v22.14H48.46V375.89H39.34V382c0,10.89-2,13.49-6.76,13.49H32v-2.76Z"/><path class="cls-2" d="M58.69,373.34V392.1h.62l10.42-18.76H74v22.14H71.31V376.72h-.62L60.27,395.48H56V373.34Z"/><path class="cls-2" d="M78.74,373.34h4.59L89,383.73h.62l5.58-10.39h4.62v22.14H97.1v-19h-.62L90.71,387H87.86l-5.77-10.51h-.62v19H78.74Z"/><path class="cls-2" d="M124.07,384.41c0,6.39-3.6,11.48-10.33,11.48s-10.32-5.09-10.32-11.48,3.57-11.47,10.32-11.47S124.07,378,124.07,384.41Zm-2.82,0c0-4.65-2.23-8.93-7.51-8.93s-7.5,4.28-7.5,8.93,2.23,8.93,7.5,8.93S121.25,389.06,121.25,384.41Z"/><path class="cls-2" d="M145.61,373.34v22.14h-2.79V385.37H130.45v10.11h-2.79V373.34h2.79v9.43h12.37v-9.43Z"/><path class="cls-2" d="M163,388.69h-9.7l-2.3,6.79h-2.85l7.66-22.14h4.71l7.69,22.14h-2.91Zm-8.87-2.54h8l-3.38-9.95h-1.24Z"/><path class="cls-2" d="M190.53,392.94v8h-2.76v-5.43H171v5.43h-2.76v-8h2.29c1.43-3,2.79-7.75,2.79-15.13v-4.47h14v19.6Zm-5.95-17.05H176v2.38c0,6.86-1.21,11.75-2.48,14.67h11.07Z"/><path class="cls-2" d="M193.26,395.48V373.34h2.79v8.47h6c4.9,0,7.69,2.57,7.69,6.82s-2.79,6.85-7.69,6.85Zm13.64-6.85c0-2.67-1.43-4.34-5.37-4.34h-5.48V393h5.48C205.47,393,206.9,391.3,206.9,388.63Zm8.59-15.29v22.14H212.7V373.34Z"/></svg>